%
M48
M72
T01C0.01500
T02C0.02756
T03C0.03937
T04C0.04000
T05C0.12000
%
T01
X40164Y10814
X46300Y21300
X46300Y26300
X51300Y31300
X66300Y31300
X71511Y31740
X81300Y31300
X86300Y36300
X91300Y36300
X96300Y36300
X126300Y31300
X135158Y49164
X132079Y62079
X142622Y68750
X153800Y70800
X171300Y78911
X191300Y86300
X201300Y76300
X206300Y71300
X190276Y64292
X206300Y56300
X206173Y52164
X180800Y51758
X176300Y36300
X154300Y49300
X113344Y64553
X91300Y66300
X111536Y80040
X124300Y93800
X132300Y98300
X135889Y86687
X147300Y93800
X166300Y96300
X181483Y99310
X182560Y106300
X184486Y111969
X180731Y116869
X195618Y118429
X206400Y114554
X205300Y131300
X198150Y135158
X190700Y142046
X172538Y150753
X164554Y150700
X166300Y156300
X165767Y161878
X169902Y161905
X176244Y156356
X182622Y162176
X201300Y163830
X210287Y166365
X241199Y156655
X248859Y154758
X251800Y143540
X231300Y141060
X234800Y130300
X237740Y118363
X257844Y131744
X271300Y136300
X281300Y141300
X286300Y136300
X301300Y131300
X306300Y136300
X326300Y136300
X331373Y129200
X336337Y129164
X341324Y131190
X346300Y129018
X344625Y118698
X344881Y114381
X336300Y111300
X336689Y118800
X321275Y118277
X314727Y117974
X286300Y106300
X286300Y101300
X271300Y106300
X300513Y95788
X326300Y91300
X340100Y76404
X346300Y81300
X359174Y86300
X374605Y95822
X392994Y91190
X392666Y86300
X383721Y81300
X378213Y81321
X380708Y76279
X386300Y76300
X390277Y77323
X360049Y59700
X361952Y52445
X366300Y46300
X388800Y50509
X345888Y66448
X336300Y66300
X326300Y36300
X341019Y29234
X356300Y12767
X358819Y9665
X364855Y10455
X461300Y11300
X511300Y30040
X486300Y41300
X499146Y52845
X536733Y80040
X501957Y96337
X484172Y87162
X471337Y91884
X480967Y96337
X455944Y91384
X450150Y84871
X390277Y119686
X386604Y116427
X383911Y121300
X381300Y126300
X378328Y122819
X364624Y121190
X358751Y119549
X356300Y116300
X357837Y105020
X345909Y105962
X401300Y126300
X397840Y156584
X394005Y161361
X387755Y166300
X387548Y172019
X383018Y171533
X381300Y176300
X380732Y181237
X381300Y191300
X391300Y201300
X410749Y190276
X416300Y201300
X441300Y221300
X431325Y226528
X428453Y231452
X425655Y233968
X421199Y223404
X391300Y236300
X341300Y221300
X335442Y226256
X328800Y223800
X321763Y237580
X311716Y236919
X300902Y239792
X298407Y242618
X300860Y245806
X296060Y247300
X288960Y251289
X296989Y256800
X313968Y261324
X316300Y270040
X331300Y266300
X301300Y276300
X283911Y271300
X271300Y273454
X261300Y266300
X256630Y262264
X246300Y256300
X244300Y249300
X236300Y246300
X211325Y260158
X201300Y256300
X197244Y244930
X186300Y241300
X181300Y241300
X176345Y236917
X191353Y236688
X196300Y226300
X201300Y221300
X192548Y209813
X183859Y204867
X181519Y214582
X166300Y206300
X156300Y206300
X150906Y206024
X156300Y196300
X169019Y183607
X176300Y181300
X191335Y194529
X211122Y197409
X221300Y201560
X226300Y201300
X246300Y194510
X251300Y201300
X256300Y221300
X286300Y231300
X296782Y229095
X271300Y241300
X225204Y263930
X231300Y271300
X226300Y276300
X216800Y276560
X203800Y285040
X186300Y291300
X176300Y301300
X197680Y301300
X176300Y276300
X187461Y266905
X192122Y267122
X179554Y244956
X151300Y251300
X141389Y260996
X136300Y266300
X130554Y257046
X116300Y246300
X126300Y241300
X131300Y241300
X146300Y241300
X146265Y236494
X141300Y231300
X136300Y231300
X126342Y231300
X151226Y225110
X129536Y214908
X106300Y206300
X91300Y206300
X78541Y195524
X76821Y190435
X76375Y186270
X81300Y181300
X67580Y189763
X63095Y191474
X56300Y186300
X48189Y182040
X46300Y176300
X41300Y171300
X46300Y161688
X51300Y191300
X41300Y206300
X56300Y231300
X71300Y251300
X101300Y226300
X113236Y181683
X132907Y166654
X141300Y176300
X111300Y156300
X139800Y155040
X140659Y146476
X146300Y141060
X171300Y136300
X141125Y116869
X132560Y112800
X117021Y103662
X111536Y111536
X92420Y116215
X87810Y123042
X83770Y118830
X55772Y121370
X56300Y126300
X36300Y116300
X30478Y116300
X43911Y106300
X48852Y101122
X51300Y110952
X81300Y96300
X46385Y89497
X41282Y87768
X36300Y70287
X36300Y56300
X43429Y46406
X51300Y46300
X67580Y39763
X53689Y56300
X86300Y11789
X91406Y10095
X96237Y10328
X229646Y72166
X246300Y86300
X261143Y72166
X212400Y141816
X212800Y147674
X246300Y166300
X241263Y179547
X285691Y181351
X286300Y176300
X291300Y166300
X296300Y156040
X331300Y161300
X342949Y161067
X345620Y170300
X338911Y176300
X341300Y181300
X346300Y189311
X340900Y192267
X346300Y197045
X359174Y191300
X354330Y187533
X329946Y183419
X316300Y181300
X286300Y196300
X321300Y206300
X366684Y171684
X356300Y161300
X343689Y151300
X456300Y193911
X465867Y190276
X476300Y198607
X481554Y194702
X481615Y182402
X471300Y177798
X477286Y171190
X471300Y166300
X491300Y151300
X501300Y126300
X465867Y221772
X457993Y237520
X513111Y229646
X515423Y225971
X544607Y253269
X513111Y284765
X536300Y291300
X536733Y308387
X371300Y301300
X371300Y286300
X346300Y301300
X313197Y301300
X266300Y301300
X250166Y281700
X246335Y278906
X246913Y270553
X242580Y270804
X255447Y273485
X221300Y226300
X181300Y227842
X131300Y281300
X141300Y286300
X546300Y16300
X521042Y11300
T02
X493424Y298359
X485550Y298359
X477678Y298347
X469804Y298347
X461930Y298347
X454056Y298347
X431917Y298529
X424043Y298529
X416169Y298529
X408295Y298529
X11405Y279250
X11405Y271376
X11405Y263502
X13446Y208957
X13446Y201083
X13446Y193209
X11135Y104174
X11135Y96300
X11135Y88426
T03
X451300Y46300
X461300Y46300
X471300Y46300
X481300Y46300
X491300Y46300
X501300Y46300
X511300Y46300
X521300Y46300
X531300Y46300
X541300Y46300
X541300Y36300
X531300Y36300
X521300Y36300
X511300Y36300
X501300Y36300
X491300Y36300
X481300Y36300
X471300Y36300
X461300Y36300
X451300Y36300
X451300Y206300
X461300Y206300
X471300Y206300
X481300Y206300
X491300Y206300
X501300Y206300
X511300Y206300
X521300Y206300
X531300Y206300
X541300Y206300
X541300Y216300
X531300Y216300
X521300Y216300
X511300Y216300
X501300Y216300
X491300Y216300
X481300Y216300
X471300Y216300
X461300Y216300
X451300Y216300
T04
X29614Y11526
X76300Y16300
X15086Y55472
X15936Y70633
X28709Y130889
X28800Y152800
X28436Y176256
X41300Y196300
X26300Y231300
X51300Y251300
X81300Y246300
X82670Y261300
X66300Y271300
X106300Y291300
X126300Y286300
X146300Y296300
X116300Y271300
X166300Y246300
X266300Y291300
X281300Y286300
X391300Y296300
X391300Y246300
X406300Y246300
X421300Y246300
X436300Y246300
X451300Y246300
X285552Y46457
X242118Y41638
T05
X395287Y23176
X532187Y166143
X487835Y249780
X44795Y296040
X21939Y35818
M30
