G75*
%MOIN*%
%OFA0B0*%
%FSLAX25Y25*%
%IPPOS*%
%LPD*%
%AMOC8*
5,1,8,0,0,1.08239X$1,22.5*
%
%ADD10C,0.00000*%
%ADD11C,0.00600*%
%ADD12C,0.00300*%
%ADD13C,0.00800*%
%ADD14C,0.01682*%
%ADD15C,0.00200*%
%ADD16C,0.00100*%
%ADD17C,0.00500*%
%ADD18C,0.02000*%
%ADD19C,0.00400*%
D10*
X0001300Y0001300D02*
X0001300Y0316261D01*
X0560001Y0316261D01*
X0560001Y0001300D01*
X0001300Y0001300D01*
D11*
X0006104Y0017852D02*
X0006972Y0017852D01*
X0007405Y0018285D01*
X0007405Y0018719D01*
X0006972Y0019153D01*
X0005670Y0019153D01*
X0005670Y0018285D01*
X0006104Y0017852D01*
X0005670Y0019153D02*
X0006538Y0020020D01*
X0007405Y0020454D01*
X0008617Y0020020D02*
X0009051Y0020454D01*
X0009918Y0020454D01*
X0010352Y0020020D01*
X0008617Y0018285D01*
X0009051Y0017852D01*
X0009918Y0017852D01*
X0010352Y0018285D01*
X0010352Y0020020D01*
X0011563Y0020454D02*
X0011563Y0017852D01*
X0011563Y0019153D02*
X0013298Y0019153D01*
X0013298Y0020454D02*
X0013298Y0017852D01*
X0014510Y0017852D02*
X0016245Y0017852D01*
X0017457Y0017852D02*
X0017457Y0020454D01*
X0018758Y0020454D01*
X0019191Y0020020D01*
X0019191Y0019153D01*
X0018758Y0018719D01*
X0017457Y0018719D01*
X0016245Y0020020D02*
X0014510Y0018285D01*
X0014510Y0017852D01*
X0014510Y0020454D02*
X0016245Y0020454D01*
X0016245Y0020020D01*
X0020403Y0020454D02*
X0020403Y0017852D01*
X0020403Y0018719D02*
X0021704Y0018719D01*
X0022138Y0019153D01*
X0022138Y0020020D01*
X0021704Y0020454D01*
X0020403Y0020454D01*
X0021270Y0018719D02*
X0022138Y0017852D01*
X0023350Y0017852D02*
X0023350Y0020454D01*
X0025084Y0020454D01*
X0026296Y0019586D02*
X0027163Y0020454D01*
X0028031Y0019586D01*
X0028031Y0017852D01*
X0029243Y0017852D02*
X0029243Y0020454D01*
X0030110Y0019586D01*
X0030977Y0020454D01*
X0030977Y0017852D01*
X0032189Y0017852D02*
X0032189Y0020454D01*
X0033490Y0020454D01*
X0033924Y0020020D01*
X0033924Y0019153D01*
X0033490Y0018719D01*
X0032189Y0018719D01*
X0035136Y0020454D02*
X0036870Y0020454D01*
X0036003Y0020454D02*
X0036003Y0017852D01*
X0038082Y0017852D02*
X0039817Y0017852D01*
X0041029Y0018285D02*
X0041462Y0017852D01*
X0042330Y0017852D01*
X0042763Y0018285D01*
X0042763Y0018719D01*
X0042330Y0019153D01*
X0041462Y0019153D01*
X0041029Y0019586D01*
X0041029Y0020020D01*
X0041462Y0020454D01*
X0042330Y0020454D01*
X0042763Y0020020D01*
X0043975Y0020454D02*
X0045710Y0020454D01*
X0044843Y0020454D02*
X0044843Y0017852D01*
X0039817Y0020454D02*
X0038082Y0020454D01*
X0038082Y0017852D01*
X0038082Y0019153D02*
X0038950Y0019153D01*
X0028031Y0019153D02*
X0026296Y0019153D01*
X0026296Y0019586D02*
X0026296Y0017852D01*
X0025084Y0017852D02*
X0023350Y0017852D01*
X0023350Y0019153D02*
X0024217Y0019153D01*
X0008617Y0018285D02*
X0008617Y0020020D01*
X0059110Y0008202D02*
X0060411Y0008202D01*
X0060845Y0007768D01*
X0060845Y0007335D01*
X0060411Y0006901D01*
X0059544Y0006901D01*
X0059110Y0007335D01*
X0059110Y0008202D01*
X0059977Y0009069D01*
X0060845Y0009503D01*
X0062057Y0009069D02*
X0062490Y0009503D01*
X0063358Y0009503D01*
X0063791Y0009069D01*
X0062057Y0007335D01*
X0062490Y0006901D01*
X0063358Y0006901D01*
X0063791Y0007335D01*
X0063791Y0009069D01*
X0065003Y0009503D02*
X0065003Y0006901D01*
X0065003Y0008202D02*
X0066738Y0008202D01*
X0066738Y0009503D02*
X0066738Y0006901D01*
X0067950Y0006901D02*
X0069684Y0006901D01*
X0070896Y0006901D02*
X0071763Y0006901D01*
X0071330Y0006901D02*
X0071330Y0009503D01*
X0071763Y0009503D02*
X0070896Y0009503D01*
X0069684Y0009503D02*
X0069684Y0009069D01*
X0067950Y0007335D01*
X0067950Y0006901D01*
X0067950Y0009503D02*
X0069684Y0009503D01*
X0072860Y0009503D02*
X0074595Y0006901D01*
X0074595Y0009503D01*
X0075807Y0009503D02*
X0077542Y0009503D01*
X0076674Y0009503D02*
X0076674Y0006901D01*
X0078753Y0006901D02*
X0080488Y0006901D01*
X0081700Y0007335D02*
X0082134Y0006901D01*
X0083001Y0006901D01*
X0083435Y0007335D01*
X0083435Y0007768D01*
X0083001Y0008202D01*
X0082134Y0008202D01*
X0081700Y0008636D01*
X0081700Y0009069D01*
X0082134Y0009503D01*
X0083001Y0009503D01*
X0083435Y0009069D01*
X0084647Y0009503D02*
X0086381Y0009503D01*
X0085514Y0009503D02*
X0085514Y0006901D01*
X0080488Y0009503D02*
X0078753Y0009503D01*
X0078753Y0006901D01*
X0078753Y0008202D02*
X0079621Y0008202D01*
X0072860Y0006901D02*
X0072860Y0009503D01*
X0062057Y0009069D02*
X0062057Y0007335D01*
X0122767Y0058949D02*
X0122767Y0074749D01*
X0149767Y0074749D02*
X0149767Y0058949D01*
X0192313Y0061200D02*
X0210287Y0061200D01*
X0210287Y0041400D02*
X0192313Y0041400D01*
X0228038Y0035899D02*
X0228038Y0033297D01*
X0229339Y0033297D01*
X0229773Y0033730D01*
X0229773Y0034164D01*
X0229339Y0034598D01*
X0228038Y0034598D01*
X0228038Y0035899D02*
X0229339Y0035899D01*
X0229773Y0035465D01*
X0229773Y0035031D01*
X0229339Y0034598D01*
X0230985Y0034164D02*
X0232286Y0034164D01*
X0232720Y0034598D01*
X0232720Y0035465D01*
X0232286Y0035899D01*
X0230985Y0035899D01*
X0230985Y0033297D01*
X0233931Y0033297D02*
X0233931Y0035899D01*
X0235666Y0035899D01*
X0234799Y0034598D02*
X0233931Y0034598D01*
X0236878Y0034598D02*
X0238179Y0034598D01*
X0238613Y0034164D01*
X0238613Y0033730D01*
X0238179Y0033297D01*
X0237311Y0033297D01*
X0236878Y0033730D01*
X0236878Y0034598D01*
X0237745Y0035465D01*
X0238613Y0035899D01*
X0239824Y0035465D02*
X0239824Y0033730D01*
X0240258Y0033297D01*
X0241125Y0033297D01*
X0241559Y0033730D01*
X0241559Y0034598D01*
X0240692Y0034598D01*
X0241559Y0035465D02*
X0241125Y0035899D01*
X0240258Y0035899D01*
X0239824Y0035465D01*
X0242771Y0035465D02*
X0242771Y0035031D01*
X0243204Y0034598D01*
X0244072Y0034598D01*
X0244506Y0034164D01*
X0244506Y0033730D01*
X0244072Y0033297D01*
X0243204Y0033297D01*
X0242771Y0033730D01*
X0242771Y0035465D02*
X0243204Y0035899D01*
X0244072Y0035899D01*
X0244506Y0035465D01*
X0245717Y0035031D02*
X0246585Y0035899D01*
X0246585Y0033297D01*
X0247452Y0033297D02*
X0245717Y0033297D01*
X0249531Y0033297D02*
X0249531Y0035899D01*
X0248664Y0035899D02*
X0250399Y0035899D01*
X0251610Y0035899D02*
X0251610Y0033297D01*
X0253345Y0033297D01*
X0254557Y0033730D02*
X0254991Y0033297D01*
X0255858Y0033297D01*
X0256292Y0033730D01*
X0256292Y0034164D01*
X0255858Y0034598D01*
X0254991Y0034598D01*
X0254557Y0035031D01*
X0254557Y0035465D01*
X0254991Y0035899D01*
X0255858Y0035899D01*
X0256292Y0035465D01*
X0257503Y0035899D02*
X0259238Y0035899D01*
X0258371Y0035899D02*
X0258371Y0033297D01*
X0253345Y0035899D02*
X0251610Y0035899D01*
X0251610Y0034598D02*
X0252478Y0034598D01*
X0271453Y0052754D02*
X0272754Y0052754D01*
X0273188Y0053187D01*
X0273188Y0053621D01*
X0272754Y0054055D01*
X0271453Y0054055D01*
X0271453Y0055356D02*
X0272754Y0055356D01*
X0273188Y0054922D01*
X0273188Y0054488D01*
X0272754Y0054055D01*
X0274399Y0053621D02*
X0275701Y0053621D01*
X0276134Y0054055D01*
X0276134Y0054922D01*
X0275701Y0055356D01*
X0274399Y0055356D01*
X0274399Y0052754D01*
X0271453Y0052754D02*
X0271453Y0055356D01*
X0277346Y0055356D02*
X0277346Y0052754D01*
X0277346Y0054055D02*
X0278213Y0054055D01*
X0277346Y0055356D02*
X0279081Y0055356D01*
X0280293Y0054922D02*
X0280726Y0055356D01*
X0281594Y0055356D01*
X0282027Y0054922D01*
X0282027Y0054488D01*
X0280293Y0052754D01*
X0282027Y0052754D01*
X0283239Y0053187D02*
X0283673Y0052754D01*
X0284540Y0052754D01*
X0284974Y0053187D01*
X0284974Y0054055D01*
X0284106Y0054055D01*
X0283239Y0054922D02*
X0283239Y0053187D01*
X0283239Y0054922D02*
X0283673Y0055356D01*
X0284540Y0055356D01*
X0284974Y0054922D01*
X0286186Y0054922D02*
X0286186Y0054488D01*
X0286619Y0054055D01*
X0287487Y0054055D01*
X0287920Y0053621D01*
X0287920Y0053187D01*
X0287487Y0052754D01*
X0286619Y0052754D01*
X0286186Y0053187D01*
X0286186Y0054922D02*
X0286619Y0055356D01*
X0287487Y0055356D01*
X0287920Y0054922D01*
X0289132Y0054922D02*
X0289566Y0055356D01*
X0290433Y0055356D01*
X0290867Y0054922D01*
X0290867Y0054488D01*
X0289132Y0052754D01*
X0290867Y0052754D01*
X0292946Y0052754D02*
X0292946Y0055356D01*
X0292079Y0055356D02*
X0293813Y0055356D01*
X0295025Y0055356D02*
X0295025Y0052754D01*
X0296760Y0052754D01*
X0297972Y0053187D02*
X0298405Y0052754D01*
X0299273Y0052754D01*
X0299706Y0053187D01*
X0299706Y0053621D01*
X0299273Y0054055D01*
X0298405Y0054055D01*
X0297972Y0054488D01*
X0297972Y0054922D01*
X0298405Y0055356D01*
X0299273Y0055356D01*
X0299706Y0054922D01*
X0300918Y0055356D02*
X0302653Y0055356D01*
X0301786Y0055356D02*
X0301786Y0052754D01*
X0296760Y0055356D02*
X0295025Y0055356D01*
X0295025Y0054055D02*
X0295893Y0054055D01*
X0288400Y0107800D02*
X0304200Y0107800D01*
X0304200Y0134800D02*
X0288400Y0134800D01*
X0256200Y0152313D02*
X0256200Y0170287D01*
X0236400Y0170287D02*
X0236400Y0152313D01*
X0209200Y0139800D02*
X0193400Y0139800D01*
X0189800Y0148400D02*
X0189800Y0164200D01*
X0162800Y0164200D02*
X0162800Y0148400D01*
X0193400Y0112800D02*
X0209200Y0112800D01*
X0063004Y0202100D02*
X0063004Y0204702D01*
X0063871Y0204702D02*
X0062136Y0204702D01*
X0060925Y0204269D02*
X0060491Y0204702D01*
X0059624Y0204702D01*
X0059190Y0204269D01*
X0059190Y0203835D01*
X0059624Y0203401D01*
X0060491Y0203401D01*
X0060925Y0202967D01*
X0060925Y0202534D01*
X0060491Y0202100D01*
X0059624Y0202100D01*
X0059190Y0202534D01*
X0057978Y0202100D02*
X0056243Y0202100D01*
X0056243Y0204702D01*
X0057978Y0204702D01*
X0057111Y0203401D02*
X0056243Y0203401D01*
X0055032Y0204702D02*
X0053297Y0204702D01*
X0054164Y0204702D02*
X0054164Y0202100D01*
X0052085Y0202100D02*
X0052085Y0204702D01*
X0050350Y0204702D02*
X0050350Y0202100D01*
X0049253Y0202100D02*
X0048386Y0202100D01*
X0048820Y0202100D02*
X0048820Y0204702D01*
X0049253Y0204702D02*
X0048386Y0204702D01*
X0050350Y0204702D02*
X0052085Y0202100D01*
X0047174Y0202100D02*
X0045440Y0202100D01*
X0046307Y0202100D02*
X0046307Y0204702D01*
X0045440Y0203835D01*
X0044228Y0204702D02*
X0042493Y0204702D01*
X0042493Y0202100D01*
X0042493Y0203401D02*
X0043360Y0203401D01*
X0041281Y0203401D02*
X0040848Y0202967D01*
X0039547Y0202967D01*
X0039547Y0202100D02*
X0039547Y0204702D01*
X0040848Y0204702D01*
X0041281Y0204269D01*
X0041281Y0203401D01*
X0038335Y0203401D02*
X0036600Y0203401D01*
X0036600Y0202100D02*
X0036600Y0204702D01*
X0038335Y0204702D02*
X0038335Y0202100D01*
X0029067Y0202269D02*
X0026465Y0202269D01*
X0026465Y0203480D02*
X0026465Y0204781D01*
X0026899Y0205215D01*
X0027766Y0205215D01*
X0028200Y0204781D01*
X0028200Y0203480D01*
X0029067Y0203480D02*
X0026465Y0203480D01*
X0029067Y0202269D02*
X0026465Y0200534D01*
X0029067Y0200534D01*
X0029067Y0199437D02*
X0029067Y0198569D01*
X0029067Y0199003D02*
X0026465Y0199003D01*
X0026465Y0198569D02*
X0026465Y0199437D01*
X0026465Y0196490D02*
X0029067Y0196490D01*
X0029067Y0195623D02*
X0029067Y0197358D01*
X0027332Y0195623D02*
X0026465Y0196490D01*
X0026899Y0194411D02*
X0026465Y0193977D01*
X0026465Y0193110D01*
X0026899Y0192676D01*
X0027332Y0192676D01*
X0027766Y0193110D01*
X0027766Y0193977D01*
X0028200Y0194411D01*
X0028634Y0194411D01*
X0029067Y0193977D01*
X0029067Y0193110D01*
X0028634Y0192676D01*
X0028634Y0206427D02*
X0026465Y0206427D01*
X0026465Y0208162D02*
X0028634Y0208162D01*
X0029067Y0207728D01*
X0029067Y0206860D01*
X0028634Y0206427D01*
X0026465Y0209373D02*
X0026465Y0211108D01*
X0026465Y0210241D02*
X0029067Y0210241D01*
X0027493Y0237100D02*
X0027493Y0239702D01*
X0029228Y0239702D01*
X0030440Y0239702D02*
X0030440Y0238401D01*
X0031307Y0238835D01*
X0031741Y0238835D01*
X0032174Y0238401D01*
X0032174Y0237534D01*
X0031741Y0237100D01*
X0030873Y0237100D01*
X0030440Y0237534D01*
X0030440Y0239702D02*
X0032174Y0239702D01*
X0033386Y0239702D02*
X0034687Y0239702D01*
X0035121Y0239269D01*
X0035121Y0238401D01*
X0034687Y0237967D01*
X0033386Y0237967D01*
X0033386Y0237100D02*
X0033386Y0239702D01*
X0036333Y0239702D02*
X0036333Y0237100D01*
X0036333Y0237967D02*
X0037634Y0237967D01*
X0038067Y0238401D01*
X0038067Y0239269D01*
X0037634Y0239702D01*
X0036333Y0239702D01*
X0037200Y0237967D02*
X0038067Y0237100D01*
X0039279Y0237100D02*
X0041014Y0237100D01*
X0042226Y0237100D02*
X0042226Y0238835D01*
X0043093Y0239702D01*
X0043960Y0238835D01*
X0043960Y0237100D01*
X0045172Y0237100D02*
X0045172Y0239702D01*
X0046040Y0238835D01*
X0046907Y0239702D01*
X0046907Y0237100D01*
X0048119Y0237100D02*
X0048119Y0239702D01*
X0049420Y0239702D01*
X0049853Y0239269D01*
X0049853Y0238401D01*
X0049420Y0237967D01*
X0048119Y0237967D01*
X0051065Y0239702D02*
X0052800Y0239702D01*
X0051933Y0239702D02*
X0051933Y0237100D01*
X0054012Y0237100D02*
X0055747Y0237100D01*
X0056958Y0237534D02*
X0057392Y0237100D01*
X0058259Y0237100D01*
X0058693Y0237534D01*
X0058693Y0237967D01*
X0058259Y0238401D01*
X0057392Y0238401D01*
X0056958Y0238835D01*
X0056958Y0239269D01*
X0057392Y0239702D01*
X0058259Y0239702D01*
X0058693Y0239269D01*
X0059905Y0239702D02*
X0061640Y0239702D01*
X0060772Y0239702D02*
X0060772Y0237100D01*
X0055747Y0239702D02*
X0054012Y0239702D01*
X0054012Y0237100D01*
X0054012Y0238401D02*
X0054879Y0238401D01*
X0043960Y0238401D02*
X0042226Y0238401D01*
X0041014Y0239702D02*
X0039279Y0239702D01*
X0039279Y0237100D01*
X0039279Y0238401D02*
X0040147Y0238401D01*
X0028360Y0238401D02*
X0027493Y0238401D01*
X0026281Y0238401D02*
X0025848Y0237967D01*
X0024547Y0237967D01*
X0024547Y0237100D02*
X0024547Y0239702D01*
X0025848Y0239702D01*
X0026281Y0239269D01*
X0026281Y0238401D01*
X0023335Y0238401D02*
X0021600Y0238401D01*
X0021600Y0237100D02*
X0021600Y0239702D01*
X0023335Y0239702D02*
X0023335Y0237100D01*
X0046600Y0257100D02*
X0048335Y0257100D01*
X0049547Y0257100D02*
X0049547Y0259702D01*
X0050848Y0259702D01*
X0051281Y0259269D01*
X0051281Y0258401D01*
X0050848Y0257967D01*
X0049547Y0257967D01*
X0052493Y0258401D02*
X0053360Y0258401D01*
X0052493Y0257100D02*
X0052493Y0259702D01*
X0054228Y0259702D01*
X0055440Y0259702D02*
X0055440Y0258401D01*
X0056307Y0258835D01*
X0056741Y0258835D01*
X0057174Y0258401D01*
X0057174Y0257534D01*
X0056741Y0257100D01*
X0055873Y0257100D01*
X0055440Y0257534D01*
X0055440Y0259702D02*
X0057174Y0259702D01*
X0058386Y0259702D02*
X0059253Y0259702D01*
X0058820Y0259702D02*
X0058820Y0257100D01*
X0059253Y0257100D02*
X0058386Y0257100D01*
X0060350Y0257100D02*
X0060350Y0259702D01*
X0062085Y0257100D01*
X0062085Y0259702D01*
X0063297Y0259702D02*
X0065032Y0259702D01*
X0064164Y0259702D02*
X0064164Y0257100D01*
X0066243Y0257100D02*
X0067978Y0257100D01*
X0069190Y0257534D02*
X0069624Y0257100D01*
X0070491Y0257100D01*
X0070925Y0257534D01*
X0070925Y0257967D01*
X0070491Y0258401D01*
X0069624Y0258401D01*
X0069190Y0258835D01*
X0069190Y0259269D01*
X0069624Y0259702D01*
X0070491Y0259702D01*
X0070925Y0259269D01*
X0072136Y0259702D02*
X0073871Y0259702D01*
X0073004Y0259702D02*
X0073004Y0257100D01*
X0076600Y0254702D02*
X0076600Y0252100D01*
X0076600Y0253401D02*
X0078335Y0253401D01*
X0079547Y0252967D02*
X0080848Y0252967D01*
X0081281Y0253401D01*
X0081281Y0254269D01*
X0080848Y0254702D01*
X0079547Y0254702D01*
X0079547Y0252100D01*
X0078335Y0252100D02*
X0078335Y0254702D01*
X0082493Y0254702D02*
X0082493Y0252100D01*
X0082493Y0253401D02*
X0083360Y0253401D01*
X0082493Y0254702D02*
X0084228Y0254702D01*
X0085440Y0254702D02*
X0085440Y0253401D01*
X0086307Y0253835D01*
X0086741Y0253835D01*
X0087174Y0253401D01*
X0087174Y0252534D01*
X0086741Y0252100D01*
X0085873Y0252100D01*
X0085440Y0252534D01*
X0085440Y0254702D02*
X0087174Y0254702D01*
X0088386Y0254702D02*
X0089253Y0254702D01*
X0088820Y0254702D02*
X0088820Y0252100D01*
X0089253Y0252100D02*
X0088386Y0252100D01*
X0090350Y0252100D02*
X0090350Y0254702D01*
X0092085Y0252100D01*
X0092085Y0254702D01*
X0093297Y0254702D02*
X0095032Y0254702D01*
X0094164Y0254702D02*
X0094164Y0252100D01*
X0096243Y0252100D02*
X0096243Y0254702D01*
X0097978Y0254702D01*
X0099190Y0254269D02*
X0099190Y0253835D01*
X0099624Y0253401D01*
X0100491Y0253401D01*
X0100925Y0252967D01*
X0100925Y0252534D01*
X0100491Y0252100D01*
X0099624Y0252100D01*
X0099190Y0252534D01*
X0097978Y0252100D02*
X0096243Y0252100D01*
X0096243Y0253401D02*
X0097111Y0253401D01*
X0099190Y0254269D02*
X0099624Y0254702D01*
X0100491Y0254702D01*
X0100925Y0254269D01*
X0102136Y0254702D02*
X0103871Y0254702D01*
X0103004Y0254702D02*
X0103004Y0252100D01*
X0122800Y0244200D02*
X0122800Y0228400D01*
X0149800Y0228400D02*
X0149800Y0244200D01*
X0171400Y0230287D02*
X0171400Y0212313D01*
X0191200Y0212313D02*
X0191200Y0230287D01*
X0177800Y0253400D02*
X0177800Y0269200D01*
X0155252Y0271302D02*
X0155252Y0273036D01*
X0155252Y0274248D02*
X0152650Y0274248D01*
X0152650Y0275549D01*
X0153084Y0275983D01*
X0153951Y0275983D01*
X0154385Y0275549D01*
X0154385Y0274248D01*
X0153951Y0277195D02*
X0153951Y0278062D01*
X0152650Y0277195D02*
X0152650Y0278929D01*
X0152650Y0280141D02*
X0153951Y0280141D01*
X0153517Y0281009D01*
X0153517Y0281442D01*
X0153951Y0281876D01*
X0154818Y0281876D01*
X0155252Y0281442D01*
X0155252Y0280575D01*
X0154818Y0280141D01*
X0152650Y0280141D02*
X0152650Y0281876D01*
X0152650Y0283088D02*
X0152650Y0284389D01*
X0153084Y0284823D01*
X0153951Y0284823D01*
X0154385Y0284389D01*
X0154385Y0283088D01*
X0155252Y0283088D02*
X0152650Y0283088D01*
X0152650Y0286034D02*
X0152650Y0287335D01*
X0153084Y0287769D01*
X0153951Y0287769D01*
X0154385Y0287335D01*
X0154385Y0286034D01*
X0155252Y0286034D02*
X0152650Y0286034D01*
X0154385Y0286902D02*
X0155252Y0287769D01*
X0155252Y0288981D02*
X0155252Y0290716D01*
X0155252Y0291927D02*
X0153517Y0291927D01*
X0152650Y0292795D01*
X0153517Y0293662D01*
X0155252Y0293662D01*
X0155252Y0294874D02*
X0152650Y0294874D01*
X0153517Y0295741D01*
X0152650Y0296609D01*
X0155252Y0296609D01*
X0155252Y0297820D02*
X0152650Y0297820D01*
X0152650Y0299121D01*
X0153084Y0299555D01*
X0153951Y0299555D01*
X0154385Y0299121D01*
X0154385Y0297820D01*
X0152650Y0300767D02*
X0152650Y0302502D01*
X0152650Y0301634D02*
X0155252Y0301634D01*
X0155252Y0303713D02*
X0155252Y0305448D01*
X0154818Y0306660D02*
X0155252Y0307094D01*
X0155252Y0307961D01*
X0154818Y0308395D01*
X0154385Y0308395D01*
X0153951Y0307961D01*
X0153951Y0307094D01*
X0153517Y0306660D01*
X0153084Y0306660D01*
X0152650Y0307094D01*
X0152650Y0307961D01*
X0153084Y0308395D01*
X0152650Y0309606D02*
X0152650Y0311341D01*
X0152650Y0310474D02*
X0155252Y0310474D01*
X0152650Y0305448D02*
X0152650Y0303713D01*
X0155252Y0303713D01*
X0153951Y0303713D02*
X0153951Y0304581D01*
X0153951Y0293662D02*
X0153951Y0291927D01*
X0152650Y0290716D02*
X0152650Y0288981D01*
X0155252Y0288981D01*
X0153951Y0288981D02*
X0153951Y0289848D01*
X0142800Y0279702D02*
X0141065Y0279702D01*
X0141933Y0279702D02*
X0141933Y0277100D01*
X0139853Y0277534D02*
X0139420Y0277100D01*
X0138552Y0277100D01*
X0138119Y0277534D01*
X0138552Y0278401D02*
X0139420Y0278401D01*
X0139853Y0277967D01*
X0139853Y0277534D01*
X0138552Y0278401D02*
X0138119Y0278835D01*
X0138119Y0279269D01*
X0138552Y0279702D01*
X0139420Y0279702D01*
X0139853Y0279269D01*
X0136907Y0279702D02*
X0135172Y0279702D01*
X0135172Y0277100D01*
X0136907Y0277100D01*
X0136040Y0278401D02*
X0135172Y0278401D01*
X0133960Y0279702D02*
X0132226Y0279702D01*
X0133093Y0279702D02*
X0133093Y0277100D01*
X0131014Y0277100D02*
X0129279Y0277100D01*
X0130147Y0277100D02*
X0130147Y0279702D01*
X0129279Y0278835D01*
X0128067Y0279269D02*
X0127634Y0279702D01*
X0126766Y0279702D01*
X0126333Y0279269D01*
X0126333Y0278835D01*
X0126766Y0278401D01*
X0127634Y0278401D01*
X0128067Y0277967D01*
X0128067Y0277534D01*
X0127634Y0277100D01*
X0126766Y0277100D01*
X0126333Y0277534D01*
X0125121Y0277534D02*
X0125121Y0278401D01*
X0124253Y0278401D01*
X0123386Y0277534D02*
X0123820Y0277100D01*
X0124687Y0277100D01*
X0125121Y0277534D01*
X0125121Y0279269D02*
X0124687Y0279702D01*
X0123820Y0279702D01*
X0123386Y0279269D01*
X0123386Y0277534D01*
X0122174Y0277100D02*
X0120440Y0277100D01*
X0122174Y0278835D01*
X0122174Y0279269D01*
X0121741Y0279702D01*
X0120873Y0279702D01*
X0120440Y0279269D01*
X0119228Y0279702D02*
X0117493Y0279702D01*
X0117493Y0277100D01*
X0117493Y0278401D02*
X0118360Y0278401D01*
X0116281Y0278401D02*
X0115848Y0277967D01*
X0114547Y0277967D01*
X0114547Y0277100D02*
X0114547Y0279702D01*
X0115848Y0279702D01*
X0116281Y0279269D01*
X0116281Y0278401D01*
X0117490Y0280692D02*
X0117490Y0281993D01*
X0117923Y0282427D01*
X0118357Y0282427D01*
X0118791Y0281993D01*
X0118791Y0280692D01*
X0120092Y0280692D02*
X0120092Y0281993D01*
X0119658Y0282427D01*
X0119224Y0282427D01*
X0118791Y0281993D01*
X0119224Y0283639D02*
X0119224Y0284940D01*
X0118791Y0285373D01*
X0117923Y0285373D01*
X0117490Y0284940D01*
X0117490Y0283639D01*
X0120092Y0283639D01*
X0120092Y0286585D02*
X0117490Y0286585D01*
X0117490Y0288320D01*
X0118791Y0287453D02*
X0118791Y0286585D01*
X0118791Y0289532D02*
X0117923Y0290399D01*
X0117490Y0291266D01*
X0117923Y0292478D02*
X0119658Y0292478D01*
X0120092Y0292912D01*
X0120092Y0293779D01*
X0119658Y0294213D01*
X0118791Y0294213D01*
X0118791Y0293346D01*
X0117923Y0294213D02*
X0117490Y0293779D01*
X0117490Y0292912D01*
X0117923Y0292478D01*
X0119224Y0291266D02*
X0118791Y0290833D01*
X0118791Y0289532D01*
X0119658Y0289532D01*
X0120092Y0289965D01*
X0120092Y0290833D01*
X0119658Y0291266D01*
X0119224Y0291266D01*
X0119658Y0295425D02*
X0120092Y0295858D01*
X0120092Y0296726D01*
X0119658Y0297159D01*
X0119224Y0297159D01*
X0118791Y0296726D01*
X0118791Y0295858D01*
X0118357Y0295425D01*
X0117923Y0295425D01*
X0117490Y0295858D01*
X0117490Y0296726D01*
X0117923Y0297159D01*
X0117923Y0298371D02*
X0117490Y0298805D01*
X0117490Y0299672D01*
X0117923Y0300106D01*
X0118357Y0300106D01*
X0118791Y0299672D01*
X0119224Y0300106D01*
X0119658Y0300106D01*
X0120092Y0299672D01*
X0120092Y0298805D01*
X0119658Y0298371D01*
X0118791Y0299239D02*
X0118791Y0299672D01*
X0117490Y0301318D02*
X0117490Y0303053D01*
X0117490Y0302185D02*
X0120092Y0302185D01*
X0120092Y0304264D02*
X0120092Y0305999D01*
X0119658Y0307211D02*
X0120092Y0307644D01*
X0120092Y0308512D01*
X0119658Y0308946D01*
X0119224Y0308946D01*
X0118791Y0308512D01*
X0118791Y0307644D01*
X0118357Y0307211D01*
X0117923Y0307211D01*
X0117490Y0307644D01*
X0117490Y0308512D01*
X0117923Y0308946D01*
X0117490Y0310157D02*
X0117490Y0311892D01*
X0117490Y0311025D02*
X0120092Y0311025D01*
X0117490Y0305999D02*
X0117490Y0304264D01*
X0120092Y0304264D01*
X0118791Y0304264D02*
X0118791Y0305132D01*
X0098998Y0305536D02*
X0098998Y0303802D01*
X0096396Y0303802D01*
X0096396Y0305536D01*
X0096830Y0306748D02*
X0097263Y0306748D01*
X0097697Y0307182D01*
X0097697Y0308049D01*
X0098131Y0308483D01*
X0098565Y0308483D01*
X0098998Y0308049D01*
X0098998Y0307182D01*
X0098565Y0306748D01*
X0096830Y0306748D02*
X0096396Y0307182D01*
X0096396Y0308049D01*
X0096830Y0308483D01*
X0096396Y0309695D02*
X0096396Y0311429D01*
X0096396Y0310562D02*
X0098998Y0310562D01*
X0097697Y0304669D02*
X0097697Y0303802D01*
X0096396Y0302590D02*
X0096396Y0300855D01*
X0096396Y0301722D02*
X0098998Y0301722D01*
X0097697Y0299643D02*
X0098131Y0299210D01*
X0098131Y0297909D01*
X0098998Y0297909D02*
X0096396Y0297909D01*
X0096396Y0299210D01*
X0096830Y0299643D01*
X0097697Y0299643D01*
X0096396Y0296697D02*
X0098998Y0296697D01*
X0098998Y0294962D02*
X0096396Y0294962D01*
X0097263Y0295829D01*
X0096396Y0296697D01*
X0097263Y0293750D02*
X0098998Y0293750D01*
X0097697Y0293750D02*
X0097697Y0292016D01*
X0097263Y0292016D02*
X0096396Y0292883D01*
X0097263Y0293750D01*
X0097263Y0292016D02*
X0098998Y0292016D01*
X0098998Y0290804D02*
X0098998Y0289069D01*
X0096396Y0289069D01*
X0096396Y0290804D01*
X0097697Y0289936D02*
X0097697Y0289069D01*
X0097697Y0287857D02*
X0098131Y0287424D01*
X0098131Y0286122D01*
X0098998Y0286122D02*
X0096396Y0286122D01*
X0096396Y0287424D01*
X0096830Y0287857D01*
X0097697Y0287857D01*
X0098131Y0286990D02*
X0098998Y0287857D01*
X0097697Y0284911D02*
X0098131Y0284477D01*
X0098131Y0283176D01*
X0098998Y0283176D02*
X0096396Y0283176D01*
X0096396Y0284477D01*
X0096830Y0284911D01*
X0097697Y0284911D01*
X0098998Y0281964D02*
X0098998Y0280229D01*
X0098998Y0281097D02*
X0096396Y0281097D01*
X0097263Y0280229D01*
X0096396Y0279018D02*
X0096396Y0277283D01*
X0098998Y0277283D01*
X0097697Y0277283D02*
X0097697Y0278150D01*
X0097697Y0276071D02*
X0098131Y0275638D01*
X0098131Y0274336D01*
X0098998Y0274336D02*
X0096396Y0274336D01*
X0096396Y0275638D01*
X0096830Y0276071D01*
X0097697Y0276071D01*
X0097697Y0273125D02*
X0097697Y0271390D01*
X0098998Y0271390D02*
X0096396Y0271390D01*
X0096402Y0269702D02*
X0094667Y0269702D01*
X0095535Y0269702D02*
X0095535Y0267100D01*
X0097614Y0267100D02*
X0099349Y0267100D01*
X0100560Y0267534D02*
X0100994Y0267100D01*
X0101862Y0267100D01*
X0102295Y0267534D01*
X0102295Y0267967D01*
X0101862Y0268401D01*
X0100994Y0268401D01*
X0100560Y0268835D01*
X0100560Y0269269D01*
X0100994Y0269702D01*
X0101862Y0269702D01*
X0102295Y0269269D01*
X0103507Y0269702D02*
X0105242Y0269702D01*
X0104374Y0269702D02*
X0104374Y0267100D01*
X0099349Y0269702D02*
X0097614Y0269702D01*
X0097614Y0267100D01*
X0097614Y0268401D02*
X0098481Y0268401D01*
X0098998Y0273125D02*
X0096396Y0273125D01*
X0093456Y0269702D02*
X0093456Y0267100D01*
X0091721Y0269702D01*
X0091721Y0267100D01*
X0090624Y0267100D02*
X0089757Y0267100D01*
X0090190Y0267100D02*
X0090190Y0269702D01*
X0089757Y0269702D02*
X0090624Y0269702D01*
X0087677Y0269702D02*
X0087677Y0267100D01*
X0086810Y0267100D02*
X0088545Y0267100D01*
X0086810Y0268835D02*
X0087677Y0269702D01*
X0085598Y0269702D02*
X0083863Y0269702D01*
X0083863Y0267100D01*
X0083863Y0268401D02*
X0084731Y0268401D01*
X0082652Y0268401D02*
X0082218Y0267967D01*
X0080917Y0267967D01*
X0080917Y0267100D02*
X0080917Y0269702D01*
X0082218Y0269702D01*
X0082652Y0269269D01*
X0082652Y0268401D01*
X0079705Y0267100D02*
X0077970Y0267100D01*
X0077970Y0269702D01*
X0078166Y0277100D02*
X0078166Y0279702D01*
X0079033Y0279702D02*
X0077298Y0279702D01*
X0076086Y0279702D02*
X0076086Y0277534D01*
X0075653Y0277100D01*
X0074785Y0277100D01*
X0074352Y0277534D01*
X0074352Y0279702D01*
X0073140Y0279269D02*
X0073140Y0278401D01*
X0072706Y0277967D01*
X0071405Y0277967D01*
X0071405Y0277100D02*
X0071405Y0279702D01*
X0072706Y0279702D01*
X0073140Y0279269D01*
X0072272Y0277967D02*
X0073140Y0277100D01*
X0070193Y0277100D02*
X0070193Y0279702D01*
X0070193Y0278401D02*
X0068459Y0278401D01*
X0068459Y0277100D02*
X0068459Y0279702D01*
X0067247Y0279702D02*
X0065512Y0279702D01*
X0066379Y0279702D02*
X0066379Y0277100D01*
X0064300Y0277534D02*
X0063867Y0277100D01*
X0062999Y0277100D01*
X0062566Y0277534D01*
X0062999Y0278401D02*
X0063867Y0278401D01*
X0064300Y0277967D01*
X0064300Y0277534D01*
X0062999Y0278401D02*
X0062566Y0278835D01*
X0062566Y0279269D01*
X0062999Y0279702D01*
X0063867Y0279702D01*
X0064300Y0279269D01*
X0061354Y0279269D02*
X0060920Y0279702D01*
X0060053Y0279702D01*
X0059619Y0279269D01*
X0059619Y0278835D01*
X0060053Y0278401D01*
X0060920Y0278401D01*
X0061354Y0277967D01*
X0061354Y0277534D01*
X0060920Y0277100D01*
X0060053Y0277100D01*
X0059619Y0277534D01*
X0058407Y0277100D02*
X0058407Y0278835D01*
X0057540Y0279702D01*
X0056673Y0278835D01*
X0056673Y0277100D01*
X0056673Y0278401D02*
X0058407Y0278401D01*
X0055461Y0278401D02*
X0055027Y0277967D01*
X0053726Y0277967D01*
X0053726Y0277100D02*
X0053726Y0279702D01*
X0055027Y0279702D01*
X0055461Y0279269D01*
X0055461Y0278401D01*
X0080245Y0278401D02*
X0081112Y0278401D01*
X0080245Y0277100D02*
X0081979Y0277100D01*
X0083191Y0277534D02*
X0083625Y0277100D01*
X0084492Y0277100D01*
X0084926Y0277534D01*
X0084926Y0277967D01*
X0084492Y0278401D01*
X0083625Y0278401D01*
X0083191Y0278835D01*
X0083191Y0279269D01*
X0083625Y0279702D01*
X0084492Y0279702D01*
X0084926Y0279269D01*
X0086138Y0279702D02*
X0087872Y0279702D01*
X0087005Y0279702D02*
X0087005Y0277100D01*
X0081979Y0279702D02*
X0080245Y0279702D01*
X0080245Y0277100D01*
X0111600Y0277100D02*
X0112901Y0277100D01*
X0113335Y0277534D01*
X0113335Y0277967D01*
X0112901Y0278401D01*
X0111600Y0278401D01*
X0111600Y0277100D02*
X0111600Y0279702D01*
X0112901Y0279702D01*
X0113335Y0279269D01*
X0113335Y0278835D01*
X0112901Y0278401D01*
X0117490Y0280692D02*
X0120092Y0280692D01*
X0152650Y0277195D02*
X0155252Y0277195D01*
X0155252Y0271302D02*
X0152650Y0271302D01*
X0204800Y0269200D02*
X0204800Y0253400D01*
X0227800Y0268400D02*
X0227800Y0284200D01*
X0254800Y0284200D02*
X0254800Y0268400D01*
X0271930Y0281211D02*
X0271930Y0282512D01*
X0272364Y0282946D01*
X0272798Y0282946D01*
X0273231Y0282512D01*
X0273231Y0281211D01*
X0271930Y0281211D02*
X0274533Y0281211D01*
X0274533Y0282512D01*
X0274099Y0282946D01*
X0273665Y0282946D01*
X0273231Y0282512D01*
X0273665Y0284158D02*
X0273665Y0285459D01*
X0273231Y0285892D01*
X0272364Y0285892D01*
X0271930Y0285459D01*
X0271930Y0284158D01*
X0274533Y0284158D01*
X0274533Y0287104D02*
X0271930Y0287104D01*
X0271930Y0288839D01*
X0273231Y0287972D02*
X0273231Y0287104D01*
X0273231Y0290051D02*
X0273231Y0291352D01*
X0273665Y0291785D01*
X0274099Y0291785D01*
X0274533Y0291352D01*
X0274533Y0290484D01*
X0274099Y0290051D01*
X0273231Y0290051D01*
X0272364Y0290918D01*
X0271930Y0291785D01*
X0272364Y0292997D02*
X0274099Y0292997D01*
X0274533Y0293431D01*
X0274533Y0294298D01*
X0274099Y0294732D01*
X0273231Y0294732D01*
X0273231Y0293865D01*
X0272364Y0294732D02*
X0271930Y0294298D01*
X0271930Y0293431D01*
X0272364Y0292997D01*
X0272364Y0295944D02*
X0272798Y0295944D01*
X0273231Y0296377D01*
X0273231Y0297245D01*
X0273665Y0297679D01*
X0274099Y0297679D01*
X0274533Y0297245D01*
X0274533Y0296377D01*
X0274099Y0295944D01*
X0272364Y0295944D02*
X0271930Y0296377D01*
X0271930Y0297245D01*
X0272364Y0297679D01*
X0272364Y0298890D02*
X0271930Y0299324D01*
X0271930Y0300191D01*
X0272364Y0300625D01*
X0272798Y0300625D01*
X0274533Y0298890D01*
X0274533Y0300625D01*
X0274533Y0302704D02*
X0271930Y0302704D01*
X0271930Y0301837D02*
X0271930Y0303572D01*
X0271930Y0304783D02*
X0274533Y0304783D01*
X0274533Y0306518D01*
X0274099Y0307730D02*
X0274533Y0308163D01*
X0274533Y0309031D01*
X0274099Y0309465D01*
X0273665Y0309465D01*
X0273231Y0309031D01*
X0273231Y0308163D01*
X0272798Y0307730D01*
X0272364Y0307730D01*
X0271930Y0308163D01*
X0271930Y0309031D01*
X0272364Y0309465D01*
X0271930Y0310676D02*
X0271930Y0312411D01*
X0271930Y0311544D02*
X0274533Y0311544D01*
X0271930Y0306518D02*
X0271930Y0304783D01*
X0273231Y0304783D02*
X0273231Y0305651D01*
X0289455Y0305639D02*
X0289455Y0304772D01*
X0289889Y0304338D01*
X0290323Y0304338D01*
X0290757Y0304772D01*
X0290757Y0305639D01*
X0291190Y0306073D01*
X0291624Y0306073D01*
X0292058Y0305639D01*
X0292058Y0304772D01*
X0291624Y0304338D01*
X0292058Y0303127D02*
X0292058Y0301392D01*
X0289455Y0301392D01*
X0289455Y0303127D01*
X0290757Y0302259D02*
X0290757Y0301392D01*
X0289455Y0300180D02*
X0289455Y0298445D01*
X0289455Y0299313D02*
X0292058Y0299313D01*
X0292058Y0296366D02*
X0289455Y0296366D01*
X0289455Y0295499D02*
X0289455Y0297234D01*
X0289455Y0294287D02*
X0291624Y0294287D01*
X0292058Y0293853D01*
X0292058Y0292986D01*
X0291624Y0292552D01*
X0289455Y0292552D01*
X0289889Y0291341D02*
X0289455Y0290907D01*
X0289455Y0290039D01*
X0289889Y0289606D01*
X0291624Y0289606D01*
X0292058Y0290039D01*
X0292058Y0290907D01*
X0291624Y0291341D01*
X0289889Y0291341D01*
X0292058Y0288394D02*
X0292058Y0286659D01*
X0292058Y0287527D02*
X0289455Y0287527D01*
X0290323Y0286659D01*
X0289455Y0285448D02*
X0289455Y0283713D01*
X0292058Y0283713D01*
X0290757Y0283713D02*
X0290757Y0284580D01*
X0290757Y0282501D02*
X0291190Y0282067D01*
X0291190Y0280766D01*
X0292058Y0280766D02*
X0289455Y0280766D01*
X0289455Y0282067D01*
X0289889Y0282501D01*
X0290757Y0282501D01*
X0292058Y0279555D02*
X0292058Y0277820D01*
X0289455Y0277820D01*
X0289455Y0305639D02*
X0289889Y0306073D01*
X0289455Y0307285D02*
X0289455Y0309020D01*
X0289455Y0308152D02*
X0292058Y0308152D01*
X0382282Y0308033D02*
X0382282Y0309768D01*
X0382282Y0308900D02*
X0384884Y0308900D01*
X0384451Y0306821D02*
X0384884Y0306388D01*
X0384884Y0305520D01*
X0384451Y0305086D01*
X0383583Y0305520D02*
X0383583Y0306388D01*
X0384017Y0306821D01*
X0384451Y0306821D01*
X0383583Y0305520D02*
X0383150Y0305086D01*
X0382716Y0305086D01*
X0382282Y0305520D01*
X0382282Y0306388D01*
X0382716Y0306821D01*
X0382282Y0303875D02*
X0382282Y0302140D01*
X0384884Y0302140D01*
X0384884Y0303875D01*
X0383583Y0303007D02*
X0383583Y0302140D01*
X0382282Y0300928D02*
X0382282Y0299193D01*
X0382282Y0300061D02*
X0384884Y0300061D01*
X0384884Y0297114D02*
X0382282Y0297114D01*
X0382282Y0296247D02*
X0382282Y0297982D01*
X0382282Y0295035D02*
X0384451Y0295035D01*
X0384884Y0294601D01*
X0384884Y0293734D01*
X0384451Y0293300D01*
X0382282Y0293300D01*
X0382716Y0292089D02*
X0382282Y0291655D01*
X0382282Y0290788D01*
X0382716Y0290354D01*
X0384451Y0290354D01*
X0384884Y0290788D01*
X0384884Y0291655D01*
X0384451Y0292089D01*
X0382716Y0292089D01*
X0382282Y0289142D02*
X0382716Y0288275D01*
X0383583Y0287407D01*
X0383583Y0288708D01*
X0384017Y0289142D01*
X0384451Y0289142D01*
X0384884Y0288708D01*
X0384884Y0287841D01*
X0384451Y0287407D01*
X0383583Y0287407D01*
X0382282Y0286196D02*
X0382282Y0284461D01*
X0384884Y0284461D01*
X0383583Y0284461D02*
X0383583Y0285328D01*
X0383583Y0283249D02*
X0384017Y0282815D01*
X0384017Y0281514D01*
X0384884Y0281514D02*
X0382282Y0281514D01*
X0382282Y0282815D01*
X0382716Y0283249D01*
X0383583Y0283249D01*
X0383150Y0280303D02*
X0383583Y0279869D01*
X0383583Y0278568D01*
X0384884Y0278568D02*
X0382282Y0278568D01*
X0382282Y0279869D01*
X0382716Y0280303D01*
X0383150Y0280303D01*
X0383583Y0279869D02*
X0384017Y0280303D01*
X0384451Y0280303D01*
X0384884Y0279869D01*
X0384884Y0278568D01*
X0382898Y0272800D02*
X0382898Y0271065D01*
X0382898Y0271933D02*
X0385500Y0271933D01*
X0385066Y0269853D02*
X0385500Y0269420D01*
X0385500Y0268552D01*
X0385066Y0268119D01*
X0384199Y0268552D02*
X0384199Y0269420D01*
X0384633Y0269853D01*
X0385066Y0269853D01*
X0384199Y0268552D02*
X0383765Y0268119D01*
X0383331Y0268119D01*
X0382898Y0268552D01*
X0382898Y0269420D01*
X0383331Y0269853D01*
X0382898Y0266907D02*
X0382898Y0265172D01*
X0385500Y0265172D01*
X0385500Y0266907D01*
X0384199Y0266040D02*
X0384199Y0265172D01*
X0382898Y0263960D02*
X0382898Y0262226D01*
X0382898Y0263093D02*
X0385500Y0263093D01*
X0385500Y0260147D02*
X0382898Y0260147D01*
X0382898Y0261014D02*
X0382898Y0259279D01*
X0382898Y0258067D02*
X0385066Y0258067D01*
X0385500Y0257634D01*
X0385500Y0256766D01*
X0385066Y0256333D01*
X0382898Y0256333D01*
X0383331Y0255121D02*
X0382898Y0254687D01*
X0382898Y0253820D01*
X0383331Y0253386D01*
X0385066Y0253386D01*
X0385500Y0253820D01*
X0385500Y0254687D01*
X0385066Y0255121D01*
X0383331Y0255121D01*
X0385500Y0252174D02*
X0385500Y0250440D01*
X0385500Y0251307D02*
X0382898Y0251307D01*
X0383765Y0250440D01*
X0382898Y0249228D02*
X0382898Y0247493D01*
X0385500Y0247493D01*
X0384199Y0247493D02*
X0384199Y0248360D01*
X0384199Y0246281D02*
X0383331Y0246281D01*
X0382898Y0245848D01*
X0382898Y0244547D01*
X0385500Y0244547D01*
X0384633Y0244547D02*
X0384633Y0245848D01*
X0384199Y0246281D01*
X0384199Y0243335D02*
X0384199Y0241600D01*
X0385500Y0241600D02*
X0382898Y0241600D01*
X0382898Y0243335D02*
X0385500Y0243335D01*
X0397898Y0243335D02*
X0400500Y0243335D01*
X0400500Y0244547D02*
X0397898Y0244547D01*
X0397898Y0245848D01*
X0398331Y0246281D01*
X0399199Y0246281D01*
X0399633Y0245848D01*
X0399633Y0244547D01*
X0399199Y0243335D02*
X0399199Y0241600D01*
X0400500Y0241600D02*
X0397898Y0241600D01*
X0397898Y0247493D02*
X0397898Y0249228D01*
X0397898Y0250440D02*
X0399199Y0250440D01*
X0398765Y0251307D01*
X0398765Y0251741D01*
X0399199Y0252174D01*
X0400066Y0252174D01*
X0400500Y0251741D01*
X0400500Y0250873D01*
X0400066Y0250440D01*
X0397898Y0250440D02*
X0397898Y0252174D01*
X0398331Y0253386D02*
X0400066Y0253386D01*
X0400500Y0253820D01*
X0400500Y0254687D01*
X0400066Y0255121D01*
X0398331Y0255121D01*
X0397898Y0254687D01*
X0397898Y0253820D01*
X0398331Y0253386D01*
X0397898Y0256333D02*
X0400066Y0256333D01*
X0400500Y0256766D01*
X0400500Y0257634D01*
X0400066Y0258067D01*
X0397898Y0258067D01*
X0397898Y0259279D02*
X0397898Y0261014D01*
X0397898Y0260147D02*
X0400500Y0260147D01*
X0400500Y0263093D02*
X0397898Y0263093D01*
X0397898Y0262226D02*
X0397898Y0263960D01*
X0397898Y0265172D02*
X0400500Y0265172D01*
X0400500Y0266907D01*
X0400066Y0268119D02*
X0400500Y0268552D01*
X0400500Y0269420D01*
X0400066Y0269853D01*
X0399633Y0269853D01*
X0399199Y0269420D01*
X0399199Y0268552D01*
X0398765Y0268119D01*
X0398331Y0268119D01*
X0397898Y0268552D01*
X0397898Y0269420D01*
X0398331Y0269853D01*
X0397898Y0271065D02*
X0397898Y0272800D01*
X0397898Y0271933D02*
X0400500Y0271933D01*
X0397898Y0266907D02*
X0397898Y0265172D01*
X0399199Y0265172D02*
X0399199Y0266040D01*
X0412898Y0266907D02*
X0412898Y0265172D01*
X0415500Y0265172D01*
X0415500Y0266907D01*
X0415066Y0268119D02*
X0415500Y0268552D01*
X0415500Y0269420D01*
X0415066Y0269853D01*
X0414633Y0269853D01*
X0414199Y0269420D01*
X0414199Y0268552D01*
X0413765Y0268119D01*
X0413331Y0268119D01*
X0412898Y0268552D01*
X0412898Y0269420D01*
X0413331Y0269853D01*
X0412898Y0271065D02*
X0412898Y0272800D01*
X0412898Y0271933D02*
X0415500Y0271933D01*
X0414199Y0266040D02*
X0414199Y0265172D01*
X0412898Y0263960D02*
X0412898Y0262226D01*
X0412898Y0263093D02*
X0415500Y0263093D01*
X0415500Y0260147D02*
X0412898Y0260147D01*
X0412898Y0261014D02*
X0412898Y0259279D01*
X0412898Y0258067D02*
X0415066Y0258067D01*
X0415500Y0257634D01*
X0415500Y0256766D01*
X0415066Y0256333D01*
X0412898Y0256333D01*
X0413331Y0255121D02*
X0412898Y0254687D01*
X0412898Y0253820D01*
X0413331Y0253386D01*
X0415066Y0253386D01*
X0415500Y0253820D01*
X0415500Y0254687D01*
X0415066Y0255121D01*
X0413331Y0255121D01*
X0413331Y0252174D02*
X0412898Y0251741D01*
X0412898Y0250873D01*
X0413331Y0250440D01*
X0412898Y0249228D02*
X0412898Y0247493D01*
X0415500Y0247493D01*
X0414199Y0247493D02*
X0414199Y0248360D01*
X0414199Y0246281D02*
X0414633Y0245848D01*
X0414633Y0244547D01*
X0415500Y0244547D02*
X0412898Y0244547D01*
X0412898Y0245848D01*
X0413331Y0246281D01*
X0414199Y0246281D01*
X0414633Y0243335D02*
X0415066Y0243335D01*
X0415500Y0242901D01*
X0415500Y0241600D01*
X0412898Y0241600D01*
X0412898Y0242901D01*
X0413331Y0243335D01*
X0413765Y0243335D01*
X0414199Y0242901D01*
X0414199Y0241600D01*
X0414199Y0242901D02*
X0414633Y0243335D01*
X0415500Y0250440D02*
X0413765Y0252174D01*
X0413331Y0252174D01*
X0415500Y0252174D02*
X0415500Y0250440D01*
X0427898Y0250440D02*
X0427898Y0252174D01*
X0428331Y0252174D01*
X0430066Y0250440D01*
X0430500Y0250440D01*
X0430500Y0252174D01*
X0430066Y0253386D02*
X0430500Y0253820D01*
X0430500Y0254687D01*
X0430066Y0255121D01*
X0428331Y0255121D01*
X0427898Y0254687D01*
X0427898Y0253820D01*
X0428331Y0253386D01*
X0430066Y0253386D01*
X0430066Y0256333D02*
X0427898Y0256333D01*
X0427898Y0258067D02*
X0430066Y0258067D01*
X0430500Y0257634D01*
X0430500Y0256766D01*
X0430066Y0256333D01*
X0427898Y0259279D02*
X0427898Y0261014D01*
X0427898Y0260147D02*
X0430500Y0260147D01*
X0430500Y0263093D02*
X0427898Y0263093D01*
X0427898Y0262226D02*
X0427898Y0263960D01*
X0427898Y0265172D02*
X0430500Y0265172D01*
X0430500Y0266907D01*
X0430066Y0268119D02*
X0430500Y0268552D01*
X0430500Y0269420D01*
X0430066Y0269853D01*
X0429633Y0269853D01*
X0429199Y0269420D01*
X0429199Y0268552D01*
X0428765Y0268119D01*
X0428331Y0268119D01*
X0427898Y0268552D01*
X0427898Y0269420D01*
X0428331Y0269853D01*
X0427898Y0271065D02*
X0427898Y0272800D01*
X0427898Y0271933D02*
X0430500Y0271933D01*
X0427898Y0266907D02*
X0427898Y0265172D01*
X0429199Y0265172D02*
X0429199Y0266040D01*
X0442898Y0266907D02*
X0442898Y0265172D01*
X0445500Y0265172D01*
X0445500Y0266907D01*
X0445066Y0268119D02*
X0445500Y0268552D01*
X0445500Y0269420D01*
X0445066Y0269853D01*
X0444633Y0269853D01*
X0444199Y0269420D01*
X0444199Y0268552D01*
X0443765Y0268119D01*
X0443331Y0268119D01*
X0442898Y0268552D01*
X0442898Y0269420D01*
X0443331Y0269853D01*
X0442898Y0271065D02*
X0442898Y0272800D01*
X0442898Y0271933D02*
X0445500Y0271933D01*
X0444199Y0266040D02*
X0444199Y0265172D01*
X0442898Y0263960D02*
X0442898Y0262226D01*
X0442898Y0263093D02*
X0445500Y0263093D01*
X0445500Y0260147D02*
X0442898Y0260147D01*
X0442898Y0261014D02*
X0442898Y0259279D01*
X0442898Y0258067D02*
X0445066Y0258067D01*
X0445500Y0257634D01*
X0445500Y0256766D01*
X0445066Y0256333D01*
X0442898Y0256333D01*
X0443331Y0255121D02*
X0442898Y0254687D01*
X0442898Y0253820D01*
X0443331Y0253386D01*
X0445066Y0253386D01*
X0445500Y0253820D01*
X0445500Y0254687D01*
X0445066Y0255121D01*
X0443331Y0255121D01*
X0442898Y0252174D02*
X0442898Y0250440D01*
X0444199Y0250440D01*
X0443765Y0251307D01*
X0443765Y0251741D01*
X0444199Y0252174D01*
X0445066Y0252174D01*
X0445500Y0251741D01*
X0445500Y0250873D01*
X0445066Y0250440D01*
X0444199Y0248360D02*
X0444199Y0247493D01*
X0444199Y0246281D02*
X0444633Y0245848D01*
X0444633Y0244547D01*
X0445500Y0244547D02*
X0442898Y0244547D01*
X0442898Y0245848D01*
X0443331Y0246281D01*
X0444199Y0246281D01*
X0445500Y0247493D02*
X0442898Y0247493D01*
X0442898Y0249228D01*
X0445500Y0243335D02*
X0445500Y0241600D01*
X0442898Y0241600D01*
X0430500Y0242034D02*
X0430500Y0242901D01*
X0430066Y0243335D01*
X0429633Y0243335D01*
X0429199Y0242901D01*
X0429199Y0241600D01*
X0430066Y0241600D01*
X0430500Y0242034D01*
X0429199Y0241600D02*
X0428331Y0242467D01*
X0427898Y0243335D01*
X0428331Y0244547D02*
X0427898Y0244980D01*
X0427898Y0245848D01*
X0428331Y0246281D01*
X0430066Y0244547D01*
X0430500Y0244980D01*
X0430500Y0245848D01*
X0430066Y0246281D01*
X0428331Y0246281D01*
X0427898Y0247493D02*
X0430500Y0247493D01*
X0429199Y0247493D02*
X0429199Y0249228D01*
X0427898Y0249228D02*
X0430500Y0249228D01*
X0430066Y0244547D02*
X0428331Y0244547D01*
X0400500Y0247493D02*
X0397898Y0247493D01*
X0399199Y0247493D02*
X0399199Y0248360D01*
X0411681Y0304735D02*
X0411681Y0307337D01*
X0410380Y0306036D01*
X0412115Y0306036D01*
X0413327Y0305602D02*
X0414628Y0305602D01*
X0415062Y0306036D01*
X0415062Y0306903D01*
X0414628Y0307337D01*
X0413327Y0307337D01*
X0413327Y0304735D01*
X0416273Y0304735D02*
X0417141Y0304735D01*
X0416707Y0304735D02*
X0416707Y0307337D01*
X0416273Y0307337D02*
X0417141Y0307337D01*
X0418238Y0307337D02*
X0419973Y0304735D01*
X0419973Y0307337D01*
X0418238Y0307337D02*
X0418238Y0304735D01*
X0421184Y0306036D02*
X0422919Y0306036D01*
X0424131Y0305169D02*
X0424564Y0304735D01*
X0424998Y0304735D01*
X0425432Y0305169D01*
X0425432Y0307337D01*
X0424998Y0307337D02*
X0425866Y0307337D01*
X0427077Y0306903D02*
X0427077Y0306470D01*
X0427511Y0306036D01*
X0428378Y0306036D01*
X0428812Y0305602D01*
X0428812Y0305169D01*
X0428378Y0304735D01*
X0427511Y0304735D01*
X0427077Y0305169D01*
X0427077Y0306903D02*
X0427511Y0307337D01*
X0428378Y0307337D01*
X0428812Y0306903D01*
X0430024Y0307337D02*
X0431759Y0307337D01*
X0430891Y0307337D02*
X0430891Y0304735D01*
X0463041Y0305538D02*
X0463475Y0305105D01*
X0464342Y0305105D01*
X0464776Y0305538D01*
X0464776Y0305972D01*
X0464342Y0306406D01*
X0463041Y0306406D01*
X0463041Y0305538D01*
X0463041Y0306406D02*
X0463908Y0307273D01*
X0464776Y0307707D01*
X0465987Y0307707D02*
X0467289Y0307707D01*
X0467722Y0307273D01*
X0467722Y0306406D01*
X0467289Y0305972D01*
X0465987Y0305972D01*
X0465987Y0305105D02*
X0465987Y0307707D01*
X0468934Y0307707D02*
X0469801Y0307707D01*
X0469368Y0307707D02*
X0469368Y0305105D01*
X0469801Y0305105D02*
X0468934Y0305105D01*
X0470898Y0305105D02*
X0470898Y0307707D01*
X0472633Y0305105D01*
X0472633Y0307707D01*
X0474712Y0307707D02*
X0475580Y0307707D01*
X0475146Y0307707D02*
X0475146Y0305538D01*
X0474712Y0305105D01*
X0474279Y0305105D01*
X0473845Y0305538D01*
X0476791Y0305538D02*
X0477225Y0305105D01*
X0478092Y0305105D01*
X0478526Y0305538D01*
X0478526Y0305972D01*
X0478092Y0306406D01*
X0477225Y0306406D01*
X0476791Y0306840D01*
X0476791Y0307273D01*
X0477225Y0307707D01*
X0478092Y0307707D01*
X0478526Y0307273D01*
X0479738Y0307707D02*
X0481473Y0307707D01*
X0480605Y0307707D02*
X0480605Y0305105D01*
X0497597Y0277166D02*
X0500800Y0277166D01*
X0499732Y0275031D02*
X0497597Y0275031D01*
X0496529Y0276098D01*
X0497597Y0277166D01*
X0499732Y0275031D02*
X0500800Y0273963D01*
X0499732Y0272896D01*
X0496529Y0272896D01*
X0496529Y0268801D02*
X0499732Y0268801D01*
X0500800Y0267734D01*
X0500800Y0265598D01*
X0499732Y0264531D01*
X0496529Y0264531D01*
X0496529Y0262396D02*
X0496529Y0268801D01*
X0502975Y0267734D02*
X0502975Y0263463D01*
X0504042Y0262396D01*
X0506178Y0262396D01*
X0507245Y0263463D01*
X0509420Y0262396D02*
X0512623Y0262396D01*
X0513691Y0263463D01*
X0513691Y0264531D01*
X0512623Y0265598D01*
X0509420Y0265598D01*
X0507245Y0267734D02*
X0506178Y0268801D01*
X0504042Y0268801D01*
X0502975Y0267734D01*
X0504042Y0272896D02*
X0502975Y0273963D01*
X0502975Y0276098D01*
X0504042Y0277166D01*
X0507245Y0277166D01*
X0507245Y0279301D02*
X0507245Y0272896D01*
X0504042Y0272896D01*
X0509420Y0272896D02*
X0509420Y0277166D01*
X0510488Y0277166D01*
X0511556Y0276098D01*
X0512623Y0277166D01*
X0513691Y0276098D01*
X0513691Y0272896D01*
X0511556Y0272896D02*
X0511556Y0276098D01*
X0515866Y0273963D02*
X0516933Y0272896D01*
X0520136Y0272896D01*
X0520136Y0276098D01*
X0519069Y0277166D01*
X0516933Y0277166D01*
X0516933Y0275031D02*
X0520136Y0275031D01*
X0522311Y0273963D02*
X0523379Y0272896D01*
X0526582Y0272896D01*
X0526582Y0271828D02*
X0525514Y0270761D01*
X0524447Y0270761D01*
X0525514Y0268801D02*
X0522311Y0268801D01*
X0522311Y0262396D01*
X0522311Y0264531D02*
X0525514Y0264531D01*
X0526582Y0265598D01*
X0526582Y0267734D01*
X0525514Y0268801D01*
X0526582Y0271828D02*
X0526582Y0277166D01*
X0528757Y0277166D02*
X0530892Y0279301D01*
X0530892Y0272896D01*
X0528757Y0272896D02*
X0533027Y0272896D01*
X0535202Y0273963D02*
X0535202Y0275031D01*
X0536270Y0276098D01*
X0538405Y0276098D01*
X0539473Y0275031D01*
X0539473Y0273963D01*
X0538405Y0272896D01*
X0536270Y0272896D01*
X0535202Y0273963D01*
X0536270Y0276098D02*
X0535202Y0277166D01*
X0535202Y0278234D01*
X0536270Y0279301D01*
X0538405Y0279301D01*
X0539473Y0278234D01*
X0539473Y0277166D01*
X0538405Y0276098D01*
X0541648Y0276098D02*
X0545918Y0276098D01*
X0548093Y0273963D02*
X0549161Y0272896D01*
X0551296Y0272896D01*
X0552364Y0273963D01*
X0552364Y0275031D01*
X0551296Y0276098D01*
X0550229Y0276098D01*
X0551296Y0276098D02*
X0552364Y0277166D01*
X0552364Y0278234D01*
X0551296Y0279301D01*
X0549161Y0279301D01*
X0548093Y0278234D01*
X0554539Y0277166D02*
X0556674Y0279301D01*
X0556674Y0272896D01*
X0554539Y0272896D02*
X0558809Y0272896D01*
X0558823Y0268801D02*
X0556687Y0268801D01*
X0557755Y0268801D02*
X0557755Y0262396D01*
X0556687Y0262396D02*
X0558823Y0262396D01*
X0554526Y0262396D02*
X0552390Y0262396D01*
X0553458Y0262396D02*
X0553458Y0268801D01*
X0552390Y0268801D02*
X0554526Y0268801D01*
X0550229Y0268801D02*
X0548093Y0268801D01*
X0549161Y0268801D02*
X0549161Y0262396D01*
X0548093Y0262396D02*
X0550229Y0262396D01*
X0539473Y0266666D02*
X0537338Y0262396D01*
X0535202Y0266666D01*
X0533027Y0265598D02*
X0533027Y0264531D01*
X0528757Y0264531D01*
X0528757Y0265598D02*
X0529824Y0266666D01*
X0531960Y0266666D01*
X0533027Y0265598D01*
X0531960Y0262396D02*
X0529824Y0262396D01*
X0528757Y0263463D01*
X0528757Y0265598D01*
X0526582Y0262396D02*
X0524447Y0264531D01*
X0513691Y0266666D02*
X0513691Y0267734D01*
X0512623Y0268801D01*
X0509420Y0268801D01*
X0509420Y0262396D01*
X0512623Y0265598D02*
X0513691Y0266666D01*
X0515866Y0273963D02*
X0516933Y0275031D01*
X0522311Y0273963D02*
X0522311Y0277166D01*
X0067978Y0259702D02*
X0066243Y0259702D01*
X0066243Y0257100D01*
X0066243Y0258401D02*
X0067111Y0258401D01*
X0046600Y0259702D02*
X0046600Y0257100D01*
X0027310Y0264452D02*
X0026877Y0264018D01*
X0027310Y0264452D02*
X0027310Y0265319D01*
X0026877Y0265753D01*
X0026443Y0265753D01*
X0026009Y0265319D01*
X0026009Y0264452D01*
X0025576Y0264018D01*
X0025142Y0264018D01*
X0024708Y0264452D01*
X0024708Y0265319D01*
X0025142Y0265753D01*
X0025142Y0266964D02*
X0024708Y0267398D01*
X0024708Y0268266D01*
X0025142Y0268699D01*
X0026877Y0266964D01*
X0027310Y0267398D01*
X0027310Y0268266D01*
X0026877Y0268699D01*
X0025142Y0268699D01*
X0024708Y0269911D02*
X0024708Y0270778D01*
X0024708Y0270345D02*
X0027310Y0270345D01*
X0027310Y0270778D02*
X0027310Y0269911D01*
X0027310Y0271875D02*
X0024708Y0271875D01*
X0027310Y0273610D01*
X0024708Y0273610D01*
X0024708Y0274822D02*
X0024708Y0276123D01*
X0025142Y0276557D01*
X0026009Y0276557D01*
X0026443Y0276123D01*
X0026443Y0274822D01*
X0027310Y0274822D02*
X0024708Y0274822D01*
X0024708Y0277768D02*
X0026877Y0277768D01*
X0027310Y0278202D01*
X0027310Y0279069D01*
X0026877Y0279503D01*
X0024708Y0279503D01*
X0024708Y0280715D02*
X0024708Y0282450D01*
X0024708Y0281582D02*
X0027310Y0281582D01*
X0026877Y0266964D02*
X0025142Y0266964D01*
X0025303Y0169718D02*
X0026170Y0169718D01*
X0026604Y0169284D01*
X0024869Y0167549D01*
X0025303Y0167116D01*
X0026170Y0167116D01*
X0026604Y0167549D01*
X0026604Y0169284D01*
X0027816Y0169718D02*
X0028683Y0169718D01*
X0028250Y0169718D02*
X0028250Y0167116D01*
X0028683Y0167116D02*
X0027816Y0167116D01*
X0029780Y0167116D02*
X0029780Y0169718D01*
X0031515Y0167116D01*
X0031515Y0169718D01*
X0032727Y0169718D02*
X0034028Y0169718D01*
X0034462Y0169284D01*
X0034462Y0168417D01*
X0034028Y0167983D01*
X0032727Y0167983D01*
X0032727Y0167116D02*
X0032727Y0169718D01*
X0035673Y0169718D02*
X0035673Y0167549D01*
X0036107Y0167116D01*
X0036974Y0167116D01*
X0037408Y0167549D01*
X0037408Y0169718D01*
X0038620Y0169718D02*
X0040355Y0169718D01*
X0039487Y0169718D02*
X0039487Y0167116D01*
X0025303Y0169718D02*
X0024869Y0169284D01*
X0024869Y0167549D01*
X0023658Y0167116D02*
X0022790Y0167983D01*
X0023224Y0167983D02*
X0021923Y0167983D01*
X0021923Y0167116D02*
X0021923Y0169718D01*
X0023224Y0169718D01*
X0023658Y0169284D01*
X0023658Y0168417D01*
X0023224Y0167983D01*
X0020711Y0167549D02*
X0020711Y0169284D01*
X0020277Y0169718D01*
X0019410Y0169718D01*
X0018976Y0169284D01*
X0018976Y0167549D01*
X0019410Y0167116D01*
X0020277Y0167116D01*
X0020711Y0167549D01*
X0017765Y0167549D02*
X0017331Y0167116D01*
X0016464Y0167116D01*
X0016030Y0167549D01*
X0016464Y0168417D02*
X0017331Y0168417D01*
X0017765Y0167983D01*
X0017765Y0167549D01*
X0016464Y0168417D02*
X0016030Y0168850D01*
X0016030Y0169284D01*
X0016464Y0169718D01*
X0017331Y0169718D01*
X0017765Y0169284D01*
X0014818Y0169718D02*
X0014818Y0167116D01*
X0013083Y0169718D01*
X0013083Y0167116D01*
X0011872Y0167116D02*
X0010137Y0167116D01*
X0010137Y0169718D01*
X0011872Y0169718D01*
X0011004Y0168417D02*
X0010137Y0168417D01*
X0008925Y0167983D02*
X0008491Y0168417D01*
X0007624Y0168417D01*
X0007190Y0168850D01*
X0007190Y0169284D01*
X0007624Y0169718D01*
X0008491Y0169718D01*
X0008925Y0169284D01*
X0008925Y0167983D02*
X0008925Y0167549D01*
X0008491Y0167116D01*
X0007624Y0167116D01*
X0007190Y0167549D01*
X0006885Y0147275D02*
X0006451Y0146841D01*
X0006451Y0146408D01*
X0006885Y0145974D01*
X0007752Y0145974D01*
X0008186Y0145540D01*
X0008186Y0145106D01*
X0007752Y0144673D01*
X0006885Y0144673D01*
X0006451Y0145106D01*
X0006885Y0147275D02*
X0007752Y0147275D01*
X0008186Y0146841D01*
X0009398Y0147275D02*
X0009398Y0144673D01*
X0011132Y0144673D01*
X0012344Y0144673D02*
X0012344Y0147275D01*
X0014079Y0144673D01*
X0014079Y0147275D01*
X0015291Y0146841D02*
X0015291Y0146408D01*
X0015724Y0145974D01*
X0016592Y0145974D01*
X0017025Y0145540D01*
X0017025Y0145106D01*
X0016592Y0144673D01*
X0015724Y0144673D01*
X0015291Y0145106D01*
X0015291Y0146841D02*
X0015724Y0147275D01*
X0016592Y0147275D01*
X0017025Y0146841D01*
X0018237Y0146841D02*
X0018237Y0145106D01*
X0018671Y0144673D01*
X0019538Y0144673D01*
X0019972Y0145106D01*
X0019972Y0146841D01*
X0019538Y0147275D01*
X0018671Y0147275D01*
X0018237Y0146841D01*
X0021184Y0147275D02*
X0022485Y0147275D01*
X0022919Y0146841D01*
X0022919Y0145974D01*
X0022485Y0145540D01*
X0021184Y0145540D01*
X0022051Y0145540D02*
X0022919Y0144673D01*
X0024130Y0144673D02*
X0025865Y0144673D01*
X0024998Y0144673D02*
X0024998Y0147275D01*
X0024130Y0146408D01*
X0021184Y0147275D02*
X0021184Y0144673D01*
X0027077Y0144673D02*
X0027944Y0144673D01*
X0027510Y0144673D02*
X0027510Y0147275D01*
X0027077Y0147275D02*
X0027944Y0147275D01*
X0029041Y0147275D02*
X0030776Y0144673D01*
X0030776Y0147275D01*
X0031988Y0147275D02*
X0033289Y0147275D01*
X0033722Y0146841D01*
X0033722Y0145974D01*
X0033289Y0145540D01*
X0031988Y0145540D01*
X0031988Y0144673D02*
X0031988Y0147275D01*
X0034934Y0147275D02*
X0034934Y0145106D01*
X0035368Y0144673D01*
X0036235Y0144673D01*
X0036669Y0145106D01*
X0036669Y0147275D01*
X0037881Y0147275D02*
X0039615Y0147275D01*
X0038748Y0147275D02*
X0038748Y0144673D01*
X0029041Y0144673D02*
X0029041Y0147275D01*
X0011132Y0147275D02*
X0009398Y0147275D01*
X0009398Y0145974D02*
X0010265Y0145974D01*
X0009943Y0125273D02*
X0009943Y0122671D01*
X0011678Y0122671D01*
X0012890Y0122671D02*
X0012890Y0125273D01*
X0014624Y0122671D01*
X0014624Y0125273D01*
X0015836Y0124840D02*
X0015836Y0124406D01*
X0016270Y0123972D01*
X0017137Y0123972D01*
X0017571Y0123539D01*
X0017571Y0123105D01*
X0017137Y0122671D01*
X0016270Y0122671D01*
X0015836Y0123105D01*
X0015836Y0124840D02*
X0016270Y0125273D01*
X0017137Y0125273D01*
X0017571Y0124840D01*
X0018783Y0124840D02*
X0018783Y0123105D01*
X0019216Y0122671D01*
X0020084Y0122671D01*
X0020517Y0123105D01*
X0020517Y0124840D01*
X0020084Y0125273D01*
X0019216Y0125273D01*
X0018783Y0124840D01*
X0021729Y0125273D02*
X0023030Y0125273D01*
X0023464Y0124840D01*
X0023464Y0123972D01*
X0023030Y0123539D01*
X0021729Y0123539D01*
X0022597Y0123539D02*
X0023464Y0122671D01*
X0024676Y0122671D02*
X0026410Y0124406D01*
X0026410Y0124840D01*
X0025977Y0125273D01*
X0025109Y0125273D01*
X0024676Y0124840D01*
X0024676Y0122671D02*
X0026410Y0122671D01*
X0027622Y0122671D02*
X0028490Y0122671D01*
X0028056Y0122671D02*
X0028056Y0125273D01*
X0027622Y0125273D02*
X0028490Y0125273D01*
X0029587Y0125273D02*
X0031321Y0122671D01*
X0031321Y0125273D01*
X0032533Y0125273D02*
X0033834Y0125273D01*
X0034268Y0124840D01*
X0034268Y0123972D01*
X0033834Y0123539D01*
X0032533Y0123539D01*
X0032533Y0122671D02*
X0032533Y0125273D01*
X0029587Y0125273D02*
X0029587Y0122671D01*
X0035480Y0123105D02*
X0035480Y0125273D01*
X0037214Y0125273D02*
X0037214Y0123105D01*
X0036781Y0122671D01*
X0035913Y0122671D01*
X0035480Y0123105D01*
X0038426Y0125273D02*
X0040161Y0125273D01*
X0039293Y0125273D02*
X0039293Y0122671D01*
X0021729Y0122671D02*
X0021729Y0125273D01*
X0011678Y0125273D02*
X0009943Y0125273D01*
X0008731Y0124840D02*
X0008298Y0125273D01*
X0007430Y0125273D01*
X0006997Y0124840D01*
X0006997Y0124406D01*
X0007430Y0123972D01*
X0008298Y0123972D01*
X0008731Y0123539D01*
X0008731Y0123105D01*
X0008298Y0122671D01*
X0007430Y0122671D01*
X0006997Y0123105D01*
X0009943Y0123972D02*
X0010810Y0123972D01*
X0024330Y0105654D02*
X0024330Y0103919D01*
X0024330Y0104787D02*
X0026932Y0104787D01*
X0026499Y0102708D02*
X0024330Y0102708D01*
X0024330Y0100973D02*
X0026499Y0100973D01*
X0026932Y0101406D01*
X0026932Y0102274D01*
X0026499Y0102708D01*
X0025631Y0099761D02*
X0026065Y0099327D01*
X0026065Y0098026D01*
X0026932Y0098026D02*
X0024330Y0098026D01*
X0024330Y0099327D01*
X0024764Y0099761D01*
X0025631Y0099761D01*
X0026932Y0096815D02*
X0024330Y0096815D01*
X0024330Y0095080D02*
X0026932Y0096815D01*
X0026932Y0095080D02*
X0024330Y0095080D01*
X0024330Y0093983D02*
X0024330Y0093115D01*
X0024330Y0093549D02*
X0026932Y0093549D01*
X0026932Y0093115D02*
X0026932Y0093983D01*
X0026932Y0091904D02*
X0026932Y0090169D01*
X0025198Y0091904D01*
X0024764Y0091904D01*
X0024330Y0091470D01*
X0024330Y0090603D01*
X0024764Y0090169D01*
X0024764Y0088957D02*
X0024330Y0088523D01*
X0024330Y0087656D01*
X0024764Y0087222D01*
X0025198Y0087222D01*
X0025631Y0087656D01*
X0025631Y0088523D01*
X0026065Y0088957D01*
X0026499Y0088957D01*
X0026932Y0088523D01*
X0026932Y0087656D01*
X0026499Y0087222D01*
X0025947Y0079044D02*
X0025947Y0076442D01*
X0027681Y0076442D01*
X0028893Y0076875D02*
X0029327Y0076442D01*
X0030194Y0076442D01*
X0030628Y0076875D01*
X0030628Y0077309D01*
X0030194Y0077743D01*
X0029327Y0077743D01*
X0028893Y0078177D01*
X0028893Y0078610D01*
X0029327Y0079044D01*
X0030194Y0079044D01*
X0030628Y0078610D01*
X0031840Y0079044D02*
X0033574Y0079044D01*
X0032707Y0079044D02*
X0032707Y0076442D01*
X0027681Y0079044D02*
X0025947Y0079044D01*
X0024735Y0079044D02*
X0023000Y0079044D01*
X0023867Y0079044D02*
X0023867Y0076442D01*
X0021788Y0076442D02*
X0021788Y0079044D01*
X0020054Y0079044D02*
X0021788Y0076442D01*
X0020054Y0076442D02*
X0020054Y0079044D01*
X0018957Y0079044D02*
X0018089Y0079044D01*
X0018523Y0079044D02*
X0018523Y0076442D01*
X0018089Y0076442D02*
X0018957Y0076442D01*
X0016878Y0076442D02*
X0015143Y0076442D01*
X0016878Y0078177D01*
X0016878Y0078610D01*
X0016444Y0079044D01*
X0015576Y0079044D01*
X0015143Y0078610D01*
X0013931Y0079044D02*
X0012196Y0079044D01*
X0012196Y0076442D01*
X0012196Y0077743D02*
X0013064Y0077743D01*
X0010984Y0077743D02*
X0010551Y0077309D01*
X0009250Y0077309D01*
X0009250Y0076442D02*
X0009250Y0079044D01*
X0010551Y0079044D01*
X0010984Y0078610D01*
X0010984Y0077743D01*
X0008038Y0078177D02*
X0007604Y0077743D01*
X0006303Y0077743D01*
X0006303Y0079044D02*
X0007604Y0079044D01*
X0008038Y0078610D01*
X0008038Y0078177D01*
X0007604Y0077743D02*
X0008038Y0077309D01*
X0008038Y0076875D01*
X0007604Y0076442D01*
X0006303Y0076442D01*
X0006303Y0079044D01*
X0025947Y0077743D02*
X0026814Y0077743D01*
X0026000Y0064028D02*
X0026000Y0061426D01*
X0027734Y0061426D01*
X0028946Y0061860D02*
X0029380Y0061426D01*
X0030247Y0061426D01*
X0030681Y0061860D01*
X0030681Y0062293D01*
X0030247Y0062727D01*
X0029380Y0062727D01*
X0028946Y0063161D01*
X0028946Y0063594D01*
X0029380Y0064028D01*
X0030247Y0064028D01*
X0030681Y0063594D01*
X0031893Y0064028D02*
X0033627Y0064028D01*
X0032760Y0064028D02*
X0032760Y0061426D01*
X0027734Y0064028D02*
X0026000Y0064028D01*
X0024788Y0064028D02*
X0023053Y0064028D01*
X0023920Y0064028D02*
X0023920Y0061426D01*
X0021841Y0061426D02*
X0021841Y0064028D01*
X0020107Y0064028D02*
X0021841Y0061426D01*
X0020107Y0061426D02*
X0020107Y0064028D01*
X0019010Y0064028D02*
X0018142Y0064028D01*
X0018576Y0064028D02*
X0018576Y0061426D01*
X0018142Y0061426D02*
X0019010Y0061426D01*
X0016930Y0061860D02*
X0016930Y0062293D01*
X0016497Y0062727D01*
X0015196Y0062727D01*
X0015196Y0061860D01*
X0015629Y0061426D01*
X0016497Y0061426D01*
X0016930Y0061860D01*
X0016063Y0063594D02*
X0015196Y0062727D01*
X0016063Y0063594D02*
X0016930Y0064028D01*
X0013984Y0064028D02*
X0012249Y0064028D01*
X0012249Y0061426D01*
X0012249Y0062727D02*
X0013117Y0062727D01*
X0011037Y0062727D02*
X0011037Y0063594D01*
X0010604Y0064028D01*
X0009303Y0064028D01*
X0009303Y0061426D01*
X0009303Y0062293D02*
X0010604Y0062293D01*
X0011037Y0062727D01*
X0008091Y0062293D02*
X0008091Y0061860D01*
X0007657Y0061426D01*
X0006356Y0061426D01*
X0006356Y0064028D01*
X0007657Y0064028D01*
X0008091Y0063594D01*
X0008091Y0063161D01*
X0007657Y0062727D01*
X0006356Y0062727D01*
X0007657Y0062727D02*
X0008091Y0062293D01*
X0026000Y0062727D02*
X0026867Y0062727D01*
D12*
X0149601Y0077963D02*
X0152737Y0081099D01*
X0152737Y0079531D02*
X0149601Y0079531D01*
X0149601Y0081099D02*
X0152737Y0077963D01*
X0151169Y0077963D02*
X0151169Y0081099D01*
X0187050Y0139634D02*
X0190186Y0142770D01*
X0188618Y0142770D02*
X0188618Y0139634D01*
X0190186Y0139634D02*
X0187050Y0142770D01*
X0187050Y0141202D02*
X0190186Y0141202D01*
X0189634Y0167414D02*
X0192770Y0170550D01*
X0192770Y0168982D02*
X0189634Y0168982D01*
X0189634Y0170550D02*
X0192770Y0167414D01*
X0191202Y0167414D02*
X0191202Y0170550D01*
X0282050Y0137770D02*
X0285186Y0134634D01*
X0283618Y0134634D02*
X0283618Y0137770D01*
X0285186Y0137770D02*
X0282050Y0134634D01*
X0282050Y0136202D02*
X0285186Y0136202D01*
X0392700Y0121885D02*
X0395169Y0121885D01*
X0396383Y0121885D02*
X0396383Y0118182D01*
X0396383Y0120034D02*
X0397000Y0120651D01*
X0398235Y0120651D01*
X0398852Y0120034D01*
X0398852Y0118182D01*
X0400066Y0118182D02*
X0401301Y0118182D01*
X0400684Y0118182D02*
X0400684Y0120651D01*
X0400066Y0120651D01*
X0400684Y0121885D02*
X0400684Y0122503D01*
X0403139Y0120651D02*
X0404991Y0120651D01*
X0404373Y0119417D02*
X0403139Y0119417D01*
X0402522Y0120034D01*
X0403139Y0120651D01*
X0404373Y0119417D02*
X0404991Y0118799D01*
X0404373Y0118182D01*
X0402522Y0118182D01*
X0402535Y0115885D02*
X0402535Y0112182D01*
X0400684Y0112182D01*
X0400066Y0112799D01*
X0400066Y0114034D01*
X0400684Y0114651D01*
X0402535Y0114651D01*
X0398852Y0114034D02*
X0398852Y0112182D01*
X0398852Y0114034D02*
X0398235Y0114651D01*
X0396383Y0114651D01*
X0396383Y0112182D01*
X0395169Y0112182D02*
X0393317Y0112182D01*
X0392700Y0112799D01*
X0393317Y0113417D01*
X0395169Y0113417D01*
X0395169Y0114034D02*
X0395169Y0112182D01*
X0395169Y0114034D02*
X0394552Y0114651D01*
X0393317Y0114651D01*
X0393934Y0118182D02*
X0393934Y0121885D01*
X0407433Y0114034D02*
X0408050Y0114651D01*
X0409901Y0114651D01*
X0411116Y0114651D02*
X0411733Y0114651D01*
X0411733Y0112182D01*
X0411116Y0112182D02*
X0412350Y0112182D01*
X0413571Y0112799D02*
X0414188Y0112182D01*
X0416040Y0112182D01*
X0416040Y0111565D02*
X0416040Y0114651D01*
X0414188Y0114651D01*
X0413571Y0114034D01*
X0413571Y0112799D01*
X0414806Y0110948D02*
X0415423Y0110948D01*
X0416040Y0111565D01*
X0417254Y0112182D02*
X0418489Y0112182D01*
X0417872Y0112182D02*
X0417872Y0114651D01*
X0417254Y0114651D01*
X0417872Y0115885D02*
X0417872Y0116503D01*
X0417872Y0118182D02*
X0417254Y0118799D01*
X0417872Y0119417D01*
X0419723Y0119417D01*
X0419723Y0120034D02*
X0419723Y0118182D01*
X0417872Y0118182D01*
X0416040Y0118799D02*
X0416040Y0120034D01*
X0415423Y0120651D01*
X0414188Y0120651D01*
X0413571Y0120034D01*
X0413571Y0118799D01*
X0414188Y0118182D01*
X0415423Y0118182D01*
X0416040Y0118799D01*
X0417872Y0120651D02*
X0419106Y0120651D01*
X0419723Y0120034D01*
X0420937Y0120651D02*
X0420937Y0118182D01*
X0420937Y0119417D02*
X0422172Y0120651D01*
X0422789Y0120651D01*
X0424007Y0120034D02*
X0424624Y0120651D01*
X0426476Y0120651D01*
X0426476Y0121885D02*
X0426476Y0118182D01*
X0424624Y0118182D01*
X0424007Y0118799D01*
X0424007Y0120034D01*
X0425848Y0115885D02*
X0426466Y0115885D01*
X0426466Y0112182D01*
X0427083Y0112182D02*
X0425848Y0112182D01*
X0424634Y0112182D02*
X0422782Y0112182D01*
X0422165Y0112799D01*
X0422782Y0113417D01*
X0424634Y0113417D01*
X0424634Y0114034D02*
X0424634Y0112182D01*
X0424634Y0114034D02*
X0424017Y0114651D01*
X0422782Y0114651D01*
X0420944Y0114651D02*
X0419710Y0114651D01*
X0420327Y0115268D02*
X0420327Y0112799D01*
X0420944Y0112182D01*
X0420937Y0108651D02*
X0420937Y0106182D01*
X0420937Y0107417D02*
X0422172Y0108651D01*
X0422789Y0108651D01*
X0419723Y0108034D02*
X0419106Y0108651D01*
X0417872Y0108651D01*
X0417254Y0108034D01*
X0417254Y0106799D01*
X0417872Y0106182D01*
X0419106Y0106182D01*
X0419723Y0106799D01*
X0419723Y0108034D01*
X0412357Y0108651D02*
X0412357Y0105565D01*
X0411740Y0104948D01*
X0411122Y0104948D01*
X0410505Y0106182D02*
X0412357Y0106182D01*
X0410505Y0106182D02*
X0409888Y0106799D01*
X0409888Y0108034D01*
X0410505Y0108651D01*
X0412357Y0108651D01*
X0408674Y0108034D02*
X0408674Y0106799D01*
X0408056Y0106182D01*
X0406822Y0106182D01*
X0406205Y0106799D01*
X0406205Y0108034D01*
X0406822Y0108651D01*
X0408056Y0108651D01*
X0408674Y0108034D01*
X0404984Y0106182D02*
X0403749Y0106182D01*
X0404367Y0106182D02*
X0404367Y0109885D01*
X0403749Y0109885D01*
X0401918Y0108651D02*
X0402535Y0108034D01*
X0402535Y0106182D01*
X0400684Y0106182D01*
X0400066Y0106799D01*
X0400684Y0107417D01*
X0402535Y0107417D01*
X0401918Y0108651D02*
X0400684Y0108651D01*
X0398852Y0108034D02*
X0398852Y0106182D01*
X0398852Y0108034D02*
X0398235Y0108651D01*
X0396383Y0108651D01*
X0396383Y0106182D01*
X0395169Y0106182D02*
X0393317Y0106182D01*
X0392700Y0106799D01*
X0393317Y0107417D01*
X0395169Y0107417D01*
X0395169Y0108034D02*
X0395169Y0106182D01*
X0395169Y0108034D02*
X0394552Y0108651D01*
X0393317Y0108651D01*
X0393317Y0104503D02*
X0393317Y0103885D01*
X0393317Y0102651D02*
X0393317Y0100182D01*
X0392700Y0100182D02*
X0393934Y0100182D01*
X0395155Y0100182D02*
X0395155Y0102651D01*
X0397007Y0102651D01*
X0397624Y0102034D01*
X0397624Y0100182D01*
X0399456Y0100799D02*
X0400073Y0100182D01*
X0399456Y0100799D02*
X0399456Y0103268D01*
X0398839Y0102651D02*
X0400073Y0102651D01*
X0401294Y0102034D02*
X0401294Y0100799D01*
X0401911Y0100182D01*
X0403146Y0100182D01*
X0403763Y0100799D01*
X0403763Y0102034D01*
X0403146Y0102651D01*
X0401911Y0102651D01*
X0401294Y0102034D01*
X0408660Y0100799D02*
X0409278Y0101417D01*
X0411129Y0101417D01*
X0411129Y0102034D02*
X0411129Y0100182D01*
X0409278Y0100182D01*
X0408660Y0100799D01*
X0409278Y0102651D02*
X0410512Y0102651D01*
X0411129Y0102034D01*
X0416027Y0102651D02*
X0416027Y0100182D01*
X0417261Y0100182D02*
X0417261Y0102034D01*
X0417878Y0102651D01*
X0418495Y0102034D01*
X0418495Y0100182D01*
X0419710Y0100799D02*
X0420327Y0100182D01*
X0421561Y0100182D01*
X0422179Y0100799D01*
X0422179Y0102034D01*
X0421561Y0102651D01*
X0420327Y0102651D01*
X0419710Y0102034D01*
X0419710Y0100799D01*
X0417261Y0102034D02*
X0416644Y0102651D01*
X0416027Y0102651D01*
X0423393Y0102651D02*
X0423393Y0100799D01*
X0424010Y0100182D01*
X0425862Y0100182D01*
X0425862Y0102651D01*
X0427076Y0102651D02*
X0428928Y0102651D01*
X0429545Y0102034D01*
X0429545Y0100182D01*
X0431376Y0100799D02*
X0431994Y0100182D01*
X0431376Y0100799D02*
X0431376Y0103268D01*
X0430759Y0102651D02*
X0431994Y0102651D01*
X0433215Y0102034D02*
X0433832Y0102651D01*
X0435066Y0102651D01*
X0435683Y0102034D01*
X0435683Y0101417D01*
X0433215Y0101417D01*
X0433215Y0102034D02*
X0433215Y0100799D01*
X0433832Y0100182D01*
X0435066Y0100182D01*
X0436898Y0100799D02*
X0436898Y0102034D01*
X0437515Y0102651D01*
X0439367Y0102651D01*
X0439367Y0103885D02*
X0439367Y0100182D01*
X0437515Y0100182D01*
X0436898Y0100799D01*
X0444264Y0100182D02*
X0444264Y0103885D01*
X0444891Y0106182D02*
X0443040Y0106182D01*
X0442422Y0106799D01*
X0443040Y0107417D01*
X0444891Y0107417D01*
X0444891Y0108034D02*
X0444891Y0106182D01*
X0446106Y0106182D02*
X0447340Y0106182D01*
X0446723Y0106182D02*
X0446723Y0109885D01*
X0446106Y0109885D01*
X0444274Y0108651D02*
X0444891Y0108034D01*
X0444274Y0108651D02*
X0443040Y0108651D01*
X0441201Y0108651D02*
X0439967Y0108651D01*
X0440584Y0109268D02*
X0440584Y0106799D01*
X0441201Y0106182D01*
X0438746Y0106182D02*
X0437512Y0106182D01*
X0438129Y0106182D02*
X0438129Y0108651D01*
X0437512Y0108651D01*
X0436297Y0108651D02*
X0434446Y0108651D01*
X0433828Y0108034D01*
X0433828Y0106799D01*
X0434446Y0106182D01*
X0436297Y0106182D01*
X0436297Y0105565D02*
X0436297Y0108651D01*
X0438129Y0109885D02*
X0438129Y0110503D01*
X0437522Y0112182D02*
X0436287Y0112182D01*
X0435670Y0112799D01*
X0435670Y0114034D01*
X0436287Y0114651D01*
X0437522Y0114651D01*
X0438139Y0114034D01*
X0438139Y0113417D01*
X0435670Y0113417D01*
X0434456Y0112799D02*
X0433838Y0113417D01*
X0432604Y0113417D01*
X0431987Y0114034D01*
X0432604Y0114651D01*
X0434456Y0114651D01*
X0434456Y0112799D02*
X0433838Y0112182D01*
X0431987Y0112182D01*
X0431990Y0110503D02*
X0431990Y0109885D01*
X0431990Y0108651D02*
X0431990Y0106182D01*
X0431373Y0106182D02*
X0432607Y0106182D01*
X0430159Y0106182D02*
X0428307Y0106182D01*
X0427690Y0106799D01*
X0427690Y0108034D01*
X0428307Y0108651D01*
X0430159Y0108651D01*
X0431373Y0108651D02*
X0431990Y0108651D01*
X0430159Y0109885D02*
X0430159Y0106182D01*
X0427076Y0102651D02*
X0427076Y0100182D01*
X0435063Y0104948D02*
X0435680Y0104948D01*
X0436297Y0105565D01*
X0439353Y0112182D02*
X0439353Y0114651D01*
X0441205Y0114651D01*
X0441822Y0114034D01*
X0441822Y0112182D01*
X0443036Y0112182D02*
X0444888Y0112182D01*
X0445505Y0112799D01*
X0444888Y0113417D01*
X0443654Y0113417D01*
X0443036Y0114034D01*
X0443654Y0114651D01*
X0445505Y0114651D01*
X0446720Y0114034D02*
X0446720Y0112799D01*
X0447337Y0112182D01*
X0448571Y0112182D01*
X0449188Y0112799D01*
X0449188Y0114034D01*
X0448571Y0114651D01*
X0447337Y0114651D01*
X0446720Y0114034D01*
X0450403Y0114651D02*
X0450403Y0112182D01*
X0450403Y0113417D02*
X0451637Y0114651D01*
X0452254Y0114651D01*
X0452868Y0118182D02*
X0451016Y0118182D01*
X0451016Y0121885D01*
X0451016Y0120651D02*
X0452868Y0120651D01*
X0453485Y0120034D01*
X0453485Y0118799D01*
X0452868Y0118182D01*
X0454700Y0118799D02*
X0454700Y0120034D01*
X0455317Y0120651D01*
X0456551Y0120651D01*
X0457168Y0120034D01*
X0457168Y0119417D01*
X0454700Y0119417D01*
X0454700Y0118799D02*
X0455317Y0118182D01*
X0456551Y0118182D01*
X0457772Y0116503D02*
X0457772Y0115885D01*
X0457772Y0114651D02*
X0457772Y0112182D01*
X0457155Y0112182D02*
X0458389Y0112182D01*
X0459610Y0112182D02*
X0459610Y0114651D01*
X0461462Y0114651D01*
X0462079Y0114034D01*
X0462079Y0112182D01*
X0463294Y0112182D02*
X0465145Y0112182D01*
X0465762Y0112799D01*
X0465762Y0114034D01*
X0465145Y0114651D01*
X0463294Y0114651D01*
X0463294Y0110948D01*
X0463911Y0108651D02*
X0465762Y0108651D01*
X0466977Y0108034D02*
X0466977Y0106799D01*
X0467594Y0106182D01*
X0468828Y0106182D01*
X0469446Y0106799D01*
X0469446Y0108034D01*
X0468828Y0108651D01*
X0467594Y0108651D01*
X0466977Y0108034D01*
X0465762Y0106799D02*
X0465145Y0107417D01*
X0463911Y0107417D01*
X0463294Y0108034D01*
X0463911Y0108651D01*
X0462079Y0108034D02*
X0462079Y0106182D01*
X0463294Y0106182D02*
X0465145Y0106182D01*
X0465762Y0106799D01*
X0462079Y0108034D02*
X0461462Y0108651D01*
X0459610Y0108651D01*
X0459610Y0106182D01*
X0458396Y0107417D02*
X0455927Y0107417D01*
X0455927Y0108034D02*
X0455927Y0106799D01*
X0456545Y0106182D01*
X0457779Y0106182D01*
X0458396Y0107417D02*
X0458396Y0108034D01*
X0457779Y0108651D01*
X0456545Y0108651D01*
X0455927Y0108034D01*
X0454713Y0108651D02*
X0452861Y0108651D01*
X0452244Y0108034D01*
X0452861Y0107417D01*
X0454096Y0107417D01*
X0454713Y0106799D01*
X0454096Y0106182D01*
X0452244Y0106182D01*
X0451630Y0102651D02*
X0451630Y0100799D01*
X0452248Y0100182D01*
X0454099Y0100182D01*
X0454099Y0102651D01*
X0455314Y0102651D02*
X0457165Y0102651D01*
X0457782Y0102034D01*
X0457782Y0100182D01*
X0458997Y0100799D02*
X0459614Y0100182D01*
X0461465Y0100182D01*
X0462680Y0100182D02*
X0462680Y0103885D01*
X0463297Y0102651D02*
X0464531Y0102651D01*
X0465149Y0102034D01*
X0465149Y0100182D01*
X0466363Y0100182D02*
X0468215Y0100182D01*
X0468832Y0100799D01*
X0468832Y0102034D01*
X0468215Y0102651D01*
X0466363Y0102651D01*
X0466363Y0098948D01*
X0470046Y0100799D02*
X0470663Y0101417D01*
X0472515Y0101417D01*
X0472515Y0102034D02*
X0472515Y0100182D01*
X0470663Y0100182D01*
X0470046Y0100799D01*
X0470663Y0102651D02*
X0471898Y0102651D01*
X0472515Y0102034D01*
X0473729Y0102034D02*
X0474346Y0102651D01*
X0476198Y0102651D01*
X0476198Y0103885D02*
X0476198Y0100182D01*
X0474346Y0100182D01*
X0473729Y0100799D01*
X0473729Y0102034D01*
X0473729Y0106182D02*
X0475581Y0106182D01*
X0476198Y0106799D01*
X0475581Y0107417D01*
X0474346Y0107417D01*
X0473729Y0108034D01*
X0474346Y0108651D01*
X0476198Y0108651D01*
X0478030Y0106799D02*
X0478030Y0106182D01*
X0478647Y0106182D01*
X0478647Y0106799D01*
X0478030Y0106799D01*
X0478647Y0106182D02*
X0477412Y0104948D01*
X0472512Y0108651D02*
X0471894Y0108651D01*
X0470660Y0107417D01*
X0470660Y0108651D02*
X0470660Y0106182D01*
X0473115Y0110948D02*
X0474350Y0112182D01*
X0473733Y0112182D01*
X0473733Y0112799D01*
X0474350Y0112799D01*
X0474350Y0112182D01*
X0471894Y0112182D02*
X0471277Y0112799D01*
X0471277Y0115268D01*
X0470660Y0114651D02*
X0471894Y0114651D01*
X0469446Y0114651D02*
X0469446Y0112182D01*
X0467594Y0112182D01*
X0466977Y0112799D01*
X0466977Y0114651D01*
X0467601Y0118182D02*
X0468218Y0118799D01*
X0467601Y0119417D01*
X0466366Y0119417D01*
X0465749Y0120034D01*
X0466366Y0120651D01*
X0468218Y0120651D01*
X0469432Y0120034D02*
X0470049Y0120651D01*
X0471284Y0120651D01*
X0471901Y0120034D01*
X0471901Y0119417D01*
X0469432Y0119417D01*
X0469432Y0120034D02*
X0469432Y0118799D01*
X0470049Y0118182D01*
X0471284Y0118182D01*
X0473115Y0118799D02*
X0473115Y0120034D01*
X0473733Y0120651D01*
X0475584Y0120651D01*
X0475584Y0121885D02*
X0475584Y0118182D01*
X0473733Y0118182D01*
X0473115Y0118799D01*
X0467601Y0118182D02*
X0465749Y0118182D01*
X0464535Y0118182D02*
X0464535Y0120651D01*
X0464535Y0118182D02*
X0462683Y0118182D01*
X0462066Y0118799D01*
X0462066Y0120651D01*
X0457772Y0114651D02*
X0457155Y0114651D01*
X0446119Y0118799D02*
X0446119Y0120034D01*
X0445502Y0120651D01*
X0444267Y0120651D01*
X0443650Y0120034D01*
X0443650Y0118799D01*
X0444267Y0118182D01*
X0445502Y0118182D01*
X0446119Y0118799D01*
X0442429Y0118182D02*
X0441812Y0118799D01*
X0441812Y0121268D01*
X0441195Y0120651D02*
X0442429Y0120651D01*
X0436297Y0120651D02*
X0434446Y0120651D01*
X0433828Y0120034D01*
X0434446Y0119417D01*
X0435680Y0119417D01*
X0436297Y0118799D01*
X0435680Y0118182D01*
X0433828Y0118182D01*
X0432607Y0118182D02*
X0431373Y0118182D01*
X0431990Y0118182D02*
X0431990Y0120651D01*
X0431373Y0120651D01*
X0431990Y0121885D02*
X0431990Y0122503D01*
X0412357Y0120034D02*
X0411740Y0120651D01*
X0409888Y0120651D01*
X0409888Y0121885D02*
X0409888Y0118182D01*
X0411740Y0118182D01*
X0412357Y0118799D01*
X0412357Y0120034D01*
X0411733Y0116503D02*
X0411733Y0115885D01*
X0409901Y0115885D02*
X0409901Y0112182D01*
X0408050Y0112182D01*
X0407433Y0112799D01*
X0407433Y0114034D01*
X0393317Y0102651D02*
X0392700Y0102651D01*
X0444264Y0100182D02*
X0446733Y0100182D01*
X0447947Y0100799D02*
X0448564Y0101417D01*
X0450416Y0101417D01*
X0450416Y0102034D02*
X0450416Y0100182D01*
X0448564Y0100182D01*
X0447947Y0100799D01*
X0448564Y0102651D02*
X0449799Y0102651D01*
X0450416Y0102034D01*
X0455314Y0102651D02*
X0455314Y0100182D01*
X0458997Y0100799D02*
X0458997Y0102034D01*
X0459614Y0102651D01*
X0461465Y0102651D01*
X0462680Y0102034D02*
X0463297Y0102651D01*
X0477412Y0098948D02*
X0478647Y0100182D01*
X0478030Y0100182D01*
X0478030Y0100799D01*
X0478647Y0100799D01*
X0478647Y0100182D01*
X0483551Y0102034D02*
X0484785Y0102034D01*
X0486006Y0102034D02*
X0486006Y0100799D01*
X0486624Y0100182D01*
X0487858Y0100182D01*
X0488475Y0100799D01*
X0488475Y0102034D01*
X0487858Y0102651D01*
X0486624Y0102651D01*
X0486006Y0102034D01*
X0484168Y0103268D02*
X0484168Y0100182D01*
X0484168Y0103268D02*
X0484785Y0103885D01*
X0484168Y0106182D02*
X0483551Y0106799D01*
X0484168Y0107417D01*
X0486020Y0107417D01*
X0486020Y0108034D02*
X0486020Y0106182D01*
X0484168Y0106182D01*
X0484168Y0108651D02*
X0485402Y0108651D01*
X0486020Y0108034D01*
X0487234Y0108651D02*
X0489086Y0108651D01*
X0489703Y0108034D01*
X0489703Y0106182D01*
X0490917Y0106799D02*
X0490917Y0108034D01*
X0491534Y0108651D01*
X0493386Y0108651D01*
X0493386Y0109885D02*
X0493386Y0106182D01*
X0491534Y0106182D01*
X0490917Y0106799D01*
X0487234Y0106182D02*
X0487234Y0108651D01*
X0486620Y0112182D02*
X0488472Y0112182D01*
X0489089Y0112799D01*
X0488472Y0113417D01*
X0487237Y0113417D01*
X0486620Y0114034D01*
X0487237Y0114651D01*
X0489089Y0114651D01*
X0490303Y0114034D02*
X0490921Y0114651D01*
X0492772Y0114651D01*
X0492155Y0113417D02*
X0490921Y0113417D01*
X0490303Y0114034D01*
X0490303Y0112182D02*
X0492155Y0112182D01*
X0492772Y0112799D01*
X0492155Y0113417D01*
X0497670Y0114651D02*
X0498904Y0114651D01*
X0498287Y0115268D02*
X0498287Y0112799D01*
X0498904Y0112182D01*
X0500125Y0112182D02*
X0500125Y0115885D01*
X0500742Y0114651D02*
X0501977Y0114651D01*
X0502594Y0114034D01*
X0502594Y0112182D01*
X0503808Y0112182D02*
X0503808Y0114651D01*
X0503808Y0113417D02*
X0505043Y0114651D01*
X0505660Y0114651D01*
X0506877Y0114034D02*
X0507495Y0114651D01*
X0508729Y0114651D01*
X0509346Y0114034D01*
X0509346Y0112799D01*
X0508729Y0112182D01*
X0507495Y0112182D01*
X0506877Y0112799D01*
X0506877Y0114034D01*
X0505046Y0116948D02*
X0505663Y0117565D01*
X0505663Y0120651D01*
X0503812Y0120651D01*
X0503194Y0120034D01*
X0503194Y0118799D01*
X0503812Y0118182D01*
X0505663Y0118182D01*
X0505046Y0116948D02*
X0504429Y0116948D01*
X0501980Y0118182D02*
X0501980Y0120034D01*
X0501363Y0120651D01*
X0499511Y0120651D01*
X0499511Y0118182D01*
X0498290Y0118182D02*
X0497056Y0118182D01*
X0497673Y0118182D02*
X0497673Y0120651D01*
X0497056Y0120651D01*
X0495838Y0120651D02*
X0495221Y0120651D01*
X0493987Y0119417D01*
X0493987Y0120651D02*
X0493987Y0118182D01*
X0492772Y0118799D02*
X0492772Y0120034D01*
X0492155Y0120651D01*
X0490303Y0120651D01*
X0490303Y0121885D02*
X0490303Y0118182D01*
X0492155Y0118182D01*
X0492772Y0118799D01*
X0497673Y0121885D02*
X0497673Y0122503D01*
X0500742Y0114651D02*
X0500125Y0114034D01*
X0500752Y0108651D02*
X0498901Y0108651D01*
X0498284Y0108034D01*
X0498901Y0107417D01*
X0500135Y0107417D01*
X0500752Y0106799D01*
X0500135Y0106182D01*
X0498284Y0106182D01*
X0498911Y0102651D02*
X0498911Y0100182D01*
X0497059Y0100182D01*
X0496442Y0100799D01*
X0496442Y0102651D01*
X0500125Y0102034D02*
X0500742Y0102651D01*
X0502594Y0102651D01*
X0503808Y0102034D02*
X0504425Y0102651D01*
X0505660Y0102651D01*
X0506277Y0102034D01*
X0506277Y0101417D01*
X0503808Y0101417D01*
X0503808Y0102034D02*
X0503808Y0100799D01*
X0504425Y0100182D01*
X0505660Y0100182D01*
X0502594Y0100799D02*
X0501977Y0101417D01*
X0500742Y0101417D01*
X0500125Y0102034D01*
X0500125Y0100182D02*
X0501977Y0100182D01*
X0502594Y0100799D01*
X0511175Y0100182D02*
X0512409Y0100182D01*
X0511792Y0100182D02*
X0511792Y0102651D01*
X0511175Y0102651D01*
X0511792Y0103885D02*
X0511792Y0104503D01*
X0511802Y0106182D02*
X0509950Y0106182D01*
X0509333Y0106799D01*
X0509333Y0108034D01*
X0509950Y0108651D01*
X0511802Y0108651D01*
X0511802Y0109885D02*
X0511802Y0106182D01*
X0508119Y0106182D02*
X0508119Y0108034D01*
X0507501Y0108651D01*
X0505650Y0108651D01*
X0505650Y0106182D01*
X0504435Y0107417D02*
X0501967Y0107417D01*
X0501967Y0108034D02*
X0501967Y0106799D01*
X0502584Y0106182D01*
X0503818Y0106182D01*
X0504435Y0107417D02*
X0504435Y0108034D01*
X0503818Y0108651D01*
X0502584Y0108651D01*
X0501967Y0108034D01*
X0510561Y0112799D02*
X0510561Y0114651D01*
X0510561Y0112799D02*
X0511178Y0112182D01*
X0513029Y0112182D01*
X0513029Y0114651D01*
X0514244Y0114034D02*
X0514244Y0112799D01*
X0514861Y0112182D01*
X0516713Y0112182D01*
X0516713Y0111565D02*
X0516713Y0114651D01*
X0514861Y0114651D01*
X0514244Y0114034D01*
X0515478Y0110948D02*
X0516095Y0110948D01*
X0516713Y0111565D01*
X0517927Y0112182D02*
X0517927Y0115885D01*
X0518544Y0114651D02*
X0519779Y0114651D01*
X0520396Y0114034D01*
X0520396Y0112182D01*
X0519168Y0109885D02*
X0519168Y0106182D01*
X0517316Y0106182D01*
X0516699Y0106799D01*
X0516699Y0108034D01*
X0517316Y0108651D01*
X0519168Y0108651D01*
X0521000Y0108651D02*
X0522234Y0108651D01*
X0522851Y0108034D01*
X0522851Y0106182D01*
X0521000Y0106182D01*
X0520382Y0106799D01*
X0521000Y0107417D01*
X0522851Y0107417D01*
X0524066Y0108651D02*
X0525300Y0108651D01*
X0524683Y0109268D02*
X0524683Y0106799D01*
X0525300Y0106182D01*
X0526521Y0106799D02*
X0527138Y0107417D01*
X0528990Y0107417D01*
X0528990Y0108034D02*
X0528990Y0106182D01*
X0527138Y0106182D01*
X0526521Y0106799D01*
X0527138Y0108651D02*
X0528373Y0108651D01*
X0528990Y0108034D01*
X0528976Y0112182D02*
X0530211Y0112182D01*
X0529594Y0112182D02*
X0529594Y0114651D01*
X0528976Y0114651D01*
X0527762Y0114034D02*
X0527145Y0114651D01*
X0525910Y0114651D01*
X0525293Y0114034D01*
X0525293Y0112799D01*
X0525910Y0112182D01*
X0527145Y0112182D01*
X0527762Y0113417D02*
X0525293Y0113417D01*
X0527762Y0113417D02*
X0527762Y0114034D01*
X0529594Y0115885D02*
X0529594Y0116503D01*
X0530217Y0118182D02*
X0528366Y0118182D01*
X0527749Y0118799D01*
X0528366Y0119417D01*
X0530217Y0119417D01*
X0530217Y0120034D02*
X0530217Y0118182D01*
X0531432Y0118182D02*
X0532666Y0118182D01*
X0532049Y0118182D02*
X0532049Y0121885D01*
X0531432Y0121885D01*
X0529600Y0120651D02*
X0530217Y0120034D01*
X0529600Y0120651D02*
X0528366Y0120651D01*
X0526534Y0120034D02*
X0526534Y0118182D01*
X0526534Y0120034D02*
X0525917Y0120651D01*
X0524066Y0120651D01*
X0524066Y0118182D01*
X0522851Y0118182D02*
X0521000Y0118182D01*
X0520382Y0118799D01*
X0521000Y0119417D01*
X0522851Y0119417D01*
X0522851Y0120034D02*
X0522851Y0118182D01*
X0522851Y0120034D02*
X0522234Y0120651D01*
X0521000Y0120651D01*
X0515485Y0120034D02*
X0515485Y0118182D01*
X0515485Y0120034D02*
X0514868Y0120651D01*
X0513016Y0120651D01*
X0513016Y0118182D01*
X0511795Y0118182D02*
X0510561Y0118182D01*
X0511178Y0118182D02*
X0511178Y0120651D01*
X0510561Y0120651D01*
X0511178Y0121885D02*
X0511178Y0122503D01*
X0518544Y0114651D02*
X0517927Y0114034D01*
X0520996Y0103885D02*
X0520996Y0100182D01*
X0523465Y0100182D01*
X0524679Y0100182D02*
X0524679Y0103885D01*
X0527148Y0103885D01*
X0525914Y0102034D02*
X0524679Y0102034D01*
X0524679Y0100182D02*
X0527148Y0100182D01*
X0532046Y0100182D02*
X0534514Y0102651D01*
X0534514Y0103268D01*
X0533897Y0103885D01*
X0532663Y0103885D01*
X0532046Y0103268D01*
X0532046Y0100182D02*
X0534514Y0100182D01*
X0535729Y0100182D02*
X0538198Y0102651D01*
X0538198Y0103268D01*
X0537580Y0103885D01*
X0536346Y0103885D01*
X0535729Y0103268D01*
X0535729Y0100182D02*
X0538198Y0100182D01*
X0539412Y0102034D02*
X0541881Y0102034D01*
X0541264Y0103885D02*
X0541264Y0100182D01*
X0539412Y0102034D02*
X0541264Y0103885D01*
X0541254Y0112182D02*
X0541254Y0114651D01*
X0541254Y0113417D02*
X0542488Y0114651D01*
X0543105Y0114651D01*
X0540039Y0114034D02*
X0540039Y0113417D01*
X0537570Y0113417D01*
X0537570Y0114034D02*
X0538188Y0114651D01*
X0539422Y0114651D01*
X0540039Y0114034D01*
X0539422Y0112182D02*
X0538188Y0112182D01*
X0537570Y0112799D01*
X0537570Y0114034D01*
X0536356Y0114034D02*
X0536356Y0112182D01*
X0536356Y0114034D02*
X0535739Y0114651D01*
X0534504Y0114651D01*
X0533887Y0114034D01*
X0532666Y0114651D02*
X0531432Y0114651D01*
X0532049Y0115268D02*
X0532049Y0112799D01*
X0532666Y0112182D01*
X0533887Y0112182D02*
X0533887Y0115885D01*
X0534504Y0118182D02*
X0533887Y0118799D01*
X0533887Y0120034D01*
X0534504Y0120651D01*
X0535739Y0120651D01*
X0536356Y0120034D01*
X0536356Y0118799D01*
X0535739Y0118182D01*
X0534504Y0118182D01*
X0537570Y0118799D02*
X0538188Y0118182D01*
X0540039Y0118182D01*
X0540039Y0117565D02*
X0540039Y0120651D01*
X0538188Y0120651D01*
X0537570Y0120034D01*
X0537570Y0118799D01*
X0538805Y0116948D02*
X0539422Y0116948D01*
X0540039Y0117565D01*
X0523465Y0103885D02*
X0520996Y0103885D01*
X0520996Y0102034D02*
X0522231Y0102034D01*
X0516099Y0102034D02*
X0516099Y0100182D01*
X0516099Y0102034D02*
X0515482Y0102651D01*
X0513630Y0102651D01*
X0513630Y0100182D01*
X0491541Y0102651D02*
X0490924Y0102651D01*
X0489690Y0101417D01*
X0489690Y0102651D02*
X0489690Y0100182D01*
X0479254Y0110948D02*
X0479254Y0114651D01*
X0481105Y0114651D01*
X0481723Y0114034D01*
X0481723Y0112799D01*
X0481105Y0112182D01*
X0479254Y0112182D01*
X0482937Y0112799D02*
X0483554Y0113417D01*
X0485406Y0113417D01*
X0485406Y0114034D02*
X0485406Y0112182D01*
X0483554Y0112182D01*
X0482937Y0112799D01*
X0483554Y0114651D02*
X0484789Y0114651D01*
X0485406Y0114034D01*
X0484789Y0118182D02*
X0485406Y0118799D01*
X0485406Y0120034D01*
X0484789Y0120651D01*
X0483554Y0120651D01*
X0482937Y0120034D01*
X0482937Y0118799D01*
X0483554Y0118182D01*
X0484789Y0118182D01*
X0481716Y0118182D02*
X0481099Y0118799D01*
X0481099Y0121268D01*
X0480482Y0120651D02*
X0481716Y0120651D01*
X0227966Y0262050D02*
X0224830Y0265186D01*
X0224830Y0263618D02*
X0227966Y0263618D01*
X0227966Y0265186D02*
X0224830Y0262050D01*
X0226398Y0262050D02*
X0226398Y0265186D01*
X0177966Y0250186D02*
X0174830Y0247050D01*
X0174830Y0248618D02*
X0177966Y0248618D01*
X0177966Y0247050D02*
X0174830Y0250186D01*
X0176398Y0250186D02*
X0176398Y0247050D01*
X0152770Y0247414D02*
X0149634Y0250550D01*
X0149634Y0248982D02*
X0152770Y0248982D01*
X0152770Y0250550D02*
X0149634Y0247414D01*
X0151202Y0247414D02*
X0151202Y0250550D01*
X0406264Y0288584D02*
X0407715Y0288584D01*
X0408199Y0289068D01*
X0407715Y0289552D01*
X0406748Y0289552D01*
X0406264Y0290035D01*
X0406748Y0290519D01*
X0408199Y0290519D01*
X0409211Y0290035D02*
X0409694Y0290519D01*
X0411146Y0290519D01*
X0411146Y0291487D02*
X0411146Y0288584D01*
X0409694Y0288584D01*
X0409211Y0289068D01*
X0409211Y0290035D01*
X0412157Y0289068D02*
X0412641Y0288584D01*
X0414092Y0288584D01*
X0414092Y0290035D01*
X0413608Y0290519D01*
X0412641Y0290519D01*
X0412641Y0289552D02*
X0414092Y0289552D01*
X0412641Y0289552D02*
X0412157Y0289068D01*
D13*
X0416169Y0291836D02*
X0416169Y0293804D01*
X0424043Y0293804D01*
X0424043Y0291836D01*
X0439594Y0291836D01*
X0439594Y0309552D01*
X0400618Y0309552D01*
X0400618Y0291836D01*
X0416169Y0291836D01*
X0396300Y0293800D02*
X0396300Y0298800D01*
X0393800Y0301300D01*
X0388800Y0301300D01*
X0386300Y0298800D01*
X0386300Y0293800D01*
X0388800Y0291300D01*
X0393800Y0291300D01*
X0396300Y0293800D01*
X0441379Y0291654D02*
X0461930Y0291654D01*
X0461930Y0293623D01*
X0484804Y0293623D01*
X0484804Y0291654D01*
X0505355Y0291654D01*
X0505355Y0309371D01*
X0441379Y0309371D01*
X0441379Y0291654D01*
X0438800Y0251300D02*
X0433800Y0251300D01*
X0431300Y0248800D01*
X0431300Y0243800D01*
X0433800Y0241300D01*
X0438800Y0241300D01*
X0441300Y0243800D01*
X0441300Y0248800D01*
X0438800Y0251300D01*
X0446300Y0248800D02*
X0446300Y0243800D01*
X0448800Y0241300D01*
X0453800Y0241300D01*
X0456300Y0243800D01*
X0456300Y0248800D01*
X0453800Y0251300D01*
X0448800Y0251300D01*
X0446300Y0248800D01*
X0426300Y0248800D02*
X0426300Y0243800D01*
X0423800Y0241300D01*
X0418800Y0241300D01*
X0416300Y0243800D01*
X0416300Y0248800D01*
X0418800Y0251300D01*
X0423800Y0251300D01*
X0426300Y0248800D01*
X0411300Y0248800D02*
X0411300Y0243800D01*
X0408800Y0241300D01*
X0403800Y0241300D01*
X0401300Y0243800D01*
X0401300Y0248800D01*
X0403800Y0251300D01*
X0408800Y0251300D01*
X0411300Y0248800D01*
X0396300Y0248800D02*
X0396300Y0243800D01*
X0393800Y0241300D01*
X0388800Y0241300D01*
X0386300Y0243800D01*
X0386300Y0248800D01*
X0388800Y0251300D01*
X0393800Y0251300D01*
X0396300Y0248800D01*
X0445792Y0220847D02*
X0445792Y0201753D01*
X0546808Y0201753D01*
X0546808Y0220847D01*
X0445792Y0220847D01*
X0369758Y0175743D02*
X0352842Y0175743D01*
X0352842Y0156857D01*
X0369758Y0156857D01*
X0369758Y0175743D01*
X0324758Y0226857D02*
X0307842Y0226857D01*
X0307842Y0245743D01*
X0324758Y0245743D01*
X0324758Y0226857D01*
X0283800Y0281300D02*
X0278800Y0281300D01*
X0276300Y0283800D01*
X0276300Y0288800D01*
X0278800Y0291300D01*
X0283800Y0291300D01*
X0286300Y0288800D01*
X0286300Y0283800D01*
X0283800Y0281300D01*
X0271300Y0288800D02*
X0271300Y0293800D01*
X0268800Y0296300D01*
X0263800Y0296300D01*
X0261300Y0293800D01*
X0261300Y0288800D01*
X0263800Y0286300D01*
X0268800Y0286300D01*
X0271300Y0288800D01*
X0171300Y0248800D02*
X0171300Y0243800D01*
X0168800Y0241300D01*
X0163800Y0241300D01*
X0161300Y0243800D01*
X0161300Y0248800D01*
X0163800Y0251300D01*
X0168800Y0251300D01*
X0171300Y0248800D01*
X0121300Y0268800D02*
X0118800Y0266300D01*
X0113800Y0266300D01*
X0111300Y0268800D01*
X0111300Y0273800D01*
X0113800Y0276300D01*
X0118800Y0276300D01*
X0121300Y0273800D01*
X0121300Y0268800D01*
X0123800Y0281300D02*
X0128800Y0281300D01*
X0131300Y0283800D01*
X0131300Y0288800D01*
X0128800Y0291300D01*
X0123800Y0291300D01*
X0121300Y0288800D01*
X0121300Y0283800D01*
X0123800Y0281300D01*
X0111300Y0288800D02*
X0111300Y0293800D01*
X0108800Y0296300D01*
X0103800Y0296300D01*
X0101300Y0293800D01*
X0101300Y0288800D01*
X0103800Y0286300D01*
X0108800Y0286300D01*
X0111300Y0288800D01*
X0141300Y0293800D02*
X0143800Y0291300D01*
X0148800Y0291300D01*
X0151300Y0293800D01*
X0151300Y0298800D01*
X0148800Y0301300D01*
X0143800Y0301300D01*
X0141300Y0298800D01*
X0141300Y0293800D01*
X0087670Y0263800D02*
X0087670Y0258800D01*
X0085170Y0256300D01*
X0080170Y0256300D01*
X0077670Y0258800D01*
X0077670Y0263800D01*
X0080170Y0266300D01*
X0085170Y0266300D01*
X0087670Y0263800D01*
X0071300Y0268800D02*
X0071300Y0273800D01*
X0068800Y0276300D01*
X0063800Y0276300D01*
X0061300Y0273800D01*
X0061300Y0268800D01*
X0063800Y0266300D01*
X0068800Y0266300D01*
X0071300Y0268800D01*
X0056300Y0253800D02*
X0053800Y0256300D01*
X0048800Y0256300D01*
X0046300Y0253800D01*
X0046300Y0248800D01*
X0048800Y0246300D01*
X0053800Y0246300D01*
X0056300Y0248800D01*
X0056300Y0253800D01*
X0076300Y0248800D02*
X0076300Y0243800D01*
X0078800Y0241300D01*
X0083800Y0241300D01*
X0086300Y0243800D01*
X0086300Y0248800D01*
X0083800Y0251300D01*
X0078800Y0251300D01*
X0076300Y0248800D01*
X0031300Y0233800D02*
X0031300Y0228800D01*
X0028800Y0226300D01*
X0023800Y0226300D01*
X0021300Y0228800D01*
X0021300Y0233800D01*
X0023800Y0236300D01*
X0028800Y0236300D01*
X0031300Y0233800D01*
X0024470Y0216634D02*
X0006753Y0216634D01*
X0006753Y0205020D01*
X0008722Y0205020D01*
X0008722Y0197146D01*
X0006753Y0197146D01*
X0006753Y0185532D01*
X0024470Y0185532D01*
X0024470Y0216634D01*
X0038800Y0201300D02*
X0036300Y0198800D01*
X0036300Y0193800D01*
X0038800Y0191300D01*
X0043800Y0191300D01*
X0046300Y0193800D01*
X0046300Y0198800D01*
X0043800Y0201300D01*
X0038800Y0201300D01*
X0056857Y0194758D02*
X0056857Y0177842D01*
X0075743Y0177842D01*
X0075743Y0194758D01*
X0056857Y0194758D01*
X0033436Y0178756D02*
X0030936Y0181256D01*
X0025936Y0181256D01*
X0023436Y0178756D01*
X0023436Y0173756D01*
X0025936Y0171256D01*
X0030936Y0171256D01*
X0033436Y0173756D01*
X0033436Y0178756D01*
X0031300Y0157800D02*
X0026300Y0157800D01*
X0023800Y0155300D01*
X0023800Y0150300D01*
X0026300Y0147800D01*
X0031300Y0147800D01*
X0033800Y0150300D01*
X0033800Y0155300D01*
X0031300Y0157800D01*
X0031209Y0135889D02*
X0026209Y0135889D01*
X0023709Y0133389D01*
X0023709Y0128389D01*
X0026209Y0125889D01*
X0031209Y0125889D01*
X0033709Y0128389D01*
X0033709Y0133389D01*
X0031209Y0135889D01*
X0022158Y0111851D02*
X0004442Y0111851D01*
X0004442Y0100237D01*
X0006410Y0100237D01*
X0006410Y0092363D01*
X0004442Y0092363D01*
X0004442Y0080749D01*
X0022158Y0080749D01*
X0022158Y0111851D01*
X0056857Y0109758D02*
X0056857Y0092842D01*
X0075743Y0092842D01*
X0075743Y0109758D01*
X0056857Y0109758D01*
X0020936Y0073133D02*
X0018436Y0075633D01*
X0013436Y0075633D01*
X0010936Y0073133D01*
X0010936Y0068133D01*
X0013436Y0065633D01*
X0018436Y0065633D01*
X0020936Y0068133D01*
X0020936Y0073133D01*
X0017586Y0060472D02*
X0012586Y0060472D01*
X0010086Y0057972D01*
X0010086Y0052972D01*
X0012586Y0050472D01*
X0017586Y0050472D01*
X0020086Y0052972D01*
X0020086Y0057972D01*
X0017586Y0060472D01*
X0056857Y0044758D02*
X0056857Y0027842D01*
X0075743Y0027842D01*
X0075743Y0044758D01*
X0056857Y0044758D01*
X0073800Y0021300D02*
X0071300Y0018800D01*
X0071300Y0013800D01*
X0073800Y0011300D01*
X0078800Y0011300D01*
X0081300Y0013800D01*
X0081300Y0018800D01*
X0078800Y0021300D01*
X0073800Y0021300D01*
X0034614Y0014026D02*
X0034614Y0009026D01*
X0032114Y0006526D01*
X0027114Y0006526D01*
X0024614Y0009026D01*
X0024614Y0014026D01*
X0027114Y0016526D01*
X0032114Y0016526D01*
X0034614Y0014026D01*
X0237118Y0039138D02*
X0239618Y0036638D01*
X0244618Y0036638D01*
X0247118Y0039138D01*
X0247118Y0044138D01*
X0244618Y0046638D01*
X0239618Y0046638D01*
X0237118Y0044138D01*
X0237118Y0039138D01*
X0280552Y0043957D02*
X0283052Y0041457D01*
X0288052Y0041457D01*
X0290552Y0043957D01*
X0290552Y0048957D01*
X0288052Y0051457D01*
X0283052Y0051457D01*
X0280552Y0048957D01*
X0280552Y0043957D01*
X0352842Y0051857D02*
X0352842Y0070743D01*
X0369758Y0070743D01*
X0369758Y0051857D01*
X0352842Y0051857D01*
X0352842Y0101857D02*
X0352842Y0120743D01*
X0369758Y0120743D01*
X0369758Y0101857D01*
X0352842Y0101857D01*
X0445792Y0050847D02*
X0445792Y0031753D01*
X0546808Y0031753D01*
X0546808Y0050847D01*
X0445792Y0050847D01*
X0022429Y0255824D02*
X0004713Y0255824D01*
X0004713Y0267439D01*
X0006681Y0267439D01*
X0006681Y0275313D01*
X0004713Y0275313D01*
X0004713Y0286927D01*
X0022429Y0286927D01*
X0022429Y0255824D01*
D14*
X0058721Y0180099D03*
X0058721Y0095099D03*
X0058721Y0030099D03*
X0355099Y0068879D03*
X0355099Y0118879D03*
X0355099Y0173879D03*
X0322501Y0228721D03*
D15*
X0321718Y0226110D02*
X0320250Y0223908D01*
X0319508Y0224275D02*
X0319508Y0226110D01*
X0320250Y0226110D02*
X0321718Y0223908D01*
X0319508Y0224275D02*
X0319141Y0223908D01*
X0318407Y0223908D01*
X0318040Y0224275D01*
X0318040Y0226110D01*
X0317298Y0226110D02*
X0317298Y0223908D01*
X0315830Y0223908D02*
X0315830Y0226110D01*
X0316564Y0225376D01*
X0317298Y0226110D01*
X0315088Y0223908D02*
X0313620Y0223908D01*
X0313620Y0226110D01*
X0312878Y0225743D02*
X0312511Y0226110D01*
X0311777Y0226110D01*
X0311410Y0225743D01*
X0311410Y0224275D01*
X0311777Y0223908D01*
X0312511Y0223908D01*
X0312878Y0224275D01*
X0310668Y0224275D02*
X0310301Y0223908D01*
X0309567Y0223908D01*
X0309200Y0224275D01*
X0309567Y0225009D02*
X0310301Y0225009D01*
X0310668Y0224642D01*
X0310668Y0224275D01*
X0309567Y0225009D02*
X0309200Y0225376D01*
X0309200Y0225743D01*
X0309567Y0226110D01*
X0310301Y0226110D01*
X0310668Y0225743D01*
X0283472Y0224929D02*
X0283472Y0224562D01*
X0282004Y0223095D01*
X0282004Y0222728D01*
X0281262Y0222728D02*
X0279794Y0222728D01*
X0280528Y0222728D02*
X0280528Y0224929D01*
X0279794Y0224195D01*
X0279052Y0223829D02*
X0278685Y0223462D01*
X0277584Y0223462D01*
X0278318Y0223462D02*
X0279052Y0222728D01*
X0279052Y0223829D02*
X0279052Y0224562D01*
X0278685Y0224929D01*
X0277584Y0224929D01*
X0277584Y0222728D01*
X0282004Y0224929D02*
X0283472Y0224929D01*
X0270664Y0208382D02*
X0269196Y0208382D01*
X0269196Y0207281D01*
X0269930Y0207648D01*
X0270297Y0207648D01*
X0270664Y0207281D01*
X0270664Y0206547D01*
X0270297Y0206180D01*
X0269563Y0206180D01*
X0269196Y0206547D01*
X0268455Y0206180D02*
X0267721Y0206914D01*
X0268088Y0206914D02*
X0266987Y0206914D01*
X0266987Y0206180D02*
X0266987Y0208382D01*
X0268088Y0208382D01*
X0268455Y0208015D01*
X0268455Y0207281D01*
X0268088Y0206914D01*
X0269068Y0174564D02*
X0270169Y0174564D01*
X0270536Y0174197D01*
X0270536Y0173463D01*
X0270169Y0173096D01*
X0269068Y0173096D01*
X0269802Y0173096D02*
X0270536Y0172362D01*
X0271278Y0172729D02*
X0271645Y0172362D01*
X0272379Y0172362D01*
X0272745Y0172729D01*
X0272745Y0173096D01*
X0272379Y0173463D01*
X0271278Y0173463D01*
X0271278Y0172729D01*
X0271278Y0173463D02*
X0272012Y0174197D01*
X0272745Y0174564D01*
X0269068Y0174564D02*
X0269068Y0172362D01*
X0226983Y0158586D02*
X0226983Y0158219D01*
X0226616Y0157852D01*
X0225883Y0157852D01*
X0225516Y0158219D01*
X0225516Y0158586D01*
X0225883Y0158953D01*
X0226616Y0158953D01*
X0226983Y0158586D01*
X0226616Y0157852D02*
X0226983Y0157485D01*
X0226983Y0157118D01*
X0226616Y0156751D01*
X0225883Y0156751D01*
X0225516Y0157118D01*
X0225516Y0157485D01*
X0225883Y0157852D01*
X0224774Y0157852D02*
X0224407Y0157485D01*
X0223306Y0157485D01*
X0224040Y0157485D02*
X0224774Y0156751D01*
X0224774Y0157852D02*
X0224774Y0158586D01*
X0224407Y0158953D01*
X0223306Y0158953D01*
X0223306Y0156751D01*
X0215631Y0156819D02*
X0215264Y0157186D01*
X0214163Y0157186D01*
X0214163Y0156452D01*
X0214530Y0156085D01*
X0215264Y0156085D01*
X0215631Y0156452D01*
X0215631Y0156819D01*
X0214897Y0157920D02*
X0214163Y0157186D01*
X0214897Y0157920D02*
X0215631Y0158287D01*
X0212687Y0158287D02*
X0212687Y0156085D01*
X0211953Y0156085D02*
X0213421Y0156085D01*
X0211953Y0157553D02*
X0212687Y0158287D01*
X0211211Y0157920D02*
X0210844Y0158287D01*
X0210110Y0158287D01*
X0209743Y0157920D01*
X0209743Y0156452D01*
X0210110Y0156085D01*
X0210844Y0156085D01*
X0211211Y0156452D01*
X0231981Y0139506D02*
X0233082Y0139506D01*
X0233449Y0139139D01*
X0233449Y0138406D01*
X0233082Y0138039D01*
X0231981Y0138039D01*
X0232715Y0138039D02*
X0233449Y0137305D01*
X0234191Y0137305D02*
X0235659Y0137305D01*
X0234925Y0137305D02*
X0234925Y0139506D01*
X0234191Y0138773D01*
X0236401Y0139139D02*
X0236768Y0139506D01*
X0237501Y0139506D01*
X0237868Y0139139D01*
X0236401Y0137672D01*
X0236768Y0137305D01*
X0237501Y0137305D01*
X0237868Y0137672D01*
X0237868Y0139139D01*
X0236401Y0139139D02*
X0236401Y0137672D01*
X0231981Y0137305D02*
X0231981Y0139506D01*
X0239203Y0124798D02*
X0240304Y0124798D01*
X0240671Y0124431D01*
X0240671Y0123697D01*
X0240304Y0123330D01*
X0239203Y0123330D01*
X0239203Y0122596D02*
X0239203Y0124798D01*
X0239937Y0123330D02*
X0240671Y0122596D01*
X0241413Y0122963D02*
X0241780Y0122596D01*
X0242514Y0122596D01*
X0242881Y0122963D01*
X0242881Y0124431D01*
X0242514Y0124798D01*
X0241780Y0124798D01*
X0241413Y0124431D01*
X0241413Y0124064D01*
X0241780Y0123697D01*
X0242881Y0123697D01*
X0243061Y0114923D02*
X0243061Y0112721D01*
X0242327Y0112721D02*
X0243795Y0112721D01*
X0242327Y0114189D02*
X0243061Y0114923D01*
X0240851Y0114923D02*
X0240851Y0112721D01*
X0240117Y0112721D02*
X0241585Y0112721D01*
X0240117Y0114189D02*
X0240851Y0114923D01*
X0239375Y0114556D02*
X0239375Y0113822D01*
X0239009Y0113455D01*
X0237908Y0113455D01*
X0238642Y0113455D02*
X0239375Y0112721D01*
X0237908Y0112721D02*
X0237908Y0114923D01*
X0239009Y0114923D01*
X0239375Y0114556D01*
X0255625Y0137300D02*
X0256359Y0137300D01*
X0256726Y0137667D01*
X0257468Y0137300D02*
X0258936Y0137300D01*
X0258202Y0137300D02*
X0258202Y0139501D01*
X0257468Y0138767D01*
X0256726Y0139134D02*
X0256359Y0139501D01*
X0255625Y0139501D01*
X0255258Y0139134D01*
X0255258Y0137667D01*
X0255625Y0137300D01*
X0259678Y0137667D02*
X0259678Y0138034D01*
X0260045Y0138401D01*
X0260779Y0138401D01*
X0261146Y0138034D01*
X0261146Y0137667D01*
X0260779Y0137300D01*
X0260045Y0137300D01*
X0259678Y0137667D01*
X0260045Y0138401D02*
X0259678Y0138767D01*
X0259678Y0139134D01*
X0260045Y0139501D01*
X0260779Y0139501D01*
X0261146Y0139134D01*
X0261146Y0138767D01*
X0260779Y0138401D01*
X0300146Y0145336D02*
X0300513Y0144969D01*
X0301247Y0144969D01*
X0301614Y0145336D01*
X0302356Y0144969D02*
X0303824Y0144969D01*
X0303090Y0144969D02*
X0303090Y0147171D01*
X0302356Y0146437D01*
X0301614Y0146804D02*
X0301247Y0147171D01*
X0300513Y0147171D01*
X0300146Y0146804D01*
X0300146Y0145336D01*
X0304566Y0145336D02*
X0304566Y0144969D01*
X0304566Y0145336D02*
X0306034Y0146804D01*
X0306034Y0147171D01*
X0304566Y0147171D01*
X0353685Y0123703D02*
X0354419Y0124437D01*
X0355153Y0123703D01*
X0355153Y0122235D01*
X0355895Y0122602D02*
X0355895Y0124070D01*
X0356262Y0124437D01*
X0356996Y0124437D01*
X0357363Y0124070D01*
X0357363Y0122602D01*
X0356996Y0122235D01*
X0356262Y0122235D01*
X0355895Y0122602D01*
X0355153Y0123336D02*
X0353685Y0123336D01*
X0353685Y0123703D02*
X0353685Y0122235D01*
X0358105Y0122235D02*
X0359573Y0122235D01*
X0358839Y0122235D02*
X0358839Y0124437D01*
X0358105Y0123703D01*
X0360315Y0124437D02*
X0360315Y0122235D01*
X0361783Y0122235D02*
X0361783Y0124437D01*
X0361049Y0123703D01*
X0360315Y0124437D01*
X0362525Y0124437D02*
X0362525Y0122602D01*
X0362892Y0122235D01*
X0363626Y0122235D01*
X0363993Y0122602D01*
X0363993Y0124437D01*
X0364735Y0124437D02*
X0366202Y0122235D01*
X0364735Y0122235D02*
X0366202Y0124437D01*
X0366399Y0074125D02*
X0367867Y0071923D01*
X0366399Y0071923D02*
X0367867Y0074125D01*
X0365657Y0074125D02*
X0365657Y0072290D01*
X0365290Y0071923D01*
X0364556Y0071923D01*
X0364189Y0072290D01*
X0364189Y0074125D01*
X0363447Y0074125D02*
X0363447Y0071923D01*
X0361979Y0071923D02*
X0361979Y0074125D01*
X0362713Y0073391D01*
X0363447Y0074125D01*
X0361237Y0073758D02*
X0360870Y0074125D01*
X0360136Y0074125D01*
X0359769Y0073758D01*
X0359027Y0073758D02*
X0358660Y0074125D01*
X0357926Y0074125D01*
X0357559Y0073758D01*
X0357559Y0072290D01*
X0357926Y0071923D01*
X0358660Y0071923D01*
X0359027Y0072290D01*
X0359027Y0073758D01*
X0359769Y0071923D02*
X0361237Y0073391D01*
X0361237Y0073758D01*
X0361237Y0071923D02*
X0359769Y0071923D01*
X0356818Y0071923D02*
X0356818Y0073391D01*
X0356084Y0074125D01*
X0355350Y0073391D01*
X0355350Y0071923D01*
X0355350Y0073024D02*
X0356818Y0073024D01*
X0481147Y0019046D02*
X0482248Y0019046D01*
X0482615Y0018679D01*
X0482615Y0017945D01*
X0482248Y0017578D01*
X0481147Y0017578D01*
X0481147Y0016844D02*
X0481147Y0019046D01*
X0481881Y0017578D02*
X0482615Y0016844D01*
X0483357Y0016844D02*
X0484825Y0018312D01*
X0484825Y0018679D01*
X0484458Y0019046D01*
X0483724Y0019046D01*
X0483357Y0018679D01*
X0483357Y0016844D02*
X0484825Y0016844D01*
X0485567Y0017211D02*
X0485934Y0016844D01*
X0486668Y0016844D01*
X0487035Y0017211D01*
X0487035Y0017578D01*
X0486668Y0017945D01*
X0485567Y0017945D01*
X0485567Y0017211D01*
X0485567Y0017945D02*
X0486301Y0018679D01*
X0487035Y0019046D01*
X0501085Y0017807D02*
X0501085Y0015606D01*
X0501085Y0016340D02*
X0502186Y0016340D01*
X0502553Y0016706D01*
X0502553Y0017440D01*
X0502186Y0017807D01*
X0501085Y0017807D01*
X0501819Y0016340D02*
X0502553Y0015606D01*
X0503295Y0015606D02*
X0504763Y0017073D01*
X0504763Y0017440D01*
X0504396Y0017807D01*
X0503662Y0017807D01*
X0503295Y0017440D01*
X0503295Y0015606D02*
X0504763Y0015606D01*
X0505505Y0015606D02*
X0505505Y0015973D01*
X0506973Y0017440D01*
X0506973Y0017807D01*
X0505505Y0017807D01*
X0521024Y0018529D02*
X0521024Y0020731D01*
X0522125Y0020731D01*
X0522491Y0020364D01*
X0522491Y0019630D01*
X0522125Y0019263D01*
X0521024Y0019263D01*
X0521758Y0019263D02*
X0522491Y0018529D01*
X0523233Y0018529D02*
X0524701Y0019997D01*
X0524701Y0020364D01*
X0524334Y0020731D01*
X0523600Y0020731D01*
X0523233Y0020364D01*
X0523233Y0018529D02*
X0524701Y0018529D01*
X0525443Y0018896D02*
X0525443Y0019263D01*
X0525810Y0019630D01*
X0526544Y0019630D01*
X0526911Y0019263D01*
X0526911Y0018896D01*
X0526544Y0018529D01*
X0525810Y0018529D01*
X0525443Y0018896D01*
X0525810Y0019630D02*
X0525443Y0019997D01*
X0525443Y0020364D01*
X0525810Y0020731D01*
X0526544Y0020731D01*
X0526911Y0020364D01*
X0526911Y0019997D01*
X0526544Y0019630D01*
X0532544Y0028192D02*
X0532544Y0030394D01*
X0533645Y0030394D01*
X0534012Y0030027D01*
X0534012Y0029293D01*
X0533645Y0028926D01*
X0532544Y0028926D01*
X0533278Y0028926D02*
X0534012Y0028192D01*
X0534754Y0028192D02*
X0536222Y0029660D01*
X0536222Y0030027D01*
X0535855Y0030394D01*
X0535121Y0030394D01*
X0534754Y0030027D01*
X0534754Y0028192D02*
X0536222Y0028192D01*
X0536964Y0028559D02*
X0537331Y0028192D01*
X0538065Y0028192D01*
X0538432Y0028559D01*
X0538432Y0030027D01*
X0538065Y0030394D01*
X0537331Y0030394D01*
X0536964Y0030027D01*
X0536964Y0029660D01*
X0537331Y0029293D01*
X0538432Y0029293D01*
X0366411Y0176507D02*
X0364943Y0178709D01*
X0364201Y0178709D02*
X0364201Y0176874D01*
X0363834Y0176507D01*
X0363100Y0176507D01*
X0362733Y0176874D01*
X0362733Y0178709D01*
X0361991Y0178709D02*
X0361991Y0176507D01*
X0360523Y0176507D02*
X0360523Y0178709D01*
X0361257Y0177975D01*
X0361991Y0178709D01*
X0359781Y0178342D02*
X0358313Y0176874D01*
X0358680Y0176507D01*
X0359414Y0176507D01*
X0359781Y0176874D01*
X0359781Y0178342D01*
X0359414Y0178709D01*
X0358680Y0178709D01*
X0358313Y0178342D01*
X0358313Y0176874D01*
X0357571Y0176874D02*
X0357571Y0178342D01*
X0357204Y0178709D01*
X0356470Y0178709D01*
X0356103Y0178342D01*
X0356103Y0176874D01*
X0356470Y0176507D01*
X0357204Y0176507D01*
X0357571Y0176874D01*
X0355361Y0176507D02*
X0355361Y0177975D01*
X0354627Y0178709D01*
X0353893Y0177975D01*
X0353893Y0176507D01*
X0353893Y0177608D02*
X0355361Y0177608D01*
X0364943Y0176507D02*
X0366411Y0178709D01*
X0367002Y0246455D02*
X0367002Y0248657D01*
X0368103Y0248657D01*
X0368470Y0248290D01*
X0368470Y0247556D01*
X0368103Y0247189D01*
X0367002Y0247189D01*
X0367736Y0247189D02*
X0368470Y0246455D01*
X0369212Y0246455D02*
X0370680Y0246455D01*
X0369946Y0246455D02*
X0369946Y0248657D01*
X0369212Y0247923D01*
X0371422Y0247556D02*
X0372156Y0247923D01*
X0372523Y0247923D01*
X0372890Y0247556D01*
X0372890Y0246822D01*
X0372523Y0246455D01*
X0371789Y0246455D01*
X0371422Y0246822D01*
X0371422Y0247556D02*
X0371422Y0248657D01*
X0372890Y0248657D01*
X0341376Y0264040D02*
X0341009Y0263673D01*
X0340275Y0263673D01*
X0339908Y0264040D01*
X0339908Y0264406D01*
X0340275Y0264773D01*
X0341009Y0264773D01*
X0341376Y0264406D01*
X0341376Y0264040D01*
X0341009Y0264773D02*
X0341376Y0265140D01*
X0341376Y0265507D01*
X0341009Y0265874D01*
X0340275Y0265874D01*
X0339908Y0265507D01*
X0339908Y0265140D01*
X0340275Y0264773D01*
X0339166Y0263673D02*
X0337699Y0263673D01*
X0338432Y0263673D02*
X0338432Y0265874D01*
X0337699Y0265140D01*
X0336957Y0264773D02*
X0336590Y0264406D01*
X0335489Y0264406D01*
X0335489Y0263673D02*
X0335489Y0265874D01*
X0336590Y0265874D01*
X0336957Y0265507D01*
X0336957Y0264773D01*
X0336223Y0264406D02*
X0336957Y0263673D01*
X0326560Y0271643D02*
X0325092Y0271643D01*
X0325826Y0271643D02*
X0325826Y0273845D01*
X0325092Y0273111D01*
X0324350Y0273111D02*
X0324350Y0273478D01*
X0323983Y0273845D01*
X0323249Y0273845D01*
X0322882Y0273478D01*
X0322140Y0273478D02*
X0322140Y0272744D01*
X0321773Y0272377D01*
X0320672Y0272377D01*
X0320672Y0271643D02*
X0320672Y0273845D01*
X0321773Y0273845D01*
X0322140Y0273478D01*
X0321406Y0272377D02*
X0322140Y0271643D01*
X0322882Y0271643D02*
X0324350Y0273111D01*
X0324350Y0271643D02*
X0322882Y0271643D01*
X0304555Y0271708D02*
X0303087Y0271708D01*
X0304555Y0273176D01*
X0304555Y0273543D01*
X0304188Y0273910D01*
X0303454Y0273910D01*
X0303087Y0273543D01*
X0302345Y0273543D02*
X0301978Y0273910D01*
X0301244Y0273910D01*
X0300877Y0273543D01*
X0300135Y0273543D02*
X0300135Y0272809D01*
X0299768Y0272442D01*
X0298667Y0272442D01*
X0298667Y0271708D02*
X0298667Y0273910D01*
X0299768Y0273910D01*
X0300135Y0273543D01*
X0299401Y0272442D02*
X0300135Y0271708D01*
X0300877Y0271708D02*
X0302345Y0273176D01*
X0302345Y0273543D01*
X0302345Y0271708D02*
X0300877Y0271708D01*
X0302150Y0289190D02*
X0302150Y0291392D01*
X0303251Y0291392D01*
X0303618Y0291025D01*
X0303618Y0290291D01*
X0303251Y0289924D01*
X0302150Y0289924D01*
X0302884Y0289924D02*
X0303618Y0289190D01*
X0304360Y0289190D02*
X0305828Y0290658D01*
X0305828Y0291025D01*
X0305461Y0291392D01*
X0304727Y0291392D01*
X0304360Y0291025D01*
X0304360Y0289190D02*
X0305828Y0289190D01*
X0306570Y0289557D02*
X0308038Y0291025D01*
X0308038Y0289557D01*
X0307671Y0289190D01*
X0306937Y0289190D01*
X0306570Y0289557D01*
X0306570Y0291025D01*
X0306937Y0291392D01*
X0307671Y0291392D01*
X0308038Y0291025D01*
X0261903Y0288638D02*
X0260435Y0287170D01*
X0260802Y0286803D01*
X0261536Y0286803D01*
X0261903Y0287170D01*
X0261903Y0288638D01*
X0261536Y0289005D01*
X0260802Y0289005D01*
X0260435Y0288638D01*
X0260435Y0287170D01*
X0259693Y0286803D02*
X0258226Y0286803D01*
X0258960Y0286803D02*
X0258960Y0289005D01*
X0258226Y0288271D01*
X0257484Y0288638D02*
X0257117Y0289005D01*
X0256383Y0289005D01*
X0256016Y0288638D01*
X0256016Y0287170D01*
X0256383Y0286803D01*
X0257117Y0286803D01*
X0257484Y0287170D01*
X0242468Y0305012D02*
X0241000Y0305012D01*
X0241734Y0305012D02*
X0241734Y0307214D01*
X0241000Y0306480D01*
X0240258Y0305012D02*
X0238790Y0305012D01*
X0239524Y0305012D02*
X0239524Y0307214D01*
X0238790Y0306480D01*
X0238048Y0306847D02*
X0237682Y0307214D01*
X0236948Y0307214D01*
X0236581Y0306847D01*
X0236581Y0305379D01*
X0236948Y0305012D01*
X0237682Y0305012D01*
X0238048Y0305379D01*
X0222469Y0299020D02*
X0222102Y0299387D01*
X0221369Y0299387D01*
X0221002Y0299020D01*
X0222469Y0299020D02*
X0222469Y0298653D01*
X0221002Y0297185D01*
X0222469Y0297185D01*
X0220260Y0297185D02*
X0218792Y0297185D01*
X0219526Y0297185D02*
X0219526Y0299387D01*
X0218792Y0298653D01*
X0218050Y0299020D02*
X0217683Y0299387D01*
X0216949Y0299387D01*
X0216582Y0299020D01*
X0216582Y0297552D01*
X0216949Y0297185D01*
X0217683Y0297185D01*
X0218050Y0297552D01*
X0209772Y0294381D02*
X0209772Y0294014D01*
X0209405Y0293647D01*
X0208671Y0293647D01*
X0208304Y0294014D01*
X0208304Y0294381D01*
X0208671Y0294748D01*
X0209405Y0294748D01*
X0209772Y0294381D01*
X0209405Y0293647D02*
X0209772Y0293280D01*
X0209772Y0292913D01*
X0209405Y0292546D01*
X0208671Y0292546D01*
X0208304Y0292913D01*
X0208304Y0293280D01*
X0208671Y0293647D01*
X0207562Y0292913D02*
X0207195Y0292546D01*
X0206461Y0292546D01*
X0206094Y0292913D01*
X0206094Y0294381D01*
X0206461Y0294748D01*
X0207195Y0294748D01*
X0207562Y0294381D01*
X0165785Y0266655D02*
X0164317Y0266655D01*
X0164317Y0265554D01*
X0165051Y0265921D01*
X0165418Y0265921D01*
X0165785Y0265554D01*
X0165785Y0264820D01*
X0165418Y0264453D01*
X0164684Y0264453D01*
X0164317Y0264820D01*
X0163575Y0264820D02*
X0163208Y0264453D01*
X0162474Y0264453D01*
X0162107Y0264820D01*
X0162107Y0266288D01*
X0162474Y0266655D01*
X0163208Y0266655D01*
X0163575Y0266288D01*
X0151333Y0262429D02*
X0151333Y0260227D01*
X0150599Y0260227D02*
X0152067Y0260227D01*
X0150599Y0261695D02*
X0151333Y0262429D01*
X0149857Y0262062D02*
X0149490Y0262429D01*
X0148757Y0262429D01*
X0148390Y0262062D01*
X0148390Y0260594D01*
X0148757Y0260227D01*
X0149490Y0260227D01*
X0149857Y0260594D01*
X0160750Y0236002D02*
X0160383Y0235636D01*
X0160383Y0234168D01*
X0160750Y0233801D01*
X0161484Y0233801D01*
X0161851Y0234168D01*
X0162593Y0234168D02*
X0162960Y0233801D01*
X0163694Y0233801D01*
X0164061Y0234168D01*
X0164061Y0234535D01*
X0163694Y0234902D01*
X0162593Y0234902D01*
X0162593Y0234168D01*
X0162593Y0234902D02*
X0163327Y0235636D01*
X0164061Y0236002D01*
X0161851Y0235636D02*
X0161484Y0236002D01*
X0160750Y0236002D01*
X0130695Y0213825D02*
X0130695Y0213458D01*
X0130328Y0213091D01*
X0130695Y0212724D01*
X0130695Y0212357D01*
X0130328Y0211990D01*
X0129594Y0211990D01*
X0129227Y0212357D01*
X0128485Y0212357D02*
X0128118Y0211990D01*
X0127384Y0211990D01*
X0127017Y0212357D01*
X0127017Y0213825D01*
X0127384Y0214192D01*
X0128118Y0214192D01*
X0128485Y0213825D01*
X0129227Y0213825D02*
X0129594Y0214192D01*
X0130328Y0214192D01*
X0130695Y0213825D01*
X0130328Y0213091D02*
X0129961Y0213091D01*
X0150145Y0212119D02*
X0150145Y0210651D01*
X0150512Y0210284D01*
X0151246Y0210284D01*
X0151613Y0210651D01*
X0152355Y0211385D02*
X0153823Y0211385D01*
X0153456Y0210284D02*
X0153456Y0212486D01*
X0152355Y0211385D01*
X0151613Y0212119D02*
X0151246Y0212486D01*
X0150512Y0212486D01*
X0150145Y0212119D01*
X0112009Y0235390D02*
X0110541Y0235390D01*
X0112009Y0236858D01*
X0112009Y0237225D01*
X0111642Y0237592D01*
X0110908Y0237592D01*
X0110541Y0237225D01*
X0109799Y0237225D02*
X0109432Y0237592D01*
X0108698Y0237592D01*
X0108331Y0237225D01*
X0108331Y0235757D01*
X0108698Y0235390D01*
X0109432Y0235390D01*
X0109799Y0235757D01*
X0091541Y0244132D02*
X0090073Y0242664D01*
X0090073Y0242297D01*
X0089331Y0242664D02*
X0088964Y0242297D01*
X0088230Y0242297D01*
X0087863Y0242664D01*
X0087863Y0244132D01*
X0088230Y0244499D01*
X0088964Y0244499D01*
X0089331Y0244132D01*
X0090073Y0244499D02*
X0091541Y0244499D01*
X0091541Y0244132D01*
X0223795Y0255480D02*
X0224162Y0255113D01*
X0224896Y0255113D01*
X0225263Y0255480D01*
X0226005Y0255480D02*
X0226372Y0255113D01*
X0227106Y0255113D01*
X0227473Y0255480D01*
X0227473Y0256948D01*
X0227106Y0257315D01*
X0226372Y0257315D01*
X0226005Y0256948D01*
X0226005Y0256581D01*
X0226372Y0256214D01*
X0227473Y0256214D01*
X0225263Y0256948D02*
X0224896Y0257315D01*
X0224162Y0257315D01*
X0223795Y0256948D01*
X0223795Y0255480D01*
X0313305Y0252848D02*
X0313305Y0250647D01*
X0313305Y0251380D02*
X0314405Y0251380D01*
X0314772Y0251747D01*
X0314772Y0252481D01*
X0314405Y0252848D01*
X0313305Y0252848D01*
X0314039Y0251380D02*
X0314772Y0250647D01*
X0315514Y0250647D02*
X0316982Y0250647D01*
X0316248Y0250647D02*
X0316248Y0252848D01*
X0315514Y0252114D01*
X0317724Y0252114D02*
X0318091Y0251747D01*
X0319192Y0251747D01*
X0319192Y0251014D02*
X0319192Y0252481D01*
X0318825Y0252848D01*
X0318091Y0252848D01*
X0317724Y0252481D01*
X0317724Y0252114D01*
X0317724Y0251014D02*
X0318091Y0250647D01*
X0318825Y0250647D01*
X0319192Y0251014D01*
X0356342Y0303010D02*
X0357076Y0303010D01*
X0357443Y0303377D01*
X0358185Y0303010D02*
X0359653Y0303010D01*
X0360395Y0302643D02*
X0361863Y0302643D01*
X0362605Y0303010D02*
X0362605Y0305212D01*
X0363706Y0305212D01*
X0364073Y0304845D01*
X0364073Y0304111D01*
X0363706Y0303744D01*
X0362605Y0303744D01*
X0363339Y0303744D02*
X0364073Y0303010D01*
X0364815Y0303010D02*
X0366283Y0303010D01*
X0367025Y0303377D02*
X0367392Y0303010D01*
X0368126Y0303010D01*
X0368493Y0303377D01*
X0368493Y0303744D01*
X0368126Y0304111D01*
X0367392Y0304111D01*
X0367025Y0304478D01*
X0367025Y0304845D01*
X0367392Y0305212D01*
X0368126Y0305212D01*
X0368493Y0304845D01*
X0366283Y0305212D02*
X0364815Y0305212D01*
X0364815Y0303010D01*
X0364815Y0304111D02*
X0365549Y0304111D01*
X0358185Y0305212D02*
X0358185Y0303010D01*
X0356342Y0303010D02*
X0355975Y0303377D01*
X0355975Y0304845D01*
X0356342Y0305212D01*
X0357076Y0305212D01*
X0357443Y0304845D01*
X0430336Y0289135D02*
X0430703Y0288768D01*
X0431437Y0288768D01*
X0431804Y0288401D01*
X0431437Y0288034D01*
X0430336Y0288034D01*
X0430336Y0289135D02*
X0430703Y0289502D01*
X0431804Y0289502D01*
X0432546Y0289135D02*
X0432546Y0288401D01*
X0432913Y0288034D01*
X0434014Y0288034D01*
X0434756Y0288034D02*
X0435490Y0288034D01*
X0435123Y0288034D02*
X0435123Y0290236D01*
X0434756Y0290236D01*
X0434014Y0289502D02*
X0432913Y0289502D01*
X0432546Y0289135D01*
X0452651Y0289937D02*
X0454853Y0289937D01*
X0454119Y0289937D02*
X0452651Y0291405D01*
X0453752Y0290304D02*
X0454853Y0291405D01*
X0454853Y0289195D02*
X0454853Y0287727D01*
X0452651Y0287727D01*
X0453018Y0286985D02*
X0452651Y0286618D01*
X0452651Y0285884D01*
X0453018Y0285517D01*
X0454486Y0285517D01*
X0454853Y0285884D01*
X0454853Y0286618D01*
X0454486Y0286985D01*
X0454486Y0284775D02*
X0454853Y0284408D01*
X0454853Y0283674D01*
X0454486Y0283307D01*
X0453752Y0283674D02*
X0453752Y0284408D01*
X0454119Y0284775D01*
X0454486Y0284775D01*
X0453752Y0283674D02*
X0453385Y0283307D01*
X0453018Y0283307D01*
X0452651Y0283674D01*
X0452651Y0284408D01*
X0453018Y0284775D01*
X0459244Y0284459D02*
X0461446Y0284459D01*
X0461079Y0285201D02*
X0461446Y0285568D01*
X0461446Y0286302D01*
X0461079Y0286669D01*
X0459611Y0286669D01*
X0459244Y0286302D01*
X0459244Y0285568D01*
X0459611Y0285201D01*
X0461079Y0285201D01*
X0459978Y0283725D02*
X0459244Y0284459D01*
X0459978Y0283725D02*
X0459244Y0282991D01*
X0461446Y0282991D01*
X0461079Y0287411D02*
X0461446Y0287778D01*
X0461446Y0288512D01*
X0461079Y0288879D01*
X0460712Y0288879D01*
X0460345Y0288512D01*
X0460345Y0287778D01*
X0459978Y0287411D01*
X0459611Y0287411D01*
X0459244Y0287778D01*
X0459244Y0288512D01*
X0459611Y0288879D01*
X0459244Y0289621D02*
X0459244Y0290355D01*
X0459244Y0289988D02*
X0461446Y0289988D01*
X0461446Y0289621D02*
X0461446Y0290355D01*
X0467506Y0289640D02*
X0467506Y0288906D01*
X0467873Y0288539D01*
X0469341Y0288539D01*
X0469708Y0288906D01*
X0469708Y0289640D01*
X0469341Y0290007D01*
X0467873Y0290007D01*
X0467506Y0289640D01*
X0467873Y0287797D02*
X0467506Y0287430D01*
X0467506Y0286696D01*
X0467873Y0286329D01*
X0468240Y0286329D01*
X0468607Y0286696D01*
X0468607Y0287430D01*
X0468974Y0287797D01*
X0469341Y0287797D01*
X0469708Y0287430D01*
X0469708Y0286696D01*
X0469341Y0286329D01*
X0469708Y0285590D02*
X0469708Y0284856D01*
X0469708Y0285223D02*
X0467506Y0285223D01*
X0467506Y0284856D02*
X0467506Y0285590D01*
X0467506Y0284114D02*
X0469708Y0284114D01*
X0469708Y0282646D02*
X0467506Y0282646D01*
X0468240Y0283380D01*
X0467506Y0284114D01*
X0476562Y0283772D02*
X0476562Y0284506D01*
X0476929Y0284873D01*
X0477296Y0284873D01*
X0477663Y0284506D01*
X0478030Y0284873D01*
X0478397Y0284873D01*
X0478764Y0284506D01*
X0478764Y0283772D01*
X0478397Y0283405D01*
X0477663Y0284139D02*
X0477663Y0284506D01*
X0476929Y0283405D02*
X0476562Y0283772D01*
X0478397Y0285615D02*
X0478397Y0285982D01*
X0478764Y0285982D01*
X0478764Y0285615D01*
X0478397Y0285615D01*
X0478397Y0286720D02*
X0478764Y0287087D01*
X0478764Y0287820D01*
X0478397Y0288187D01*
X0478030Y0288187D01*
X0477663Y0287820D01*
X0477663Y0287454D01*
X0477663Y0287820D02*
X0477296Y0288187D01*
X0476929Y0288187D01*
X0476562Y0287820D01*
X0476562Y0287087D01*
X0476929Y0286720D01*
X0476562Y0288929D02*
X0478030Y0288929D01*
X0478764Y0289663D01*
X0478030Y0290397D01*
X0476562Y0290397D01*
X0484542Y0287565D02*
X0484542Y0286464D01*
X0484909Y0286097D01*
X0485276Y0286464D01*
X0485276Y0287198D01*
X0485643Y0287565D01*
X0486010Y0287198D01*
X0486010Y0286097D01*
X0485643Y0285355D02*
X0485276Y0284988D01*
X0485276Y0284254D01*
X0484909Y0283887D01*
X0484542Y0284254D01*
X0484542Y0285355D01*
X0485643Y0285355D02*
X0486010Y0284988D01*
X0486010Y0283887D01*
X0493633Y0283873D02*
X0493633Y0282772D01*
X0494000Y0282405D01*
X0494734Y0282405D01*
X0495101Y0282772D01*
X0495101Y0283873D01*
X0495468Y0283873D02*
X0493633Y0283873D01*
X0493633Y0284615D02*
X0493633Y0285716D01*
X0494000Y0286083D01*
X0495101Y0286083D01*
X0494734Y0286824D02*
X0494000Y0286824D01*
X0493633Y0287191D01*
X0493633Y0288292D01*
X0492899Y0288292D02*
X0495101Y0288292D01*
X0495101Y0287191D01*
X0494734Y0286824D01*
X0495101Y0284615D02*
X0493633Y0284615D01*
X0495468Y0283873D02*
X0495835Y0283506D01*
X0495835Y0283139D01*
X0200658Y0101202D02*
X0199190Y0101202D01*
X0199190Y0100101D01*
X0199924Y0100468D01*
X0200291Y0100468D01*
X0200658Y0100101D01*
X0200658Y0099367D01*
X0200291Y0099000D01*
X0199557Y0099000D01*
X0199190Y0099367D01*
X0198448Y0099000D02*
X0196980Y0099000D01*
X0197714Y0099000D02*
X0197714Y0101202D01*
X0196980Y0100468D01*
X0196238Y0100835D02*
X0195871Y0101202D01*
X0195137Y0101202D01*
X0194770Y0100835D01*
X0194770Y0099367D01*
X0195137Y0099000D01*
X0195871Y0099000D01*
X0196238Y0099367D01*
X0201118Y0089513D02*
X0200751Y0089146D01*
X0200751Y0087679D01*
X0201118Y0087312D01*
X0201852Y0087312D01*
X0202219Y0087679D01*
X0202961Y0087312D02*
X0204429Y0088779D01*
X0204429Y0089146D01*
X0204062Y0089513D01*
X0203328Y0089513D01*
X0202961Y0089146D01*
X0202219Y0089146D02*
X0201852Y0089513D01*
X0201118Y0089513D01*
X0202961Y0087312D02*
X0204429Y0087312D01*
X0205171Y0087679D02*
X0206639Y0089146D01*
X0206639Y0087679D01*
X0206272Y0087312D01*
X0205538Y0087312D01*
X0205171Y0087679D01*
X0205171Y0089146D01*
X0205538Y0089513D01*
X0206272Y0089513D01*
X0206639Y0089146D01*
X0171455Y0088785D02*
X0171088Y0089152D01*
X0170354Y0089152D01*
X0169987Y0088785D01*
X0169987Y0088418D01*
X0170354Y0088051D01*
X0171455Y0088051D01*
X0171455Y0087317D02*
X0171455Y0088785D01*
X0171455Y0087317D02*
X0171088Y0086950D01*
X0170354Y0086950D01*
X0169987Y0087317D01*
X0169245Y0086950D02*
X0167777Y0086950D01*
X0168511Y0086950D02*
X0168511Y0089152D01*
X0167777Y0088418D01*
X0167035Y0088785D02*
X0166668Y0089152D01*
X0165934Y0089152D01*
X0165567Y0088785D01*
X0165567Y0087317D01*
X0165934Y0086950D01*
X0166668Y0086950D01*
X0167035Y0087317D01*
X0148714Y0106700D02*
X0149081Y0107067D01*
X0149081Y0107434D01*
X0148714Y0107801D01*
X0147613Y0107801D01*
X0147613Y0107067D01*
X0147980Y0106700D01*
X0148714Y0106700D01*
X0147613Y0107801D02*
X0148347Y0108535D01*
X0149081Y0108902D01*
X0146137Y0108902D02*
X0146137Y0106700D01*
X0145403Y0106700D02*
X0146871Y0106700D01*
X0145403Y0108168D02*
X0146137Y0108902D01*
X0144661Y0108535D02*
X0144661Y0107801D01*
X0144294Y0107434D01*
X0143193Y0107434D01*
X0143193Y0106700D02*
X0143193Y0108902D01*
X0144294Y0108902D01*
X0144661Y0108535D01*
X0143927Y0107434D02*
X0144661Y0106700D01*
X0160137Y0129000D02*
X0160871Y0129000D01*
X0161238Y0129367D01*
X0161980Y0129000D02*
X0163448Y0129000D01*
X0162714Y0129000D02*
X0162714Y0131202D01*
X0161980Y0130468D01*
X0161238Y0130835D02*
X0160871Y0131202D01*
X0160137Y0131202D01*
X0159770Y0130835D01*
X0159770Y0129367D01*
X0160137Y0129000D01*
X0164190Y0130101D02*
X0165291Y0131202D01*
X0165291Y0129000D01*
X0165658Y0130101D02*
X0164190Y0130101D01*
X0150102Y0165417D02*
X0149368Y0165417D01*
X0149001Y0165783D01*
X0148259Y0165417D02*
X0146792Y0165417D01*
X0147525Y0165417D02*
X0147525Y0167618D01*
X0146792Y0166884D01*
X0146050Y0167251D02*
X0145683Y0167618D01*
X0144949Y0167618D01*
X0144582Y0167251D01*
X0144582Y0165783D01*
X0144949Y0165417D01*
X0145683Y0165417D01*
X0146050Y0165783D01*
X0149001Y0167251D02*
X0149368Y0167618D01*
X0150102Y0167618D01*
X0150469Y0167251D01*
X0150469Y0166884D01*
X0150102Y0166517D01*
X0150469Y0166150D01*
X0150469Y0165783D01*
X0150102Y0165417D01*
X0150102Y0166517D02*
X0149735Y0166517D01*
X0075428Y0117266D02*
X0073960Y0115064D01*
X0073218Y0115431D02*
X0073218Y0117266D01*
X0073960Y0117266D02*
X0075428Y0115064D01*
X0073218Y0115431D02*
X0072851Y0115064D01*
X0072117Y0115064D01*
X0071750Y0115431D01*
X0071750Y0117266D01*
X0071008Y0117266D02*
X0071008Y0115064D01*
X0069540Y0115064D02*
X0069540Y0117266D01*
X0070274Y0116532D01*
X0071008Y0117266D01*
X0068798Y0117266D02*
X0067330Y0117266D01*
X0067330Y0115064D01*
X0068798Y0115064D01*
X0068064Y0116165D02*
X0067330Y0116165D01*
X0066588Y0116899D02*
X0066221Y0117266D01*
X0065120Y0117266D01*
X0065120Y0115064D01*
X0066221Y0115064D01*
X0066588Y0115431D01*
X0066588Y0116899D01*
X0064378Y0115064D02*
X0062911Y0115064D01*
X0063645Y0115064D02*
X0063645Y0117266D01*
X0062911Y0116532D01*
X0062171Y0117266D02*
X0061437Y0117266D01*
X0061804Y0117266D02*
X0061804Y0115064D01*
X0061437Y0115064D02*
X0062171Y0115064D01*
X0060695Y0115064D02*
X0060695Y0116532D01*
X0059961Y0117266D01*
X0059227Y0116532D01*
X0059227Y0115064D01*
X0059227Y0116165D02*
X0060695Y0116165D01*
X0117699Y0083348D02*
X0117699Y0081347D01*
X0117699Y0080402D02*
X0117699Y0078400D01*
X0120702Y0078400D01*
X0120702Y0080402D01*
X0119201Y0079401D02*
X0119201Y0078400D01*
X0119701Y0077455D02*
X0120201Y0077455D01*
X0120702Y0076955D01*
X0120702Y0075954D01*
X0120201Y0075454D01*
X0119201Y0075954D02*
X0119201Y0076955D01*
X0119701Y0077455D01*
X0118200Y0077455D02*
X0117699Y0076955D01*
X0117699Y0075954D01*
X0118200Y0075454D01*
X0118700Y0075454D01*
X0119201Y0075954D01*
X0117699Y0074509D02*
X0117699Y0072507D01*
X0120702Y0072507D01*
X0119201Y0072507D02*
X0119201Y0073508D01*
X0117699Y0071562D02*
X0117699Y0069561D01*
X0120702Y0069561D01*
X0120201Y0068616D02*
X0118200Y0068616D01*
X0117699Y0068115D01*
X0117699Y0067115D01*
X0118200Y0066614D01*
X0120201Y0066614D01*
X0120702Y0067115D01*
X0120702Y0068115D01*
X0120201Y0068616D01*
X0119201Y0069561D02*
X0119201Y0070561D01*
X0120201Y0065669D02*
X0120702Y0065169D01*
X0120702Y0064168D01*
X0120201Y0063668D01*
X0118200Y0063668D01*
X0117699Y0064168D01*
X0117699Y0065169D01*
X0118200Y0065669D01*
X0118200Y0062723D02*
X0117699Y0062222D01*
X0117699Y0060721D01*
X0120702Y0060721D01*
X0120702Y0062222D01*
X0120201Y0062723D01*
X0118200Y0062723D01*
X0121202Y0059776D02*
X0121202Y0057775D01*
X0120702Y0055829D02*
X0117699Y0055829D01*
X0117699Y0054828D02*
X0117699Y0056830D01*
X0118200Y0053883D02*
X0117699Y0053383D01*
X0117699Y0052382D01*
X0118200Y0051882D01*
X0120201Y0051882D01*
X0120702Y0052382D01*
X0120702Y0053383D01*
X0120201Y0053883D01*
X0118200Y0053883D01*
X0118200Y0050937D02*
X0119201Y0050937D01*
X0119701Y0050436D01*
X0119701Y0048935D01*
X0120702Y0048935D02*
X0117699Y0048935D01*
X0117699Y0050436D01*
X0118200Y0050937D01*
X0122921Y0047663D02*
X0124022Y0047663D01*
X0124389Y0047296D01*
X0124389Y0046562D01*
X0124022Y0046195D01*
X0122921Y0046195D01*
X0123655Y0046195D02*
X0124389Y0045461D01*
X0125131Y0045461D02*
X0126598Y0046929D01*
X0126598Y0047296D01*
X0126232Y0047663D01*
X0125498Y0047663D01*
X0125131Y0047296D01*
X0125131Y0045461D02*
X0126598Y0045461D01*
X0127340Y0046562D02*
X0128808Y0046562D01*
X0128441Y0047663D02*
X0127340Y0046562D01*
X0128441Y0045461D02*
X0128441Y0047663D01*
X0122921Y0047663D02*
X0122921Y0045461D01*
X0114810Y0039131D02*
X0114810Y0038764D01*
X0114443Y0038397D01*
X0114810Y0038030D01*
X0114810Y0037663D01*
X0114443Y0037296D01*
X0113709Y0037296D01*
X0113342Y0037663D01*
X0112600Y0037296D02*
X0111132Y0037296D01*
X0112600Y0038764D01*
X0112600Y0039131D01*
X0112233Y0039498D01*
X0111499Y0039498D01*
X0111132Y0039131D01*
X0110390Y0039131D02*
X0110390Y0038397D01*
X0110023Y0038030D01*
X0108922Y0038030D01*
X0108922Y0037296D02*
X0108922Y0039498D01*
X0110023Y0039498D01*
X0110390Y0039131D01*
X0109656Y0038030D02*
X0110390Y0037296D01*
X0113342Y0039131D02*
X0113709Y0039498D01*
X0114443Y0039498D01*
X0114810Y0039131D01*
X0114443Y0038397D02*
X0114076Y0038397D01*
X0145052Y0028033D02*
X0145052Y0026565D01*
X0145419Y0026198D01*
X0146153Y0026198D01*
X0146520Y0026565D01*
X0147262Y0026198D02*
X0148730Y0027666D01*
X0148730Y0028033D01*
X0148363Y0028400D01*
X0147629Y0028400D01*
X0147262Y0028033D01*
X0146520Y0028033D02*
X0146153Y0028400D01*
X0145419Y0028400D01*
X0145052Y0028033D01*
X0147262Y0026198D02*
X0148730Y0026198D01*
X0149472Y0026565D02*
X0149839Y0026198D01*
X0150573Y0026198D01*
X0150940Y0026565D01*
X0150940Y0026932D01*
X0150573Y0027299D01*
X0150206Y0027299D01*
X0150573Y0027299D02*
X0150940Y0027666D01*
X0150940Y0028033D01*
X0150573Y0028400D01*
X0149839Y0028400D01*
X0149472Y0028033D01*
X0151613Y0018978D02*
X0152714Y0018978D01*
X0153081Y0018611D01*
X0153081Y0017877D01*
X0152714Y0017510D01*
X0151613Y0017510D01*
X0151613Y0016776D02*
X0151613Y0018978D01*
X0152347Y0017510D02*
X0153081Y0016776D01*
X0153823Y0016776D02*
X0155291Y0018244D01*
X0155291Y0018611D01*
X0154924Y0018978D01*
X0154190Y0018978D01*
X0153823Y0018611D01*
X0153823Y0016776D02*
X0155291Y0016776D01*
X0156033Y0017143D02*
X0156400Y0016776D01*
X0157134Y0016776D01*
X0157501Y0017143D01*
X0157501Y0017877D01*
X0157134Y0018244D01*
X0156767Y0018244D01*
X0156033Y0017877D01*
X0156033Y0018978D01*
X0157501Y0018978D01*
X0158029Y0037656D02*
X0157662Y0038023D01*
X0157662Y0039491D01*
X0158029Y0039858D01*
X0158763Y0039858D01*
X0159130Y0039491D01*
X0159872Y0039491D02*
X0160239Y0039858D01*
X0160972Y0039858D01*
X0161339Y0039491D01*
X0161339Y0039124D01*
X0159872Y0037656D01*
X0161339Y0037656D01*
X0162081Y0037656D02*
X0163549Y0039124D01*
X0163549Y0039491D01*
X0163182Y0039858D01*
X0162448Y0039858D01*
X0162081Y0039491D01*
X0162081Y0037656D02*
X0163549Y0037656D01*
X0159130Y0038023D02*
X0158763Y0037656D01*
X0158029Y0037656D01*
X0198498Y0034421D02*
X0198865Y0034788D01*
X0200333Y0033320D01*
X0200700Y0033687D01*
X0200700Y0034421D01*
X0200333Y0034788D01*
X0198865Y0034788D01*
X0198498Y0034421D02*
X0198498Y0033687D01*
X0198865Y0033320D01*
X0200333Y0033320D01*
X0200333Y0032578D02*
X0200700Y0032211D01*
X0200700Y0031477D01*
X0200333Y0031110D01*
X0200700Y0030368D02*
X0199966Y0029634D01*
X0199966Y0030001D02*
X0199966Y0028900D01*
X0200700Y0028900D02*
X0198498Y0028900D01*
X0198498Y0030001D01*
X0198865Y0030368D01*
X0199599Y0030368D01*
X0199966Y0030001D01*
X0198865Y0031110D02*
X0198498Y0031477D01*
X0198498Y0032211D01*
X0198865Y0032578D01*
X0199232Y0032578D01*
X0199599Y0032211D01*
X0199966Y0032578D01*
X0200333Y0032578D01*
X0199599Y0032211D02*
X0199599Y0031844D01*
X0222270Y0039000D02*
X0222270Y0041202D01*
X0223371Y0041202D01*
X0223738Y0040835D01*
X0223738Y0040101D01*
X0223371Y0039734D01*
X0222270Y0039734D01*
X0223004Y0039734D02*
X0223738Y0039000D01*
X0224480Y0039000D02*
X0225948Y0039000D01*
X0225214Y0039000D02*
X0225214Y0041202D01*
X0224480Y0040468D01*
X0226690Y0040835D02*
X0227057Y0041202D01*
X0227791Y0041202D01*
X0228158Y0040835D01*
X0228158Y0040468D01*
X0226690Y0039000D01*
X0228158Y0039000D01*
X0120702Y0082348D02*
X0117699Y0082348D01*
X0073030Y0052453D02*
X0071562Y0050251D01*
X0070820Y0050618D02*
X0070820Y0052453D01*
X0071562Y0052453D02*
X0073030Y0050251D01*
X0070820Y0050618D02*
X0070453Y0050251D01*
X0069719Y0050251D01*
X0069352Y0050618D01*
X0069352Y0052453D01*
X0068610Y0052453D02*
X0068610Y0050251D01*
X0067142Y0050251D02*
X0067142Y0052453D01*
X0067876Y0051719D01*
X0068610Y0052453D01*
X0066400Y0052453D02*
X0064932Y0052453D01*
X0064932Y0050251D01*
X0066400Y0050251D01*
X0065666Y0051352D02*
X0064932Y0051352D01*
X0064190Y0050618D02*
X0064190Y0052086D01*
X0063823Y0052453D01*
X0062722Y0052453D01*
X0062722Y0050251D01*
X0063823Y0050251D01*
X0064190Y0050618D01*
X0061983Y0050251D02*
X0061249Y0050251D01*
X0061616Y0050251D02*
X0061616Y0052453D01*
X0061249Y0052453D02*
X0061983Y0052453D01*
X0060507Y0052086D02*
X0060140Y0052453D01*
X0059406Y0052453D01*
X0059039Y0052086D01*
X0058297Y0051719D02*
X0058297Y0050251D01*
X0059039Y0050251D02*
X0060507Y0051719D01*
X0060507Y0052086D01*
X0060507Y0050251D02*
X0059039Y0050251D01*
X0058297Y0051352D02*
X0056829Y0051352D01*
X0056829Y0051719D02*
X0057563Y0052453D01*
X0058297Y0051719D01*
X0056829Y0051719D02*
X0056829Y0050251D01*
X0105757Y0016903D02*
X0105757Y0015435D01*
X0106124Y0015069D01*
X0106858Y0015069D01*
X0107225Y0015435D01*
X0107967Y0015069D02*
X0109435Y0016536D01*
X0109435Y0016903D01*
X0109068Y0017270D01*
X0108334Y0017270D01*
X0107967Y0016903D01*
X0107225Y0016903D02*
X0106858Y0017270D01*
X0106124Y0017270D01*
X0105757Y0016903D01*
X0107967Y0015069D02*
X0109435Y0015069D01*
X0110177Y0015069D02*
X0111645Y0015069D01*
X0110911Y0015069D02*
X0110911Y0017270D01*
X0110177Y0016536D01*
D16*
X0147032Y0050849D02*
X0147032Y0051849D01*
X0148532Y0051849D01*
X0148532Y0050849D01*
X0147032Y0050849D01*
X0147032Y0050851D02*
X0148532Y0050851D01*
X0148532Y0050950D02*
X0147032Y0050950D01*
X0147032Y0051048D02*
X0148532Y0051048D01*
X0148532Y0051147D02*
X0147032Y0051147D01*
X0147032Y0051245D02*
X0148532Y0051245D01*
X0148532Y0051344D02*
X0147032Y0051344D01*
X0147032Y0051442D02*
X0148532Y0051442D01*
X0148532Y0051541D02*
X0147032Y0051541D01*
X0147032Y0051639D02*
X0148532Y0051639D01*
X0148532Y0051738D02*
X0147032Y0051738D01*
X0147032Y0051836D02*
X0148532Y0051836D01*
X0125501Y0081849D02*
X0124001Y0081849D01*
X0124001Y0082849D01*
X0125501Y0082849D01*
X0125501Y0081849D01*
X0125501Y0081882D02*
X0124001Y0081882D01*
X0124001Y0081981D02*
X0125501Y0081981D01*
X0125501Y0082079D02*
X0124001Y0082079D01*
X0124001Y0082178D02*
X0125501Y0082178D01*
X0125501Y0082276D02*
X0124001Y0082276D01*
X0124001Y0082375D02*
X0125501Y0082375D01*
X0125501Y0082473D02*
X0124001Y0082473D01*
X0124001Y0082572D02*
X0125501Y0082572D01*
X0125501Y0082670D02*
X0124001Y0082670D01*
X0124001Y0082769D02*
X0125501Y0082769D01*
X0185300Y0114034D02*
X0185300Y0115534D01*
X0186300Y0115534D01*
X0186300Y0114034D01*
X0185300Y0114034D01*
X0185300Y0114095D02*
X0186300Y0114095D01*
X0186300Y0114194D02*
X0185300Y0114194D01*
X0185300Y0114292D02*
X0186300Y0114292D01*
X0186300Y0114391D02*
X0185300Y0114391D01*
X0185300Y0114490D02*
X0186300Y0114490D01*
X0186300Y0114588D02*
X0185300Y0114588D01*
X0185300Y0114687D02*
X0186300Y0114687D01*
X0186300Y0114785D02*
X0185300Y0114785D01*
X0185300Y0114884D02*
X0186300Y0114884D01*
X0186300Y0114982D02*
X0185300Y0114982D01*
X0185300Y0115081D02*
X0186300Y0115081D01*
X0186300Y0115179D02*
X0185300Y0115179D01*
X0185300Y0115278D02*
X0186300Y0115278D01*
X0186300Y0115376D02*
X0185300Y0115376D01*
X0185300Y0115475D02*
X0186300Y0115475D01*
X0216300Y0137066D02*
X0216300Y0138566D01*
X0217300Y0138566D01*
X0217300Y0137066D01*
X0216300Y0137066D01*
X0216300Y0137147D02*
X0217300Y0137147D01*
X0217300Y0137246D02*
X0216300Y0137246D01*
X0216300Y0137344D02*
X0217300Y0137344D01*
X0217300Y0137443D02*
X0216300Y0137443D01*
X0216300Y0137541D02*
X0217300Y0137541D01*
X0217300Y0137640D02*
X0216300Y0137640D01*
X0216300Y0137738D02*
X0217300Y0137738D01*
X0217300Y0137837D02*
X0216300Y0137837D01*
X0216300Y0137935D02*
X0217300Y0137935D01*
X0217300Y0138034D02*
X0216300Y0138034D01*
X0216300Y0138132D02*
X0217300Y0138132D01*
X0217300Y0138231D02*
X0216300Y0138231D01*
X0216300Y0138329D02*
X0217300Y0138329D01*
X0217300Y0138428D02*
X0216300Y0138428D01*
X0216300Y0138526D02*
X0217300Y0138526D01*
X0205665Y0140811D02*
X0204130Y0140811D01*
X0204130Y0143113D01*
X0205665Y0143113D01*
X0204897Y0141962D02*
X0204130Y0141962D01*
X0203455Y0143113D02*
X0201920Y0143113D01*
X0202687Y0143113D02*
X0202687Y0140811D01*
X0201245Y0141195D02*
X0201245Y0142730D01*
X0200861Y0143113D01*
X0200094Y0143113D01*
X0199710Y0142730D01*
X0199710Y0141195D01*
X0200094Y0140811D01*
X0200861Y0140811D01*
X0201245Y0141195D01*
X0199035Y0141962D02*
X0198651Y0141579D01*
X0197500Y0141579D01*
X0197500Y0140811D02*
X0197500Y0143113D01*
X0198651Y0143113D01*
X0199035Y0142730D01*
X0199035Y0141962D01*
X0188566Y0141300D02*
X0188566Y0140300D01*
X0187066Y0140300D01*
X0187066Y0141300D01*
X0188566Y0141300D01*
X0188566Y0141285D02*
X0187066Y0141285D01*
X0187066Y0141186D02*
X0188566Y0141186D01*
X0188566Y0141088D02*
X0187066Y0141088D01*
X0187066Y0140989D02*
X0188566Y0140989D01*
X0188566Y0140891D02*
X0187066Y0140891D01*
X0187066Y0140792D02*
X0188566Y0140792D01*
X0188566Y0140694D02*
X0187066Y0140694D01*
X0187066Y0140595D02*
X0188566Y0140595D01*
X0188566Y0140496D02*
X0187066Y0140496D01*
X0187066Y0140398D02*
X0188566Y0140398D01*
X0179365Y0169532D02*
X0179749Y0169915D01*
X0179749Y0171450D01*
X0179365Y0171834D01*
X0178214Y0171834D01*
X0178214Y0169532D01*
X0179365Y0169532D01*
X0176772Y0169532D02*
X0176772Y0171834D01*
X0177539Y0171834D02*
X0176004Y0171834D01*
X0175329Y0171450D02*
X0174945Y0171834D01*
X0174178Y0171834D01*
X0173794Y0171450D01*
X0173794Y0169915D01*
X0174178Y0169532D01*
X0174945Y0169532D01*
X0175329Y0169915D01*
X0175329Y0171450D01*
X0173119Y0171450D02*
X0172735Y0171834D01*
X0171585Y0171834D01*
X0171585Y0169532D01*
X0171585Y0170299D02*
X0172735Y0170299D01*
X0173119Y0170683D01*
X0173119Y0171450D01*
X0165534Y0171429D02*
X0164034Y0171429D01*
X0164034Y0171331D02*
X0165534Y0171331D01*
X0165534Y0171300D02*
X0165534Y0172300D01*
X0164034Y0172300D01*
X0164034Y0171300D01*
X0165534Y0171300D01*
X0165534Y0171528D02*
X0164034Y0171528D01*
X0164034Y0171626D02*
X0165534Y0171626D01*
X0165534Y0171725D02*
X0164034Y0171725D01*
X0164034Y0171823D02*
X0165534Y0171823D01*
X0165534Y0171922D02*
X0164034Y0171922D01*
X0164034Y0172020D02*
X0165534Y0172020D01*
X0165534Y0172119D02*
X0164034Y0172119D01*
X0164034Y0172217D02*
X0165534Y0172217D01*
X0148566Y0220300D02*
X0148566Y0221300D01*
X0147066Y0221300D01*
X0147066Y0220300D01*
X0148566Y0220300D01*
X0148566Y0220389D02*
X0147066Y0220389D01*
X0147066Y0220488D02*
X0148566Y0220488D01*
X0148566Y0220586D02*
X0147066Y0220586D01*
X0147066Y0220685D02*
X0148566Y0220685D01*
X0148566Y0220783D02*
X0147066Y0220783D01*
X0147066Y0220882D02*
X0148566Y0220882D01*
X0148566Y0220980D02*
X0147066Y0220980D01*
X0147066Y0221079D02*
X0148566Y0221079D01*
X0148566Y0221177D02*
X0147066Y0221177D01*
X0147066Y0221276D02*
X0148566Y0221276D01*
X0202066Y0245300D02*
X0202066Y0246300D01*
X0203566Y0246300D01*
X0203566Y0245300D01*
X0202066Y0245300D01*
X0202066Y0245313D02*
X0203566Y0245313D01*
X0203566Y0245411D02*
X0202066Y0245411D01*
X0202066Y0245510D02*
X0203566Y0245510D01*
X0203566Y0245608D02*
X0202066Y0245608D01*
X0202066Y0245707D02*
X0203566Y0245707D01*
X0203566Y0245805D02*
X0202066Y0245805D01*
X0202066Y0245904D02*
X0203566Y0245904D01*
X0203566Y0246002D02*
X0202066Y0246002D01*
X0202066Y0246101D02*
X0203566Y0246101D01*
X0203566Y0246199D02*
X0202066Y0246199D01*
X0202066Y0246298D02*
X0203566Y0246298D01*
X0252066Y0260300D02*
X0252066Y0261300D01*
X0253566Y0261300D01*
X0253566Y0260300D01*
X0252066Y0260300D01*
X0252066Y0260385D02*
X0253566Y0260385D01*
X0253566Y0260483D02*
X0252066Y0260483D01*
X0252066Y0260582D02*
X0253566Y0260582D01*
X0253566Y0260680D02*
X0252066Y0260680D01*
X0252066Y0260779D02*
X0253566Y0260779D01*
X0253566Y0260877D02*
X0252066Y0260877D01*
X0252066Y0260976D02*
X0253566Y0260976D01*
X0253566Y0261074D02*
X0252066Y0261074D01*
X0252066Y0261173D02*
X0253566Y0261173D01*
X0253566Y0261271D02*
X0252066Y0261271D01*
X0232974Y0291237D02*
X0233358Y0291621D01*
X0232974Y0291237D02*
X0232207Y0291237D01*
X0231823Y0291621D01*
X0231823Y0293156D01*
X0232207Y0293539D01*
X0232974Y0293539D01*
X0233358Y0293156D01*
X0231148Y0293539D02*
X0229613Y0293539D01*
X0230380Y0293539D02*
X0230380Y0291237D01*
X0230534Y0291300D02*
X0229034Y0291300D01*
X0229034Y0292300D01*
X0230534Y0292300D01*
X0230534Y0291300D01*
X0230534Y0291317D02*
X0229034Y0291317D01*
X0229034Y0291416D02*
X0230534Y0291416D01*
X0230534Y0291514D02*
X0229034Y0291514D01*
X0229034Y0291613D02*
X0230534Y0291613D01*
X0230534Y0291711D02*
X0229034Y0291711D01*
X0229034Y0291810D02*
X0230534Y0291810D01*
X0230534Y0291908D02*
X0229034Y0291908D01*
X0229034Y0292007D02*
X0230534Y0292007D01*
X0230534Y0292105D02*
X0229034Y0292105D01*
X0229034Y0292204D02*
X0230534Y0292204D01*
X0228938Y0291621D02*
X0228938Y0293156D01*
X0228554Y0293539D01*
X0227787Y0293539D01*
X0227403Y0293156D01*
X0227403Y0291621D01*
X0227787Y0291237D01*
X0228554Y0291237D01*
X0228938Y0291621D01*
X0226728Y0292388D02*
X0226344Y0292005D01*
X0225193Y0292005D01*
X0225193Y0291237D02*
X0225193Y0293539D01*
X0226344Y0293539D01*
X0226728Y0293156D01*
X0226728Y0292388D01*
X0195229Y0276825D02*
X0195229Y0276441D01*
X0194845Y0276058D01*
X0193694Y0276058D01*
X0193694Y0274907D02*
X0193694Y0277209D01*
X0194845Y0277209D01*
X0195229Y0276825D01*
X0194845Y0276058D02*
X0195229Y0275674D01*
X0195229Y0275290D01*
X0194845Y0274907D01*
X0193694Y0274907D01*
X0192251Y0274907D02*
X0192251Y0277209D01*
X0191484Y0277209D02*
X0193019Y0277209D01*
X0190809Y0276825D02*
X0190809Y0275290D01*
X0190425Y0274907D01*
X0189658Y0274907D01*
X0189274Y0275290D01*
X0189274Y0276825D01*
X0189658Y0277209D01*
X0190425Y0277209D01*
X0190809Y0276825D01*
X0188599Y0276825D02*
X0188599Y0276058D01*
X0188215Y0275674D01*
X0187064Y0275674D01*
X0187064Y0274907D02*
X0187064Y0277209D01*
X0188215Y0277209D01*
X0188599Y0276825D01*
X0180534Y0276836D02*
X0179034Y0276836D01*
X0179034Y0276738D02*
X0180534Y0276738D01*
X0180534Y0276639D02*
X0179034Y0276639D01*
X0179034Y0276541D02*
X0180534Y0276541D01*
X0180534Y0276442D02*
X0179034Y0276442D01*
X0179034Y0276344D02*
X0180534Y0276344D01*
X0180534Y0276300D02*
X0180534Y0277300D01*
X0179034Y0277300D01*
X0179034Y0276300D01*
X0180534Y0276300D01*
X0180534Y0276935D02*
X0179034Y0276935D01*
X0179034Y0277033D02*
X0180534Y0277033D01*
X0180534Y0277132D02*
X0179034Y0277132D01*
X0179034Y0277230D02*
X0180534Y0277230D01*
X0140569Y0252508D02*
X0140569Y0250973D01*
X0140569Y0252124D02*
X0139034Y0252124D01*
X0139034Y0252508D02*
X0139802Y0253275D01*
X0140569Y0252508D01*
X0139034Y0252508D02*
X0139034Y0250973D01*
X0137592Y0250973D02*
X0137592Y0253275D01*
X0138359Y0253275D02*
X0136824Y0253275D01*
X0136149Y0252891D02*
X0135766Y0253275D01*
X0134998Y0253275D01*
X0134615Y0252891D01*
X0134615Y0251357D01*
X0134998Y0250973D01*
X0135766Y0250973D01*
X0136149Y0251357D01*
X0136149Y0252891D01*
X0133939Y0252891D02*
X0133939Y0252124D01*
X0133556Y0251740D01*
X0132405Y0251740D01*
X0132405Y0250973D02*
X0132405Y0253275D01*
X0133556Y0253275D01*
X0133939Y0252891D01*
X0125534Y0252300D02*
X0125534Y0251300D01*
X0124034Y0251300D01*
X0124034Y0252300D01*
X0125534Y0252300D01*
X0125534Y0252208D02*
X0124034Y0252208D01*
X0124034Y0252110D02*
X0125534Y0252110D01*
X0125534Y0252011D02*
X0124034Y0252011D01*
X0124034Y0251913D02*
X0125534Y0251913D01*
X0125534Y0251814D02*
X0124034Y0251814D01*
X0124034Y0251716D02*
X0125534Y0251716D01*
X0125534Y0251617D02*
X0124034Y0251617D01*
X0124034Y0251519D02*
X0125534Y0251519D01*
X0125534Y0251420D02*
X0124034Y0251420D01*
X0124034Y0251322D02*
X0125534Y0251322D01*
X0073195Y0201337D02*
X0072194Y0199836D01*
X0071722Y0200086D02*
X0071722Y0201337D01*
X0072194Y0201337D02*
X0073195Y0199836D01*
X0071722Y0200086D02*
X0071472Y0199836D01*
X0070971Y0199836D01*
X0070721Y0200086D01*
X0070721Y0201337D01*
X0070249Y0201337D02*
X0070249Y0199836D01*
X0069248Y0199836D02*
X0069248Y0201337D01*
X0069748Y0200837D01*
X0070249Y0201337D01*
X0068775Y0201337D02*
X0067775Y0201337D01*
X0067775Y0199836D01*
X0068775Y0199836D01*
X0068275Y0200586D02*
X0067775Y0200586D01*
X0067302Y0200086D02*
X0067302Y0201087D01*
X0067052Y0201337D01*
X0066301Y0201337D01*
X0066301Y0199836D01*
X0067052Y0199836D01*
X0067302Y0200086D01*
X0065829Y0200086D02*
X0065579Y0199836D01*
X0065078Y0199836D01*
X0064828Y0200086D01*
X0065829Y0201087D01*
X0065829Y0200086D01*
X0065829Y0201087D02*
X0065579Y0201337D01*
X0065078Y0201337D01*
X0064828Y0201087D01*
X0064828Y0200086D01*
X0064346Y0199836D02*
X0063846Y0199836D01*
X0064096Y0199836D02*
X0064096Y0201337D01*
X0063846Y0201337D02*
X0064346Y0201337D01*
X0063373Y0200837D02*
X0063373Y0199836D01*
X0063373Y0200586D02*
X0062373Y0200586D01*
X0062373Y0200837D02*
X0062873Y0201337D01*
X0063373Y0200837D01*
X0062373Y0200837D02*
X0062373Y0199836D01*
X0280300Y0110534D02*
X0281300Y0110534D01*
X0281300Y0109034D01*
X0280300Y0109034D01*
X0280300Y0110534D01*
X0280300Y0110451D02*
X0281300Y0110451D01*
X0281300Y0110352D02*
X0280300Y0110352D01*
X0280300Y0110254D02*
X0281300Y0110254D01*
X0281300Y0110155D02*
X0280300Y0110155D01*
X0280300Y0110056D02*
X0281300Y0110056D01*
X0281300Y0109958D02*
X0280300Y0109958D01*
X0280300Y0109859D02*
X0281300Y0109859D01*
X0281300Y0109761D02*
X0280300Y0109761D01*
X0280300Y0109662D02*
X0281300Y0109662D01*
X0281300Y0109564D02*
X0280300Y0109564D01*
X0280300Y0109465D02*
X0281300Y0109465D01*
X0281300Y0109367D02*
X0280300Y0109367D01*
X0280300Y0109268D02*
X0281300Y0109268D01*
X0281300Y0109170D02*
X0280300Y0109170D01*
X0280300Y0109071D02*
X0281300Y0109071D01*
X0311300Y0132066D02*
X0311300Y0133566D01*
X0312300Y0133566D01*
X0312300Y0132066D01*
X0311300Y0132066D01*
X0311300Y0132123D02*
X0312300Y0132123D01*
X0312300Y0132222D02*
X0311300Y0132222D01*
X0311300Y0132320D02*
X0312300Y0132320D01*
X0312300Y0132419D02*
X0311300Y0132419D01*
X0311300Y0132517D02*
X0312300Y0132517D01*
X0312300Y0132616D02*
X0311300Y0132616D01*
X0311300Y0132714D02*
X0312300Y0132714D01*
X0312300Y0132813D02*
X0311300Y0132813D01*
X0311300Y0132911D02*
X0312300Y0132911D01*
X0312300Y0133010D02*
X0311300Y0133010D01*
X0311300Y0133108D02*
X0312300Y0133108D01*
X0312300Y0133207D02*
X0311300Y0133207D01*
X0311300Y0133305D02*
X0312300Y0133305D01*
X0312300Y0133404D02*
X0311300Y0133404D01*
X0311300Y0133502D02*
X0312300Y0133502D01*
X0300144Y0137385D02*
X0298610Y0137385D01*
X0298610Y0135083D01*
X0298610Y0136234D02*
X0299377Y0136234D01*
X0297934Y0137385D02*
X0296400Y0137385D01*
X0297167Y0137385D02*
X0297167Y0135083D01*
X0295725Y0135467D02*
X0295725Y0137001D01*
X0295341Y0137385D01*
X0294574Y0137385D01*
X0294190Y0137001D01*
X0294190Y0135467D01*
X0294574Y0135083D01*
X0295341Y0135083D01*
X0295725Y0135467D01*
X0293515Y0136234D02*
X0293131Y0135850D01*
X0291980Y0135850D01*
X0291980Y0135083D02*
X0291980Y0137385D01*
X0293131Y0137385D01*
X0293515Y0137001D01*
X0293515Y0136234D01*
D17*
X0258850Y0160910D02*
X0257582Y0160910D01*
X0256948Y0161544D01*
X0257582Y0162178D01*
X0258850Y0162178D01*
X0258850Y0163120D02*
X0256948Y0163120D01*
X0257582Y0163754D01*
X0256948Y0164388D01*
X0258850Y0164388D01*
X0258850Y0165330D02*
X0256948Y0165330D01*
X0256948Y0166281D01*
X0257265Y0166598D01*
X0257899Y0166598D01*
X0258216Y0166281D01*
X0258216Y0165330D01*
X0257582Y0167540D02*
X0256948Y0168174D01*
X0258850Y0168174D01*
X0258850Y0167540D02*
X0258850Y0168808D01*
X0257899Y0162178D02*
X0257899Y0160910D01*
X0193850Y0220910D02*
X0192582Y0220910D01*
X0191948Y0221544D01*
X0192582Y0222178D01*
X0193850Y0222178D01*
X0193850Y0223120D02*
X0191948Y0223120D01*
X0192582Y0223754D01*
X0191948Y0224388D01*
X0193850Y0224388D01*
X0193850Y0225330D02*
X0191948Y0225330D01*
X0191948Y0226281D01*
X0192265Y0226598D01*
X0192899Y0226598D01*
X0193216Y0226281D01*
X0193216Y0225330D01*
X0193533Y0227540D02*
X0192265Y0228808D01*
X0193533Y0228808D01*
X0193850Y0228491D01*
X0193850Y0227857D01*
X0193533Y0227540D01*
X0192265Y0227540D01*
X0191948Y0227857D01*
X0191948Y0228491D01*
X0192265Y0228808D01*
X0192899Y0222178D02*
X0192899Y0220910D01*
X0190912Y0252050D02*
X0190912Y0253952D01*
X0190278Y0253952D02*
X0191546Y0253952D01*
X0189336Y0253635D02*
X0189019Y0253952D01*
X0188385Y0253952D01*
X0188069Y0253635D01*
X0188069Y0253318D01*
X0188385Y0253001D01*
X0189019Y0253001D01*
X0189336Y0252684D01*
X0189336Y0252367D01*
X0189019Y0252050D01*
X0188385Y0252050D01*
X0188069Y0252367D01*
X0187126Y0252050D02*
X0185859Y0252050D01*
X0185859Y0253952D01*
X0187126Y0253952D01*
X0186493Y0253001D02*
X0185859Y0253001D01*
X0184917Y0253952D02*
X0183649Y0253952D01*
X0184283Y0253952D02*
X0184283Y0252050D01*
X0182707Y0253001D02*
X0182390Y0252684D01*
X0181439Y0252684D01*
X0181439Y0252050D02*
X0181439Y0253952D01*
X0182390Y0253952D01*
X0182707Y0253635D01*
X0182707Y0253001D01*
X0180497Y0253952D02*
X0180497Y0252050D01*
X0179229Y0252050D02*
X0179229Y0253952D01*
X0179863Y0253318D01*
X0180497Y0253952D01*
X0178287Y0253318D02*
X0178287Y0252050D01*
X0178287Y0253001D02*
X0177019Y0253001D01*
X0177019Y0253318D02*
X0177653Y0253952D01*
X0178287Y0253318D01*
X0177019Y0253318D02*
X0177019Y0252050D01*
X0176077Y0252050D02*
X0174809Y0252050D01*
X0174809Y0253952D01*
X0176077Y0253952D01*
X0175443Y0253001D02*
X0174809Y0253001D01*
X0173867Y0253001D02*
X0173550Y0252684D01*
X0172599Y0252684D01*
X0172599Y0252050D02*
X0172599Y0253952D01*
X0173550Y0253952D01*
X0173867Y0253635D01*
X0173867Y0253001D01*
X0173233Y0252684D02*
X0173867Y0252050D01*
X0171657Y0253001D02*
X0171340Y0252684D01*
X0170390Y0252684D01*
X0170390Y0252050D02*
X0170390Y0253952D01*
X0171340Y0253952D01*
X0171657Y0253635D01*
X0171657Y0253001D01*
X0169447Y0252050D02*
X0168180Y0252050D01*
X0168814Y0252050D02*
X0168814Y0253952D01*
X0168180Y0253318D01*
X0167238Y0253952D02*
X0165970Y0253952D01*
X0165970Y0252050D01*
X0165970Y0253001D02*
X0166604Y0253001D01*
X0165028Y0253001D02*
X0164711Y0252684D01*
X0163760Y0252684D01*
X0163760Y0252050D02*
X0163760Y0253952D01*
X0164711Y0253952D01*
X0165028Y0253635D01*
X0165028Y0253001D01*
X0162818Y0252050D02*
X0161550Y0252050D01*
X0161550Y0253952D01*
X0359323Y0273445D02*
X0363073Y0273445D01*
X0363946Y0277736D02*
X0363946Y0278686D01*
X0364263Y0279003D01*
X0365531Y0279003D01*
X0365848Y0278686D01*
X0365848Y0277736D01*
X0363946Y0277736D01*
X0364580Y0279945D02*
X0363946Y0280579D01*
X0365848Y0280579D01*
X0365848Y0279945D02*
X0365848Y0281213D01*
X0451585Y0228655D02*
X0453620Y0228655D01*
X0452603Y0228655D02*
X0452603Y0223568D01*
X0451585Y0222550D01*
X0450568Y0222550D01*
X0449550Y0223568D01*
X0455627Y0222550D02*
X0459697Y0226620D01*
X0459697Y0227638D01*
X0458680Y0228655D01*
X0456645Y0228655D01*
X0455627Y0227638D01*
X0455627Y0222550D02*
X0459697Y0222550D01*
X0458680Y0200655D02*
X0455627Y0197603D01*
X0459697Y0197603D01*
X0458680Y0200655D02*
X0458680Y0194550D01*
X0452603Y0195568D02*
X0452603Y0200655D01*
X0453620Y0200655D02*
X0451585Y0200655D01*
X0452603Y0195568D02*
X0451585Y0194550D01*
X0450568Y0194550D01*
X0449550Y0195568D01*
X0451585Y0058655D02*
X0453620Y0058655D01*
X0452603Y0058655D02*
X0452603Y0053568D01*
X0451585Y0052550D01*
X0450568Y0052550D01*
X0449550Y0053568D01*
X0455627Y0053568D02*
X0456645Y0052550D01*
X0458680Y0052550D01*
X0459697Y0053568D01*
X0459697Y0054585D01*
X0458680Y0055603D01*
X0457662Y0055603D01*
X0458680Y0055603D02*
X0459697Y0056620D01*
X0459697Y0057638D01*
X0458680Y0058655D01*
X0456645Y0058655D01*
X0455627Y0057638D01*
X0453620Y0030655D02*
X0451585Y0030655D01*
X0452603Y0030655D02*
X0452603Y0025568D01*
X0451585Y0024550D01*
X0450568Y0024550D01*
X0449550Y0025568D01*
X0455627Y0024550D02*
X0459697Y0024550D01*
X0457662Y0024550D02*
X0457662Y0030655D01*
X0455627Y0028620D01*
X0208808Y0038750D02*
X0207540Y0038750D01*
X0208808Y0040018D01*
X0208808Y0040335D01*
X0208491Y0040652D01*
X0207857Y0040652D01*
X0207540Y0040335D01*
X0206598Y0040335D02*
X0206598Y0039701D01*
X0206281Y0039384D01*
X0205330Y0039384D01*
X0205330Y0038750D02*
X0205330Y0040652D01*
X0206281Y0040652D01*
X0206598Y0040335D01*
X0204388Y0040652D02*
X0204388Y0038750D01*
X0203120Y0038750D02*
X0203120Y0040652D01*
X0203754Y0040018D01*
X0204388Y0040652D01*
X0202178Y0040018D02*
X0202178Y0038750D01*
X0202178Y0039701D02*
X0200910Y0039701D01*
X0200910Y0040018D02*
X0201544Y0040652D01*
X0202178Y0040018D01*
X0200910Y0040018D02*
X0200910Y0038750D01*
D18*
X0206100Y0044900D03*
X0211100Y0038800D03*
X0252700Y0166100D03*
X0258800Y0171100D03*
X0187700Y0226100D03*
X0193800Y0231100D03*
D19*
X0413794Y0289649D02*
X0416864Y0289649D01*
X0415329Y0291183D02*
X0415329Y0288114D01*
X0423668Y0289149D02*
X0426738Y0289149D01*
M02*
