<?xml version="1.0" encoding="UTF-8" standalone="no"?>
<!DOCTYPE svg PUBLIC "-//W3C//DTD SVG 1.1//EN" "http://www.w3.org/Graphics/SVG/1.1/DTD/svg11.dtd">
<svg width="100%" height="100%" viewBox="0 0 3589 1068" version="1.1" xmlns="http://www.w3.org/2000/svg" xmlns:xlink="http://www.w3.org/1999/xlink" xml:space="preserve" xmlns:serif="http://www.serif.com/" style="fill-rule:evenodd;clip-rule:evenodd;stroke-linecap:round;stroke-miterlimit:10;">
    <g transform="matrix(2.83365,0,0,2.68981,2204.44,-11.4487)">
        <path d="M73,202.75L82.739,202.75L82.739,149.831L92.478,149.831L92.478,102.092L102.217,102.092L102.217,64.206L111.956,64.206L111.956,39.882L121.695,39.882L121.695,31.5L131.434,31.5L131.434,39.882L141.173,39.882L141.173,64.206L150.912,64.206L150.912,102.092L160.65,102.092L160.65,149.831L170.389,149.831L170.389,202.75L180.128,202.75L180.128,255.669L189.867,255.669L189.867,303.408L199.606,303.408L199.606,341.294L209.345,341.294L209.345,365.618L219.084,365.618L219.084,374L228.823,374L228.823,365.618L238.562,365.618L238.562,341.294L248.301,341.294L248.301,303.408L258.04,303.408L258.04,255.669L267.779,255.669L267.779,202.75L277.518,202.75L277.518,149.831L287.257,149.831L287.257,102.092L296.996,102.092L296.996,64.206L306.735,64.206L306.735,39.882L316.473,39.882L316.473,31.5L326.212,31.5L326.212,39.882L335.951,39.882L335.951,64.206L345.69,64.206L345.69,102.092L355.429,102.092L355.429,149.831L365.168,149.831L365.168,202.75L374.907,202.75L374.907,255.669L384.646,255.669L384.646,303.408L394.385,303.408L394.385,341.294L404.124,341.294L404.124,365.618L413.863,365.618L413.863,374L423.602,374L423.602,365.618L433.341,365.618L433.341,341.294L443.08,341.294L443.08,303.408L452.819,303.408L452.819,255.669L462.558,255.669L462.558,202.75" style="fill:none;stroke:rgb(0,114,189);stroke-width:5.28px;"/>
    </g>
    <g transform="matrix(1,0,0,1,7.29167,-1259.09)">
        <path d="M0,1791.77C4.89,1726.96 9.419,1617.8 18.337,1601.45C27.773,1584.16 34.889,1697.9 44.09,1681.39C54.363,1662.96 63.132,1509.37 72.826,1498.14C82.486,1486.94 92.027,1640.29 101.857,1611.16C111.686,1582.03 121.193,1353.66 132.394,1332.82C142.14,1314.68 152.103,1490 162.086,1507.48C171.48,1523.93 180.472,1409.68 188.739,1433.98C201.712,1472.11 208.794,1654.86 218.993,1668.33C229.192,1681.81 239.865,1487.7 249.173,1512.16C262.516,1547.23 271.005,1791.51 283.75,1804.25C290.904,1811.4 296.126,1771.69 301.344,1780.36C317.128,1806.58 323.902,2043.62 336.216,2071.15C346.733,2094.66 356.248,1902.64 366.17,1915.47C376.093,1928.29 385.17,2121.7 396.516,2149.83C405.559,2172.25 414.368,2058.93 423.52,2076.13C432.671,2093.33 441.81,2269.97 452.696,2252.4C463.582,2234.84 472.858,2001.85 483.366,1973.03C493.875,1944.21 503.378,2096.73 512.458,2085.25C521.537,2073.76 532.287,1918.36 541.186,1902.13C550.084,1885.9 559.578,2000.83 566.782,1981.67C576.241,1956.51 581.539,1855.4 585.26,1791.77C589.055,1726.88 594.629,1617.56 603.547,1601.21C612.983,1583.91 620.149,1697.9 629.35,1681.39C639.624,1662.96 648.393,1509.37 658.086,1498.14C667.746,1486.94 677.287,1640.29 687.117,1611.16C696.947,1582.03 706.454,1353.66 717.654,1332.82C727.401,1314.68 737.364,1490 747.346,1507.48C756.74,1523.93 765.732,1409.68 774,1433.98C786.972,1472.11 794.054,1654.86 804.253,1668.33C814.452,1681.81 825.125,1487.7 834.434,1512.16C847.776,1547.23 856.265,1791.51 869.011,1804.25C876.164,1811.4 881.387,1771.69 886.604,1780.36C902.388,1806.58 909.162,2043.62 921.476,2071.15C931.993,2094.66 941.508,1902.64 951.43,1915.47C961.353,1928.29 970.431,2121.7 981.777,2149.83C990.819,2172.25 999.629,2058.93 1008.78,2076.13C1017.93,2093.33 1027.07,2269.97 1037.96,2252.4C1048.84,2234.84 1058.12,2001.85 1068.63,1973.03C1079.13,1944.21 1088.64,2096.73 1097.72,2085.25C1106.8,2073.76 1117.55,1918.36 1126.45,1902.13C1135.35,1885.9 1144.75,2001.75 1152.29,1981.69C1161.06,1958.37 1166.77,1855.95 1170.52,1791.77" style="fill:none;stroke:rgb(0,114,189);stroke-width:14.58px;stroke-linejoin:round;stroke-miterlimit:1.5;"/>
    </g>
    <g transform="matrix(1,0,0,1,7.29167,-1259.09)">
        <path d="M1263.02,1792.57C1295,1617.18 1348.14,1265.52 1414.26,1342.65C1493.98,1435.65 1565.61,2252.4 1657.2,2252.4C1749.44,2252.4 1823.59,1331.51 1917.47,1331.51C2004.68,1331.51 2082.38,2148.93 2160.97,2241.05C2226.54,2317.89 2277.87,1965.9 2310.86,1792.57" style="fill:none;stroke:rgb(0,114,189);stroke-width:14.58px;stroke-linejoin:round;stroke-miterlimit:1.5;"/>
    </g>
</svg>
