<?xml version="1.0" encoding="UTF-8" standalone="no"?>
<!DOCTYPE svg PUBLIC "-//W3C//DTD SVG 1.1//EN" "http://www.w3.org/Graphics/SVG/1.1/DTD/svg11.dtd">
<svg width="100%" height="100%" viewBox="0 0 3508 2481" version="1.1" xmlns="http://www.w3.org/2000/svg" xmlns:xlink="http://www.w3.org/1999/xlink" xml:space="preserve" xmlns:serif="http://www.serif.com/" style="fill-rule:evenodd;clip-rule:evenodd;stroke-miterlimit:10;">
    <g transform="matrix(2.83365,0,0,2.68981,2197.15,1246.41)">
        <path d="M73,202.75L82.739,202.75L82.739,149.831L92.478,149.831L92.478,102.092L102.217,102.092L102.217,64.206L111.956,64.206L111.956,39.882L121.695,39.882L121.695,31.5L131.434,31.5L131.434,39.882L141.173,39.882L141.173,64.206L150.912,64.206L150.912,102.092L160.65,102.092L160.65,149.831L170.389,149.831L170.389,202.75L180.128,202.75L180.128,255.669L189.867,255.669L189.867,303.408L199.606,303.408L199.606,341.294L209.345,341.294L209.345,365.618L219.084,365.618L219.084,374L228.823,374L228.823,365.618L238.562,365.618L238.562,341.294L248.301,341.294L248.301,303.408L258.04,303.408L258.04,255.669L267.779,255.669L267.779,202.75L277.518,202.75L277.518,149.831L287.257,149.831L287.257,102.092L296.996,102.092L296.996,64.206L306.735,64.206L306.735,39.882L316.473,39.882L316.473,31.5L326.212,31.5L326.212,39.882L335.951,39.882L335.951,64.206L345.69,64.206L345.69,102.092L355.429,102.092L355.429,149.831L365.168,149.831L365.168,202.75L374.907,202.75L374.907,255.669L384.646,255.669L384.646,303.408L394.385,303.408L394.385,341.294L404.124,341.294L404.124,365.618L413.863,365.618L413.863,374L423.602,374L423.602,365.618L433.341,365.618L433.341,341.294L443.08,341.294L443.08,303.408L452.819,303.408L452.819,255.669L462.558,255.669L462.558,202.75" style="fill:none;stroke:rgb(0,114,189);stroke-width:5.28px;"/>
    </g>
    <g transform="matrix(1.23583,0,0,1,-444.038,-38.3404)">
        <g transform="matrix(809.175,0,0,1000,369.602,912.26)">
            <path d="M0.688,-0.226C0.688,-0.203 0.682,-0.179 0.671,-0.152C0.66,-0.126 0.642,-0.1 0.618,-0.074C0.594,-0.048 0.563,-0.028 0.526,-0.012C0.488,0.004 0.445,0.012 0.395,0.012C0.357,0.012 0.323,0.009 0.292,0.001C0.261,-0.006 0.233,-0.017 0.208,-0.032C0.183,-0.047 0.159,-0.067 0.138,-0.092C0.119,-0.114 0.103,-0.139 0.09,-0.167C0.076,-0.195 0.066,-0.225 0.06,-0.256C0.053,-0.288 0.05,-0.321 0.05,-0.357C0.05,-0.415 0.058,-0.466 0.075,-0.512C0.092,-0.557 0.116,-0.596 0.147,-0.629C0.178,-0.661 0.215,-0.686 0.257,-0.703C0.299,-0.72 0.344,-0.728 0.391,-0.728C0.449,-0.728 0.501,-0.716 0.546,-0.693C0.591,-0.67 0.626,-0.642 0.65,-0.608C0.674,-0.574 0.686,-0.542 0.686,-0.511C0.686,-0.495 0.68,-0.48 0.668,-0.467C0.657,-0.455 0.643,-0.448 0.626,-0.448C0.607,-0.448 0.594,-0.453 0.584,-0.461C0.575,-0.47 0.565,-0.485 0.553,-0.507C0.534,-0.542 0.512,-0.569 0.487,-0.586C0.461,-0.604 0.43,-0.613 0.392,-0.613C0.333,-0.613 0.285,-0.59 0.25,-0.545C0.214,-0.5 0.197,-0.435 0.197,-0.352C0.197,-0.296 0.205,-0.25 0.22,-0.213C0.236,-0.176 0.258,-0.149 0.287,-0.13C0.315,-0.112 0.349,-0.103 0.387,-0.103C0.429,-0.103 0.464,-0.113 0.493,-0.134C0.522,-0.155 0.543,-0.185 0.558,-0.225C0.564,-0.244 0.572,-0.259 0.581,-0.271C0.59,-0.283 0.605,-0.289 0.625,-0.289C0.642,-0.289 0.657,-0.283 0.669,-0.271C0.682,-0.259 0.688,-0.244 0.688,-0.226Z" style="fill-rule:nonzero;"/>
        </g>
        <g transform="matrix(809.175,0,0,1000,968.581,912.26)">
            <path d="M0.192,0.029L0.204,-0.001L0.04,-0.414C0.03,-0.438 0.025,-0.455 0.025,-0.466C0.025,-0.477 0.028,-0.488 0.034,-0.498C0.04,-0.507 0.048,-0.515 0.058,-0.521C0.068,-0.527 0.079,-0.53 0.09,-0.53C0.109,-0.53 0.124,-0.524 0.133,-0.511C0.143,-0.499 0.152,-0.482 0.159,-0.459L0.272,-0.131L0.379,-0.436C0.387,-0.461 0.395,-0.48 0.402,-0.494C0.409,-0.508 0.416,-0.518 0.424,-0.522C0.431,-0.527 0.442,-0.53 0.456,-0.53C0.466,-0.53 0.476,-0.527 0.485,-0.522C0.494,-0.516 0.502,-0.509 0.507,-0.5C0.512,-0.491 0.514,-0.481 0.514,-0.471C0.513,-0.465 0.511,-0.456 0.508,-0.445C0.505,-0.433 0.501,-0.422 0.497,-0.41L0.323,0.045C0.308,0.085 0.294,0.116 0.279,0.139C0.265,0.162 0.246,0.179 0.222,0.192C0.199,0.204 0.167,0.21 0.127,0.21C0.088,0.21 0.059,0.206 0.039,0.197C0.02,0.189 0.01,0.173 0.01,0.151C0.01,0.136 0.014,0.124 0.024,0.115C0.033,0.107 0.047,0.103 0.065,0.103C0.072,0.103 0.079,0.104 0.086,0.106C0.094,0.108 0.102,0.109 0.108,0.109C0.123,0.109 0.135,0.107 0.144,0.102C0.153,0.097 0.161,0.09 0.168,0.078C0.175,0.067 0.183,0.051 0.192,0.029Z" style="fill-rule:nonzero;"/>
        </g>
        <g transform="matrix(809.175,0,0,1000,1407.15,912.26)">
            <path d="M0.168,-0.716L0.357,-0.716C0.406,-0.716 0.448,-0.711 0.483,-0.702C0.519,-0.693 0.55,-0.676 0.579,-0.651C0.654,-0.587 0.691,-0.49 0.691,-0.36C0.691,-0.317 0.687,-0.278 0.68,-0.242C0.672,-0.207 0.661,-0.175 0.645,-0.146C0.629,-0.118 0.609,-0.092 0.585,-0.07C0.566,-0.053 0.545,-0.039 0.522,-0.028C0.499,-0.018 0.475,-0.011 0.448,-0.006C0.422,-0.002 0.393,0 0.36,0L0.171,0C0.145,0 0.125,-0.004 0.111,-0.012C0.098,-0.02 0.089,-0.031 0.085,-0.046C0.081,-0.06 0.079,-0.079 0.079,-0.102L0.079,-0.627C0.079,-0.658 0.086,-0.681 0.1,-0.695C0.114,-0.709 0.137,-0.716 0.168,-0.716ZM0.224,-0.601L0.224,-0.115L0.334,-0.115C0.358,-0.115 0.377,-0.116 0.391,-0.117C0.404,-0.118 0.418,-0.122 0.433,-0.127C0.448,-0.132 0.46,-0.139 0.471,-0.149C0.52,-0.19 0.544,-0.261 0.544,-0.361C0.544,-0.431 0.533,-0.484 0.512,-0.52C0.491,-0.555 0.464,-0.577 0.433,-0.587C0.402,-0.596 0.364,-0.601 0.32,-0.601L0.224,-0.601Z" style="fill-rule:nonzero;"/>
        </g>
        <g transform="matrix(809.175,0,0,1000,1975.31,912.26)">
            <path d="M0.536,-0.081L0.502,-0.171L0.211,-0.171L0.177,-0.079C0.163,-0.043 0.152,-0.019 0.143,-0.007C0.133,0.006 0.118,0.012 0.096,0.012C0.078,0.012 0.062,0.006 0.048,-0.008C0.034,-0.021 0.027,-0.036 0.027,-0.053C0.027,-0.063 0.028,-0.073 0.032,-0.083C0.035,-0.094 0.04,-0.108 0.048,-0.127L0.231,-0.592C0.236,-0.605 0.242,-0.621 0.25,-0.64C0.257,-0.659 0.265,-0.674 0.273,-0.687C0.281,-0.699 0.292,-0.709 0.306,-0.717C0.319,-0.724 0.336,-0.728 0.356,-0.728C0.376,-0.728 0.393,-0.724 0.406,-0.717C0.42,-0.709 0.431,-0.699 0.439,-0.687C0.448,-0.675 0.455,-0.662 0.46,-0.648C0.466,-0.634 0.473,-0.616 0.482,-0.593L0.669,-0.131C0.684,-0.096 0.691,-0.07 0.691,-0.054C0.691,-0.038 0.684,-0.022 0.67,-0.009C0.656,0.005 0.64,0.012 0.62,0.012C0.609,0.012 0.599,0.01 0.591,0.006C0.583,0.002 0.576,-0.003 0.57,-0.01C0.565,-0.017 0.559,-0.028 0.552,-0.043C0.546,-0.057 0.541,-0.07 0.536,-0.081ZM0.249,-0.28L0.463,-0.28L0.355,-0.575L0.249,-0.28Z" style="fill-rule:nonzero;"/>
        </g>
        <g transform="matrix(809.175,0,0,1000,2546.63,912.26)">
            <path d="M0.654,-0.089C0.675,-0.075 0.698,-0.061 0.723,-0.047C0.748,-0.034 0.765,-0.023 0.773,-0.015C0.781,-0.007 0.785,0.004 0.785,0.019C0.785,0.029 0.78,0.04 0.771,0.05C0.761,0.061 0.75,0.066 0.736,0.066C0.725,0.066 0.711,0.062 0.696,0.055C0.68,0.048 0.661,0.038 0.64,0.024C0.619,0.01 0.595,-0.006 0.57,-0.024C0.523,0 0.465,0.012 0.396,0.012C0.34,0.012 0.29,0.003 0.246,-0.014C0.202,-0.032 0.165,-0.058 0.135,-0.091C0.105,-0.124 0.083,-0.164 0.068,-0.21C0.052,-0.256 0.045,-0.306 0.045,-0.36C0.045,-0.415 0.053,-0.465 0.069,-0.511C0.084,-0.557 0.107,-0.596 0.137,-0.628C0.167,-0.661 0.204,-0.685 0.247,-0.702C0.29,-0.719 0.338,-0.728 0.393,-0.728C0.467,-0.728 0.531,-0.713 0.584,-0.683C0.637,-0.653 0.678,-0.61 0.705,-0.554C0.732,-0.499 0.746,-0.434 0.746,-0.359C0.746,-0.245 0.715,-0.155 0.654,-0.089ZM0.54,-0.168C0.56,-0.191 0.575,-0.218 0.585,-0.25C0.594,-0.282 0.599,-0.318 0.599,-0.36C0.599,-0.412 0.591,-0.458 0.574,-0.496C0.557,-0.535 0.533,-0.564 0.501,-0.583C0.47,-0.603 0.434,-0.613 0.393,-0.613C0.364,-0.613 0.337,-0.607 0.313,-0.596C0.288,-0.586 0.267,-0.57 0.249,-0.549C0.232,-0.528 0.218,-0.501 0.207,-0.469C0.197,-0.437 0.192,-0.4 0.192,-0.36C0.192,-0.278 0.211,-0.214 0.25,-0.17C0.288,-0.125 0.336,-0.103 0.395,-0.103C0.419,-0.103 0.444,-0.108 0.469,-0.118C0.454,-0.13 0.435,-0.141 0.412,-0.152C0.389,-0.164 0.373,-0.173 0.365,-0.179C0.356,-0.185 0.352,-0.194 0.352,-0.205C0.352,-0.215 0.356,-0.223 0.364,-0.231C0.372,-0.238 0.381,-0.242 0.391,-0.242C0.421,-0.242 0.47,-0.217 0.54,-0.168Z" style="fill-rule:nonzero;"/>
        </g>
    </g>
    <path d="M0,1791.77C4.89,1726.96 9.419,1617.8 18.337,1601.45C27.773,1584.16 34.889,1697.9 44.09,1681.39C54.363,1662.96 63.132,1509.37 72.826,1498.14C82.486,1486.94 92.027,1640.29 101.857,1611.16C111.686,1582.03 121.193,1353.66 132.394,1332.82C142.14,1314.68 152.103,1490 162.086,1507.48C171.48,1523.93 180.472,1409.68 188.739,1433.98C201.712,1472.11 208.794,1654.86 218.993,1668.33C229.192,1681.81 239.865,1487.7 249.173,1512.16C262.516,1547.23 271.005,1791.51 283.75,1804.25C290.904,1811.4 296.126,1771.69 301.344,1780.36C317.128,1806.58 323.902,2043.62 336.216,2071.15C346.733,2094.66 356.248,1902.64 366.17,1915.47C376.093,1928.29 385.17,2121.7 396.516,2149.83C405.559,2172.25 414.368,2058.93 423.52,2076.13C432.671,2093.33 441.81,2269.97 452.696,2252.4C463.582,2234.84 472.858,2001.85 483.366,1973.03C493.875,1944.21 503.378,2096.73 512.458,2085.25C521.537,2073.76 532.287,1918.36 541.186,1902.13C550.084,1885.9 559.578,2000.83 566.782,1981.67C576.241,1956.51 581.539,1855.4 585.26,1791.77C589.055,1726.88 594.629,1617.56 603.547,1601.21C612.983,1583.91 620.149,1697.9 629.35,1681.39C639.624,1662.96 648.393,1509.37 658.086,1498.14C667.746,1486.94 677.287,1640.29 687.117,1611.16C696.947,1582.03 706.454,1353.66 717.654,1332.82C727.401,1314.68 737.364,1490 747.346,1507.48C756.74,1523.93 765.732,1409.68 774,1433.98C786.972,1472.11 794.054,1654.86 804.253,1668.33C814.452,1681.81 825.125,1487.7 834.434,1512.16C847.776,1547.23 856.265,1791.51 869.011,1804.25C876.164,1811.4 881.387,1771.69 886.604,1780.36C902.388,1806.58 909.162,2043.62 921.476,2071.15C931.993,2094.66 941.508,1902.64 951.43,1915.47C961.353,1928.29 970.431,2121.7 981.777,2149.83C990.819,2172.25 999.629,2058.93 1008.78,2076.13C1017.93,2093.33 1027.07,2269.97 1037.96,2252.4C1048.84,2234.84 1058.12,2001.85 1068.63,1973.03C1079.13,1944.21 1088.64,2096.73 1097.72,2085.25C1106.8,2073.76 1117.55,1918.36 1126.45,1902.13C1135.35,1885.9 1144.75,2001.75 1152.29,1981.69C1161.06,1958.37 1166.77,1855.95 1170.52,1791.77" style="fill:none;stroke:rgb(0,114,189);stroke-width:14.58px;stroke-linecap:round;stroke-linejoin:round;stroke-miterlimit:1.5;"/>
    <path d="M1263.02,1792.57C1295,1617.18 1348.14,1265.52 1414.26,1342.65C1493.98,1435.65 1565.61,2252.4 1657.2,2252.4C1749.44,2252.4 1823.59,1331.51 1917.47,1331.51C2004.68,1331.51 2082.38,2148.93 2160.97,2241.05C2226.54,2317.89 2277.87,1965.9 2310.86,1792.57" style="fill:none;stroke:rgb(0,114,189);stroke-width:14.58px;stroke-linecap:round;stroke-linejoin:round;stroke-miterlimit:1.5;"/>
</svg>
