G75*
%MOIN*%
%OFA0B0*%
%FSLAX25Y25*%
%IPPOS*%
%LPD*%
%AMOC8*
5,1,8,0,0,1.08239X$1,22.5*
%
%ADD10C,0.02178*%
%ADD11C,0.08200*%
%ADD12R,0.02178X0.04343*%
%ADD13R,0.04343X0.02178*%
%ADD14R,0.06706X0.05918*%
%ADD15R,0.05918X0.06706*%
%ADD16R,0.02200X0.06600*%
%ADD17R,0.06600X0.02200*%
%ADD18R,0.02000X0.04700*%
%ADD19R,0.04700X0.02000*%
%ADD20OC8,0.06737*%
%ADD21C,0.07099*%
%ADD22C,0.01421*%
%ADD23C,0.03778*%
D10*
X0016300Y0016300D03*
X0401300Y0016300D03*
X0541300Y0086300D03*
X0541300Y0246300D03*
X0526300Y0301300D03*
X0021300Y0296300D03*
D11*
X0066300Y0271300D03*
X0086300Y0261300D03*
X0081300Y0246300D03*
X0051300Y0251300D03*
X0026300Y0231300D03*
X0041300Y0196300D03*
X0028800Y0166800D03*
X0028800Y0152800D03*
X0028800Y0138800D03*
X0016300Y0056300D03*
X0016300Y0031300D03*
X0031800Y0019300D03*
X0076300Y0016300D03*
X0166300Y0246300D03*
X0116300Y0271300D03*
X0126300Y0286300D03*
X0106300Y0291300D03*
X0146300Y0296300D03*
X0256300Y0306300D03*
X0266300Y0291300D03*
X0281300Y0286300D03*
X0301300Y0306300D03*
X0391300Y0296300D03*
X0391300Y0246300D03*
X0406300Y0246300D03*
X0421300Y0246300D03*
X0436300Y0246300D03*
X0451300Y0246300D03*
D12*
X0075257Y0197619D03*
X0072698Y0197619D03*
X0070139Y0197619D03*
X0067580Y0197619D03*
X0065020Y0197619D03*
X0062461Y0197619D03*
X0059902Y0197619D03*
X0057343Y0197619D03*
X0057343Y0174981D03*
X0059902Y0174981D03*
X0062461Y0174981D03*
X0065020Y0174981D03*
X0067580Y0174981D03*
X0070139Y0174981D03*
X0072698Y0174981D03*
X0075257Y0174981D03*
X0075257Y0112619D03*
X0072698Y0112619D03*
X0070139Y0112619D03*
X0067580Y0112619D03*
X0065020Y0112619D03*
X0062461Y0112619D03*
X0059902Y0112619D03*
X0057343Y0112619D03*
X0057343Y0089981D03*
X0059902Y0089981D03*
X0062461Y0089981D03*
X0065020Y0089981D03*
X0067580Y0089981D03*
X0070139Y0089981D03*
X0072698Y0089981D03*
X0075257Y0089981D03*
X0075257Y0047619D03*
X0072698Y0047619D03*
X0070139Y0047619D03*
X0067580Y0047619D03*
X0065020Y0047619D03*
X0062461Y0047619D03*
X0059902Y0047619D03*
X0057343Y0047619D03*
X0057343Y0024981D03*
X0059902Y0024981D03*
X0062461Y0024981D03*
X0065020Y0024981D03*
X0067580Y0024981D03*
X0070139Y0024981D03*
X0072698Y0024981D03*
X0075257Y0024981D03*
D13*
X0349981Y0052343D03*
X0349981Y0054902D03*
X0349981Y0057461D03*
X0349981Y0060020D03*
X0349981Y0062580D03*
X0349981Y0065139D03*
X0349981Y0067698D03*
X0349981Y0070257D03*
X0372619Y0070257D03*
X0372619Y0067698D03*
X0372619Y0065139D03*
X0372619Y0062580D03*
X0372619Y0060020D03*
X0372619Y0057461D03*
X0372619Y0054902D03*
X0372619Y0052343D03*
X0372619Y0102343D03*
X0372619Y0104902D03*
X0372619Y0107461D03*
X0372619Y0110020D03*
X0372619Y0112580D03*
X0372619Y0115139D03*
X0372619Y0117698D03*
X0372619Y0120257D03*
X0349981Y0120257D03*
X0349981Y0117698D03*
X0349981Y0115139D03*
X0349981Y0112580D03*
X0349981Y0110020D03*
X0349981Y0107461D03*
X0349981Y0104902D03*
X0349981Y0102343D03*
X0349981Y0157343D03*
X0349981Y0159902D03*
X0349981Y0162461D03*
X0349981Y0165020D03*
X0349981Y0167580D03*
X0349981Y0170139D03*
X0349981Y0172698D03*
X0349981Y0175257D03*
X0372619Y0175257D03*
X0372619Y0172698D03*
X0372619Y0170139D03*
X0372619Y0167580D03*
X0372619Y0165020D03*
X0372619Y0162461D03*
X0372619Y0159902D03*
X0372619Y0157343D03*
X0327619Y0227343D03*
X0327619Y0229902D03*
X0327619Y0232461D03*
X0327619Y0235020D03*
X0327619Y0237580D03*
X0327619Y0240139D03*
X0327619Y0242698D03*
X0327619Y0245257D03*
X0304981Y0245257D03*
X0304981Y0242698D03*
X0304981Y0240139D03*
X0304981Y0237580D03*
X0304981Y0235020D03*
X0304981Y0232461D03*
X0304981Y0229902D03*
X0304981Y0227343D03*
D14*
X0261300Y0205040D03*
X0261300Y0197560D03*
X0226300Y0207560D03*
X0226300Y0215040D03*
X0211300Y0210040D03*
X0211300Y0202560D03*
X0166300Y0217560D03*
X0166300Y0225040D03*
X0136300Y0215040D03*
X0136300Y0207560D03*
X0116300Y0232560D03*
X0116300Y0240040D03*
X0096300Y0237560D03*
X0096300Y0245040D03*
X0156300Y0247560D03*
X0156300Y0255040D03*
X0171300Y0257560D03*
X0171300Y0265040D03*
X0209800Y0277560D03*
X0209800Y0285040D03*
X0221300Y0282560D03*
X0221300Y0290040D03*
X0261300Y0280040D03*
X0261300Y0272560D03*
X0281300Y0300060D03*
X0281300Y0307540D03*
X0321300Y0265040D03*
X0321300Y0257560D03*
X0361300Y0245040D03*
X0361300Y0237560D03*
X0261300Y0175040D03*
X0261300Y0167560D03*
X0231300Y0155040D03*
X0231300Y0147560D03*
X0241300Y0140040D03*
X0251300Y0137540D03*
X0241300Y0132560D03*
X0251300Y0130060D03*
X0296300Y0142560D03*
X0296300Y0150040D03*
X0316300Y0152560D03*
X0316300Y0160040D03*
X0206300Y0155040D03*
X0206300Y0147560D03*
X0146300Y0147560D03*
X0146300Y0155040D03*
X0236300Y0095040D03*
X0236300Y0087560D03*
X0196300Y0090040D03*
X0196300Y0082560D03*
X0161300Y0085040D03*
X0161300Y0077560D03*
X0151300Y0040040D03*
X0151300Y0032560D03*
X0121300Y0035040D03*
X0121300Y0027560D03*
X0205800Y0027560D03*
X0205800Y0035040D03*
X0246300Y0052560D03*
X0246300Y0060040D03*
X0491300Y0020040D03*
X0491300Y0012560D03*
X0511300Y0012560D03*
X0511300Y0020040D03*
X0531300Y0020040D03*
X0531300Y0012560D03*
D15*
X0542560Y0026300D03*
X0550040Y0026300D03*
X0255040Y0111300D03*
X0247560Y0111300D03*
X0247560Y0121300D03*
X0255040Y0121300D03*
X0200040Y0106300D03*
X0192560Y0106300D03*
X0165040Y0136300D03*
X0157560Y0136300D03*
X0140040Y0106300D03*
X0132560Y0106300D03*
X0172560Y0061300D03*
X0180040Y0061300D03*
X0222560Y0046300D03*
X0230040Y0046300D03*
X0145040Y0016300D03*
X0137560Y0016300D03*
X0125040Y0016300D03*
X0117560Y0016300D03*
X0132560Y0026300D03*
X0140040Y0026300D03*
X0140040Y0041300D03*
X0132560Y0041300D03*
X0147560Y0216300D03*
X0155040Y0216300D03*
X0232560Y0256300D03*
X0240040Y0256300D03*
X0287560Y0221300D03*
X0295040Y0221300D03*
X0302560Y0251300D03*
X0310040Y0251300D03*
X0310040Y0261300D03*
X0302560Y0261300D03*
X0302560Y0281800D03*
X0310040Y0281800D03*
X0332560Y0256300D03*
X0340040Y0256300D03*
X0362560Y0294800D03*
X0370040Y0294800D03*
X0245040Y0296300D03*
X0237560Y0296300D03*
D16*
X0237461Y0287400D03*
X0234902Y0287400D03*
X0232343Y0287400D03*
X0229784Y0287400D03*
X0240020Y0287400D03*
X0242580Y0287400D03*
X0245139Y0287400D03*
X0247698Y0287400D03*
X0250257Y0287400D03*
X0252816Y0287400D03*
X0252816Y0265200D03*
X0250257Y0265200D03*
X0247698Y0265200D03*
X0245139Y0265200D03*
X0242580Y0265200D03*
X0240020Y0265200D03*
X0237461Y0265200D03*
X0234902Y0265200D03*
X0232343Y0265200D03*
X0229784Y0265200D03*
X0202816Y0272400D03*
X0200257Y0272400D03*
X0197698Y0272400D03*
X0195139Y0272400D03*
X0192580Y0272400D03*
X0190020Y0272400D03*
X0187461Y0272400D03*
X0184902Y0272400D03*
X0182343Y0272400D03*
X0179784Y0272400D03*
X0179784Y0250200D03*
X0182343Y0250200D03*
X0184902Y0250200D03*
X0187461Y0250200D03*
X0190020Y0250200D03*
X0192580Y0250200D03*
X0195139Y0250200D03*
X0197698Y0250200D03*
X0200257Y0250200D03*
X0202816Y0250200D03*
X0147816Y0247400D03*
X0145257Y0247400D03*
X0142698Y0247400D03*
X0140139Y0247400D03*
X0137580Y0247400D03*
X0135020Y0247400D03*
X0132461Y0247400D03*
X0129902Y0247400D03*
X0127343Y0247400D03*
X0124784Y0247400D03*
X0124784Y0225200D03*
X0127343Y0225200D03*
X0129902Y0225200D03*
X0132461Y0225200D03*
X0135020Y0225200D03*
X0137580Y0225200D03*
X0140139Y0225200D03*
X0142698Y0225200D03*
X0145257Y0225200D03*
X0147816Y0225200D03*
X0164784Y0167400D03*
X0167343Y0167400D03*
X0169902Y0167400D03*
X0172461Y0167400D03*
X0175020Y0167400D03*
X0177580Y0167400D03*
X0180139Y0167400D03*
X0182698Y0167400D03*
X0185257Y0167400D03*
X0187816Y0167400D03*
X0187816Y0145200D03*
X0185257Y0145200D03*
X0182698Y0145200D03*
X0180139Y0145200D03*
X0177580Y0145200D03*
X0175020Y0145200D03*
X0172461Y0145200D03*
X0169902Y0145200D03*
X0167343Y0145200D03*
X0164784Y0145200D03*
X0147816Y0077400D03*
X0145257Y0077400D03*
X0142698Y0077400D03*
X0140139Y0077400D03*
X0137580Y0077400D03*
X0135020Y0077400D03*
X0132461Y0077400D03*
X0129902Y0077400D03*
X0127343Y0077400D03*
X0124784Y0077400D03*
X0124784Y0055200D03*
X0127343Y0055200D03*
X0129902Y0055200D03*
X0132461Y0055200D03*
X0135020Y0055200D03*
X0137580Y0055200D03*
X0140139Y0055200D03*
X0142698Y0055200D03*
X0145257Y0055200D03*
X0147816Y0055200D03*
D17*
X0190200Y0114784D03*
X0190200Y0117343D03*
X0190200Y0119902D03*
X0190200Y0122461D03*
X0190200Y0125020D03*
X0190200Y0127580D03*
X0190200Y0130139D03*
X0190200Y0132698D03*
X0190200Y0135257D03*
X0190200Y0137816D03*
X0212400Y0137816D03*
X0212400Y0135257D03*
X0212400Y0132698D03*
X0212400Y0130139D03*
X0212400Y0127580D03*
X0212400Y0125020D03*
X0212400Y0122461D03*
X0212400Y0119902D03*
X0212400Y0117343D03*
X0212400Y0114784D03*
X0285200Y0114902D03*
X0285200Y0112343D03*
X0285200Y0109784D03*
X0285200Y0117461D03*
X0285200Y0120020D03*
X0285200Y0122580D03*
X0285200Y0125139D03*
X0285200Y0127698D03*
X0285200Y0130257D03*
X0285200Y0132816D03*
X0307400Y0132816D03*
X0307400Y0130257D03*
X0307400Y0127698D03*
X0307400Y0125139D03*
X0307400Y0122580D03*
X0307400Y0120020D03*
X0307400Y0117461D03*
X0307400Y0114902D03*
X0307400Y0112343D03*
X0307400Y0109784D03*
D18*
X0253977Y0149813D03*
X0251418Y0149813D03*
X0248859Y0149813D03*
X0246300Y0149813D03*
X0243741Y0149813D03*
X0241182Y0149813D03*
X0238623Y0149813D03*
X0238623Y0172787D03*
X0241182Y0172787D03*
X0243741Y0172787D03*
X0246300Y0172787D03*
X0248859Y0172787D03*
X0251418Y0172787D03*
X0253977Y0172787D03*
X0188977Y0209813D03*
X0186418Y0209813D03*
X0183859Y0209813D03*
X0181300Y0209813D03*
X0178741Y0209813D03*
X0176182Y0209813D03*
X0173623Y0209813D03*
X0173623Y0232787D03*
X0176182Y0232787D03*
X0178741Y0232787D03*
X0181300Y0232787D03*
X0183859Y0232787D03*
X0186418Y0232787D03*
X0188977Y0232787D03*
D19*
X0189813Y0058977D03*
X0189813Y0056418D03*
X0189813Y0053859D03*
X0189813Y0051300D03*
X0189813Y0048741D03*
X0189813Y0046182D03*
X0189813Y0043623D03*
X0212787Y0043623D03*
X0212787Y0046182D03*
X0212787Y0048741D03*
X0212787Y0051300D03*
X0212787Y0053859D03*
X0212787Y0056418D03*
X0212787Y0058977D03*
D20*
X0451300Y0046300D03*
X0461300Y0046300D03*
X0471300Y0046300D03*
X0481300Y0046300D03*
X0491300Y0046300D03*
X0501300Y0046300D03*
X0511300Y0046300D03*
X0521300Y0046300D03*
X0531300Y0046300D03*
X0541300Y0046300D03*
X0541300Y0036300D03*
X0531300Y0036300D03*
X0521300Y0036300D03*
X0511300Y0036300D03*
X0501300Y0036300D03*
X0491300Y0036300D03*
X0481300Y0036300D03*
X0471300Y0036300D03*
X0461300Y0036300D03*
X0451300Y0036300D03*
X0451300Y0206300D03*
X0461300Y0206300D03*
X0471300Y0206300D03*
X0481300Y0206300D03*
X0491300Y0206300D03*
X0501300Y0206300D03*
X0511300Y0206300D03*
X0521300Y0206300D03*
X0531300Y0206300D03*
X0541300Y0206300D03*
X0541300Y0216300D03*
X0531300Y0216300D03*
X0521300Y0216300D03*
X0511300Y0216300D03*
X0501300Y0216300D03*
X0491300Y0216300D03*
X0481300Y0216300D03*
X0471300Y0216300D03*
X0461300Y0216300D03*
X0451300Y0216300D03*
D21*
X0454056Y0298347D03*
X0461930Y0298347D03*
X0469804Y0298347D03*
X0477678Y0298347D03*
X0485550Y0298359D03*
X0493424Y0298359D03*
X0431917Y0298529D03*
X0424043Y0298529D03*
X0416169Y0298529D03*
X0408295Y0298529D03*
X0013446Y0208957D03*
X0013446Y0201083D03*
X0013446Y0193209D03*
X0009135Y0263426D03*
X0009135Y0271300D03*
X0009135Y0279174D03*
X0011135Y0104174D03*
X0011135Y0096300D03*
X0011135Y0088426D03*
D22*
X0359540Y0277901D02*
X0362856Y0277901D01*
X0362856Y0274585D01*
X0359540Y0274585D01*
X0359540Y0277901D01*
X0359540Y0276005D02*
X0362856Y0276005D01*
X0362856Y0277425D02*
X0359540Y0277425D01*
X0359540Y0284806D02*
X0362856Y0284806D01*
X0362856Y0281490D01*
X0359540Y0281490D01*
X0359540Y0284806D01*
X0359540Y0282910D02*
X0362856Y0282910D01*
X0362856Y0284330D02*
X0359540Y0284330D01*
D23*
X0371300Y0286300D03*
X0371300Y0301300D03*
X0346300Y0301300D03*
X0313197Y0301300D03*
X0301300Y0276300D03*
X0316300Y0270040D03*
X0315800Y0266342D03*
X0331300Y0266300D03*
X0296989Y0256800D03*
X0289800Y0251800D03*
X0296060Y0247300D03*
X0300860Y0245806D03*
X0298689Y0242917D03*
X0300800Y0239969D03*
X0311513Y0236513D03*
X0321763Y0237580D03*
X0333689Y0226300D03*
X0328800Y0223800D03*
X0341300Y0221300D03*
X0321300Y0206300D03*
X0340900Y0192267D03*
X0346300Y0189311D03*
X0348689Y0186300D03*
X0341300Y0181300D03*
X0336300Y0183911D03*
X0338911Y0176300D03*
X0345620Y0170300D03*
X0343689Y0161300D03*
X0356300Y0161300D03*
X0343689Y0151300D03*
X0331300Y0161300D03*
X0296300Y0156040D03*
X0291300Y0166300D03*
X0286300Y0176300D03*
X0286300Y0181300D03*
X0286300Y0196300D03*
X0316300Y0181300D03*
X0346300Y0197045D03*
X0351300Y0191300D03*
X0381300Y0191300D03*
X0381300Y0181300D03*
X0381300Y0176300D03*
X0382722Y0171300D03*
X0386300Y0171300D03*
X0386300Y0166300D03*
X0392666Y0161300D03*
X0395055Y0156300D03*
X0366684Y0171684D03*
X0410749Y0190276D03*
X0416300Y0201300D03*
X0391300Y0201300D03*
X0421300Y0223911D03*
X0431300Y0226300D03*
X0428479Y0231300D03*
X0425808Y0233689D03*
X0441300Y0221300D03*
X0465867Y0221772D03*
X0457993Y0237520D03*
X0513111Y0229646D03*
X0516300Y0226300D03*
X0476300Y0198911D03*
X0481300Y0196300D03*
X0465867Y0190276D03*
X0456300Y0193911D03*
X0481615Y0182402D03*
X0471300Y0176300D03*
X0476300Y0171300D03*
X0471300Y0166300D03*
X0491300Y0151300D03*
X0501300Y0126300D03*
X0501300Y0096300D03*
X0486300Y0096300D03*
X0481615Y0088689D03*
X0471300Y0091300D03*
X0436300Y0091300D03*
X0431300Y0083911D03*
X0392666Y0086300D03*
X0392666Y0091300D03*
X0383911Y0081300D03*
X0378911Y0081300D03*
X0381300Y0076300D03*
X0386300Y0076300D03*
X0390277Y0077323D03*
X0375792Y0095792D03*
X0357837Y0105020D03*
X0346120Y0106300D03*
X0336300Y0111300D03*
X0336689Y0118800D03*
X0344625Y0118698D03*
X0344881Y0114381D03*
X0356300Y0116300D03*
X0357436Y0119878D03*
X0361300Y0121300D03*
X0346300Y0128689D03*
X0341300Y0131300D03*
X0336300Y0128689D03*
X0331300Y0128689D03*
X0326300Y0136300D03*
X0306300Y0136300D03*
X0301300Y0131300D03*
X0286300Y0136300D03*
X0281300Y0141300D03*
X0271300Y0136300D03*
X0251800Y0143540D03*
X0248859Y0154758D03*
X0241300Y0156300D03*
X0246300Y0166300D03*
X0226300Y0176300D03*
X0241300Y0181300D03*
X0246300Y0194089D03*
X0251300Y0201300D03*
X0226300Y0201300D03*
X0221300Y0201560D03*
X0211300Y0196800D03*
X0191300Y0194089D03*
X0183859Y0204867D03*
X0192548Y0209813D03*
X0181300Y0213852D03*
X0166300Y0206300D03*
X0156300Y0206300D03*
X0156300Y0196300D03*
X0168689Y0183911D03*
X0176300Y0181300D03*
X0182698Y0162405D03*
X0176244Y0156356D03*
X0169902Y0161905D03*
X0166300Y0162411D03*
X0166300Y0156300D03*
X0164554Y0150700D03*
X0172461Y0150195D03*
X0190700Y0142046D03*
X0184705Y0132698D03*
X0171300Y0136300D03*
X0146300Y0141060D03*
X0141258Y0146300D03*
X0139800Y0155040D03*
X0111300Y0156300D03*
X0141300Y0176300D03*
X0111300Y0183911D03*
X0081300Y0181300D03*
X0076300Y0186300D03*
X0076300Y0189878D03*
X0076300Y0193456D03*
X0067580Y0189763D03*
X0063095Y0191474D03*
X0056300Y0186300D03*
X0051300Y0191300D03*
X0048911Y0181300D03*
X0046300Y0176300D03*
X0041300Y0171300D03*
X0046300Y0161688D03*
X0056300Y0126300D03*
X0056300Y0121300D03*
X0051300Y0110952D03*
X0043911Y0106300D03*
X0048911Y0101300D03*
X0046300Y0088270D03*
X0041300Y0088032D03*
X0036300Y0070287D03*
X0036300Y0056300D03*
X0043911Y0046300D03*
X0051300Y0046300D03*
X0053689Y0056300D03*
X0067580Y0039763D03*
X0066300Y0031300D03*
X0071300Y0031300D03*
X0081300Y0031300D03*
X0086300Y0036300D03*
X0091300Y0036300D03*
X0096300Y0036300D03*
X0126300Y0031300D03*
X0154300Y0049300D03*
X0138800Y0061300D03*
X0132079Y0062079D03*
X0153800Y0070800D03*
X0171300Y0078911D03*
X0191300Y0086300D03*
X0201300Y0076300D03*
X0206300Y0071300D03*
X0206300Y0056300D03*
X0206300Y0052722D03*
X0180800Y0051758D03*
X0176300Y0036300D03*
X0096300Y0011300D03*
X0091300Y0011300D03*
X0086300Y0011789D03*
X0051300Y0031300D03*
X0046300Y0026300D03*
X0046300Y0021300D03*
X0039800Y0011300D03*
X0091300Y0066300D03*
X0136300Y0086300D03*
X0147300Y0093800D03*
X0132300Y0098300D03*
X0124300Y0093800D03*
X0132560Y0112800D03*
X0131300Y0116300D03*
X0141125Y0116869D03*
X0166300Y0096300D03*
X0181300Y0098689D03*
X0182560Y0106300D03*
X0186300Y0111300D03*
X0180731Y0116869D03*
X0195187Y0118911D03*
X0206400Y0114554D03*
X0205300Y0131300D03*
X0212400Y0141816D03*
X0212800Y0147674D03*
X0231300Y0141060D03*
X0234800Y0130300D03*
X0271300Y0106300D03*
X0286300Y0106300D03*
X0286300Y0101300D03*
X0301300Y0116300D03*
X0290189Y0118911D03*
X0316300Y0116300D03*
X0321300Y0118911D03*
X0326300Y0091300D03*
X0340100Y0076404D03*
X0346300Y0081300D03*
X0351300Y0086300D03*
X0346120Y0066300D03*
X0336300Y0066300D03*
X0361300Y0056300D03*
X0361300Y0051300D03*
X0366300Y0046300D03*
X0326300Y0036300D03*
X0356300Y0012767D03*
X0356300Y0009189D03*
X0361209Y0007989D03*
X0461300Y0011300D03*
X0511300Y0030040D03*
X0486300Y0041300D03*
X0498689Y0050841D03*
X0546300Y0016300D03*
X0521042Y0011300D03*
X0386300Y0116300D03*
X0390277Y0119686D03*
X0383911Y0121300D03*
X0378911Y0122641D03*
X0381300Y0126300D03*
X0401300Y0126300D03*
X0246300Y0086300D03*
X0201300Y0163689D03*
X0129800Y0216300D03*
X0120803Y0225803D03*
X0126342Y0231300D03*
X0136300Y0231300D03*
X0141300Y0231300D03*
X0146300Y0236300D03*
X0146300Y0241300D03*
X0131300Y0241300D03*
X0126300Y0241300D03*
X0116300Y0246300D03*
X0130554Y0257046D03*
X0136300Y0261300D03*
X0136300Y0266300D03*
X0151300Y0251300D03*
X0176300Y0236826D03*
X0181300Y0241300D03*
X0186300Y0241300D03*
X0191300Y0236300D03*
X0197244Y0244930D03*
X0201300Y0256300D03*
X0211300Y0261300D03*
X0221300Y0271300D03*
X0226300Y0276300D03*
X0231300Y0271300D03*
X0242580Y0270195D03*
X0246722Y0270171D03*
X0255300Y0272560D03*
X0261300Y0266300D03*
X0256300Y0261300D03*
X0246300Y0256300D03*
X0244300Y0249300D03*
X0236300Y0246300D03*
X0226300Y0261300D03*
X0216800Y0276560D03*
X0203800Y0285040D03*
X0186300Y0291300D03*
X0176300Y0301300D03*
X0197680Y0301300D03*
X0176300Y0276300D03*
X0187461Y0266905D03*
X0192122Y0267122D03*
X0179554Y0245200D03*
X0181300Y0227842D03*
X0196300Y0226300D03*
X0201300Y0221300D03*
X0221300Y0226300D03*
X0256300Y0221300D03*
X0266300Y0231300D03*
X0271300Y0241300D03*
X0266300Y0246300D03*
X0286300Y0236300D03*
X0286300Y0231300D03*
X0296300Y0228689D03*
X0283911Y0271300D03*
X0271300Y0273911D03*
X0250166Y0281700D03*
X0246300Y0279311D03*
X0266300Y0301300D03*
X0141300Y0286300D03*
X0131300Y0281300D03*
X0071300Y0251300D03*
X0056300Y0231300D03*
X0041300Y0206300D03*
X0091300Y0206300D03*
X0106300Y0206300D03*
X0101300Y0226300D03*
X0151226Y0225110D03*
X0086330Y0121330D03*
X0083770Y0118830D03*
X0091300Y0116300D03*
X0081300Y0096300D03*
X0036300Y0116300D03*
X0031300Y0116300D03*
X0391300Y0236300D03*
X0513111Y0284765D03*
X0536300Y0291300D03*
M02*
