G75*
%MOIN*%
%OFA0B0*%
%FSLAX25Y25*%
%IPPOS*%
%LPD*%
%AMOC8*
5,1,8,0,0,1.08239X$1,22.5*
%
%ADD10C,0.00000*%
%ADD11C,0.00600*%
%ADD12C,0.00800*%
%ADD13C,0.00500*%
%ADD14C,0.01682*%
%ADD15C,0.00200*%
%ADD16C,0.00100*%
%ADD17C,0.00300*%
%ADD18C,0.02000*%
D10*
X0001300Y0001300D02*
X0001300Y0316261D01*
X0560001Y0316261D01*
X0560001Y0001300D01*
X0001300Y0001300D01*
X0015611Y0016300D02*
X0015613Y0016352D01*
X0015619Y0016404D01*
X0015629Y0016455D01*
X0015642Y0016505D01*
X0015660Y0016555D01*
X0015681Y0016602D01*
X0015705Y0016648D01*
X0015734Y0016692D01*
X0015765Y0016734D01*
X0015799Y0016773D01*
X0015836Y0016810D01*
X0015876Y0016843D01*
X0015919Y0016874D01*
X0015963Y0016901D01*
X0016009Y0016925D01*
X0016058Y0016945D01*
X0016107Y0016961D01*
X0016158Y0016974D01*
X0016209Y0016983D01*
X0016261Y0016988D01*
X0016313Y0016989D01*
X0016365Y0016986D01*
X0016417Y0016979D01*
X0016468Y0016968D01*
X0016518Y0016954D01*
X0016567Y0016935D01*
X0016614Y0016913D01*
X0016659Y0016888D01*
X0016703Y0016859D01*
X0016744Y0016827D01*
X0016783Y0016792D01*
X0016818Y0016754D01*
X0016851Y0016713D01*
X0016881Y0016671D01*
X0016907Y0016626D01*
X0016930Y0016579D01*
X0016949Y0016530D01*
X0016965Y0016480D01*
X0016977Y0016430D01*
X0016985Y0016378D01*
X0016989Y0016326D01*
X0016989Y0016274D01*
X0016985Y0016222D01*
X0016977Y0016170D01*
X0016965Y0016120D01*
X0016949Y0016070D01*
X0016930Y0016021D01*
X0016907Y0015974D01*
X0016881Y0015929D01*
X0016851Y0015887D01*
X0016818Y0015846D01*
X0016783Y0015808D01*
X0016744Y0015773D01*
X0016703Y0015741D01*
X0016659Y0015712D01*
X0016614Y0015687D01*
X0016567Y0015665D01*
X0016518Y0015646D01*
X0016468Y0015632D01*
X0016417Y0015621D01*
X0016365Y0015614D01*
X0016313Y0015611D01*
X0016261Y0015612D01*
X0016209Y0015617D01*
X0016158Y0015626D01*
X0016107Y0015639D01*
X0016058Y0015655D01*
X0016009Y0015675D01*
X0015963Y0015699D01*
X0015919Y0015726D01*
X0015876Y0015757D01*
X0015836Y0015790D01*
X0015799Y0015827D01*
X0015765Y0015866D01*
X0015734Y0015908D01*
X0015705Y0015952D01*
X0015681Y0015998D01*
X0015660Y0016045D01*
X0015642Y0016095D01*
X0015629Y0016145D01*
X0015619Y0016196D01*
X0015613Y0016248D01*
X0015611Y0016300D01*
X0400611Y0016300D02*
X0400613Y0016352D01*
X0400619Y0016404D01*
X0400629Y0016455D01*
X0400642Y0016505D01*
X0400660Y0016555D01*
X0400681Y0016602D01*
X0400705Y0016648D01*
X0400734Y0016692D01*
X0400765Y0016734D01*
X0400799Y0016773D01*
X0400836Y0016810D01*
X0400876Y0016843D01*
X0400919Y0016874D01*
X0400963Y0016901D01*
X0401009Y0016925D01*
X0401058Y0016945D01*
X0401107Y0016961D01*
X0401158Y0016974D01*
X0401209Y0016983D01*
X0401261Y0016988D01*
X0401313Y0016989D01*
X0401365Y0016986D01*
X0401417Y0016979D01*
X0401468Y0016968D01*
X0401518Y0016954D01*
X0401567Y0016935D01*
X0401614Y0016913D01*
X0401659Y0016888D01*
X0401703Y0016859D01*
X0401744Y0016827D01*
X0401783Y0016792D01*
X0401818Y0016754D01*
X0401851Y0016713D01*
X0401881Y0016671D01*
X0401907Y0016626D01*
X0401930Y0016579D01*
X0401949Y0016530D01*
X0401965Y0016480D01*
X0401977Y0016430D01*
X0401985Y0016378D01*
X0401989Y0016326D01*
X0401989Y0016274D01*
X0401985Y0016222D01*
X0401977Y0016170D01*
X0401965Y0016120D01*
X0401949Y0016070D01*
X0401930Y0016021D01*
X0401907Y0015974D01*
X0401881Y0015929D01*
X0401851Y0015887D01*
X0401818Y0015846D01*
X0401783Y0015808D01*
X0401744Y0015773D01*
X0401703Y0015741D01*
X0401659Y0015712D01*
X0401614Y0015687D01*
X0401567Y0015665D01*
X0401518Y0015646D01*
X0401468Y0015632D01*
X0401417Y0015621D01*
X0401365Y0015614D01*
X0401313Y0015611D01*
X0401261Y0015612D01*
X0401209Y0015617D01*
X0401158Y0015626D01*
X0401107Y0015639D01*
X0401058Y0015655D01*
X0401009Y0015675D01*
X0400963Y0015699D01*
X0400919Y0015726D01*
X0400876Y0015757D01*
X0400836Y0015790D01*
X0400799Y0015827D01*
X0400765Y0015866D01*
X0400734Y0015908D01*
X0400705Y0015952D01*
X0400681Y0015998D01*
X0400660Y0016045D01*
X0400642Y0016095D01*
X0400629Y0016145D01*
X0400619Y0016196D01*
X0400613Y0016248D01*
X0400611Y0016300D01*
X0540611Y0086300D02*
X0540613Y0086352D01*
X0540619Y0086404D01*
X0540629Y0086455D01*
X0540642Y0086505D01*
X0540660Y0086555D01*
X0540681Y0086602D01*
X0540705Y0086648D01*
X0540734Y0086692D01*
X0540765Y0086734D01*
X0540799Y0086773D01*
X0540836Y0086810D01*
X0540876Y0086843D01*
X0540919Y0086874D01*
X0540963Y0086901D01*
X0541009Y0086925D01*
X0541058Y0086945D01*
X0541107Y0086961D01*
X0541158Y0086974D01*
X0541209Y0086983D01*
X0541261Y0086988D01*
X0541313Y0086989D01*
X0541365Y0086986D01*
X0541417Y0086979D01*
X0541468Y0086968D01*
X0541518Y0086954D01*
X0541567Y0086935D01*
X0541614Y0086913D01*
X0541659Y0086888D01*
X0541703Y0086859D01*
X0541744Y0086827D01*
X0541783Y0086792D01*
X0541818Y0086754D01*
X0541851Y0086713D01*
X0541881Y0086671D01*
X0541907Y0086626D01*
X0541930Y0086579D01*
X0541949Y0086530D01*
X0541965Y0086480D01*
X0541977Y0086430D01*
X0541985Y0086378D01*
X0541989Y0086326D01*
X0541989Y0086274D01*
X0541985Y0086222D01*
X0541977Y0086170D01*
X0541965Y0086120D01*
X0541949Y0086070D01*
X0541930Y0086021D01*
X0541907Y0085974D01*
X0541881Y0085929D01*
X0541851Y0085887D01*
X0541818Y0085846D01*
X0541783Y0085808D01*
X0541744Y0085773D01*
X0541703Y0085741D01*
X0541659Y0085712D01*
X0541614Y0085687D01*
X0541567Y0085665D01*
X0541518Y0085646D01*
X0541468Y0085632D01*
X0541417Y0085621D01*
X0541365Y0085614D01*
X0541313Y0085611D01*
X0541261Y0085612D01*
X0541209Y0085617D01*
X0541158Y0085626D01*
X0541107Y0085639D01*
X0541058Y0085655D01*
X0541009Y0085675D01*
X0540963Y0085699D01*
X0540919Y0085726D01*
X0540876Y0085757D01*
X0540836Y0085790D01*
X0540799Y0085827D01*
X0540765Y0085866D01*
X0540734Y0085908D01*
X0540705Y0085952D01*
X0540681Y0085998D01*
X0540660Y0086045D01*
X0540642Y0086095D01*
X0540629Y0086145D01*
X0540619Y0086196D01*
X0540613Y0086248D01*
X0540611Y0086300D01*
X0540611Y0246300D02*
X0540613Y0246352D01*
X0540619Y0246404D01*
X0540629Y0246455D01*
X0540642Y0246505D01*
X0540660Y0246555D01*
X0540681Y0246602D01*
X0540705Y0246648D01*
X0540734Y0246692D01*
X0540765Y0246734D01*
X0540799Y0246773D01*
X0540836Y0246810D01*
X0540876Y0246843D01*
X0540919Y0246874D01*
X0540963Y0246901D01*
X0541009Y0246925D01*
X0541058Y0246945D01*
X0541107Y0246961D01*
X0541158Y0246974D01*
X0541209Y0246983D01*
X0541261Y0246988D01*
X0541313Y0246989D01*
X0541365Y0246986D01*
X0541417Y0246979D01*
X0541468Y0246968D01*
X0541518Y0246954D01*
X0541567Y0246935D01*
X0541614Y0246913D01*
X0541659Y0246888D01*
X0541703Y0246859D01*
X0541744Y0246827D01*
X0541783Y0246792D01*
X0541818Y0246754D01*
X0541851Y0246713D01*
X0541881Y0246671D01*
X0541907Y0246626D01*
X0541930Y0246579D01*
X0541949Y0246530D01*
X0541965Y0246480D01*
X0541977Y0246430D01*
X0541985Y0246378D01*
X0541989Y0246326D01*
X0541989Y0246274D01*
X0541985Y0246222D01*
X0541977Y0246170D01*
X0541965Y0246120D01*
X0541949Y0246070D01*
X0541930Y0246021D01*
X0541907Y0245974D01*
X0541881Y0245929D01*
X0541851Y0245887D01*
X0541818Y0245846D01*
X0541783Y0245808D01*
X0541744Y0245773D01*
X0541703Y0245741D01*
X0541659Y0245712D01*
X0541614Y0245687D01*
X0541567Y0245665D01*
X0541518Y0245646D01*
X0541468Y0245632D01*
X0541417Y0245621D01*
X0541365Y0245614D01*
X0541313Y0245611D01*
X0541261Y0245612D01*
X0541209Y0245617D01*
X0541158Y0245626D01*
X0541107Y0245639D01*
X0541058Y0245655D01*
X0541009Y0245675D01*
X0540963Y0245699D01*
X0540919Y0245726D01*
X0540876Y0245757D01*
X0540836Y0245790D01*
X0540799Y0245827D01*
X0540765Y0245866D01*
X0540734Y0245908D01*
X0540705Y0245952D01*
X0540681Y0245998D01*
X0540660Y0246045D01*
X0540642Y0246095D01*
X0540629Y0246145D01*
X0540619Y0246196D01*
X0540613Y0246248D01*
X0540611Y0246300D01*
X0525611Y0301300D02*
X0525613Y0301352D01*
X0525619Y0301404D01*
X0525629Y0301455D01*
X0525642Y0301505D01*
X0525660Y0301555D01*
X0525681Y0301602D01*
X0525705Y0301648D01*
X0525734Y0301692D01*
X0525765Y0301734D01*
X0525799Y0301773D01*
X0525836Y0301810D01*
X0525876Y0301843D01*
X0525919Y0301874D01*
X0525963Y0301901D01*
X0526009Y0301925D01*
X0526058Y0301945D01*
X0526107Y0301961D01*
X0526158Y0301974D01*
X0526209Y0301983D01*
X0526261Y0301988D01*
X0526313Y0301989D01*
X0526365Y0301986D01*
X0526417Y0301979D01*
X0526468Y0301968D01*
X0526518Y0301954D01*
X0526567Y0301935D01*
X0526614Y0301913D01*
X0526659Y0301888D01*
X0526703Y0301859D01*
X0526744Y0301827D01*
X0526783Y0301792D01*
X0526818Y0301754D01*
X0526851Y0301713D01*
X0526881Y0301671D01*
X0526907Y0301626D01*
X0526930Y0301579D01*
X0526949Y0301530D01*
X0526965Y0301480D01*
X0526977Y0301430D01*
X0526985Y0301378D01*
X0526989Y0301326D01*
X0526989Y0301274D01*
X0526985Y0301222D01*
X0526977Y0301170D01*
X0526965Y0301120D01*
X0526949Y0301070D01*
X0526930Y0301021D01*
X0526907Y0300974D01*
X0526881Y0300929D01*
X0526851Y0300887D01*
X0526818Y0300846D01*
X0526783Y0300808D01*
X0526744Y0300773D01*
X0526703Y0300741D01*
X0526659Y0300712D01*
X0526614Y0300687D01*
X0526567Y0300665D01*
X0526518Y0300646D01*
X0526468Y0300632D01*
X0526417Y0300621D01*
X0526365Y0300614D01*
X0526313Y0300611D01*
X0526261Y0300612D01*
X0526209Y0300617D01*
X0526158Y0300626D01*
X0526107Y0300639D01*
X0526058Y0300655D01*
X0526009Y0300675D01*
X0525963Y0300699D01*
X0525919Y0300726D01*
X0525876Y0300757D01*
X0525836Y0300790D01*
X0525799Y0300827D01*
X0525765Y0300866D01*
X0525734Y0300908D01*
X0525705Y0300952D01*
X0525681Y0300998D01*
X0525660Y0301045D01*
X0525642Y0301095D01*
X0525629Y0301145D01*
X0525619Y0301196D01*
X0525613Y0301248D01*
X0525611Y0301300D01*
X0020611Y0296300D02*
X0020613Y0296352D01*
X0020619Y0296404D01*
X0020629Y0296455D01*
X0020642Y0296505D01*
X0020660Y0296555D01*
X0020681Y0296602D01*
X0020705Y0296648D01*
X0020734Y0296692D01*
X0020765Y0296734D01*
X0020799Y0296773D01*
X0020836Y0296810D01*
X0020876Y0296843D01*
X0020919Y0296874D01*
X0020963Y0296901D01*
X0021009Y0296925D01*
X0021058Y0296945D01*
X0021107Y0296961D01*
X0021158Y0296974D01*
X0021209Y0296983D01*
X0021261Y0296988D01*
X0021313Y0296989D01*
X0021365Y0296986D01*
X0021417Y0296979D01*
X0021468Y0296968D01*
X0021518Y0296954D01*
X0021567Y0296935D01*
X0021614Y0296913D01*
X0021659Y0296888D01*
X0021703Y0296859D01*
X0021744Y0296827D01*
X0021783Y0296792D01*
X0021818Y0296754D01*
X0021851Y0296713D01*
X0021881Y0296671D01*
X0021907Y0296626D01*
X0021930Y0296579D01*
X0021949Y0296530D01*
X0021965Y0296480D01*
X0021977Y0296430D01*
X0021985Y0296378D01*
X0021989Y0296326D01*
X0021989Y0296274D01*
X0021985Y0296222D01*
X0021977Y0296170D01*
X0021965Y0296120D01*
X0021949Y0296070D01*
X0021930Y0296021D01*
X0021907Y0295974D01*
X0021881Y0295929D01*
X0021851Y0295887D01*
X0021818Y0295846D01*
X0021783Y0295808D01*
X0021744Y0295773D01*
X0021703Y0295741D01*
X0021659Y0295712D01*
X0021614Y0295687D01*
X0021567Y0295665D01*
X0021518Y0295646D01*
X0021468Y0295632D01*
X0021417Y0295621D01*
X0021365Y0295614D01*
X0021313Y0295611D01*
X0021261Y0295612D01*
X0021209Y0295617D01*
X0021158Y0295626D01*
X0021107Y0295639D01*
X0021058Y0295655D01*
X0021009Y0295675D01*
X0020963Y0295699D01*
X0020919Y0295726D01*
X0020876Y0295757D01*
X0020836Y0295790D01*
X0020799Y0295827D01*
X0020765Y0295866D01*
X0020734Y0295908D01*
X0020705Y0295952D01*
X0020681Y0295998D01*
X0020660Y0296045D01*
X0020642Y0296095D01*
X0020629Y0296145D01*
X0020619Y0296196D01*
X0020613Y0296248D01*
X0020611Y0296300D01*
D11*
X0122800Y0244200D02*
X0122800Y0228400D01*
X0149800Y0228400D02*
X0149800Y0244200D01*
X0171400Y0230287D02*
X0171400Y0212313D01*
X0191200Y0212313D02*
X0191200Y0230287D01*
X0177800Y0253400D02*
X0177800Y0269200D01*
X0204800Y0269200D02*
X0204800Y0253400D01*
X0227800Y0268400D02*
X0227800Y0284200D01*
X0254800Y0284200D02*
X0254800Y0268400D01*
X0256200Y0170287D02*
X0256200Y0152313D01*
X0236400Y0152313D02*
X0236400Y0170287D01*
X0209200Y0139800D02*
X0193400Y0139800D01*
X0189800Y0148400D02*
X0189800Y0164200D01*
X0162800Y0164200D02*
X0162800Y0148400D01*
X0193400Y0112800D02*
X0209200Y0112800D01*
X0149800Y0074200D02*
X0149800Y0058400D01*
X0122800Y0058400D02*
X0122800Y0074200D01*
X0192313Y0061200D02*
X0210287Y0061200D01*
X0210287Y0041400D02*
X0192313Y0041400D01*
X0288400Y0107800D02*
X0304200Y0107800D01*
X0304200Y0134800D02*
X0288400Y0134800D01*
X0471600Y0256600D02*
X0471600Y0263005D01*
X0474803Y0263005D01*
X0475870Y0261938D01*
X0475870Y0259803D01*
X0474803Y0258735D01*
X0471600Y0258735D01*
X0478045Y0257668D02*
X0478045Y0261938D01*
X0479113Y0263005D01*
X0481248Y0263005D01*
X0482316Y0261938D01*
X0484491Y0263005D02*
X0487694Y0263005D01*
X0488761Y0261938D01*
X0488761Y0260870D01*
X0487694Y0259803D01*
X0484491Y0259803D01*
X0482316Y0257668D02*
X0481248Y0256600D01*
X0479113Y0256600D01*
X0478045Y0257668D01*
X0484491Y0256600D02*
X0487694Y0256600D01*
X0488761Y0257668D01*
X0488761Y0258735D01*
X0487694Y0259803D01*
X0484491Y0256600D02*
X0484491Y0263005D01*
X0484491Y0267100D02*
X0484491Y0271370D01*
X0485559Y0271370D01*
X0486626Y0270303D01*
X0487694Y0271370D01*
X0488761Y0270303D01*
X0488761Y0267100D01*
X0486626Y0267100D02*
X0486626Y0270303D01*
X0482316Y0271370D02*
X0479113Y0271370D01*
X0478045Y0270303D01*
X0478045Y0268168D01*
X0479113Y0267100D01*
X0482316Y0267100D01*
X0482316Y0273505D01*
X0475870Y0271370D02*
X0472668Y0271370D01*
X0471600Y0270303D01*
X0472668Y0269235D01*
X0474803Y0269235D01*
X0475870Y0268168D01*
X0474803Y0267100D01*
X0471600Y0267100D01*
X0490936Y0268168D02*
X0492004Y0269235D01*
X0495207Y0269235D01*
X0495207Y0270303D02*
X0495207Y0267100D01*
X0492004Y0267100D01*
X0490936Y0268168D01*
X0492004Y0271370D02*
X0494139Y0271370D01*
X0495207Y0270303D01*
X0497382Y0271370D02*
X0497382Y0268168D01*
X0498450Y0267100D01*
X0501652Y0267100D01*
X0501652Y0266032D02*
X0500585Y0264965D01*
X0499517Y0264965D01*
X0500585Y0263005D02*
X0501652Y0261938D01*
X0501652Y0259803D01*
X0500585Y0258735D01*
X0497382Y0258735D01*
X0497382Y0256600D02*
X0497382Y0263005D01*
X0500585Y0263005D01*
X0501652Y0266032D02*
X0501652Y0271370D01*
X0503827Y0271370D02*
X0505963Y0273505D01*
X0505963Y0267100D01*
X0508098Y0267100D02*
X0503827Y0267100D01*
X0510273Y0268168D02*
X0510273Y0269235D01*
X0511341Y0270303D01*
X0513476Y0270303D01*
X0514543Y0269235D01*
X0514543Y0268168D01*
X0513476Y0267100D01*
X0511341Y0267100D01*
X0510273Y0268168D01*
X0511341Y0270303D02*
X0510273Y0271370D01*
X0510273Y0272438D01*
X0511341Y0273505D01*
X0513476Y0273505D01*
X0514543Y0272438D01*
X0514543Y0271370D01*
X0513476Y0270303D01*
X0516718Y0270303D02*
X0520989Y0270303D01*
X0523164Y0272438D02*
X0524232Y0273505D01*
X0526367Y0273505D01*
X0527434Y0272438D01*
X0527434Y0271370D01*
X0526367Y0270303D01*
X0527434Y0269235D01*
X0527434Y0268168D01*
X0526367Y0267100D01*
X0524232Y0267100D01*
X0523164Y0268168D01*
X0525299Y0270303D02*
X0526367Y0270303D01*
X0529609Y0271370D02*
X0531745Y0273505D01*
X0531745Y0267100D01*
X0533880Y0267100D02*
X0529609Y0267100D01*
X0529596Y0263005D02*
X0527461Y0263005D01*
X0528529Y0263005D02*
X0528529Y0256600D01*
X0529596Y0256600D02*
X0527461Y0256600D01*
X0525299Y0256600D02*
X0523164Y0256600D01*
X0524232Y0256600D02*
X0524232Y0263005D01*
X0525299Y0263005D02*
X0523164Y0263005D01*
X0514543Y0260870D02*
X0512408Y0256600D01*
X0510273Y0260870D01*
X0508098Y0259803D02*
X0507030Y0260870D01*
X0504895Y0260870D01*
X0503827Y0259803D01*
X0503827Y0257668D01*
X0504895Y0256600D01*
X0507030Y0256600D01*
X0508098Y0258735D02*
X0503827Y0258735D01*
X0501652Y0256600D02*
X0499517Y0258735D01*
X0508098Y0258735D02*
X0508098Y0259803D01*
D12*
X0456300Y0248800D02*
X0456300Y0243800D01*
X0453800Y0241300D01*
X0448800Y0241300D01*
X0446300Y0243800D01*
X0446300Y0248800D01*
X0448800Y0251300D01*
X0453800Y0251300D01*
X0456300Y0248800D01*
X0441300Y0248800D02*
X0441300Y0243800D01*
X0438800Y0241300D01*
X0433800Y0241300D01*
X0431300Y0243800D01*
X0431300Y0248800D01*
X0433800Y0251300D01*
X0438800Y0251300D01*
X0441300Y0248800D01*
X0426300Y0248800D02*
X0426300Y0243800D01*
X0423800Y0241300D01*
X0418800Y0241300D01*
X0416300Y0243800D01*
X0416300Y0248800D01*
X0418800Y0251300D01*
X0423800Y0251300D01*
X0426300Y0248800D01*
X0411300Y0248800D02*
X0411300Y0243800D01*
X0408800Y0241300D01*
X0403800Y0241300D01*
X0401300Y0243800D01*
X0401300Y0248800D01*
X0403800Y0251300D01*
X0408800Y0251300D01*
X0411300Y0248800D01*
X0396300Y0248800D02*
X0396300Y0243800D01*
X0393800Y0241300D01*
X0388800Y0241300D01*
X0386300Y0243800D01*
X0386300Y0248800D01*
X0388800Y0251300D01*
X0393800Y0251300D01*
X0396300Y0248800D01*
X0445792Y0220847D02*
X0445792Y0201753D01*
X0546808Y0201753D01*
X0546808Y0220847D01*
X0445792Y0220847D01*
X0369758Y0175743D02*
X0352842Y0175743D01*
X0352842Y0156857D01*
X0369758Y0156857D01*
X0369758Y0175743D01*
X0324758Y0226857D02*
X0307842Y0226857D01*
X0307842Y0245743D01*
X0324758Y0245743D01*
X0324758Y0226857D01*
X0283800Y0281300D02*
X0278800Y0281300D01*
X0276300Y0283800D01*
X0276300Y0288800D01*
X0278800Y0291300D01*
X0283800Y0291300D01*
X0286300Y0288800D01*
X0286300Y0283800D01*
X0283800Y0281300D01*
X0271300Y0288800D02*
X0271300Y0293800D01*
X0268800Y0296300D01*
X0263800Y0296300D01*
X0261300Y0293800D01*
X0261300Y0288800D01*
X0263800Y0286300D01*
X0268800Y0286300D01*
X0271300Y0288800D01*
X0258800Y0301300D02*
X0253800Y0301300D01*
X0251300Y0303800D01*
X0251300Y0308800D01*
X0253800Y0311300D01*
X0258800Y0311300D01*
X0261300Y0308800D01*
X0261300Y0303800D01*
X0258800Y0301300D01*
X0296300Y0303800D02*
X0298800Y0301300D01*
X0303800Y0301300D01*
X0306300Y0303800D01*
X0306300Y0308800D01*
X0303800Y0311300D01*
X0298800Y0311300D01*
X0296300Y0308800D01*
X0296300Y0303800D01*
X0386300Y0298800D02*
X0386300Y0293800D01*
X0388800Y0291300D01*
X0393800Y0291300D01*
X0396300Y0293800D01*
X0396300Y0298800D01*
X0393800Y0301300D01*
X0388800Y0301300D01*
X0386300Y0298800D01*
X0400618Y0291836D02*
X0416169Y0291836D01*
X0416169Y0293804D01*
X0424043Y0293804D01*
X0424043Y0291836D01*
X0439594Y0291836D01*
X0439594Y0309552D01*
X0400618Y0309552D01*
X0400618Y0291836D01*
X0441379Y0291654D02*
X0461930Y0291654D01*
X0461930Y0293623D01*
X0484804Y0293623D01*
X0484804Y0291654D01*
X0505355Y0291654D01*
X0505355Y0309371D01*
X0441379Y0309371D01*
X0441379Y0291654D01*
X0171300Y0248800D02*
X0171300Y0243800D01*
X0168800Y0241300D01*
X0163800Y0241300D01*
X0161300Y0243800D01*
X0161300Y0248800D01*
X0163800Y0251300D01*
X0168800Y0251300D01*
X0171300Y0248800D01*
X0121300Y0268800D02*
X0118800Y0266300D01*
X0113800Y0266300D01*
X0111300Y0268800D01*
X0111300Y0273800D01*
X0113800Y0276300D01*
X0118800Y0276300D01*
X0121300Y0273800D01*
X0121300Y0268800D01*
X0123800Y0281300D02*
X0128800Y0281300D01*
X0131300Y0283800D01*
X0131300Y0288800D01*
X0128800Y0291300D01*
X0123800Y0291300D01*
X0121300Y0288800D01*
X0121300Y0283800D01*
X0123800Y0281300D01*
X0111300Y0288800D02*
X0111300Y0293800D01*
X0108800Y0296300D01*
X0103800Y0296300D01*
X0101300Y0293800D01*
X0101300Y0288800D01*
X0103800Y0286300D01*
X0108800Y0286300D01*
X0111300Y0288800D01*
X0141300Y0293800D02*
X0143800Y0291300D01*
X0148800Y0291300D01*
X0151300Y0293800D01*
X0151300Y0298800D01*
X0148800Y0301300D01*
X0143800Y0301300D01*
X0141300Y0298800D01*
X0141300Y0293800D01*
X0091300Y0263800D02*
X0091300Y0258800D01*
X0088800Y0256300D01*
X0083800Y0256300D01*
X0081300Y0258800D01*
X0081300Y0263800D01*
X0083800Y0266300D01*
X0088800Y0266300D01*
X0091300Y0263800D01*
X0083800Y0251300D02*
X0078800Y0251300D01*
X0076300Y0248800D01*
X0076300Y0243800D01*
X0078800Y0241300D01*
X0083800Y0241300D01*
X0086300Y0243800D01*
X0086300Y0248800D01*
X0083800Y0251300D01*
X0068800Y0266300D02*
X0063800Y0266300D01*
X0061300Y0268800D01*
X0061300Y0273800D01*
X0063800Y0276300D01*
X0068800Y0276300D01*
X0071300Y0273800D01*
X0071300Y0268800D01*
X0068800Y0266300D01*
X0056300Y0253800D02*
X0053800Y0256300D01*
X0048800Y0256300D01*
X0046300Y0253800D01*
X0046300Y0248800D01*
X0048800Y0246300D01*
X0053800Y0246300D01*
X0056300Y0248800D01*
X0056300Y0253800D01*
X0031300Y0233800D02*
X0028800Y0236300D01*
X0023800Y0236300D01*
X0021300Y0233800D01*
X0021300Y0228800D01*
X0023800Y0226300D01*
X0028800Y0226300D01*
X0031300Y0228800D01*
X0031300Y0233800D01*
X0024470Y0216634D02*
X0006753Y0216634D01*
X0006753Y0205020D01*
X0008722Y0205020D01*
X0008722Y0197146D01*
X0006753Y0197146D01*
X0006753Y0185532D01*
X0024470Y0185532D01*
X0024470Y0216634D01*
X0038800Y0201300D02*
X0036300Y0198800D01*
X0036300Y0193800D01*
X0038800Y0191300D01*
X0043800Y0191300D01*
X0046300Y0193800D01*
X0046300Y0198800D01*
X0043800Y0201300D01*
X0038800Y0201300D01*
X0056857Y0194758D02*
X0056857Y0177842D01*
X0075743Y0177842D01*
X0075743Y0194758D01*
X0056857Y0194758D01*
X0033800Y0169300D02*
X0031300Y0171800D01*
X0026300Y0171800D01*
X0023800Y0169300D01*
X0023800Y0164300D01*
X0026300Y0161800D01*
X0031300Y0161800D01*
X0033800Y0164300D01*
X0033800Y0169300D01*
X0031300Y0157800D02*
X0026300Y0157800D01*
X0023800Y0155300D01*
X0023800Y0150300D01*
X0026300Y0147800D01*
X0031300Y0147800D01*
X0033800Y0150300D01*
X0033800Y0155300D01*
X0031300Y0157800D01*
X0031300Y0143800D02*
X0026300Y0143800D01*
X0023800Y0141300D01*
X0023800Y0136300D01*
X0026300Y0133800D01*
X0031300Y0133800D01*
X0033800Y0136300D01*
X0033800Y0141300D01*
X0031300Y0143800D01*
X0022158Y0111851D02*
X0004442Y0111851D01*
X0004442Y0100237D01*
X0006410Y0100237D01*
X0006410Y0092363D01*
X0004442Y0092363D01*
X0004442Y0080749D01*
X0022158Y0080749D01*
X0022158Y0111851D01*
X0056857Y0109758D02*
X0056857Y0092842D01*
X0075743Y0092842D01*
X0075743Y0109758D01*
X0056857Y0109758D01*
X0018800Y0061300D02*
X0013800Y0061300D01*
X0011300Y0058800D01*
X0011300Y0053800D01*
X0013800Y0051300D01*
X0018800Y0051300D01*
X0021300Y0053800D01*
X0021300Y0058800D01*
X0018800Y0061300D01*
X0056857Y0044758D02*
X0056857Y0027842D01*
X0075743Y0027842D01*
X0075743Y0044758D01*
X0056857Y0044758D01*
X0034300Y0024300D02*
X0029300Y0024300D01*
X0026800Y0021800D01*
X0026800Y0016800D01*
X0029300Y0014300D01*
X0034300Y0014300D01*
X0036800Y0016800D01*
X0036800Y0021800D01*
X0034300Y0024300D01*
X0021300Y0028800D02*
X0021300Y0033800D01*
X0018800Y0036300D01*
X0013800Y0036300D01*
X0011300Y0033800D01*
X0011300Y0028800D01*
X0013800Y0026300D01*
X0018800Y0026300D01*
X0021300Y0028800D01*
X0071300Y0018800D02*
X0071300Y0013800D01*
X0073800Y0011300D01*
X0078800Y0011300D01*
X0081300Y0013800D01*
X0081300Y0018800D01*
X0078800Y0021300D01*
X0073800Y0021300D01*
X0071300Y0018800D01*
X0352842Y0051857D02*
X0352842Y0070743D01*
X0369758Y0070743D01*
X0369758Y0051857D01*
X0352842Y0051857D01*
X0352842Y0101857D02*
X0352842Y0120743D01*
X0369758Y0120743D01*
X0369758Y0101857D01*
X0352842Y0101857D01*
X0445792Y0050847D02*
X0445792Y0031753D01*
X0546808Y0031753D01*
X0546808Y0050847D01*
X0445792Y0050847D01*
X0020158Y0255749D02*
X0002442Y0255749D01*
X0002442Y0267363D01*
X0004410Y0267363D01*
X0004410Y0275237D01*
X0002442Y0275237D01*
X0002442Y0286851D01*
X0020158Y0286851D01*
X0020158Y0255749D01*
D13*
X0021550Y0238952D02*
X0021550Y0237050D01*
X0021550Y0238001D02*
X0022818Y0238001D01*
X0022818Y0238952D02*
X0022818Y0237050D01*
X0023760Y0237050D02*
X0023760Y0238952D01*
X0024711Y0238952D01*
X0025028Y0238635D01*
X0025028Y0238001D01*
X0024711Y0237684D01*
X0023760Y0237684D01*
X0025970Y0238001D02*
X0026604Y0238001D01*
X0025970Y0238952D02*
X0027237Y0238952D01*
X0028180Y0238952D02*
X0028180Y0238001D01*
X0028814Y0238318D01*
X0029130Y0238318D01*
X0029447Y0238001D01*
X0029447Y0237367D01*
X0029130Y0237050D01*
X0028497Y0237050D01*
X0028180Y0237367D01*
X0028180Y0238952D02*
X0029447Y0238952D01*
X0030390Y0238952D02*
X0031340Y0238952D01*
X0031657Y0238635D01*
X0031657Y0238001D01*
X0031340Y0237684D01*
X0030390Y0237684D01*
X0030390Y0237050D02*
X0030390Y0238952D01*
X0032599Y0238952D02*
X0033550Y0238952D01*
X0033867Y0238635D01*
X0033867Y0238001D01*
X0033550Y0237684D01*
X0032599Y0237684D01*
X0032599Y0237050D02*
X0032599Y0238952D01*
X0033233Y0237684D02*
X0033867Y0237050D01*
X0034809Y0237050D02*
X0036077Y0237050D01*
X0037019Y0237050D02*
X0037019Y0238318D01*
X0037653Y0238952D01*
X0038287Y0238318D01*
X0038287Y0237050D01*
X0039229Y0237050D02*
X0039229Y0238952D01*
X0039863Y0238318D01*
X0040497Y0238952D01*
X0040497Y0237050D01*
X0041439Y0237050D02*
X0041439Y0238952D01*
X0042390Y0238952D01*
X0042707Y0238635D01*
X0042707Y0238001D01*
X0042390Y0237684D01*
X0041439Y0237684D01*
X0043649Y0238952D02*
X0044917Y0238952D01*
X0044283Y0238952D02*
X0044283Y0237050D01*
X0045859Y0237050D02*
X0045859Y0238952D01*
X0047126Y0238952D01*
X0048069Y0238635D02*
X0048069Y0238318D01*
X0048385Y0238001D01*
X0049019Y0238001D01*
X0049336Y0237684D01*
X0049336Y0237367D01*
X0049019Y0237050D01*
X0048385Y0237050D01*
X0048069Y0237367D01*
X0047126Y0237050D02*
X0045859Y0237050D01*
X0045859Y0238001D02*
X0046493Y0238001D01*
X0048069Y0238635D02*
X0048385Y0238952D01*
X0049019Y0238952D01*
X0049336Y0238635D01*
X0050278Y0238952D02*
X0051546Y0238952D01*
X0050912Y0238952D02*
X0050912Y0237050D01*
X0038287Y0238001D02*
X0037019Y0238001D01*
X0036077Y0238952D02*
X0034809Y0238952D01*
X0034809Y0237050D01*
X0034809Y0238001D02*
X0035443Y0238001D01*
X0025970Y0237050D02*
X0025970Y0238952D01*
X0046550Y0257050D02*
X0047818Y0257050D01*
X0048760Y0257050D02*
X0048760Y0258952D01*
X0049711Y0258952D01*
X0050028Y0258635D01*
X0050028Y0258001D01*
X0049711Y0257684D01*
X0048760Y0257684D01*
X0050970Y0258001D02*
X0051604Y0258001D01*
X0050970Y0258952D02*
X0052237Y0258952D01*
X0053180Y0258952D02*
X0053180Y0258001D01*
X0053814Y0258318D01*
X0054130Y0258318D01*
X0054447Y0258001D01*
X0054447Y0257367D01*
X0054130Y0257050D01*
X0053497Y0257050D01*
X0053180Y0257367D01*
X0053180Y0258952D02*
X0054447Y0258952D01*
X0055390Y0258952D02*
X0056023Y0258952D01*
X0055706Y0258952D02*
X0055706Y0257050D01*
X0055390Y0257050D02*
X0056023Y0257050D01*
X0056863Y0257050D02*
X0056863Y0258952D01*
X0058131Y0257050D01*
X0058131Y0258952D01*
X0059073Y0258952D02*
X0060340Y0258952D01*
X0059707Y0258952D02*
X0059707Y0257050D01*
X0061283Y0257050D02*
X0062550Y0257050D01*
X0063492Y0257367D02*
X0063809Y0257050D01*
X0064443Y0257050D01*
X0064760Y0257367D01*
X0064760Y0257684D01*
X0064443Y0258001D01*
X0063809Y0258001D01*
X0063492Y0258318D01*
X0063492Y0258635D01*
X0063809Y0258952D01*
X0064443Y0258952D01*
X0064760Y0258635D01*
X0065702Y0258952D02*
X0066970Y0258952D01*
X0066336Y0258952D02*
X0066336Y0257050D01*
X0062550Y0258952D02*
X0061283Y0258952D01*
X0061283Y0257050D01*
X0061283Y0258001D02*
X0061916Y0258001D01*
X0050970Y0257050D02*
X0050970Y0258952D01*
X0046550Y0258952D02*
X0046550Y0257050D01*
X0076550Y0253952D02*
X0076550Y0252050D01*
X0076550Y0253001D02*
X0077818Y0253001D01*
X0077818Y0253952D02*
X0077818Y0252050D01*
X0078760Y0252050D02*
X0078760Y0253952D01*
X0079711Y0253952D01*
X0080028Y0253635D01*
X0080028Y0253001D01*
X0079711Y0252684D01*
X0078760Y0252684D01*
X0080970Y0253001D02*
X0081604Y0253001D01*
X0080970Y0253952D02*
X0082238Y0253952D01*
X0083180Y0253952D02*
X0083180Y0253001D01*
X0083814Y0253318D01*
X0084130Y0253318D01*
X0084447Y0253001D01*
X0084447Y0252367D01*
X0084130Y0252050D01*
X0083497Y0252050D01*
X0083180Y0252367D01*
X0083180Y0253952D02*
X0084447Y0253952D01*
X0085390Y0253952D02*
X0086023Y0253952D01*
X0085706Y0253952D02*
X0085706Y0252050D01*
X0085390Y0252050D02*
X0086023Y0252050D01*
X0086863Y0252050D02*
X0086863Y0253952D01*
X0088131Y0252050D01*
X0088131Y0253952D01*
X0089073Y0253952D02*
X0090340Y0253952D01*
X0089707Y0253952D02*
X0089707Y0252050D01*
X0091283Y0252050D02*
X0092550Y0252050D01*
X0093492Y0252367D02*
X0093809Y0252050D01*
X0094443Y0252050D01*
X0094760Y0252367D01*
X0094760Y0252684D01*
X0094443Y0253001D01*
X0093809Y0253001D01*
X0093492Y0253318D01*
X0093492Y0253635D01*
X0093809Y0253952D01*
X0094443Y0253952D01*
X0094760Y0253635D01*
X0095702Y0253952D02*
X0096970Y0253952D01*
X0096336Y0253952D02*
X0096336Y0252050D01*
X0092550Y0253952D02*
X0091283Y0253952D01*
X0091283Y0252050D01*
X0091283Y0253001D02*
X0091916Y0253001D01*
X0080970Y0252050D02*
X0080970Y0253952D01*
X0081550Y0267050D02*
X0082818Y0267050D01*
X0083760Y0267050D02*
X0083760Y0268952D01*
X0084711Y0268952D01*
X0085028Y0268635D01*
X0085028Y0268001D01*
X0084711Y0267684D01*
X0083760Y0267684D01*
X0085970Y0268001D02*
X0086604Y0268001D01*
X0085970Y0268952D02*
X0087237Y0268952D01*
X0088180Y0268318D02*
X0088814Y0268952D01*
X0088814Y0267050D01*
X0089447Y0267050D02*
X0088180Y0267050D01*
X0090390Y0267050D02*
X0091023Y0267050D01*
X0090706Y0267050D02*
X0090706Y0268952D01*
X0090390Y0268952D02*
X0091023Y0268952D01*
X0091863Y0268952D02*
X0093131Y0267050D01*
X0093131Y0268952D01*
X0094073Y0268952D02*
X0095340Y0268952D01*
X0094707Y0268952D02*
X0094707Y0267050D01*
X0096283Y0267050D02*
X0097550Y0267050D01*
X0098492Y0267367D02*
X0098809Y0267050D01*
X0099443Y0267050D01*
X0099760Y0267367D01*
X0099760Y0267684D01*
X0099443Y0268001D01*
X0098809Y0268001D01*
X0098492Y0268318D01*
X0098492Y0268635D01*
X0098809Y0268952D01*
X0099443Y0268952D01*
X0099760Y0268635D01*
X0100702Y0268952D02*
X0101970Y0268952D01*
X0101336Y0268952D02*
X0101336Y0267050D01*
X0097550Y0268952D02*
X0096283Y0268952D01*
X0096283Y0267050D01*
X0096283Y0268001D02*
X0096916Y0268001D01*
X0091863Y0267050D02*
X0091863Y0268952D01*
X0085970Y0268952D02*
X0085970Y0267050D01*
X0081550Y0267050D02*
X0081550Y0268952D01*
X0078619Y0277050D02*
X0078619Y0278952D01*
X0079252Y0278952D02*
X0077985Y0278952D01*
X0077043Y0278635D02*
X0076726Y0278952D01*
X0076092Y0278952D01*
X0075775Y0278635D01*
X0075775Y0278318D01*
X0076092Y0278001D01*
X0076726Y0278001D01*
X0077043Y0277684D01*
X0077043Y0277367D01*
X0076726Y0277050D01*
X0076092Y0277050D01*
X0075775Y0277367D01*
X0074833Y0277050D02*
X0073565Y0277050D01*
X0073565Y0278952D01*
X0074833Y0278952D01*
X0074199Y0278001D02*
X0073565Y0278001D01*
X0072623Y0278952D02*
X0071355Y0278952D01*
X0071989Y0278952D02*
X0071989Y0277050D01*
X0070413Y0277367D02*
X0070413Y0278952D01*
X0069145Y0278952D02*
X0069145Y0277367D01*
X0069462Y0277050D01*
X0070096Y0277050D01*
X0070413Y0277367D01*
X0068203Y0277050D02*
X0067569Y0277684D01*
X0067886Y0277684D02*
X0066935Y0277684D01*
X0066935Y0277050D02*
X0066935Y0278952D01*
X0067886Y0278952D01*
X0068203Y0278635D01*
X0068203Y0278001D01*
X0067886Y0277684D01*
X0065993Y0278001D02*
X0064725Y0278001D01*
X0064725Y0277050D02*
X0064725Y0278952D01*
X0063783Y0278952D02*
X0062516Y0278952D01*
X0063149Y0278952D02*
X0063149Y0277050D01*
X0061573Y0277367D02*
X0061256Y0277050D01*
X0060623Y0277050D01*
X0060306Y0277367D01*
X0060623Y0278001D02*
X0061256Y0278001D01*
X0061573Y0277684D01*
X0061573Y0277367D01*
X0060623Y0278001D02*
X0060306Y0278318D01*
X0060306Y0278635D01*
X0060623Y0278952D01*
X0061256Y0278952D01*
X0061573Y0278635D01*
X0059363Y0278635D02*
X0059047Y0278952D01*
X0058413Y0278952D01*
X0058096Y0278635D01*
X0058096Y0278318D01*
X0058413Y0278001D01*
X0059047Y0278001D01*
X0059363Y0277684D01*
X0059363Y0277367D01*
X0059047Y0277050D01*
X0058413Y0277050D01*
X0058096Y0277367D01*
X0057154Y0277050D02*
X0057154Y0278318D01*
X0056520Y0278952D01*
X0055886Y0278318D01*
X0055886Y0277050D01*
X0055886Y0278001D02*
X0057154Y0278001D01*
X0054944Y0278001D02*
X0054627Y0277684D01*
X0053676Y0277684D01*
X0053676Y0277050D02*
X0053676Y0278952D01*
X0054627Y0278952D01*
X0054944Y0278635D01*
X0054944Y0278001D01*
X0065993Y0278952D02*
X0065993Y0277050D01*
X0093676Y0297050D02*
X0093676Y0298952D01*
X0093676Y0298001D02*
X0094944Y0298001D01*
X0094944Y0298952D02*
X0094944Y0297050D01*
X0095886Y0297050D02*
X0095886Y0298952D01*
X0096837Y0298952D01*
X0097154Y0298635D01*
X0097154Y0298001D01*
X0096837Y0297684D01*
X0095886Y0297684D01*
X0098096Y0298001D02*
X0098730Y0298001D01*
X0098096Y0298952D02*
X0099363Y0298952D01*
X0100306Y0298318D02*
X0100939Y0298952D01*
X0100939Y0297050D01*
X0100306Y0297050D02*
X0101573Y0297050D01*
X0102516Y0297050D02*
X0102516Y0298952D01*
X0103466Y0298952D01*
X0103783Y0298635D01*
X0103783Y0298001D01*
X0103466Y0297684D01*
X0102516Y0297684D01*
X0104725Y0297684D02*
X0105676Y0297684D01*
X0105993Y0298001D01*
X0105993Y0298635D01*
X0105676Y0298952D01*
X0104725Y0298952D01*
X0104725Y0297050D01*
X0105359Y0297684D02*
X0105993Y0297050D01*
X0106935Y0297050D02*
X0106935Y0298952D01*
X0108203Y0298952D01*
X0109145Y0298318D02*
X0109779Y0298952D01*
X0110413Y0298318D01*
X0110413Y0297050D01*
X0111355Y0297050D02*
X0111355Y0298952D01*
X0111989Y0298318D01*
X0112623Y0298952D01*
X0112623Y0297050D01*
X0113565Y0297050D02*
X0113565Y0298952D01*
X0114516Y0298952D01*
X0114833Y0298635D01*
X0114833Y0298001D01*
X0114516Y0297684D01*
X0113565Y0297684D01*
X0115775Y0298952D02*
X0117043Y0298952D01*
X0116409Y0298952D02*
X0116409Y0297050D01*
X0117985Y0297050D02*
X0119252Y0297050D01*
X0120195Y0297367D02*
X0120511Y0297050D01*
X0121145Y0297050D01*
X0121462Y0297367D01*
X0121462Y0297684D01*
X0121145Y0298001D01*
X0120511Y0298001D01*
X0120195Y0298318D01*
X0120195Y0298635D01*
X0120511Y0298952D01*
X0121145Y0298952D01*
X0121462Y0298635D01*
X0122404Y0298952D02*
X0123672Y0298952D01*
X0123038Y0298952D02*
X0123038Y0297050D01*
X0122244Y0294326D02*
X0120976Y0294326D01*
X0120976Y0292425D01*
X0120976Y0293376D02*
X0121610Y0293376D01*
X0123186Y0293376D02*
X0124137Y0293376D01*
X0124454Y0293059D01*
X0124454Y0292742D01*
X0124137Y0292425D01*
X0123503Y0292425D01*
X0123186Y0292742D01*
X0123186Y0293376D01*
X0123820Y0294009D01*
X0124454Y0294326D01*
X0125396Y0294009D02*
X0125396Y0292742D01*
X0125713Y0292425D01*
X0126347Y0292425D01*
X0126664Y0292742D01*
X0126664Y0293376D01*
X0126030Y0293376D01*
X0126664Y0294009D02*
X0126347Y0294326D01*
X0125713Y0294326D01*
X0125396Y0294009D01*
X0127606Y0294009D02*
X0127606Y0293692D01*
X0127923Y0293376D01*
X0128557Y0293376D01*
X0128873Y0293059D01*
X0128873Y0292742D01*
X0128557Y0292425D01*
X0127923Y0292425D01*
X0127606Y0292742D01*
X0127606Y0294009D02*
X0127923Y0294326D01*
X0128557Y0294326D01*
X0128873Y0294009D01*
X0129816Y0294009D02*
X0130133Y0294326D01*
X0130766Y0294326D01*
X0131083Y0294009D01*
X0131083Y0293692D01*
X0130766Y0293376D01*
X0131083Y0293059D01*
X0131083Y0292742D01*
X0130766Y0292425D01*
X0130133Y0292425D01*
X0129816Y0292742D01*
X0130449Y0293376D02*
X0130766Y0293376D01*
X0132025Y0294326D02*
X0133293Y0294326D01*
X0132659Y0294326D02*
X0132659Y0292425D01*
X0134235Y0292425D02*
X0135503Y0292425D01*
X0136445Y0292742D02*
X0136762Y0292425D01*
X0137396Y0292425D01*
X0137713Y0292742D01*
X0137713Y0293059D01*
X0137396Y0293376D01*
X0136762Y0293376D01*
X0136445Y0293692D01*
X0136445Y0294009D01*
X0136762Y0294326D01*
X0137396Y0294326D01*
X0137713Y0294009D01*
X0138655Y0294326D02*
X0139923Y0294326D01*
X0139289Y0294326D02*
X0139289Y0292425D01*
X0135503Y0294326D02*
X0134235Y0294326D01*
X0134235Y0292425D01*
X0134235Y0293376D02*
X0134869Y0293376D01*
X0120034Y0293376D02*
X0119717Y0293059D01*
X0118766Y0293059D01*
X0118766Y0292425D02*
X0118766Y0294326D01*
X0119717Y0294326D01*
X0120034Y0294009D01*
X0120034Y0293376D01*
X0117824Y0293692D02*
X0117507Y0293376D01*
X0116556Y0293376D01*
X0116556Y0294326D02*
X0117507Y0294326D01*
X0117824Y0294009D01*
X0117824Y0293692D01*
X0117507Y0293376D02*
X0117824Y0293059D01*
X0117824Y0292742D01*
X0117507Y0292425D01*
X0116556Y0292425D01*
X0116556Y0294326D01*
X0117985Y0297050D02*
X0117985Y0298952D01*
X0119252Y0298952D01*
X0118619Y0298001D02*
X0117985Y0298001D01*
X0110413Y0298001D02*
X0109145Y0298001D01*
X0109145Y0298318D02*
X0109145Y0297050D01*
X0108203Y0297050D02*
X0106935Y0297050D01*
X0106935Y0298001D02*
X0107569Y0298001D01*
X0098096Y0297050D02*
X0098096Y0298952D01*
X0111550Y0278952D02*
X0112501Y0278952D01*
X0112818Y0278635D01*
X0112818Y0278318D01*
X0112501Y0278001D01*
X0111550Y0278001D01*
X0111550Y0277050D02*
X0111550Y0278952D01*
X0112501Y0278001D02*
X0112818Y0277684D01*
X0112818Y0277367D01*
X0112501Y0277050D01*
X0111550Y0277050D01*
X0113760Y0277050D02*
X0113760Y0278952D01*
X0114711Y0278952D01*
X0115028Y0278635D01*
X0115028Y0278001D01*
X0114711Y0277684D01*
X0113760Y0277684D01*
X0115970Y0278001D02*
X0116604Y0278001D01*
X0115970Y0278952D02*
X0117237Y0278952D01*
X0118180Y0278635D02*
X0118497Y0278952D01*
X0119130Y0278952D01*
X0119447Y0278635D01*
X0119447Y0278318D01*
X0118180Y0277050D01*
X0119447Y0277050D01*
X0120390Y0277367D02*
X0120706Y0277050D01*
X0121340Y0277050D01*
X0121657Y0277367D01*
X0121657Y0278001D01*
X0121023Y0278001D01*
X0120390Y0278635D02*
X0120390Y0277367D01*
X0120390Y0278635D02*
X0120706Y0278952D01*
X0121340Y0278952D01*
X0121657Y0278635D01*
X0122599Y0278635D02*
X0122599Y0278318D01*
X0122916Y0278001D01*
X0123550Y0278001D01*
X0123867Y0277684D01*
X0123867Y0277367D01*
X0123550Y0277050D01*
X0122916Y0277050D01*
X0122599Y0277367D01*
X0122599Y0278635D02*
X0122916Y0278952D01*
X0123550Y0278952D01*
X0123867Y0278635D01*
X0124809Y0278318D02*
X0125443Y0278952D01*
X0125443Y0277050D01*
X0124809Y0277050D02*
X0126077Y0277050D01*
X0127653Y0277050D02*
X0127653Y0278952D01*
X0127019Y0278952D02*
X0128287Y0278952D01*
X0129229Y0278952D02*
X0129229Y0277050D01*
X0130497Y0277050D01*
X0131439Y0277367D02*
X0131756Y0277050D01*
X0132390Y0277050D01*
X0132707Y0277367D01*
X0132707Y0277684D01*
X0132390Y0278001D01*
X0131756Y0278001D01*
X0131439Y0278318D01*
X0131439Y0278635D01*
X0131756Y0278952D01*
X0132390Y0278952D01*
X0132707Y0278635D01*
X0133649Y0278952D02*
X0134917Y0278952D01*
X0134283Y0278952D02*
X0134283Y0277050D01*
X0130497Y0278952D02*
X0129229Y0278952D01*
X0129229Y0278001D02*
X0129863Y0278001D01*
X0115970Y0277050D02*
X0115970Y0278952D01*
X0141550Y0302050D02*
X0142818Y0302050D01*
X0143760Y0302050D02*
X0143760Y0303952D01*
X0144711Y0303952D01*
X0145028Y0303635D01*
X0145028Y0303001D01*
X0144711Y0302684D01*
X0143760Y0302684D01*
X0145970Y0303001D02*
X0146604Y0303001D01*
X0145970Y0303952D02*
X0147238Y0303952D01*
X0148180Y0303952D02*
X0148180Y0303001D01*
X0148814Y0303318D01*
X0149130Y0303318D01*
X0149447Y0303001D01*
X0149447Y0302367D01*
X0149130Y0302050D01*
X0148497Y0302050D01*
X0148180Y0302367D01*
X0148180Y0303952D02*
X0149447Y0303952D01*
X0150390Y0303952D02*
X0151340Y0303952D01*
X0151657Y0303635D01*
X0151657Y0303001D01*
X0151340Y0302684D01*
X0150390Y0302684D01*
X0150390Y0302050D02*
X0150390Y0303952D01*
X0152599Y0303952D02*
X0153550Y0303952D01*
X0153867Y0303635D01*
X0153867Y0303001D01*
X0153550Y0302684D01*
X0152599Y0302684D01*
X0152599Y0302050D02*
X0152599Y0303952D01*
X0153233Y0302684D02*
X0153867Y0302050D01*
X0154809Y0302050D02*
X0156077Y0302050D01*
X0157019Y0302050D02*
X0157019Y0303318D01*
X0157653Y0303952D01*
X0158287Y0303318D01*
X0158287Y0302050D01*
X0159229Y0302050D02*
X0159229Y0303952D01*
X0159863Y0303318D01*
X0160497Y0303952D01*
X0160497Y0302050D01*
X0161439Y0302050D02*
X0161439Y0303952D01*
X0162390Y0303952D01*
X0162707Y0303635D01*
X0162707Y0303001D01*
X0162390Y0302684D01*
X0161439Y0302684D01*
X0163649Y0303952D02*
X0164917Y0303952D01*
X0164283Y0303952D02*
X0164283Y0302050D01*
X0165859Y0302050D02*
X0167126Y0302050D01*
X0168069Y0302367D02*
X0168385Y0302050D01*
X0169019Y0302050D01*
X0169336Y0302367D01*
X0169336Y0302684D01*
X0169019Y0303001D01*
X0168385Y0303001D01*
X0168069Y0303318D01*
X0168069Y0303635D01*
X0168385Y0303952D01*
X0169019Y0303952D01*
X0169336Y0303635D01*
X0170278Y0303952D02*
X0171546Y0303952D01*
X0170912Y0303952D02*
X0170912Y0302050D01*
X0167126Y0303952D02*
X0165859Y0303952D01*
X0165859Y0302050D01*
X0165859Y0303001D02*
X0166493Y0303001D01*
X0158287Y0303001D02*
X0157019Y0303001D01*
X0156077Y0303952D02*
X0154809Y0303952D01*
X0154809Y0302050D01*
X0154809Y0303001D02*
X0155443Y0303001D01*
X0145970Y0302050D02*
X0145970Y0303952D01*
X0141550Y0303952D02*
X0141550Y0302050D01*
X0227936Y0309449D02*
X0228887Y0309449D01*
X0229204Y0309766D01*
X0229204Y0310082D01*
X0228887Y0310399D01*
X0227936Y0310399D01*
X0227936Y0309449D02*
X0227936Y0311350D01*
X0228887Y0311350D01*
X0229204Y0311033D01*
X0229204Y0310716D01*
X0228887Y0310399D01*
X0230146Y0310082D02*
X0231097Y0310082D01*
X0231414Y0310399D01*
X0231414Y0311033D01*
X0231097Y0311350D01*
X0230146Y0311350D01*
X0230146Y0309449D01*
X0232356Y0309449D02*
X0232356Y0311350D01*
X0233624Y0311350D01*
X0232990Y0310399D02*
X0232356Y0310399D01*
X0234566Y0310399D02*
X0235517Y0310399D01*
X0235834Y0310082D01*
X0235834Y0309766D01*
X0235517Y0309449D01*
X0234883Y0309449D01*
X0234566Y0309766D01*
X0234566Y0310399D01*
X0235200Y0311033D01*
X0235834Y0311350D01*
X0236776Y0311033D02*
X0236776Y0309766D01*
X0237093Y0309449D01*
X0237727Y0309449D01*
X0238043Y0309766D01*
X0238043Y0310399D01*
X0237410Y0310399D01*
X0238043Y0311033D02*
X0237727Y0311350D01*
X0237093Y0311350D01*
X0236776Y0311033D01*
X0238986Y0311033D02*
X0238986Y0310716D01*
X0239302Y0310399D01*
X0239936Y0310399D01*
X0240253Y0310082D01*
X0240253Y0309766D01*
X0239936Y0309449D01*
X0239302Y0309449D01*
X0238986Y0309766D01*
X0238986Y0311033D02*
X0239302Y0311350D01*
X0239936Y0311350D01*
X0240253Y0311033D01*
X0241195Y0310716D02*
X0241829Y0311350D01*
X0241829Y0309449D01*
X0241195Y0309449D02*
X0242463Y0309449D01*
X0244039Y0309449D02*
X0244039Y0311350D01*
X0243405Y0311350D02*
X0244673Y0311350D01*
X0245615Y0311350D02*
X0245615Y0309449D01*
X0246883Y0309449D01*
X0247825Y0309766D02*
X0248142Y0309449D01*
X0248776Y0309449D01*
X0249093Y0309766D01*
X0249093Y0310082D01*
X0248776Y0310399D01*
X0248142Y0310399D01*
X0247825Y0310716D01*
X0247825Y0311033D01*
X0248142Y0311350D01*
X0248776Y0311350D01*
X0249093Y0311033D01*
X0250035Y0311350D02*
X0251303Y0311350D01*
X0250669Y0311350D02*
X0250669Y0309449D01*
X0246883Y0311350D02*
X0245615Y0311350D01*
X0245615Y0310399D02*
X0246249Y0310399D01*
X0250523Y0298848D02*
X0251474Y0298848D01*
X0251791Y0298531D01*
X0251791Y0298214D01*
X0251474Y0297897D01*
X0250523Y0297897D01*
X0250523Y0296946D02*
X0250523Y0298848D01*
X0251474Y0297897D02*
X0251791Y0297580D01*
X0251791Y0297263D01*
X0251474Y0296946D01*
X0250523Y0296946D01*
X0252733Y0296946D02*
X0252733Y0298848D01*
X0253684Y0298848D01*
X0254001Y0298531D01*
X0254001Y0297897D01*
X0253684Y0297580D01*
X0252733Y0297580D01*
X0254943Y0297897D02*
X0255577Y0297897D01*
X0254943Y0298848D02*
X0256211Y0298848D01*
X0254943Y0298848D02*
X0254943Y0296946D01*
X0257153Y0297263D02*
X0257470Y0296946D01*
X0258104Y0296946D01*
X0258421Y0297263D01*
X0258421Y0297580D01*
X0258104Y0297897D01*
X0257153Y0297897D01*
X0257153Y0297263D01*
X0257153Y0297897D02*
X0257787Y0298531D01*
X0258421Y0298848D01*
X0259363Y0298531D02*
X0259363Y0297263D01*
X0259680Y0296946D01*
X0260314Y0296946D01*
X0260631Y0297263D01*
X0260631Y0297897D01*
X0259997Y0297897D01*
X0260631Y0298531D02*
X0260314Y0298848D01*
X0259680Y0298848D01*
X0259363Y0298531D01*
X0261573Y0298531D02*
X0261573Y0298214D01*
X0261890Y0297897D01*
X0262523Y0297897D01*
X0262840Y0297580D01*
X0262840Y0297263D01*
X0262523Y0296946D01*
X0261890Y0296946D01*
X0261573Y0297263D01*
X0261573Y0298531D02*
X0261890Y0298848D01*
X0262523Y0298848D01*
X0262840Y0298531D01*
X0263783Y0298531D02*
X0264099Y0298848D01*
X0264733Y0298848D01*
X0265050Y0298531D01*
X0265050Y0298214D01*
X0263783Y0296946D01*
X0265050Y0296946D01*
X0266626Y0296946D02*
X0266626Y0298848D01*
X0265992Y0298848D02*
X0267260Y0298848D01*
X0268202Y0298848D02*
X0268202Y0296946D01*
X0269470Y0296946D01*
X0270412Y0297263D02*
X0270729Y0296946D01*
X0271363Y0296946D01*
X0271680Y0297263D01*
X0271680Y0297580D01*
X0271363Y0297897D01*
X0270729Y0297897D01*
X0270412Y0298214D01*
X0270412Y0298531D01*
X0270729Y0298848D01*
X0271363Y0298848D01*
X0271680Y0298531D01*
X0272622Y0298848D02*
X0273890Y0298848D01*
X0273256Y0298848D02*
X0273256Y0296946D01*
X0273117Y0294056D02*
X0273117Y0292154D01*
X0274385Y0292154D01*
X0275327Y0292154D02*
X0275327Y0294056D01*
X0276278Y0294056D01*
X0276595Y0293739D01*
X0276595Y0293105D01*
X0276278Y0292788D01*
X0275327Y0292788D01*
X0277537Y0293105D02*
X0278171Y0293105D01*
X0277537Y0294056D02*
X0278805Y0294056D01*
X0279747Y0293422D02*
X0280381Y0294056D01*
X0280381Y0292154D01*
X0279747Y0292154D02*
X0281015Y0292154D01*
X0281957Y0292471D02*
X0282274Y0292154D01*
X0282907Y0292154D01*
X0283224Y0292471D01*
X0283224Y0293739D01*
X0282907Y0294056D01*
X0282274Y0294056D01*
X0281957Y0293739D01*
X0281957Y0292471D01*
X0284167Y0292471D02*
X0284483Y0292154D01*
X0285117Y0292154D01*
X0285434Y0292471D01*
X0285434Y0294056D01*
X0286376Y0294056D02*
X0287644Y0294056D01*
X0287010Y0294056D02*
X0287010Y0292154D01*
X0289220Y0292154D02*
X0289220Y0294056D01*
X0288586Y0294056D02*
X0289854Y0294056D01*
X0290796Y0294056D02*
X0290796Y0292154D01*
X0292064Y0292154D01*
X0293006Y0292471D02*
X0293323Y0292154D01*
X0293957Y0292154D01*
X0294274Y0292471D01*
X0294274Y0292788D01*
X0293957Y0293105D01*
X0293323Y0293105D01*
X0293006Y0293422D01*
X0293006Y0293739D01*
X0293323Y0294056D01*
X0293957Y0294056D01*
X0294274Y0293739D01*
X0295216Y0294056D02*
X0296484Y0294056D01*
X0295850Y0294056D02*
X0295850Y0292154D01*
X0292064Y0294056D02*
X0290796Y0294056D01*
X0290796Y0293105D02*
X0291430Y0293105D01*
X0284167Y0292471D02*
X0284167Y0294056D01*
X0277537Y0294056D02*
X0277537Y0292154D01*
X0268836Y0297897D02*
X0268202Y0297897D01*
X0268202Y0298848D02*
X0269470Y0298848D01*
X0307265Y0308616D02*
X0308215Y0308616D01*
X0308532Y0308933D01*
X0308532Y0309250D01*
X0308215Y0309567D01*
X0307265Y0309567D01*
X0308215Y0309567D02*
X0308532Y0309884D01*
X0308532Y0310201D01*
X0308215Y0310518D01*
X0307265Y0310518D01*
X0307265Y0308616D01*
X0309475Y0308616D02*
X0309475Y0310518D01*
X0310425Y0310518D01*
X0310742Y0310201D01*
X0310742Y0309567D01*
X0310425Y0309250D01*
X0309475Y0309250D01*
X0311684Y0309567D02*
X0312318Y0309567D01*
X0311684Y0310518D02*
X0312952Y0310518D01*
X0313894Y0310201D02*
X0314211Y0310518D01*
X0314845Y0310518D01*
X0315162Y0310201D01*
X0315162Y0309884D01*
X0313894Y0308616D01*
X0315162Y0308616D01*
X0316104Y0308933D02*
X0316421Y0308616D01*
X0317055Y0308616D01*
X0317372Y0308933D01*
X0317372Y0309567D01*
X0316738Y0309567D01*
X0316104Y0310201D02*
X0316104Y0308933D01*
X0316104Y0310201D02*
X0316421Y0310518D01*
X0317055Y0310518D01*
X0317372Y0310201D01*
X0318314Y0310201D02*
X0318314Y0309884D01*
X0318631Y0309567D01*
X0319265Y0309567D01*
X0319582Y0309250D01*
X0319582Y0308933D01*
X0319265Y0308616D01*
X0318631Y0308616D01*
X0318314Y0308933D01*
X0318314Y0310201D02*
X0318631Y0310518D01*
X0319265Y0310518D01*
X0319582Y0310201D01*
X0320524Y0310201D02*
X0320841Y0310518D01*
X0321475Y0310518D01*
X0321792Y0310201D01*
X0321792Y0309884D01*
X0320524Y0308616D01*
X0321792Y0308616D01*
X0323368Y0308616D02*
X0323368Y0310518D01*
X0322734Y0310518D02*
X0324002Y0310518D01*
X0324944Y0310518D02*
X0324944Y0308616D01*
X0326211Y0308616D01*
X0327154Y0308933D02*
X0327470Y0308616D01*
X0328104Y0308616D01*
X0328421Y0308933D01*
X0328421Y0309250D01*
X0328104Y0309567D01*
X0327470Y0309567D01*
X0327154Y0309884D01*
X0327154Y0310201D01*
X0327470Y0310518D01*
X0328104Y0310518D01*
X0328421Y0310201D01*
X0329363Y0310518D02*
X0330631Y0310518D01*
X0329997Y0310518D02*
X0329997Y0308616D01*
X0326211Y0310518D02*
X0324944Y0310518D01*
X0324944Y0309567D02*
X0325578Y0309567D01*
X0311684Y0308616D02*
X0311684Y0310518D01*
X0363946Y0280579D02*
X0365848Y0280579D01*
X0365848Y0279945D02*
X0365848Y0281213D01*
X0364580Y0279945D02*
X0363946Y0280579D01*
X0364263Y0279003D02*
X0363946Y0278686D01*
X0363946Y0277736D01*
X0365848Y0277736D01*
X0365848Y0278686D01*
X0365531Y0279003D01*
X0364263Y0279003D01*
X0363073Y0273445D02*
X0359323Y0273445D01*
X0383648Y0264917D02*
X0383648Y0263649D01*
X0383648Y0264283D02*
X0385550Y0264283D01*
X0385233Y0262707D02*
X0385550Y0262390D01*
X0385550Y0261756D01*
X0385233Y0261439D01*
X0384599Y0261756D02*
X0384599Y0262390D01*
X0384916Y0262707D01*
X0385233Y0262707D01*
X0384599Y0261756D02*
X0384282Y0261439D01*
X0383965Y0261439D01*
X0383648Y0261756D01*
X0383648Y0262390D01*
X0383965Y0262707D01*
X0383648Y0260497D02*
X0383648Y0259229D01*
X0385550Y0259229D01*
X0385550Y0260497D01*
X0384599Y0259863D02*
X0384599Y0259229D01*
X0383648Y0258287D02*
X0383648Y0257019D01*
X0383648Y0257653D02*
X0385550Y0257653D01*
X0385550Y0255443D02*
X0383648Y0255443D01*
X0383648Y0254809D02*
X0383648Y0256077D01*
X0383648Y0253867D02*
X0385233Y0253867D01*
X0385550Y0253550D01*
X0385550Y0252916D01*
X0385233Y0252599D01*
X0383648Y0252599D01*
X0383965Y0251657D02*
X0383648Y0251340D01*
X0383648Y0250706D01*
X0383965Y0250390D01*
X0385233Y0250390D01*
X0385550Y0250706D01*
X0385550Y0251340D01*
X0385233Y0251657D01*
X0383965Y0251657D01*
X0385550Y0249447D02*
X0385550Y0248180D01*
X0385550Y0248814D02*
X0383648Y0248814D01*
X0384282Y0248180D01*
X0383648Y0247237D02*
X0383648Y0245970D01*
X0385550Y0245970D01*
X0384599Y0245970D02*
X0384599Y0246604D01*
X0384599Y0245028D02*
X0384916Y0244711D01*
X0384916Y0243760D01*
X0385550Y0243760D02*
X0383648Y0243760D01*
X0383648Y0244711D01*
X0383965Y0245028D01*
X0384599Y0245028D01*
X0384599Y0242818D02*
X0384599Y0241550D01*
X0385550Y0241550D02*
X0383648Y0241550D01*
X0383648Y0242818D02*
X0385550Y0242818D01*
X0398648Y0242818D02*
X0400550Y0242818D01*
X0400550Y0243760D02*
X0398648Y0243760D01*
X0398648Y0244711D01*
X0398965Y0245028D01*
X0399599Y0245028D01*
X0399916Y0244711D01*
X0399916Y0243760D01*
X0399599Y0242818D02*
X0399599Y0241550D01*
X0400550Y0241550D02*
X0398648Y0241550D01*
X0398648Y0245970D02*
X0398648Y0247237D01*
X0398648Y0248180D02*
X0399599Y0248180D01*
X0399282Y0248814D01*
X0399282Y0249130D01*
X0399599Y0249447D01*
X0400233Y0249447D01*
X0400550Y0249130D01*
X0400550Y0248497D01*
X0400233Y0248180D01*
X0398648Y0248180D02*
X0398648Y0249447D01*
X0398965Y0250390D02*
X0400233Y0250390D01*
X0400550Y0250706D01*
X0400550Y0251340D01*
X0400233Y0251657D01*
X0398965Y0251657D01*
X0398648Y0251340D01*
X0398648Y0250706D01*
X0398965Y0250390D01*
X0398648Y0252599D02*
X0400233Y0252599D01*
X0400550Y0252916D01*
X0400550Y0253550D01*
X0400233Y0253867D01*
X0398648Y0253867D01*
X0398648Y0254809D02*
X0398648Y0256077D01*
X0398648Y0255443D02*
X0400550Y0255443D01*
X0400550Y0257653D02*
X0398648Y0257653D01*
X0398648Y0257019D02*
X0398648Y0258287D01*
X0398648Y0259229D02*
X0400550Y0259229D01*
X0400550Y0260497D01*
X0400233Y0261439D02*
X0400550Y0261756D01*
X0400550Y0262390D01*
X0400233Y0262707D01*
X0399916Y0262707D01*
X0399599Y0262390D01*
X0399599Y0261756D01*
X0399282Y0261439D01*
X0398965Y0261439D01*
X0398648Y0261756D01*
X0398648Y0262390D01*
X0398965Y0262707D01*
X0398648Y0263649D02*
X0398648Y0264917D01*
X0398648Y0264283D02*
X0400550Y0264283D01*
X0398648Y0260497D02*
X0398648Y0259229D01*
X0399599Y0259229D02*
X0399599Y0259863D01*
X0413648Y0260497D02*
X0413648Y0259229D01*
X0415550Y0259229D01*
X0415550Y0260497D01*
X0415233Y0261439D02*
X0415550Y0261756D01*
X0415550Y0262390D01*
X0415233Y0262707D01*
X0414916Y0262707D01*
X0414599Y0262390D01*
X0414599Y0261756D01*
X0414282Y0261439D01*
X0413965Y0261439D01*
X0413648Y0261756D01*
X0413648Y0262390D01*
X0413965Y0262707D01*
X0413648Y0263649D02*
X0413648Y0264917D01*
X0413648Y0264283D02*
X0415550Y0264283D01*
X0414599Y0259863D02*
X0414599Y0259229D01*
X0413648Y0258287D02*
X0413648Y0257019D01*
X0413648Y0257653D02*
X0415550Y0257653D01*
X0415550Y0255443D02*
X0413648Y0255443D01*
X0413648Y0254809D02*
X0413648Y0256077D01*
X0413648Y0253867D02*
X0415233Y0253867D01*
X0415550Y0253550D01*
X0415550Y0252916D01*
X0415233Y0252599D01*
X0413648Y0252599D01*
X0413965Y0251657D02*
X0413648Y0251340D01*
X0413648Y0250706D01*
X0413965Y0250390D01*
X0415233Y0250390D01*
X0415550Y0250706D01*
X0415550Y0251340D01*
X0415233Y0251657D01*
X0413965Y0251657D01*
X0413965Y0249447D02*
X0413648Y0249130D01*
X0413648Y0248497D01*
X0413965Y0248180D01*
X0413648Y0247237D02*
X0413648Y0245970D01*
X0415550Y0245970D01*
X0414599Y0245970D02*
X0414599Y0246604D01*
X0414599Y0245028D02*
X0414916Y0244711D01*
X0414916Y0243760D01*
X0415550Y0243760D02*
X0413648Y0243760D01*
X0413648Y0244711D01*
X0413965Y0245028D01*
X0414599Y0245028D01*
X0414282Y0242818D02*
X0414599Y0242501D01*
X0414599Y0241550D01*
X0413648Y0241550D02*
X0413648Y0242501D01*
X0413965Y0242818D01*
X0414282Y0242818D01*
X0414599Y0242501D02*
X0414916Y0242818D01*
X0415233Y0242818D01*
X0415550Y0242501D01*
X0415550Y0241550D01*
X0413648Y0241550D01*
X0415550Y0248180D02*
X0414282Y0249447D01*
X0413965Y0249447D01*
X0415550Y0249447D02*
X0415550Y0248180D01*
X0400550Y0245970D02*
X0398648Y0245970D01*
X0399599Y0245970D02*
X0399599Y0246604D01*
X0428648Y0247237D02*
X0430550Y0247237D01*
X0430550Y0248180D02*
X0430550Y0249447D01*
X0430233Y0250390D02*
X0430550Y0250706D01*
X0430550Y0251340D01*
X0430233Y0251657D01*
X0428965Y0251657D01*
X0428648Y0251340D01*
X0428648Y0250706D01*
X0428965Y0250390D01*
X0430233Y0250390D01*
X0428965Y0249447D02*
X0430233Y0248180D01*
X0430550Y0248180D01*
X0429599Y0247237D02*
X0429599Y0245970D01*
X0430550Y0245970D02*
X0428648Y0245970D01*
X0428965Y0245028D02*
X0430233Y0243760D01*
X0430550Y0244077D01*
X0430550Y0244711D01*
X0430233Y0245028D01*
X0428965Y0245028D01*
X0428648Y0244711D01*
X0428648Y0244077D01*
X0428965Y0243760D01*
X0430233Y0243760D01*
X0430233Y0242818D02*
X0429916Y0242818D01*
X0429599Y0242501D01*
X0429599Y0241550D01*
X0430233Y0241550D01*
X0430550Y0241867D01*
X0430550Y0242501D01*
X0430233Y0242818D01*
X0428965Y0242184D02*
X0429599Y0241550D01*
X0428965Y0242184D02*
X0428648Y0242818D01*
X0428648Y0248180D02*
X0428648Y0249447D01*
X0428965Y0249447D01*
X0428648Y0252599D02*
X0430233Y0252599D01*
X0430550Y0252916D01*
X0430550Y0253550D01*
X0430233Y0253867D01*
X0428648Y0253867D01*
X0428648Y0254809D02*
X0428648Y0256077D01*
X0428648Y0255443D02*
X0430550Y0255443D01*
X0430550Y0257653D02*
X0428648Y0257653D01*
X0428648Y0257019D02*
X0428648Y0258287D01*
X0428648Y0259229D02*
X0430550Y0259229D01*
X0430550Y0260497D01*
X0430233Y0261439D02*
X0430550Y0261756D01*
X0430550Y0262390D01*
X0430233Y0262707D01*
X0429916Y0262707D01*
X0429599Y0262390D01*
X0429599Y0261756D01*
X0429282Y0261439D01*
X0428965Y0261439D01*
X0428648Y0261756D01*
X0428648Y0262390D01*
X0428965Y0262707D01*
X0428648Y0263649D02*
X0428648Y0264917D01*
X0428648Y0264283D02*
X0430550Y0264283D01*
X0428648Y0260497D02*
X0428648Y0259229D01*
X0429599Y0259229D02*
X0429599Y0259863D01*
X0443648Y0260497D02*
X0443648Y0259229D01*
X0445550Y0259229D01*
X0445550Y0260497D01*
X0445233Y0261439D02*
X0445550Y0261756D01*
X0445550Y0262390D01*
X0445233Y0262707D01*
X0444916Y0262707D01*
X0444599Y0262390D01*
X0444599Y0261756D01*
X0444282Y0261439D01*
X0443965Y0261439D01*
X0443648Y0261756D01*
X0443648Y0262390D01*
X0443965Y0262707D01*
X0443648Y0263649D02*
X0443648Y0264917D01*
X0443648Y0264283D02*
X0445550Y0264283D01*
X0444599Y0259863D02*
X0444599Y0259229D01*
X0443648Y0258287D02*
X0443648Y0257019D01*
X0443648Y0257653D02*
X0445550Y0257653D01*
X0445550Y0255443D02*
X0443648Y0255443D01*
X0443648Y0254809D02*
X0443648Y0256077D01*
X0443648Y0253867D02*
X0445233Y0253867D01*
X0445550Y0253550D01*
X0445550Y0252916D01*
X0445233Y0252599D01*
X0443648Y0252599D01*
X0443965Y0251657D02*
X0443648Y0251340D01*
X0443648Y0250706D01*
X0443965Y0250390D01*
X0445233Y0250390D01*
X0445550Y0250706D01*
X0445550Y0251340D01*
X0445233Y0251657D01*
X0443965Y0251657D01*
X0443648Y0249447D02*
X0443648Y0248180D01*
X0444599Y0248180D01*
X0444282Y0248814D01*
X0444282Y0249130D01*
X0444599Y0249447D01*
X0445233Y0249447D01*
X0445550Y0249130D01*
X0445550Y0248497D01*
X0445233Y0248180D01*
X0444599Y0246604D02*
X0444599Y0245970D01*
X0444599Y0245028D02*
X0444916Y0244711D01*
X0444916Y0243760D01*
X0445550Y0243760D02*
X0443648Y0243760D01*
X0443648Y0244711D01*
X0443965Y0245028D01*
X0444599Y0245028D01*
X0445550Y0245970D02*
X0443648Y0245970D01*
X0443648Y0247237D01*
X0445550Y0242818D02*
X0445550Y0241550D01*
X0443648Y0241550D01*
X0451585Y0228655D02*
X0453620Y0228655D01*
X0452603Y0228655D02*
X0452603Y0223568D01*
X0451585Y0222550D01*
X0450568Y0222550D01*
X0449550Y0223568D01*
X0455627Y0222550D02*
X0459697Y0226620D01*
X0459697Y0227638D01*
X0458680Y0228655D01*
X0456645Y0228655D01*
X0455627Y0227638D01*
X0455627Y0222550D02*
X0459697Y0222550D01*
X0458680Y0200655D02*
X0455627Y0197603D01*
X0459697Y0197603D01*
X0458680Y0200655D02*
X0458680Y0194550D01*
X0452603Y0195568D02*
X0452603Y0200655D01*
X0453620Y0200655D02*
X0451585Y0200655D01*
X0452603Y0195568D02*
X0451585Y0194550D01*
X0450568Y0194550D01*
X0449550Y0195568D01*
X0258850Y0168808D02*
X0258850Y0167540D01*
X0258850Y0168174D02*
X0256948Y0168174D01*
X0257582Y0167540D01*
X0257265Y0166598D02*
X0257899Y0166598D01*
X0258216Y0166281D01*
X0258216Y0165330D01*
X0258850Y0165330D02*
X0256948Y0165330D01*
X0256948Y0166281D01*
X0257265Y0166598D01*
X0256948Y0164388D02*
X0258850Y0164388D01*
X0258850Y0163120D02*
X0256948Y0163120D01*
X0257582Y0163754D01*
X0256948Y0164388D01*
X0257582Y0162178D02*
X0258850Y0162178D01*
X0257899Y0162178D02*
X0257899Y0160910D01*
X0257582Y0160910D02*
X0256948Y0161544D01*
X0257582Y0162178D01*
X0257582Y0160910D02*
X0258850Y0160910D01*
X0193850Y0220910D02*
X0192582Y0220910D01*
X0191948Y0221544D01*
X0192582Y0222178D01*
X0193850Y0222178D01*
X0193850Y0223120D02*
X0191948Y0223120D01*
X0192582Y0223754D01*
X0191948Y0224388D01*
X0193850Y0224388D01*
X0193850Y0225330D02*
X0191948Y0225330D01*
X0191948Y0226281D01*
X0192265Y0226598D01*
X0192899Y0226598D01*
X0193216Y0226281D01*
X0193216Y0225330D01*
X0193533Y0227540D02*
X0192265Y0228808D01*
X0193533Y0228808D01*
X0193850Y0228491D01*
X0193850Y0227857D01*
X0193533Y0227540D01*
X0192265Y0227540D01*
X0191948Y0227857D01*
X0191948Y0228491D01*
X0192265Y0228808D01*
X0192899Y0222178D02*
X0192899Y0220910D01*
X0190912Y0252050D02*
X0190912Y0253952D01*
X0190278Y0253952D02*
X0191546Y0253952D01*
X0189336Y0253635D02*
X0189019Y0253952D01*
X0188385Y0253952D01*
X0188069Y0253635D01*
X0188069Y0253318D01*
X0188385Y0253001D01*
X0189019Y0253001D01*
X0189336Y0252684D01*
X0189336Y0252367D01*
X0189019Y0252050D01*
X0188385Y0252050D01*
X0188069Y0252367D01*
X0187126Y0252050D02*
X0185859Y0252050D01*
X0185859Y0253952D01*
X0187126Y0253952D01*
X0186493Y0253001D02*
X0185859Y0253001D01*
X0184917Y0253952D02*
X0183649Y0253952D01*
X0184283Y0253952D02*
X0184283Y0252050D01*
X0182707Y0253001D02*
X0182390Y0252684D01*
X0181439Y0252684D01*
X0181439Y0252050D02*
X0181439Y0253952D01*
X0182390Y0253952D01*
X0182707Y0253635D01*
X0182707Y0253001D01*
X0180497Y0253952D02*
X0180497Y0252050D01*
X0179229Y0252050D02*
X0179229Y0253952D01*
X0179863Y0253318D01*
X0180497Y0253952D01*
X0178287Y0253318D02*
X0178287Y0252050D01*
X0178287Y0253001D02*
X0177019Y0253001D01*
X0177019Y0253318D02*
X0177653Y0253952D01*
X0178287Y0253318D01*
X0177019Y0253318D02*
X0177019Y0252050D01*
X0176077Y0252050D02*
X0174809Y0252050D01*
X0174809Y0253952D01*
X0176077Y0253952D01*
X0175443Y0253001D02*
X0174809Y0253001D01*
X0173867Y0253001D02*
X0173550Y0252684D01*
X0172599Y0252684D01*
X0172599Y0252050D02*
X0172599Y0253952D01*
X0173550Y0253952D01*
X0173867Y0253635D01*
X0173867Y0253001D01*
X0173233Y0252684D02*
X0173867Y0252050D01*
X0171657Y0253001D02*
X0171340Y0252684D01*
X0170390Y0252684D01*
X0170390Y0252050D02*
X0170390Y0253952D01*
X0171340Y0253952D01*
X0171657Y0253635D01*
X0171657Y0253001D01*
X0169447Y0252050D02*
X0168180Y0252050D01*
X0168814Y0252050D02*
X0168814Y0253952D01*
X0168180Y0253318D01*
X0167238Y0253952D02*
X0165970Y0253952D01*
X0165970Y0252050D01*
X0165970Y0253001D02*
X0166604Y0253001D01*
X0165028Y0253001D02*
X0164711Y0252684D01*
X0163760Y0252684D01*
X0163760Y0252050D02*
X0163760Y0253952D01*
X0164711Y0253952D01*
X0165028Y0253635D01*
X0165028Y0253001D01*
X0162818Y0252050D02*
X0161550Y0252050D01*
X0161550Y0253952D01*
X0056970Y0203952D02*
X0055702Y0203952D01*
X0056336Y0203952D02*
X0056336Y0202050D01*
X0054760Y0202367D02*
X0054443Y0202050D01*
X0053809Y0202050D01*
X0053492Y0202367D01*
X0053809Y0203001D02*
X0054443Y0203001D01*
X0054760Y0202684D01*
X0054760Y0202367D01*
X0053809Y0203001D02*
X0053492Y0203318D01*
X0053492Y0203635D01*
X0053809Y0203952D01*
X0054443Y0203952D01*
X0054760Y0203635D01*
X0052550Y0203952D02*
X0051283Y0203952D01*
X0051283Y0202050D01*
X0052550Y0202050D01*
X0051916Y0203001D02*
X0051283Y0203001D01*
X0050340Y0203952D02*
X0049073Y0203952D01*
X0049707Y0203952D02*
X0049707Y0202050D01*
X0048131Y0202050D02*
X0048131Y0203952D01*
X0046863Y0203952D02*
X0048131Y0202050D01*
X0046863Y0202050D02*
X0046863Y0203952D01*
X0046023Y0203952D02*
X0045390Y0203952D01*
X0045706Y0203952D02*
X0045706Y0202050D01*
X0045390Y0202050D02*
X0046023Y0202050D01*
X0044447Y0202050D02*
X0043180Y0202050D01*
X0043814Y0202050D02*
X0043814Y0203952D01*
X0043180Y0203318D01*
X0042238Y0203952D02*
X0040970Y0203952D01*
X0040970Y0202050D01*
X0040970Y0203001D02*
X0041604Y0203001D01*
X0040028Y0203001D02*
X0039711Y0202684D01*
X0038760Y0202684D01*
X0038760Y0202050D02*
X0038760Y0203952D01*
X0039711Y0203952D01*
X0040028Y0203635D01*
X0040028Y0203001D01*
X0037818Y0203001D02*
X0036550Y0203001D01*
X0036550Y0202050D02*
X0036550Y0203952D01*
X0037818Y0203952D02*
X0037818Y0202050D01*
X0023492Y0217464D02*
X0023492Y0219365D01*
X0022858Y0219365D02*
X0024126Y0219365D01*
X0021916Y0219365D02*
X0021916Y0217781D01*
X0021599Y0217464D01*
X0020965Y0217464D01*
X0020648Y0217781D01*
X0020648Y0219365D01*
X0019706Y0219048D02*
X0019389Y0219365D01*
X0018438Y0219365D01*
X0018438Y0217464D01*
X0018438Y0218098D02*
X0019389Y0218098D01*
X0019706Y0218414D01*
X0019706Y0219048D01*
X0017496Y0219365D02*
X0017496Y0217464D01*
X0016228Y0219365D01*
X0016228Y0217464D01*
X0015389Y0217464D02*
X0014755Y0217464D01*
X0015072Y0217464D02*
X0015072Y0219365D01*
X0014755Y0219365D02*
X0015389Y0219365D01*
X0013813Y0219048D02*
X0013496Y0219365D01*
X0012862Y0219365D01*
X0012545Y0219048D01*
X0011603Y0219048D02*
X0011286Y0219365D01*
X0010652Y0219365D01*
X0010335Y0219048D01*
X0010335Y0218731D01*
X0010652Y0218414D01*
X0011286Y0218414D01*
X0011603Y0218098D01*
X0011603Y0217781D01*
X0011286Y0217464D01*
X0010652Y0217464D01*
X0010335Y0217781D01*
X0012545Y0217464D02*
X0013813Y0218731D01*
X0013813Y0219048D01*
X0013813Y0217464D02*
X0012545Y0217464D01*
X0012688Y0161052D02*
X0013955Y0159150D01*
X0013955Y0161052D01*
X0014898Y0160735D02*
X0014898Y0160418D01*
X0015215Y0160101D01*
X0015848Y0160101D01*
X0016165Y0159784D01*
X0016165Y0159467D01*
X0015848Y0159150D01*
X0015215Y0159150D01*
X0014898Y0159467D01*
X0014898Y0160735D02*
X0015215Y0161052D01*
X0015848Y0161052D01*
X0016165Y0160735D01*
X0017107Y0160735D02*
X0017107Y0159467D01*
X0017424Y0159150D01*
X0018058Y0159150D01*
X0018375Y0159467D01*
X0018375Y0160735D01*
X0018058Y0161052D01*
X0017424Y0161052D01*
X0017107Y0160735D01*
X0019317Y0161052D02*
X0020268Y0161052D01*
X0020585Y0160735D01*
X0020585Y0160101D01*
X0020268Y0159784D01*
X0019317Y0159784D01*
X0019317Y0159150D02*
X0019317Y0161052D01*
X0019951Y0159784D02*
X0020585Y0159150D01*
X0021527Y0159150D02*
X0022795Y0159150D01*
X0022161Y0159150D02*
X0022161Y0161052D01*
X0021527Y0160418D01*
X0023737Y0161052D02*
X0024371Y0161052D01*
X0024054Y0161052D02*
X0024054Y0159150D01*
X0023737Y0159150D02*
X0024371Y0159150D01*
X0025210Y0159150D02*
X0025210Y0161052D01*
X0026478Y0159150D01*
X0026478Y0161052D01*
X0027420Y0161052D02*
X0028371Y0161052D01*
X0028688Y0160735D01*
X0028688Y0160101D01*
X0028371Y0159784D01*
X0027420Y0159784D01*
X0027420Y0159150D02*
X0027420Y0161052D01*
X0029630Y0161052D02*
X0029630Y0159467D01*
X0029947Y0159150D01*
X0030581Y0159150D01*
X0030898Y0159467D01*
X0030898Y0161052D01*
X0031840Y0161052D02*
X0033108Y0161052D01*
X0032474Y0161052D02*
X0032474Y0159150D01*
X0012688Y0159150D02*
X0012688Y0161052D01*
X0011746Y0161052D02*
X0010478Y0161052D01*
X0010478Y0159150D01*
X0011746Y0159150D01*
X0011112Y0160101D02*
X0010478Y0160101D01*
X0009536Y0159784D02*
X0009536Y0159467D01*
X0009219Y0159150D01*
X0008585Y0159150D01*
X0008268Y0159467D01*
X0008585Y0160101D02*
X0009219Y0160101D01*
X0009536Y0159784D01*
X0009536Y0160735D02*
X0009219Y0161052D01*
X0008585Y0161052D01*
X0008268Y0160735D01*
X0008268Y0160418D01*
X0008585Y0160101D01*
X0008585Y0147052D02*
X0008268Y0146735D01*
X0008268Y0146418D01*
X0008585Y0146101D01*
X0009219Y0146101D01*
X0009536Y0145784D01*
X0009536Y0145467D01*
X0009219Y0145150D01*
X0008585Y0145150D01*
X0008268Y0145467D01*
X0008585Y0147052D02*
X0009219Y0147052D01*
X0009536Y0146735D01*
X0010478Y0147052D02*
X0010478Y0145150D01*
X0011746Y0145150D01*
X0012688Y0145150D02*
X0012688Y0147052D01*
X0013955Y0145150D01*
X0013955Y0147052D01*
X0014898Y0146735D02*
X0014898Y0146418D01*
X0015215Y0146101D01*
X0015848Y0146101D01*
X0016165Y0145784D01*
X0016165Y0145467D01*
X0015848Y0145150D01*
X0015215Y0145150D01*
X0014898Y0145467D01*
X0014898Y0146735D02*
X0015215Y0147052D01*
X0015848Y0147052D01*
X0016165Y0146735D01*
X0017107Y0146735D02*
X0017107Y0145467D01*
X0017424Y0145150D01*
X0018058Y0145150D01*
X0018375Y0145467D01*
X0018375Y0146735D01*
X0018058Y0147052D01*
X0017424Y0147052D01*
X0017107Y0146735D01*
X0019317Y0147052D02*
X0020268Y0147052D01*
X0020585Y0146735D01*
X0020585Y0146101D01*
X0020268Y0145784D01*
X0019317Y0145784D01*
X0019317Y0145150D02*
X0019317Y0147052D01*
X0019951Y0145784D02*
X0020585Y0145150D01*
X0021527Y0145150D02*
X0022795Y0146418D01*
X0022795Y0146735D01*
X0022478Y0147052D01*
X0021844Y0147052D01*
X0021527Y0146735D01*
X0021527Y0145150D02*
X0022795Y0145150D01*
X0023737Y0145150D02*
X0024371Y0145150D01*
X0024054Y0145150D02*
X0024054Y0147052D01*
X0023737Y0147052D02*
X0024371Y0147052D01*
X0025210Y0147052D02*
X0026478Y0145150D01*
X0026478Y0147052D01*
X0027420Y0147052D02*
X0028371Y0147052D01*
X0028688Y0146735D01*
X0028688Y0146101D01*
X0028371Y0145784D01*
X0027420Y0145784D01*
X0027420Y0145150D02*
X0027420Y0147052D01*
X0025210Y0147052D02*
X0025210Y0145150D01*
X0029630Y0145467D02*
X0029630Y0147052D01*
X0030898Y0147052D02*
X0030898Y0145467D01*
X0030581Y0145150D01*
X0029947Y0145150D01*
X0029630Y0145467D01*
X0031840Y0147052D02*
X0033108Y0147052D01*
X0032474Y0147052D02*
X0032474Y0145150D01*
X0011746Y0147052D02*
X0010478Y0147052D01*
X0010478Y0146101D02*
X0011112Y0146101D01*
X0011746Y0133052D02*
X0010478Y0133052D01*
X0010478Y0131150D01*
X0011746Y0131150D01*
X0012688Y0131150D02*
X0012688Y0133052D01*
X0013955Y0131150D01*
X0013955Y0133052D01*
X0014898Y0132735D02*
X0014898Y0132418D01*
X0015215Y0132101D01*
X0015848Y0132101D01*
X0016165Y0131784D01*
X0016165Y0131467D01*
X0015848Y0131150D01*
X0015215Y0131150D01*
X0014898Y0131467D01*
X0014898Y0132735D02*
X0015215Y0133052D01*
X0015848Y0133052D01*
X0016165Y0132735D01*
X0017107Y0132735D02*
X0017107Y0131467D01*
X0017424Y0131150D01*
X0018058Y0131150D01*
X0018375Y0131467D01*
X0018375Y0132735D01*
X0018058Y0133052D01*
X0017424Y0133052D01*
X0017107Y0132735D01*
X0019317Y0133052D02*
X0020268Y0133052D01*
X0020585Y0132735D01*
X0020585Y0132101D01*
X0020268Y0131784D01*
X0019317Y0131784D01*
X0019317Y0131150D02*
X0019317Y0133052D01*
X0019951Y0131784D02*
X0020585Y0131150D01*
X0021527Y0131467D02*
X0021844Y0131150D01*
X0022478Y0131150D01*
X0022795Y0131467D01*
X0022795Y0131784D01*
X0022478Y0132101D01*
X0022161Y0132101D01*
X0022478Y0132101D02*
X0022795Y0132418D01*
X0022795Y0132735D01*
X0022478Y0133052D01*
X0021844Y0133052D01*
X0021527Y0132735D01*
X0023737Y0133052D02*
X0024371Y0133052D01*
X0024054Y0133052D02*
X0024054Y0131150D01*
X0023737Y0131150D02*
X0024371Y0131150D01*
X0025210Y0131150D02*
X0025210Y0133052D01*
X0026478Y0131150D01*
X0026478Y0133052D01*
X0027420Y0133052D02*
X0028371Y0133052D01*
X0028688Y0132735D01*
X0028688Y0132101D01*
X0028371Y0131784D01*
X0027420Y0131784D01*
X0027420Y0131150D02*
X0027420Y0133052D01*
X0029630Y0133052D02*
X0029630Y0131467D01*
X0029947Y0131150D01*
X0030581Y0131150D01*
X0030898Y0131467D01*
X0030898Y0133052D01*
X0031840Y0133052D02*
X0033108Y0133052D01*
X0032474Y0133052D02*
X0032474Y0131150D01*
X0011112Y0132101D02*
X0010478Y0132101D01*
X0009536Y0131784D02*
X0009536Y0131467D01*
X0009219Y0131150D01*
X0008585Y0131150D01*
X0008268Y0131467D01*
X0008585Y0132101D02*
X0009219Y0132101D01*
X0009536Y0131784D01*
X0009536Y0132735D02*
X0009219Y0133052D01*
X0008585Y0133052D01*
X0008268Y0132735D01*
X0008268Y0132418D01*
X0008585Y0132101D01*
X0008623Y0115261D02*
X0008939Y0114944D01*
X0008939Y0114627D01*
X0008623Y0114310D01*
X0008939Y0113993D01*
X0008939Y0113676D01*
X0008623Y0113359D01*
X0007989Y0113359D01*
X0007672Y0113676D01*
X0008306Y0114310D02*
X0008623Y0114310D01*
X0008623Y0115261D02*
X0007989Y0115261D01*
X0007672Y0114944D01*
X0006730Y0114944D02*
X0006413Y0115261D01*
X0005779Y0115261D01*
X0005462Y0114944D01*
X0005462Y0114627D01*
X0005779Y0114310D01*
X0006413Y0114310D01*
X0006730Y0113993D01*
X0006730Y0113676D01*
X0006413Y0113359D01*
X0005779Y0113359D01*
X0005462Y0113676D01*
X0009882Y0113359D02*
X0010515Y0113359D01*
X0010199Y0113359D02*
X0010199Y0115261D01*
X0010515Y0115261D02*
X0009882Y0115261D01*
X0011355Y0115261D02*
X0012623Y0113359D01*
X0012623Y0115261D01*
X0013565Y0115261D02*
X0014516Y0115261D01*
X0014832Y0114944D01*
X0014832Y0114310D01*
X0014516Y0113993D01*
X0013565Y0113993D01*
X0013565Y0113359D02*
X0013565Y0115261D01*
X0015775Y0115261D02*
X0015775Y0113676D01*
X0016092Y0113359D01*
X0016725Y0113359D01*
X0017042Y0113676D01*
X0017042Y0115261D01*
X0017984Y0115261D02*
X0019252Y0115261D01*
X0018618Y0115261D02*
X0018618Y0113359D01*
X0011355Y0113359D02*
X0011355Y0115261D01*
X0011572Y0064011D02*
X0010938Y0064011D01*
X0010621Y0063694D01*
X0009679Y0064011D02*
X0008411Y0064011D01*
X0008411Y0062110D01*
X0008411Y0063060D02*
X0009045Y0063060D01*
X0007469Y0063060D02*
X0007152Y0062743D01*
X0006201Y0062743D01*
X0006201Y0062110D02*
X0006201Y0064011D01*
X0007152Y0064011D01*
X0007469Y0063694D01*
X0007469Y0063060D01*
X0005259Y0062743D02*
X0005259Y0062426D01*
X0004942Y0062110D01*
X0003991Y0062110D01*
X0003991Y0064011D01*
X0004942Y0064011D01*
X0005259Y0063694D01*
X0005259Y0063377D01*
X0004942Y0063060D01*
X0003991Y0063060D01*
X0004942Y0063060D02*
X0005259Y0062743D01*
X0010621Y0062110D02*
X0011889Y0063377D01*
X0011889Y0063694D01*
X0011572Y0064011D01*
X0012831Y0064011D02*
X0013465Y0064011D01*
X0013148Y0064011D02*
X0013148Y0062110D01*
X0012831Y0062110D02*
X0013465Y0062110D01*
X0014304Y0062110D02*
X0014304Y0064011D01*
X0015572Y0062110D01*
X0015572Y0064011D01*
X0016514Y0064011D02*
X0017782Y0064011D01*
X0017148Y0064011D02*
X0017148Y0062110D01*
X0018724Y0062110D02*
X0019992Y0062110D01*
X0020934Y0062426D02*
X0021251Y0062110D01*
X0021885Y0062110D01*
X0022202Y0062426D01*
X0022202Y0062743D01*
X0021885Y0063060D01*
X0021251Y0063060D01*
X0020934Y0063377D01*
X0020934Y0063694D01*
X0021251Y0064011D01*
X0021885Y0064011D01*
X0022202Y0063694D01*
X0023144Y0064011D02*
X0024411Y0064011D01*
X0023778Y0064011D02*
X0023778Y0062110D01*
X0019992Y0064011D02*
X0018724Y0064011D01*
X0018724Y0062110D01*
X0018724Y0063060D02*
X0019358Y0063060D01*
X0011889Y0062110D02*
X0010621Y0062110D01*
X0010074Y0039906D02*
X0008806Y0039906D01*
X0008806Y0038004D01*
X0008806Y0038955D02*
X0009440Y0038955D01*
X0007864Y0038955D02*
X0007547Y0038638D01*
X0006597Y0038638D01*
X0006597Y0038004D02*
X0006597Y0039906D01*
X0007547Y0039906D01*
X0007864Y0039589D01*
X0007864Y0038955D01*
X0005654Y0038638D02*
X0005654Y0038321D01*
X0005338Y0038004D01*
X0004387Y0038004D01*
X0004387Y0039906D01*
X0005338Y0039906D01*
X0005654Y0039589D01*
X0005654Y0039272D01*
X0005338Y0038955D01*
X0004387Y0038955D01*
X0005338Y0038955D02*
X0005654Y0038638D01*
X0011016Y0038321D02*
X0011333Y0038004D01*
X0011967Y0038004D01*
X0012284Y0038321D01*
X0012284Y0038638D01*
X0011967Y0038955D01*
X0011016Y0038955D01*
X0011016Y0038321D01*
X0011016Y0038955D02*
X0011650Y0039589D01*
X0012284Y0039906D01*
X0013226Y0039906D02*
X0013860Y0039906D01*
X0013543Y0039906D02*
X0013543Y0038004D01*
X0013226Y0038004D02*
X0013860Y0038004D01*
X0014699Y0038004D02*
X0014699Y0039906D01*
X0015967Y0038004D01*
X0015967Y0039906D01*
X0016909Y0039906D02*
X0018177Y0039906D01*
X0017543Y0039906D02*
X0017543Y0038004D01*
X0019119Y0038004D02*
X0020387Y0038004D01*
X0021329Y0038321D02*
X0021646Y0038004D01*
X0022280Y0038004D01*
X0022597Y0038321D01*
X0022597Y0038638D01*
X0022280Y0038955D01*
X0021646Y0038955D01*
X0021329Y0039272D01*
X0021329Y0039589D01*
X0021646Y0039906D01*
X0022280Y0039906D01*
X0022597Y0039589D01*
X0023539Y0039906D02*
X0024807Y0039906D01*
X0024173Y0039906D02*
X0024173Y0038004D01*
X0020387Y0039906D02*
X0019119Y0039906D01*
X0019119Y0038004D01*
X0019119Y0038955D02*
X0019753Y0038955D01*
X0019178Y0025313D02*
X0020445Y0025313D01*
X0020445Y0024996D01*
X0019178Y0023728D01*
X0019178Y0023411D01*
X0020445Y0023411D01*
X0021387Y0023411D02*
X0021387Y0025313D01*
X0022338Y0025313D01*
X0022655Y0024996D01*
X0022655Y0024362D01*
X0022338Y0024045D01*
X0021387Y0024045D01*
X0023597Y0024045D02*
X0024548Y0024045D01*
X0024865Y0024362D01*
X0024865Y0024996D01*
X0024548Y0025313D01*
X0023597Y0025313D01*
X0023597Y0023411D01*
X0024231Y0024045D02*
X0024865Y0023411D01*
X0025807Y0023411D02*
X0027075Y0023411D01*
X0028017Y0023411D02*
X0028017Y0024679D01*
X0028651Y0025313D01*
X0029285Y0024679D01*
X0029285Y0023411D01*
X0030227Y0023411D02*
X0030227Y0025313D01*
X0030861Y0024679D01*
X0031495Y0025313D01*
X0031495Y0023411D01*
X0032437Y0023411D02*
X0032437Y0025313D01*
X0033388Y0025313D01*
X0033705Y0024996D01*
X0033705Y0024362D01*
X0033388Y0024045D01*
X0032437Y0024045D01*
X0034647Y0025313D02*
X0035914Y0025313D01*
X0035281Y0025313D02*
X0035281Y0023411D01*
X0036857Y0023411D02*
X0038124Y0023411D01*
X0039066Y0023728D02*
X0039383Y0023411D01*
X0040017Y0023411D01*
X0040334Y0023728D01*
X0040334Y0024045D01*
X0040017Y0024362D01*
X0039383Y0024362D01*
X0039066Y0024679D01*
X0039066Y0024996D01*
X0039383Y0025313D01*
X0040017Y0025313D01*
X0040334Y0024996D01*
X0041276Y0025313D02*
X0042544Y0025313D01*
X0041910Y0025313D02*
X0041910Y0023411D01*
X0038124Y0025313D02*
X0036857Y0025313D01*
X0036857Y0023411D01*
X0036857Y0024362D02*
X0037490Y0024362D01*
X0029285Y0024362D02*
X0028017Y0024362D01*
X0027075Y0025313D02*
X0025807Y0025313D01*
X0025807Y0023411D01*
X0025807Y0024362D02*
X0026441Y0024362D01*
X0018235Y0024362D02*
X0016968Y0024362D01*
X0016968Y0023411D02*
X0016968Y0025313D01*
X0016026Y0024996D02*
X0014758Y0023728D01*
X0015075Y0023411D01*
X0015709Y0023411D01*
X0016026Y0023728D01*
X0016026Y0024996D01*
X0015709Y0025313D01*
X0015075Y0025313D01*
X0014758Y0024996D01*
X0014758Y0023728D01*
X0013816Y0023728D02*
X0013816Y0024045D01*
X0013499Y0024362D01*
X0012548Y0024362D01*
X0012548Y0023728D01*
X0012865Y0023411D01*
X0013499Y0023411D01*
X0013816Y0023728D01*
X0013182Y0024996D02*
X0012548Y0024362D01*
X0013182Y0024996D02*
X0013816Y0025313D01*
X0018235Y0025313D02*
X0018235Y0023411D01*
X0060188Y0009601D02*
X0060188Y0008967D01*
X0060505Y0008650D01*
X0061139Y0008650D01*
X0061455Y0008967D01*
X0061455Y0009284D01*
X0061139Y0009601D01*
X0060188Y0009601D01*
X0060822Y0010235D01*
X0061455Y0010552D01*
X0062398Y0010235D02*
X0062398Y0008967D01*
X0063665Y0010235D01*
X0063665Y0008967D01*
X0063348Y0008650D01*
X0062715Y0008650D01*
X0062398Y0008967D01*
X0062398Y0010235D02*
X0062715Y0010552D01*
X0063348Y0010552D01*
X0063665Y0010235D01*
X0064608Y0010552D02*
X0064608Y0008650D01*
X0064608Y0009601D02*
X0065875Y0009601D01*
X0065875Y0010552D02*
X0065875Y0008650D01*
X0066817Y0008650D02*
X0068085Y0008650D01*
X0069027Y0008650D02*
X0069661Y0008650D01*
X0069344Y0008650D02*
X0069344Y0010552D01*
X0069027Y0010552D02*
X0069661Y0010552D01*
X0070501Y0010552D02*
X0071768Y0008650D01*
X0071768Y0010552D01*
X0072710Y0010552D02*
X0073978Y0010552D01*
X0073344Y0010552D02*
X0073344Y0008650D01*
X0074920Y0008650D02*
X0076188Y0008650D01*
X0077130Y0008967D02*
X0077447Y0008650D01*
X0078081Y0008650D01*
X0078398Y0008967D01*
X0078398Y0009284D01*
X0078081Y0009601D01*
X0077447Y0009601D01*
X0077130Y0009918D01*
X0077130Y0010235D01*
X0077447Y0010552D01*
X0078081Y0010552D01*
X0078398Y0010235D01*
X0079340Y0010552D02*
X0080608Y0010552D01*
X0079974Y0010552D02*
X0079974Y0008650D01*
X0076188Y0010552D02*
X0074920Y0010552D01*
X0074920Y0008650D01*
X0074920Y0009601D02*
X0075554Y0009601D01*
X0070501Y0008650D02*
X0070501Y0010552D01*
X0068085Y0010552D02*
X0068085Y0010235D01*
X0066817Y0008967D01*
X0066817Y0008650D01*
X0066817Y0010552D02*
X0068085Y0010552D01*
X0200910Y0038750D02*
X0200910Y0040018D01*
X0201544Y0040652D01*
X0202178Y0040018D01*
X0202178Y0038750D01*
X0203120Y0038750D02*
X0203120Y0040652D01*
X0203754Y0040018D01*
X0204388Y0040652D01*
X0204388Y0038750D01*
X0205330Y0038750D02*
X0205330Y0040652D01*
X0206281Y0040652D01*
X0206598Y0040335D01*
X0206598Y0039701D01*
X0206281Y0039384D01*
X0205330Y0039384D01*
X0207540Y0038750D02*
X0208808Y0040018D01*
X0208808Y0040335D01*
X0208491Y0040652D01*
X0207857Y0040652D01*
X0207540Y0040335D01*
X0207540Y0038750D02*
X0208808Y0038750D01*
X0202178Y0039701D02*
X0200910Y0039701D01*
X0449550Y0053568D02*
X0450568Y0052550D01*
X0451585Y0052550D01*
X0452603Y0053568D01*
X0452603Y0058655D01*
X0453620Y0058655D02*
X0451585Y0058655D01*
X0455627Y0057638D02*
X0456645Y0058655D01*
X0458680Y0058655D01*
X0459697Y0057638D01*
X0459697Y0056620D01*
X0458680Y0055603D01*
X0459697Y0054585D01*
X0459697Y0053568D01*
X0458680Y0052550D01*
X0456645Y0052550D01*
X0455627Y0053568D01*
X0457662Y0055603D02*
X0458680Y0055603D01*
X0457662Y0030655D02*
X0455627Y0028620D01*
X0453620Y0030655D02*
X0451585Y0030655D01*
X0452603Y0030655D02*
X0452603Y0025568D01*
X0451585Y0024550D01*
X0450568Y0024550D01*
X0449550Y0025568D01*
X0455627Y0024550D02*
X0459697Y0024550D01*
X0457662Y0024550D02*
X0457662Y0030655D01*
X0019346Y0288588D02*
X0019346Y0290490D01*
X0018712Y0290490D02*
X0019980Y0290490D01*
X0017770Y0290490D02*
X0017770Y0288905D01*
X0017453Y0288588D01*
X0016819Y0288588D01*
X0016502Y0288905D01*
X0016502Y0290490D01*
X0015560Y0290173D02*
X0015560Y0289539D01*
X0015243Y0289222D01*
X0014292Y0289222D01*
X0014292Y0288588D02*
X0014292Y0290490D01*
X0015243Y0290490D01*
X0015560Y0290173D01*
X0013350Y0290490D02*
X0013350Y0288588D01*
X0012083Y0290490D01*
X0012083Y0288588D01*
X0011243Y0288588D02*
X0010609Y0288588D01*
X0010926Y0288588D02*
X0010926Y0290490D01*
X0010609Y0290490D02*
X0011243Y0290490D01*
X0009033Y0290490D02*
X0009033Y0288588D01*
X0008399Y0288588D02*
X0009667Y0288588D01*
X0008399Y0289856D02*
X0009033Y0290490D01*
X0007457Y0290173D02*
X0007140Y0290490D01*
X0006506Y0290490D01*
X0006190Y0290173D01*
X0006190Y0289856D01*
X0006506Y0289539D01*
X0007140Y0289539D01*
X0007457Y0289222D01*
X0007457Y0288905D01*
X0007140Y0288588D01*
X0006506Y0288588D01*
X0006190Y0288905D01*
X0375921Y0302385D02*
X0376872Y0302385D01*
X0377189Y0302702D01*
X0377189Y0303019D01*
X0376872Y0303336D01*
X0375921Y0303336D01*
X0375921Y0304286D02*
X0376872Y0304286D01*
X0377189Y0303970D01*
X0377189Y0303653D01*
X0376872Y0303336D01*
X0378131Y0303019D02*
X0379082Y0303019D01*
X0379398Y0303336D01*
X0379398Y0303970D01*
X0379082Y0304286D01*
X0378131Y0304286D01*
X0378131Y0302385D01*
X0380341Y0302385D02*
X0380341Y0304286D01*
X0381608Y0304286D01*
X0380975Y0303336D02*
X0380341Y0303336D01*
X0382551Y0303336D02*
X0383501Y0303336D01*
X0383818Y0303019D01*
X0383818Y0302702D01*
X0383501Y0302385D01*
X0382867Y0302385D01*
X0382551Y0302702D01*
X0382551Y0303336D01*
X0383184Y0303970D01*
X0383818Y0304286D01*
X0384760Y0303970D02*
X0384760Y0302702D01*
X0385077Y0302385D01*
X0385711Y0302385D01*
X0386028Y0302702D01*
X0386028Y0303970D01*
X0385711Y0304286D01*
X0385077Y0304286D01*
X0384760Y0303970D01*
X0386970Y0304286D02*
X0386970Y0302702D01*
X0387287Y0302385D01*
X0387921Y0302385D01*
X0388238Y0302702D01*
X0388238Y0304286D01*
X0389180Y0304286D02*
X0390448Y0304286D01*
X0389814Y0304286D02*
X0389814Y0302385D01*
X0392024Y0302385D02*
X0392024Y0304286D01*
X0391390Y0304286D02*
X0392658Y0304286D01*
X0393600Y0304286D02*
X0393600Y0302385D01*
X0394868Y0302385D01*
X0395810Y0302702D02*
X0396127Y0302385D01*
X0396761Y0302385D01*
X0397078Y0302702D01*
X0397078Y0303019D01*
X0396761Y0303336D01*
X0396127Y0303336D01*
X0395810Y0303653D01*
X0395810Y0303970D01*
X0396127Y0304286D01*
X0396761Y0304286D01*
X0397078Y0303970D01*
X0398020Y0304286D02*
X0399287Y0304286D01*
X0398654Y0304286D02*
X0398654Y0302385D01*
X0394868Y0304286D02*
X0393600Y0304286D01*
X0393600Y0303336D02*
X0394234Y0303336D01*
X0375921Y0302385D02*
X0375921Y0304286D01*
D14*
X0322501Y0228721D03*
X0355099Y0173879D03*
X0355099Y0118879D03*
X0355099Y0068879D03*
X0058721Y0095099D03*
X0058721Y0030099D03*
X0058721Y0180099D03*
D15*
X0127017Y0212357D02*
X0127384Y0211990D01*
X0128118Y0211990D01*
X0128485Y0212357D01*
X0129227Y0212357D02*
X0129594Y0211990D01*
X0130328Y0211990D01*
X0130695Y0212357D01*
X0130695Y0212724D01*
X0130328Y0213091D01*
X0129961Y0213091D01*
X0130328Y0213091D02*
X0130695Y0213458D01*
X0130695Y0213825D01*
X0130328Y0214192D01*
X0129594Y0214192D01*
X0129227Y0213825D01*
X0128485Y0213825D02*
X0128118Y0214192D01*
X0127384Y0214192D01*
X0127017Y0213825D01*
X0127017Y0212357D01*
X0150145Y0212119D02*
X0150145Y0210651D01*
X0150512Y0210284D01*
X0151246Y0210284D01*
X0151613Y0210651D01*
X0152355Y0211385D02*
X0153823Y0211385D01*
X0153456Y0210284D02*
X0153456Y0212486D01*
X0152355Y0211385D01*
X0151613Y0212119D02*
X0151246Y0212486D01*
X0150512Y0212486D01*
X0150145Y0212119D01*
X0160750Y0233801D02*
X0161484Y0233801D01*
X0161851Y0234168D01*
X0162593Y0234168D02*
X0162960Y0233801D01*
X0163694Y0233801D01*
X0164061Y0234168D01*
X0164061Y0234535D01*
X0163694Y0234902D01*
X0162593Y0234902D01*
X0162593Y0234168D01*
X0162593Y0234902D02*
X0163327Y0235636D01*
X0164061Y0236002D01*
X0161851Y0235636D02*
X0161484Y0236002D01*
X0160750Y0236002D01*
X0160383Y0235636D01*
X0160383Y0234168D01*
X0160750Y0233801D01*
X0152067Y0260227D02*
X0150599Y0260227D01*
X0151333Y0260227D02*
X0151333Y0262429D01*
X0150599Y0261695D01*
X0149857Y0262062D02*
X0149490Y0262429D01*
X0148757Y0262429D01*
X0148390Y0262062D01*
X0148390Y0260594D01*
X0148757Y0260227D01*
X0149490Y0260227D01*
X0149857Y0260594D01*
X0162107Y0264820D02*
X0162474Y0264453D01*
X0163208Y0264453D01*
X0163575Y0264820D01*
X0164317Y0264820D02*
X0164684Y0264453D01*
X0165418Y0264453D01*
X0165785Y0264820D01*
X0165785Y0265554D01*
X0165418Y0265921D01*
X0165051Y0265921D01*
X0164317Y0265554D01*
X0164317Y0266655D01*
X0165785Y0266655D01*
X0163575Y0266288D02*
X0163208Y0266655D01*
X0162474Y0266655D01*
X0162107Y0266288D01*
X0162107Y0264820D01*
X0206094Y0292913D02*
X0206461Y0292546D01*
X0207195Y0292546D01*
X0207562Y0292913D01*
X0208304Y0292913D02*
X0208304Y0293280D01*
X0208671Y0293647D01*
X0209405Y0293647D01*
X0209772Y0293280D01*
X0209772Y0292913D01*
X0209405Y0292546D01*
X0208671Y0292546D01*
X0208304Y0292913D01*
X0208671Y0293647D02*
X0208304Y0294014D01*
X0208304Y0294381D01*
X0208671Y0294748D01*
X0209405Y0294748D01*
X0209772Y0294381D01*
X0209772Y0294014D01*
X0209405Y0293647D01*
X0207562Y0294381D02*
X0207195Y0294748D01*
X0206461Y0294748D01*
X0206094Y0294381D01*
X0206094Y0292913D01*
X0216582Y0297552D02*
X0216582Y0299020D01*
X0216949Y0299387D01*
X0217683Y0299387D01*
X0218050Y0299020D01*
X0218792Y0298653D02*
X0219526Y0299387D01*
X0219526Y0297185D01*
X0218792Y0297185D02*
X0220260Y0297185D01*
X0221002Y0297185D02*
X0222469Y0298653D01*
X0222469Y0299020D01*
X0222102Y0299387D01*
X0221369Y0299387D01*
X0221002Y0299020D01*
X0221002Y0297185D02*
X0222469Y0297185D01*
X0218050Y0297552D02*
X0217683Y0297185D01*
X0216949Y0297185D01*
X0216582Y0297552D01*
X0236581Y0305379D02*
X0236948Y0305012D01*
X0237682Y0305012D01*
X0238048Y0305379D01*
X0238790Y0305012D02*
X0240258Y0305012D01*
X0239524Y0305012D02*
X0239524Y0307214D01*
X0238790Y0306480D01*
X0238048Y0306847D02*
X0237682Y0307214D01*
X0236948Y0307214D01*
X0236581Y0306847D01*
X0236581Y0305379D01*
X0241000Y0305012D02*
X0242468Y0305012D01*
X0241734Y0305012D02*
X0241734Y0307214D01*
X0241000Y0306480D01*
X0256383Y0289005D02*
X0256016Y0288638D01*
X0256016Y0287170D01*
X0256383Y0286803D01*
X0257117Y0286803D01*
X0257484Y0287170D01*
X0258226Y0286803D02*
X0259693Y0286803D01*
X0258960Y0286803D02*
X0258960Y0289005D01*
X0258226Y0288271D01*
X0257484Y0288638D02*
X0257117Y0289005D01*
X0256383Y0289005D01*
X0260435Y0288638D02*
X0260802Y0289005D01*
X0261536Y0289005D01*
X0261903Y0288638D01*
X0260435Y0287170D01*
X0260802Y0286803D01*
X0261536Y0286803D01*
X0261903Y0287170D01*
X0261903Y0288638D01*
X0260435Y0288638D02*
X0260435Y0287170D01*
X0284749Y0309215D02*
X0284749Y0311417D01*
X0285850Y0311417D01*
X0286217Y0311050D01*
X0286217Y0310316D01*
X0285850Y0309949D01*
X0284749Y0309949D01*
X0285483Y0309949D02*
X0286217Y0309215D01*
X0286959Y0309215D02*
X0288426Y0309215D01*
X0287692Y0309215D02*
X0287692Y0311417D01*
X0286959Y0310683D01*
X0302150Y0291392D02*
X0303251Y0291392D01*
X0303618Y0291025D01*
X0303618Y0290291D01*
X0303251Y0289924D01*
X0302150Y0289924D01*
X0302884Y0289924D02*
X0303618Y0289190D01*
X0304360Y0289190D02*
X0305828Y0290658D01*
X0305828Y0291025D01*
X0305461Y0291392D01*
X0304727Y0291392D01*
X0304360Y0291025D01*
X0304360Y0289190D02*
X0305828Y0289190D01*
X0306570Y0289557D02*
X0308038Y0291025D01*
X0308038Y0289557D01*
X0307671Y0289190D01*
X0306937Y0289190D01*
X0306570Y0289557D01*
X0306570Y0291025D01*
X0306937Y0291392D01*
X0307671Y0291392D01*
X0308038Y0291025D01*
X0302150Y0291392D02*
X0302150Y0289190D01*
X0320672Y0273845D02*
X0321773Y0273845D01*
X0322140Y0273478D01*
X0322140Y0272744D01*
X0321773Y0272377D01*
X0320672Y0272377D01*
X0320672Y0271643D02*
X0320672Y0273845D01*
X0321406Y0272377D02*
X0322140Y0271643D01*
X0322882Y0271643D02*
X0324350Y0273111D01*
X0324350Y0273478D01*
X0323983Y0273845D01*
X0323249Y0273845D01*
X0322882Y0273478D01*
X0322882Y0271643D02*
X0324350Y0271643D01*
X0325092Y0271643D02*
X0326560Y0271643D01*
X0325826Y0271643D02*
X0325826Y0273845D01*
X0325092Y0273111D01*
X0335489Y0265874D02*
X0336590Y0265874D01*
X0336957Y0265507D01*
X0336957Y0264773D01*
X0336590Y0264406D01*
X0335489Y0264406D01*
X0335489Y0263673D02*
X0335489Y0265874D01*
X0336223Y0264406D02*
X0336957Y0263673D01*
X0337699Y0263673D02*
X0339166Y0263673D01*
X0338432Y0263673D02*
X0338432Y0265874D01*
X0337699Y0265140D01*
X0339908Y0265140D02*
X0339908Y0265507D01*
X0340275Y0265874D01*
X0341009Y0265874D01*
X0341376Y0265507D01*
X0341376Y0265140D01*
X0341009Y0264773D01*
X0340275Y0264773D01*
X0339908Y0265140D01*
X0340275Y0264773D02*
X0339908Y0264406D01*
X0339908Y0264040D01*
X0340275Y0263673D01*
X0341009Y0263673D01*
X0341376Y0264040D01*
X0341376Y0264406D01*
X0341009Y0264773D01*
X0319192Y0252481D02*
X0318825Y0252848D01*
X0318091Y0252848D01*
X0317724Y0252481D01*
X0317724Y0252114D01*
X0318091Y0251747D01*
X0319192Y0251747D01*
X0319192Y0251014D02*
X0319192Y0252481D01*
X0319192Y0251014D02*
X0318825Y0250647D01*
X0318091Y0250647D01*
X0317724Y0251014D01*
X0316982Y0250647D02*
X0315514Y0250647D01*
X0316248Y0250647D02*
X0316248Y0252848D01*
X0315514Y0252114D01*
X0314772Y0251747D02*
X0314405Y0251380D01*
X0313305Y0251380D01*
X0313305Y0250647D02*
X0313305Y0252848D01*
X0314405Y0252848D01*
X0314772Y0252481D01*
X0314772Y0251747D01*
X0314039Y0251380D02*
X0314772Y0250647D01*
X0307364Y0268547D02*
X0305896Y0268547D01*
X0307364Y0270015D01*
X0307364Y0270382D01*
X0306997Y0270749D01*
X0306263Y0270749D01*
X0305896Y0270382D01*
X0305154Y0270382D02*
X0304787Y0270749D01*
X0304053Y0270749D01*
X0303686Y0270382D01*
X0302944Y0270382D02*
X0302944Y0269648D01*
X0302577Y0269281D01*
X0301476Y0269281D01*
X0301476Y0268547D02*
X0301476Y0270749D01*
X0302577Y0270749D01*
X0302944Y0270382D01*
X0302210Y0269281D02*
X0302944Y0268547D01*
X0303686Y0268547D02*
X0305154Y0270015D01*
X0305154Y0270382D01*
X0305154Y0268547D02*
X0303686Y0268547D01*
X0355975Y0303377D02*
X0356342Y0303010D01*
X0357076Y0303010D01*
X0357443Y0303377D01*
X0358185Y0303010D02*
X0359653Y0303010D01*
X0360395Y0302643D02*
X0361863Y0302643D01*
X0362605Y0303010D02*
X0362605Y0305212D01*
X0363706Y0305212D01*
X0364073Y0304845D01*
X0364073Y0304111D01*
X0363706Y0303744D01*
X0362605Y0303744D01*
X0363339Y0303744D02*
X0364073Y0303010D01*
X0364815Y0303010D02*
X0366283Y0303010D01*
X0367025Y0303377D02*
X0367392Y0303010D01*
X0368126Y0303010D01*
X0368493Y0303377D01*
X0368493Y0303744D01*
X0368126Y0304111D01*
X0367392Y0304111D01*
X0367025Y0304478D01*
X0367025Y0304845D01*
X0367392Y0305212D01*
X0368126Y0305212D01*
X0368493Y0304845D01*
X0366283Y0305212D02*
X0364815Y0305212D01*
X0364815Y0303010D01*
X0364815Y0304111D02*
X0365549Y0304111D01*
X0358185Y0305212D02*
X0358185Y0303010D01*
X0357443Y0304845D02*
X0357076Y0305212D01*
X0356342Y0305212D01*
X0355975Y0304845D01*
X0355975Y0303377D01*
X0367002Y0248657D02*
X0368103Y0248657D01*
X0368470Y0248290D01*
X0368470Y0247556D01*
X0368103Y0247189D01*
X0367002Y0247189D01*
X0367736Y0247189D02*
X0368470Y0246455D01*
X0369212Y0246455D02*
X0370680Y0246455D01*
X0369946Y0246455D02*
X0369946Y0248657D01*
X0369212Y0247923D01*
X0371422Y0247556D02*
X0372156Y0247923D01*
X0372523Y0247923D01*
X0372890Y0247556D01*
X0372890Y0246822D01*
X0372523Y0246455D01*
X0371789Y0246455D01*
X0371422Y0246822D01*
X0371422Y0247556D02*
X0371422Y0248657D01*
X0372890Y0248657D01*
X0367002Y0248657D02*
X0367002Y0246455D01*
X0321718Y0226110D02*
X0320250Y0223908D01*
X0319508Y0224275D02*
X0319508Y0226110D01*
X0320250Y0226110D02*
X0321718Y0223908D01*
X0319508Y0224275D02*
X0319141Y0223908D01*
X0318407Y0223908D01*
X0318040Y0224275D01*
X0318040Y0226110D01*
X0317298Y0226110D02*
X0317298Y0223908D01*
X0315830Y0223908D02*
X0315830Y0226110D01*
X0316564Y0225376D01*
X0317298Y0226110D01*
X0315088Y0223908D02*
X0313620Y0223908D01*
X0313620Y0226110D01*
X0312878Y0225743D02*
X0312511Y0226110D01*
X0311777Y0226110D01*
X0311410Y0225743D01*
X0311410Y0224275D01*
X0311777Y0223908D01*
X0312511Y0223908D01*
X0312878Y0224275D01*
X0310668Y0224275D02*
X0310301Y0223908D01*
X0309567Y0223908D01*
X0309200Y0224275D01*
X0309567Y0225009D02*
X0309200Y0225376D01*
X0309200Y0225743D01*
X0309567Y0226110D01*
X0310301Y0226110D01*
X0310668Y0225743D01*
X0310301Y0225009D02*
X0310668Y0224642D01*
X0310668Y0224275D01*
X0310301Y0225009D02*
X0309567Y0225009D01*
X0283472Y0224929D02*
X0283472Y0224562D01*
X0282004Y0223095D01*
X0282004Y0222728D01*
X0281262Y0222728D02*
X0279794Y0222728D01*
X0280528Y0222728D02*
X0280528Y0224929D01*
X0279794Y0224195D01*
X0279052Y0223829D02*
X0278685Y0223462D01*
X0277584Y0223462D01*
X0278318Y0223462D02*
X0279052Y0222728D01*
X0279052Y0223829D02*
X0279052Y0224562D01*
X0278685Y0224929D01*
X0277584Y0224929D01*
X0277584Y0222728D01*
X0282004Y0224929D02*
X0283472Y0224929D01*
X0270664Y0208382D02*
X0269196Y0208382D01*
X0269196Y0207281D01*
X0269930Y0207648D01*
X0270297Y0207648D01*
X0270664Y0207281D01*
X0270664Y0206547D01*
X0270297Y0206180D01*
X0269563Y0206180D01*
X0269196Y0206547D01*
X0268455Y0206180D02*
X0267721Y0206914D01*
X0268088Y0206914D02*
X0266987Y0206914D01*
X0266987Y0206180D02*
X0266987Y0208382D01*
X0268088Y0208382D01*
X0268455Y0208015D01*
X0268455Y0207281D01*
X0268088Y0206914D01*
X0234855Y0216759D02*
X0234488Y0216392D01*
X0233754Y0216392D01*
X0233387Y0216759D01*
X0232645Y0216392D02*
X0231911Y0217126D01*
X0232278Y0217126D02*
X0231177Y0217126D01*
X0231177Y0216392D02*
X0231177Y0218594D01*
X0232278Y0218594D01*
X0232645Y0218227D01*
X0232645Y0217493D01*
X0232278Y0217126D01*
X0233387Y0218227D02*
X0233754Y0218594D01*
X0234488Y0218594D01*
X0234855Y0218227D01*
X0234855Y0217860D01*
X0234488Y0217493D01*
X0234855Y0217126D01*
X0234855Y0216759D01*
X0234488Y0217493D02*
X0234121Y0217493D01*
X0205975Y0208192D02*
X0204507Y0208192D01*
X0205608Y0209293D01*
X0205608Y0207091D01*
X0203765Y0207091D02*
X0203031Y0207825D01*
X0203398Y0207825D02*
X0202297Y0207825D01*
X0202297Y0207091D02*
X0202297Y0209293D01*
X0203398Y0209293D01*
X0203765Y0208926D01*
X0203765Y0208192D01*
X0203398Y0207825D01*
X0265312Y0174564D02*
X0266413Y0174564D01*
X0266780Y0174197D01*
X0266780Y0173463D01*
X0266413Y0173096D01*
X0265312Y0173096D01*
X0266046Y0173096D02*
X0266780Y0172362D01*
X0267522Y0172729D02*
X0267888Y0172362D01*
X0268622Y0172362D01*
X0268989Y0172729D01*
X0268989Y0173096D01*
X0268622Y0173463D01*
X0267522Y0173463D01*
X0267522Y0172729D01*
X0267522Y0173463D02*
X0268255Y0174197D01*
X0268989Y0174564D01*
X0265312Y0174564D02*
X0265312Y0172362D01*
X0226983Y0158586D02*
X0226983Y0158219D01*
X0226616Y0157852D01*
X0225883Y0157852D01*
X0225516Y0158219D01*
X0225516Y0158586D01*
X0225883Y0158953D01*
X0226616Y0158953D01*
X0226983Y0158586D01*
X0226616Y0157852D02*
X0226983Y0157485D01*
X0226983Y0157118D01*
X0226616Y0156751D01*
X0225883Y0156751D01*
X0225516Y0157118D01*
X0225516Y0157485D01*
X0225883Y0157852D01*
X0224774Y0157852D02*
X0224407Y0157485D01*
X0223306Y0157485D01*
X0224040Y0157485D02*
X0224774Y0156751D01*
X0224774Y0157852D02*
X0224774Y0158586D01*
X0224407Y0158953D01*
X0223306Y0158953D01*
X0223306Y0156751D01*
X0215631Y0156819D02*
X0215264Y0157186D01*
X0214163Y0157186D01*
X0214163Y0156452D01*
X0214530Y0156085D01*
X0215264Y0156085D01*
X0215631Y0156452D01*
X0215631Y0156819D01*
X0214897Y0157920D02*
X0214163Y0157186D01*
X0214897Y0157920D02*
X0215631Y0158287D01*
X0212687Y0158287D02*
X0212687Y0156085D01*
X0211953Y0156085D02*
X0213421Y0156085D01*
X0211953Y0157553D02*
X0212687Y0158287D01*
X0211211Y0157920D02*
X0210844Y0158287D01*
X0210110Y0158287D01*
X0209743Y0157920D01*
X0209743Y0156452D01*
X0210110Y0156085D01*
X0210844Y0156085D01*
X0211211Y0156452D01*
X0231981Y0139506D02*
X0233082Y0139506D01*
X0233449Y0139139D01*
X0233449Y0138406D01*
X0233082Y0138039D01*
X0231981Y0138039D01*
X0232715Y0138039D02*
X0233449Y0137305D01*
X0234191Y0137305D02*
X0235659Y0137305D01*
X0234925Y0137305D02*
X0234925Y0139506D01*
X0234191Y0138773D01*
X0236401Y0139139D02*
X0236768Y0139506D01*
X0237501Y0139506D01*
X0237868Y0139139D01*
X0236401Y0137672D01*
X0236768Y0137305D01*
X0237501Y0137305D01*
X0237868Y0137672D01*
X0237868Y0139139D01*
X0236401Y0139139D02*
X0236401Y0137672D01*
X0231981Y0137305D02*
X0231981Y0139506D01*
X0239203Y0124798D02*
X0240304Y0124798D01*
X0240671Y0124431D01*
X0240671Y0123697D01*
X0240304Y0123330D01*
X0239203Y0123330D01*
X0239203Y0122596D02*
X0239203Y0124798D01*
X0239937Y0123330D02*
X0240671Y0122596D01*
X0241413Y0122963D02*
X0241780Y0122596D01*
X0242514Y0122596D01*
X0242881Y0122963D01*
X0242881Y0124431D01*
X0242514Y0124798D01*
X0241780Y0124798D01*
X0241413Y0124431D01*
X0241413Y0124064D01*
X0241780Y0123697D01*
X0242881Y0123697D01*
X0243061Y0114923D02*
X0243061Y0112721D01*
X0242327Y0112721D02*
X0243795Y0112721D01*
X0242327Y0114189D02*
X0243061Y0114923D01*
X0240851Y0114923D02*
X0240851Y0112721D01*
X0240117Y0112721D02*
X0241585Y0112721D01*
X0240117Y0114189D02*
X0240851Y0114923D01*
X0239375Y0114556D02*
X0239375Y0113822D01*
X0239009Y0113455D01*
X0237908Y0113455D01*
X0238642Y0113455D02*
X0239375Y0112721D01*
X0237908Y0112721D02*
X0237908Y0114923D01*
X0239009Y0114923D01*
X0239375Y0114556D01*
X0230634Y0094843D02*
X0230634Y0094476D01*
X0229166Y0093008D01*
X0229166Y0092641D01*
X0228424Y0092641D02*
X0227690Y0093375D01*
X0228057Y0093375D02*
X0226956Y0093375D01*
X0226956Y0092641D02*
X0226956Y0094843D01*
X0228057Y0094843D01*
X0228424Y0094476D01*
X0228424Y0093742D01*
X0228057Y0093375D01*
X0229166Y0094843D02*
X0230634Y0094843D01*
X0206639Y0089146D02*
X0205171Y0087679D01*
X0205538Y0087312D01*
X0206272Y0087312D01*
X0206639Y0087679D01*
X0206639Y0089146D01*
X0206272Y0089513D01*
X0205538Y0089513D01*
X0205171Y0089146D01*
X0205171Y0087679D01*
X0204429Y0087312D02*
X0202961Y0087312D01*
X0204429Y0088779D01*
X0204429Y0089146D01*
X0204062Y0089513D01*
X0203328Y0089513D01*
X0202961Y0089146D01*
X0202219Y0089146D02*
X0201852Y0089513D01*
X0201118Y0089513D01*
X0200751Y0089146D01*
X0200751Y0087679D01*
X0201118Y0087312D01*
X0201852Y0087312D01*
X0202219Y0087679D01*
X0200291Y0099000D02*
X0199557Y0099000D01*
X0199190Y0099367D01*
X0199190Y0100101D02*
X0199924Y0100468D01*
X0200291Y0100468D01*
X0200658Y0100101D01*
X0200658Y0099367D01*
X0200291Y0099000D01*
X0199190Y0100101D02*
X0199190Y0101202D01*
X0200658Y0101202D01*
X0197714Y0101202D02*
X0197714Y0099000D01*
X0196980Y0099000D02*
X0198448Y0099000D01*
X0196980Y0100468D02*
X0197714Y0101202D01*
X0196238Y0100835D02*
X0195871Y0101202D01*
X0195137Y0101202D01*
X0194770Y0100835D01*
X0194770Y0099367D01*
X0195137Y0099000D01*
X0195871Y0099000D01*
X0196238Y0099367D01*
X0171455Y0088785D02*
X0171088Y0089152D01*
X0170354Y0089152D01*
X0169987Y0088785D01*
X0169987Y0088418D01*
X0170354Y0088051D01*
X0171455Y0088051D01*
X0171455Y0087317D02*
X0171455Y0088785D01*
X0171455Y0087317D02*
X0171088Y0086950D01*
X0170354Y0086950D01*
X0169987Y0087317D01*
X0169245Y0086950D02*
X0167777Y0086950D01*
X0168511Y0086950D02*
X0168511Y0089152D01*
X0167777Y0088418D01*
X0167035Y0088785D02*
X0166668Y0089152D01*
X0165934Y0089152D01*
X0165567Y0088785D01*
X0165567Y0087317D01*
X0165934Y0086950D01*
X0166668Y0086950D01*
X0167035Y0087317D01*
X0148714Y0106700D02*
X0149081Y0107067D01*
X0149081Y0107434D01*
X0148714Y0107801D01*
X0147613Y0107801D01*
X0147613Y0107067D01*
X0147980Y0106700D01*
X0148714Y0106700D01*
X0147613Y0107801D02*
X0148347Y0108535D01*
X0149081Y0108902D01*
X0146137Y0108902D02*
X0146137Y0106700D01*
X0145403Y0106700D02*
X0146871Y0106700D01*
X0145403Y0108168D02*
X0146137Y0108902D01*
X0144661Y0108535D02*
X0144661Y0107801D01*
X0144294Y0107434D01*
X0143193Y0107434D01*
X0143193Y0106700D02*
X0143193Y0108902D01*
X0144294Y0108902D01*
X0144661Y0108535D01*
X0143927Y0107434D02*
X0144661Y0106700D01*
X0160137Y0129000D02*
X0160871Y0129000D01*
X0161238Y0129367D01*
X0161980Y0129000D02*
X0163448Y0129000D01*
X0162714Y0129000D02*
X0162714Y0131202D01*
X0161980Y0130468D01*
X0161238Y0130835D02*
X0160871Y0131202D01*
X0160137Y0131202D01*
X0159770Y0130835D01*
X0159770Y0129367D01*
X0160137Y0129000D01*
X0164190Y0130101D02*
X0165291Y0131202D01*
X0165291Y0129000D01*
X0165658Y0130101D02*
X0164190Y0130101D01*
X0150102Y0165417D02*
X0149368Y0165417D01*
X0149001Y0165783D01*
X0148259Y0165417D02*
X0146792Y0165417D01*
X0147525Y0165417D02*
X0147525Y0167618D01*
X0146792Y0166884D01*
X0146050Y0167251D02*
X0145683Y0167618D01*
X0144949Y0167618D01*
X0144582Y0167251D01*
X0144582Y0165783D01*
X0144949Y0165417D01*
X0145683Y0165417D01*
X0146050Y0165783D01*
X0149001Y0167251D02*
X0149368Y0167618D01*
X0150102Y0167618D01*
X0150469Y0167251D01*
X0150469Y0166884D01*
X0150102Y0166517D01*
X0150469Y0166150D01*
X0150469Y0165783D01*
X0150102Y0165417D01*
X0150102Y0166517D02*
X0149735Y0166517D01*
X0075428Y0117266D02*
X0073960Y0115064D01*
X0073218Y0115431D02*
X0073218Y0117266D01*
X0073960Y0117266D02*
X0075428Y0115064D01*
X0073218Y0115431D02*
X0072851Y0115064D01*
X0072117Y0115064D01*
X0071750Y0115431D01*
X0071750Y0117266D01*
X0071008Y0117266D02*
X0071008Y0115064D01*
X0069540Y0115064D02*
X0069540Y0117266D01*
X0070274Y0116532D01*
X0071008Y0117266D01*
X0068798Y0117266D02*
X0067330Y0117266D01*
X0067330Y0115064D01*
X0068798Y0115064D01*
X0068064Y0116165D02*
X0067330Y0116165D01*
X0066588Y0116899D02*
X0066221Y0117266D01*
X0065120Y0117266D01*
X0065120Y0115064D01*
X0066221Y0115064D01*
X0066588Y0115431D01*
X0066588Y0116899D01*
X0064378Y0116899D02*
X0064012Y0117266D01*
X0063278Y0117266D01*
X0062911Y0116899D01*
X0062171Y0117266D02*
X0061437Y0117266D01*
X0061804Y0117266D02*
X0061804Y0115064D01*
X0061437Y0115064D02*
X0062171Y0115064D01*
X0062911Y0115064D02*
X0064378Y0116532D01*
X0064378Y0116899D01*
X0064378Y0115064D02*
X0062911Y0115064D01*
X0060695Y0115064D02*
X0060695Y0116532D01*
X0059961Y0117266D01*
X0059227Y0116532D01*
X0059227Y0115064D01*
X0059227Y0116165D02*
X0060695Y0116165D01*
X0061249Y0052453D02*
X0061983Y0052453D01*
X0061616Y0052453D02*
X0061616Y0050251D01*
X0061249Y0050251D02*
X0061983Y0050251D01*
X0062722Y0050251D02*
X0063823Y0050251D01*
X0064190Y0050618D01*
X0064190Y0052086D01*
X0063823Y0052453D01*
X0062722Y0052453D01*
X0062722Y0050251D01*
X0064932Y0050251D02*
X0066400Y0050251D01*
X0067142Y0050251D02*
X0067142Y0052453D01*
X0067876Y0051719D01*
X0068610Y0052453D01*
X0068610Y0050251D01*
X0069352Y0050618D02*
X0069719Y0050251D01*
X0070453Y0050251D01*
X0070820Y0050618D01*
X0070820Y0052453D01*
X0071562Y0052453D02*
X0073030Y0050251D01*
X0071562Y0050251D02*
X0073030Y0052453D01*
X0069352Y0052453D02*
X0069352Y0050618D01*
X0066400Y0052453D02*
X0064932Y0052453D01*
X0064932Y0050251D01*
X0064932Y0051352D02*
X0065666Y0051352D01*
X0060507Y0050985D02*
X0060507Y0050618D01*
X0060140Y0050251D01*
X0059406Y0050251D01*
X0059039Y0050618D01*
X0058297Y0050251D02*
X0058297Y0051719D01*
X0057563Y0052453D01*
X0056829Y0051719D01*
X0056829Y0050251D01*
X0056829Y0051352D02*
X0058297Y0051352D01*
X0059039Y0052086D02*
X0059406Y0052453D01*
X0060140Y0052453D01*
X0060507Y0052086D01*
X0060507Y0051719D01*
X0060140Y0051352D01*
X0060507Y0050985D01*
X0060140Y0051352D02*
X0059773Y0051352D01*
X0108922Y0039498D02*
X0108922Y0037296D01*
X0108922Y0038030D02*
X0110023Y0038030D01*
X0110390Y0038397D01*
X0110390Y0039131D01*
X0110023Y0039498D01*
X0108922Y0039498D01*
X0109656Y0038030D02*
X0110390Y0037296D01*
X0111132Y0037296D02*
X0112600Y0038764D01*
X0112600Y0039131D01*
X0112233Y0039498D01*
X0111499Y0039498D01*
X0111132Y0039131D01*
X0111132Y0037296D02*
X0112600Y0037296D01*
X0113342Y0037663D02*
X0113709Y0037296D01*
X0114443Y0037296D01*
X0114810Y0037663D01*
X0114810Y0038030D01*
X0114443Y0038397D01*
X0114076Y0038397D01*
X0114443Y0038397D02*
X0114810Y0038764D01*
X0114810Y0039131D01*
X0114443Y0039498D01*
X0113709Y0039498D01*
X0113342Y0039131D01*
X0122921Y0045461D02*
X0122921Y0047663D01*
X0124022Y0047663D01*
X0124389Y0047296D01*
X0124389Y0046562D01*
X0124022Y0046195D01*
X0122921Y0046195D01*
X0123655Y0046195D02*
X0124389Y0045461D01*
X0125131Y0045461D02*
X0126598Y0046929D01*
X0126598Y0047296D01*
X0126232Y0047663D01*
X0125498Y0047663D01*
X0125131Y0047296D01*
X0125131Y0045461D02*
X0126598Y0045461D01*
X0127340Y0046562D02*
X0128808Y0046562D01*
X0128441Y0047663D02*
X0127340Y0046562D01*
X0128441Y0045461D02*
X0128441Y0047663D01*
X0157662Y0039491D02*
X0157662Y0038023D01*
X0158029Y0037656D01*
X0158763Y0037656D01*
X0159130Y0038023D01*
X0159872Y0037656D02*
X0161339Y0039124D01*
X0161339Y0039491D01*
X0160972Y0039858D01*
X0160239Y0039858D01*
X0159872Y0039491D01*
X0159130Y0039491D02*
X0158763Y0039858D01*
X0158029Y0039858D01*
X0157662Y0039491D01*
X0159872Y0037656D02*
X0161339Y0037656D01*
X0162081Y0037656D02*
X0163549Y0039124D01*
X0163549Y0039491D01*
X0163182Y0039858D01*
X0162448Y0039858D01*
X0162081Y0039491D01*
X0162081Y0037656D02*
X0163549Y0037656D01*
X0150940Y0028033D02*
X0150940Y0027666D01*
X0150573Y0027299D01*
X0150940Y0026932D01*
X0150940Y0026565D01*
X0150573Y0026198D01*
X0149839Y0026198D01*
X0149472Y0026565D01*
X0148730Y0026198D02*
X0147262Y0026198D01*
X0148730Y0027666D01*
X0148730Y0028033D01*
X0148363Y0028400D01*
X0147629Y0028400D01*
X0147262Y0028033D01*
X0146520Y0028033D02*
X0146153Y0028400D01*
X0145419Y0028400D01*
X0145052Y0028033D01*
X0145052Y0026565D01*
X0145419Y0026198D01*
X0146153Y0026198D01*
X0146520Y0026565D01*
X0149472Y0028033D02*
X0149839Y0028400D01*
X0150573Y0028400D01*
X0150940Y0028033D01*
X0150573Y0027299D02*
X0150206Y0027299D01*
X0151613Y0018978D02*
X0152714Y0018978D01*
X0153081Y0018611D01*
X0153081Y0017877D01*
X0152714Y0017510D01*
X0151613Y0017510D01*
X0151613Y0016776D02*
X0151613Y0018978D01*
X0152347Y0017510D02*
X0153081Y0016776D01*
X0153823Y0016776D02*
X0155291Y0018244D01*
X0155291Y0018611D01*
X0154924Y0018978D01*
X0154190Y0018978D01*
X0153823Y0018611D01*
X0153823Y0016776D02*
X0155291Y0016776D01*
X0156033Y0017143D02*
X0156400Y0016776D01*
X0157134Y0016776D01*
X0157501Y0017143D01*
X0157501Y0017877D01*
X0157134Y0018244D01*
X0156767Y0018244D01*
X0156033Y0017877D01*
X0156033Y0018978D01*
X0157501Y0018978D01*
X0198498Y0028900D02*
X0198498Y0030001D01*
X0198865Y0030368D01*
X0199599Y0030368D01*
X0199966Y0030001D01*
X0199966Y0028900D01*
X0199966Y0029634D02*
X0200700Y0030368D01*
X0200333Y0031110D02*
X0200700Y0031477D01*
X0200700Y0032211D01*
X0200333Y0032578D01*
X0199966Y0032578D01*
X0199599Y0032211D01*
X0199599Y0031844D01*
X0199599Y0032211D02*
X0199232Y0032578D01*
X0198865Y0032578D01*
X0198498Y0032211D01*
X0198498Y0031477D01*
X0198865Y0031110D01*
X0198865Y0033320D02*
X0198498Y0033687D01*
X0198498Y0034421D01*
X0198865Y0034788D01*
X0200333Y0033320D01*
X0200700Y0033687D01*
X0200700Y0034421D01*
X0200333Y0034788D01*
X0198865Y0034788D01*
X0198865Y0033320D02*
X0200333Y0033320D01*
X0200700Y0028900D02*
X0198498Y0028900D01*
X0222270Y0039000D02*
X0222270Y0041202D01*
X0223371Y0041202D01*
X0223738Y0040835D01*
X0223738Y0040101D01*
X0223371Y0039734D01*
X0222270Y0039734D01*
X0223004Y0039734D02*
X0223738Y0039000D01*
X0224480Y0039000D02*
X0225948Y0039000D01*
X0225214Y0039000D02*
X0225214Y0041202D01*
X0224480Y0040468D01*
X0226690Y0040835D02*
X0227057Y0041202D01*
X0227791Y0041202D01*
X0228158Y0040835D01*
X0228158Y0040468D01*
X0226690Y0039000D01*
X0228158Y0039000D01*
X0251398Y0052270D02*
X0251398Y0053371D01*
X0251765Y0053738D01*
X0252499Y0053738D01*
X0252866Y0053371D01*
X0252866Y0052270D01*
X0253600Y0052270D02*
X0251398Y0052270D01*
X0252866Y0053004D02*
X0253600Y0053738D01*
X0253600Y0054480D02*
X0253600Y0055948D01*
X0253600Y0055214D02*
X0251398Y0055214D01*
X0252132Y0054480D01*
X0251765Y0056690D02*
X0251398Y0057057D01*
X0251398Y0057791D01*
X0251765Y0058158D01*
X0252132Y0058158D01*
X0252499Y0057791D01*
X0252866Y0058158D01*
X0253233Y0058158D01*
X0253600Y0057791D01*
X0253600Y0057057D01*
X0253233Y0056690D01*
X0252499Y0057424D02*
X0252499Y0057791D01*
X0178158Y0055101D02*
X0176690Y0055101D01*
X0177791Y0056202D01*
X0177791Y0054000D01*
X0175948Y0054000D02*
X0174480Y0054000D01*
X0175214Y0054000D02*
X0175214Y0056202D01*
X0174480Y0055468D01*
X0173738Y0055835D02*
X0173738Y0055101D01*
X0173371Y0054734D01*
X0172270Y0054734D01*
X0172270Y0054000D02*
X0172270Y0056202D01*
X0173371Y0056202D01*
X0173738Y0055835D01*
X0173004Y0054734D02*
X0173738Y0054000D01*
X0110911Y0017270D02*
X0110911Y0015069D01*
X0110177Y0015069D02*
X0111645Y0015069D01*
X0110177Y0016536D02*
X0110911Y0017270D01*
X0109435Y0016903D02*
X0109068Y0017270D01*
X0108334Y0017270D01*
X0107967Y0016903D01*
X0107225Y0016903D02*
X0106858Y0017270D01*
X0106124Y0017270D01*
X0105757Y0016903D01*
X0105757Y0015435D01*
X0106124Y0015069D01*
X0106858Y0015069D01*
X0107225Y0015435D01*
X0107967Y0015069D02*
X0109435Y0016536D01*
X0109435Y0016903D01*
X0109435Y0015069D02*
X0107967Y0015069D01*
X0255258Y0137667D02*
X0255625Y0137300D01*
X0256359Y0137300D01*
X0256726Y0137667D01*
X0257468Y0137300D02*
X0258936Y0137300D01*
X0258202Y0137300D02*
X0258202Y0139501D01*
X0257468Y0138767D01*
X0256726Y0139134D02*
X0256359Y0139501D01*
X0255625Y0139501D01*
X0255258Y0139134D01*
X0255258Y0137667D01*
X0259678Y0137667D02*
X0259678Y0138034D01*
X0260045Y0138401D01*
X0260779Y0138401D01*
X0261146Y0138034D01*
X0261146Y0137667D01*
X0260779Y0137300D01*
X0260045Y0137300D01*
X0259678Y0137667D01*
X0260045Y0138401D02*
X0259678Y0138767D01*
X0259678Y0139134D01*
X0260045Y0139501D01*
X0260779Y0139501D01*
X0261146Y0139134D01*
X0261146Y0138767D01*
X0260779Y0138401D01*
X0300146Y0145336D02*
X0300513Y0144969D01*
X0301247Y0144969D01*
X0301614Y0145336D01*
X0302356Y0144969D02*
X0303824Y0144969D01*
X0303090Y0144969D02*
X0303090Y0147171D01*
X0302356Y0146437D01*
X0301614Y0146804D02*
X0301247Y0147171D01*
X0300513Y0147171D01*
X0300146Y0146804D01*
X0300146Y0145336D01*
X0304566Y0145336D02*
X0306034Y0146804D01*
X0306034Y0147171D01*
X0304566Y0147171D01*
X0304566Y0145336D02*
X0304566Y0144969D01*
X0308735Y0161977D02*
X0308735Y0164179D01*
X0309836Y0164179D01*
X0310203Y0163812D01*
X0310203Y0163078D01*
X0309836Y0162711D01*
X0308735Y0162711D01*
X0309469Y0162711D02*
X0310203Y0161977D01*
X0310945Y0161977D02*
X0312412Y0163445D01*
X0312412Y0163812D01*
X0312046Y0164179D01*
X0311312Y0164179D01*
X0310945Y0163812D01*
X0310945Y0161977D02*
X0312412Y0161977D01*
X0353893Y0176507D02*
X0353893Y0177975D01*
X0354627Y0178709D01*
X0355361Y0177975D01*
X0355361Y0176507D01*
X0356103Y0176874D02*
X0356470Y0176507D01*
X0357204Y0176507D01*
X0357571Y0176874D01*
X0357571Y0178342D01*
X0357204Y0178709D01*
X0356470Y0178709D01*
X0356103Y0178342D01*
X0356103Y0176874D01*
X0355361Y0177608D02*
X0353893Y0177608D01*
X0358313Y0177975D02*
X0359047Y0178709D01*
X0359047Y0176507D01*
X0358313Y0176507D02*
X0359781Y0176507D01*
X0360523Y0176507D02*
X0360523Y0178709D01*
X0361257Y0177975D01*
X0361991Y0178709D01*
X0361991Y0176507D01*
X0362733Y0176874D02*
X0363100Y0176507D01*
X0363834Y0176507D01*
X0364201Y0176874D01*
X0364201Y0178709D01*
X0364943Y0178709D02*
X0366411Y0176507D01*
X0364943Y0176507D02*
X0366411Y0178709D01*
X0362733Y0178709D02*
X0362733Y0176874D01*
X0362525Y0124437D02*
X0362525Y0122602D01*
X0362892Y0122235D01*
X0363626Y0122235D01*
X0363993Y0122602D01*
X0363993Y0124437D01*
X0364735Y0124437D02*
X0366202Y0122235D01*
X0364735Y0122235D02*
X0366202Y0124437D01*
X0361783Y0124437D02*
X0361783Y0122235D01*
X0360315Y0122235D02*
X0360315Y0124437D01*
X0361049Y0123703D01*
X0361783Y0124437D01*
X0359573Y0124070D02*
X0359573Y0123703D01*
X0358105Y0122235D01*
X0359573Y0122235D01*
X0359573Y0124070D02*
X0359206Y0124437D01*
X0358472Y0124437D01*
X0358105Y0124070D01*
X0357363Y0124070D02*
X0356996Y0124437D01*
X0356262Y0124437D01*
X0355895Y0124070D01*
X0355895Y0122602D01*
X0356262Y0122235D01*
X0356996Y0122235D01*
X0357363Y0122602D01*
X0357363Y0124070D01*
X0355153Y0123703D02*
X0355153Y0122235D01*
X0355153Y0123336D02*
X0353685Y0123336D01*
X0353685Y0123703D02*
X0354419Y0124437D01*
X0355153Y0123703D01*
X0353685Y0123703D02*
X0353685Y0122235D01*
X0356084Y0074125D02*
X0356818Y0073391D01*
X0356818Y0071923D01*
X0357559Y0072290D02*
X0357926Y0071923D01*
X0358660Y0071923D01*
X0359027Y0072290D01*
X0359027Y0073758D01*
X0358660Y0074125D01*
X0357926Y0074125D01*
X0357559Y0073758D01*
X0357559Y0072290D01*
X0356818Y0073024D02*
X0355350Y0073024D01*
X0355350Y0073391D02*
X0355350Y0071923D01*
X0355350Y0073391D02*
X0356084Y0074125D01*
X0359769Y0073758D02*
X0360136Y0074125D01*
X0360870Y0074125D01*
X0361237Y0073758D01*
X0361237Y0073391D01*
X0360870Y0073024D01*
X0361237Y0072657D01*
X0361237Y0072290D01*
X0360870Y0071923D01*
X0360136Y0071923D01*
X0359769Y0072290D01*
X0360503Y0073024D02*
X0360870Y0073024D01*
X0361979Y0071923D02*
X0361979Y0074125D01*
X0362713Y0073391D01*
X0363447Y0074125D01*
X0363447Y0071923D01*
X0364189Y0072290D02*
X0364556Y0071923D01*
X0365290Y0071923D01*
X0365657Y0072290D01*
X0365657Y0074125D01*
X0366399Y0074125D02*
X0367867Y0071923D01*
X0366399Y0071923D02*
X0367867Y0074125D01*
X0364189Y0074125D02*
X0364189Y0072290D01*
X0481147Y0019046D02*
X0482248Y0019046D01*
X0482615Y0018679D01*
X0482615Y0017945D01*
X0482248Y0017578D01*
X0481147Y0017578D01*
X0481147Y0016844D02*
X0481147Y0019046D01*
X0481881Y0017578D02*
X0482615Y0016844D01*
X0483357Y0016844D02*
X0484825Y0018312D01*
X0484825Y0018679D01*
X0484458Y0019046D01*
X0483724Y0019046D01*
X0483357Y0018679D01*
X0483357Y0016844D02*
X0484825Y0016844D01*
X0485567Y0017211D02*
X0485934Y0016844D01*
X0486668Y0016844D01*
X0487035Y0017211D01*
X0487035Y0017578D01*
X0486668Y0017945D01*
X0485567Y0017945D01*
X0485567Y0017211D01*
X0485567Y0017945D02*
X0486301Y0018679D01*
X0487035Y0019046D01*
X0501085Y0017807D02*
X0501085Y0015606D01*
X0501085Y0016340D02*
X0502186Y0016340D01*
X0502553Y0016706D01*
X0502553Y0017440D01*
X0502186Y0017807D01*
X0501085Y0017807D01*
X0501819Y0016340D02*
X0502553Y0015606D01*
X0503295Y0015606D02*
X0504763Y0017073D01*
X0504763Y0017440D01*
X0504396Y0017807D01*
X0503662Y0017807D01*
X0503295Y0017440D01*
X0503295Y0015606D02*
X0504763Y0015606D01*
X0505505Y0015606D02*
X0505505Y0015973D01*
X0506973Y0017440D01*
X0506973Y0017807D01*
X0505505Y0017807D01*
X0521024Y0018529D02*
X0521024Y0020731D01*
X0522125Y0020731D01*
X0522491Y0020364D01*
X0522491Y0019630D01*
X0522125Y0019263D01*
X0521024Y0019263D01*
X0521758Y0019263D02*
X0522491Y0018529D01*
X0523233Y0018529D02*
X0524701Y0019997D01*
X0524701Y0020364D01*
X0524334Y0020731D01*
X0523600Y0020731D01*
X0523233Y0020364D01*
X0523233Y0018529D02*
X0524701Y0018529D01*
X0525443Y0018896D02*
X0525443Y0019263D01*
X0525810Y0019630D01*
X0526544Y0019630D01*
X0526911Y0019263D01*
X0526911Y0018896D01*
X0526544Y0018529D01*
X0525810Y0018529D01*
X0525443Y0018896D01*
X0525810Y0019630D02*
X0525443Y0019997D01*
X0525443Y0020364D01*
X0525810Y0020731D01*
X0526544Y0020731D01*
X0526911Y0020364D01*
X0526911Y0019997D01*
X0526544Y0019630D01*
X0532544Y0028192D02*
X0532544Y0030394D01*
X0533645Y0030394D01*
X0534012Y0030027D01*
X0534012Y0029293D01*
X0533645Y0028926D01*
X0532544Y0028926D01*
X0533278Y0028926D02*
X0534012Y0028192D01*
X0534754Y0028192D02*
X0536222Y0029660D01*
X0536222Y0030027D01*
X0535855Y0030394D01*
X0535121Y0030394D01*
X0534754Y0030027D01*
X0534754Y0028192D02*
X0536222Y0028192D01*
X0536964Y0028559D02*
X0537331Y0028192D01*
X0538065Y0028192D01*
X0538432Y0028559D01*
X0538432Y0030027D01*
X0538065Y0030394D01*
X0537331Y0030394D01*
X0536964Y0030027D01*
X0536964Y0029660D01*
X0537331Y0029293D01*
X0538432Y0029293D01*
X0227473Y0255480D02*
X0227473Y0256948D01*
X0227106Y0257315D01*
X0226372Y0257315D01*
X0226005Y0256948D01*
X0226005Y0256581D01*
X0226372Y0256214D01*
X0227473Y0256214D01*
X0227473Y0255480D02*
X0227106Y0255113D01*
X0226372Y0255113D01*
X0226005Y0255480D01*
X0225263Y0255480D02*
X0224896Y0255113D01*
X0224162Y0255113D01*
X0223795Y0255480D01*
X0223795Y0256948D01*
X0224162Y0257315D01*
X0224896Y0257315D01*
X0225263Y0256948D01*
X0112009Y0237225D02*
X0111642Y0237592D01*
X0110908Y0237592D01*
X0110541Y0237225D01*
X0109799Y0237225D02*
X0109432Y0237592D01*
X0108698Y0237592D01*
X0108331Y0237225D01*
X0108331Y0235757D01*
X0108698Y0235390D01*
X0109432Y0235390D01*
X0109799Y0235757D01*
X0110541Y0235390D02*
X0112009Y0236858D01*
X0112009Y0237225D01*
X0112009Y0235390D02*
X0110541Y0235390D01*
X0091541Y0244132D02*
X0090073Y0242664D01*
X0090073Y0242297D01*
X0089331Y0242664D02*
X0088964Y0242297D01*
X0088230Y0242297D01*
X0087863Y0242664D01*
X0087863Y0244132D01*
X0088230Y0244499D01*
X0088964Y0244499D01*
X0089331Y0244132D01*
X0090073Y0244499D02*
X0091541Y0244499D01*
X0091541Y0244132D01*
D16*
X0124034Y0251300D02*
X0125534Y0251300D01*
X0125534Y0252300D01*
X0124034Y0252300D01*
X0124034Y0251300D01*
X0124034Y0251322D02*
X0125534Y0251322D01*
X0125534Y0251420D02*
X0124034Y0251420D01*
X0124034Y0251519D02*
X0125534Y0251519D01*
X0125534Y0251617D02*
X0124034Y0251617D01*
X0124034Y0251716D02*
X0125534Y0251716D01*
X0125534Y0251814D02*
X0124034Y0251814D01*
X0124034Y0251913D02*
X0125534Y0251913D01*
X0125534Y0252011D02*
X0124034Y0252011D01*
X0124034Y0252110D02*
X0125534Y0252110D01*
X0125534Y0252208D02*
X0124034Y0252208D01*
X0132405Y0251740D02*
X0133556Y0251740D01*
X0133939Y0252124D01*
X0133939Y0252891D01*
X0133556Y0253275D01*
X0132405Y0253275D01*
X0132405Y0250973D01*
X0134615Y0251357D02*
X0134998Y0250973D01*
X0135766Y0250973D01*
X0136149Y0251357D01*
X0136149Y0252891D01*
X0135766Y0253275D01*
X0134998Y0253275D01*
X0134615Y0252891D01*
X0134615Y0251357D01*
X0136824Y0253275D02*
X0138359Y0253275D01*
X0137592Y0253275D02*
X0137592Y0250973D01*
X0139034Y0250973D02*
X0139034Y0252508D01*
X0139802Y0253275D01*
X0140569Y0252508D01*
X0140569Y0250973D01*
X0140569Y0252124D02*
X0139034Y0252124D01*
X0179034Y0276300D02*
X0179034Y0277300D01*
X0180534Y0277300D01*
X0180534Y0276300D01*
X0179034Y0276300D01*
X0179034Y0276344D02*
X0180534Y0276344D01*
X0180534Y0276442D02*
X0179034Y0276442D01*
X0179034Y0276541D02*
X0180534Y0276541D01*
X0180534Y0276639D02*
X0179034Y0276639D01*
X0179034Y0276738D02*
X0180534Y0276738D01*
X0180534Y0276836D02*
X0179034Y0276836D01*
X0179034Y0276935D02*
X0180534Y0276935D01*
X0180534Y0277033D02*
X0179034Y0277033D01*
X0179034Y0277132D02*
X0180534Y0277132D01*
X0180534Y0277230D02*
X0179034Y0277230D01*
X0187064Y0277209D02*
X0187064Y0274907D01*
X0187064Y0275674D02*
X0188215Y0275674D01*
X0188599Y0276058D01*
X0188599Y0276825D01*
X0188215Y0277209D01*
X0187064Y0277209D01*
X0189274Y0276825D02*
X0189274Y0275290D01*
X0189658Y0274907D01*
X0190425Y0274907D01*
X0190809Y0275290D01*
X0190809Y0276825D01*
X0190425Y0277209D01*
X0189658Y0277209D01*
X0189274Y0276825D01*
X0191484Y0277209D02*
X0193019Y0277209D01*
X0193694Y0277209D02*
X0194845Y0277209D01*
X0195229Y0276825D01*
X0195229Y0276441D01*
X0194845Y0276058D01*
X0193694Y0276058D01*
X0193694Y0274907D02*
X0193694Y0277209D01*
X0192251Y0277209D02*
X0192251Y0274907D01*
X0193694Y0274907D02*
X0194845Y0274907D01*
X0195229Y0275290D01*
X0195229Y0275674D01*
X0194845Y0276058D01*
X0225193Y0291237D02*
X0225193Y0293539D01*
X0226344Y0293539D01*
X0226728Y0293156D01*
X0226728Y0292388D01*
X0226344Y0292005D01*
X0225193Y0292005D01*
X0227403Y0291621D02*
X0227787Y0291237D01*
X0228554Y0291237D01*
X0228938Y0291621D01*
X0228938Y0293156D01*
X0228554Y0293539D01*
X0227787Y0293539D01*
X0227403Y0293156D01*
X0227403Y0291621D01*
X0229034Y0291613D02*
X0230534Y0291613D01*
X0230534Y0291711D02*
X0229034Y0291711D01*
X0229034Y0291810D02*
X0230534Y0291810D01*
X0230534Y0291908D02*
X0229034Y0291908D01*
X0229034Y0292007D02*
X0230534Y0292007D01*
X0230534Y0292105D02*
X0229034Y0292105D01*
X0229034Y0292204D02*
X0230534Y0292204D01*
X0230534Y0292300D02*
X0230534Y0291300D01*
X0229034Y0291300D01*
X0229034Y0292300D01*
X0230534Y0292300D01*
X0230534Y0291514D02*
X0229034Y0291514D01*
X0229034Y0291416D02*
X0230534Y0291416D01*
X0230534Y0291317D02*
X0229034Y0291317D01*
X0230380Y0291237D02*
X0230380Y0293539D01*
X0229613Y0293539D02*
X0231148Y0293539D01*
X0231823Y0293156D02*
X0231823Y0291621D01*
X0232207Y0291237D01*
X0232974Y0291237D01*
X0233358Y0291621D01*
X0233358Y0293156D02*
X0232974Y0293539D01*
X0232207Y0293539D01*
X0231823Y0293156D01*
X0252066Y0261300D02*
X0252066Y0260300D01*
X0253566Y0260300D01*
X0253566Y0261300D01*
X0252066Y0261300D01*
X0252066Y0261271D02*
X0253566Y0261271D01*
X0253566Y0261173D02*
X0252066Y0261173D01*
X0252066Y0261074D02*
X0253566Y0261074D01*
X0253566Y0260976D02*
X0252066Y0260976D01*
X0252066Y0260877D02*
X0253566Y0260877D01*
X0253566Y0260779D02*
X0252066Y0260779D01*
X0252066Y0260680D02*
X0253566Y0260680D01*
X0253566Y0260582D02*
X0252066Y0260582D01*
X0252066Y0260483D02*
X0253566Y0260483D01*
X0253566Y0260385D02*
X0252066Y0260385D01*
X0203566Y0246300D02*
X0202066Y0246300D01*
X0202066Y0245300D01*
X0203566Y0245300D01*
X0203566Y0246300D01*
X0203566Y0246298D02*
X0202066Y0246298D01*
X0202066Y0246199D02*
X0203566Y0246199D01*
X0203566Y0246101D02*
X0202066Y0246101D01*
X0202066Y0246002D02*
X0203566Y0246002D01*
X0203566Y0245904D02*
X0202066Y0245904D01*
X0202066Y0245805D02*
X0203566Y0245805D01*
X0203566Y0245707D02*
X0202066Y0245707D01*
X0202066Y0245608D02*
X0203566Y0245608D01*
X0203566Y0245510D02*
X0202066Y0245510D01*
X0202066Y0245411D02*
X0203566Y0245411D01*
X0203566Y0245313D02*
X0202066Y0245313D01*
X0148566Y0221300D02*
X0148566Y0220300D01*
X0147066Y0220300D01*
X0147066Y0221300D01*
X0148566Y0221300D01*
X0148566Y0221276D02*
X0147066Y0221276D01*
X0147066Y0221177D02*
X0148566Y0221177D01*
X0148566Y0221079D02*
X0147066Y0221079D01*
X0147066Y0220980D02*
X0148566Y0220980D01*
X0148566Y0220882D02*
X0147066Y0220882D01*
X0147066Y0220783D02*
X0148566Y0220783D01*
X0148566Y0220685D02*
X0147066Y0220685D01*
X0147066Y0220586D02*
X0148566Y0220586D01*
X0148566Y0220488D02*
X0147066Y0220488D01*
X0147066Y0220389D02*
X0148566Y0220389D01*
X0073195Y0201337D02*
X0072194Y0199836D01*
X0071722Y0200086D02*
X0071722Y0201337D01*
X0072194Y0201337D02*
X0073195Y0199836D01*
X0071722Y0200086D02*
X0071472Y0199836D01*
X0070971Y0199836D01*
X0070721Y0200086D01*
X0070721Y0201337D01*
X0070249Y0201337D02*
X0070249Y0199836D01*
X0069248Y0199836D02*
X0069248Y0201337D01*
X0069748Y0200837D01*
X0070249Y0201337D01*
X0068775Y0201337D02*
X0067775Y0201337D01*
X0067775Y0199836D01*
X0068775Y0199836D01*
X0068275Y0200586D02*
X0067775Y0200586D01*
X0067302Y0200086D02*
X0067302Y0201087D01*
X0067052Y0201337D01*
X0066301Y0201337D01*
X0066301Y0199836D01*
X0067052Y0199836D01*
X0067302Y0200086D01*
X0065829Y0199836D02*
X0064828Y0199836D01*
X0064346Y0199836D02*
X0063846Y0199836D01*
X0064096Y0199836D02*
X0064096Y0201337D01*
X0063846Y0201337D02*
X0064346Y0201337D01*
X0064828Y0200837D02*
X0065328Y0201337D01*
X0065328Y0199836D01*
X0063373Y0199836D02*
X0063373Y0200837D01*
X0062873Y0201337D01*
X0062373Y0200837D01*
X0062373Y0199836D01*
X0062373Y0200586D02*
X0063373Y0200586D01*
X0164034Y0172300D02*
X0164034Y0171300D01*
X0165534Y0171300D01*
X0165534Y0172300D01*
X0164034Y0172300D01*
X0164034Y0172217D02*
X0165534Y0172217D01*
X0165534Y0172119D02*
X0164034Y0172119D01*
X0164034Y0172020D02*
X0165534Y0172020D01*
X0165534Y0171922D02*
X0164034Y0171922D01*
X0164034Y0171823D02*
X0165534Y0171823D01*
X0165534Y0171725D02*
X0164034Y0171725D01*
X0164034Y0171626D02*
X0165534Y0171626D01*
X0165534Y0171528D02*
X0164034Y0171528D01*
X0164034Y0171429D02*
X0165534Y0171429D01*
X0165534Y0171331D02*
X0164034Y0171331D01*
X0171585Y0171834D02*
X0172735Y0171834D01*
X0173119Y0171450D01*
X0173119Y0170683D01*
X0172735Y0170299D01*
X0171585Y0170299D01*
X0171585Y0169532D02*
X0171585Y0171834D01*
X0173794Y0171450D02*
X0174178Y0171834D01*
X0174945Y0171834D01*
X0175329Y0171450D01*
X0175329Y0169915D01*
X0174945Y0169532D01*
X0174178Y0169532D01*
X0173794Y0169915D01*
X0173794Y0171450D01*
X0176004Y0171834D02*
X0177539Y0171834D01*
X0178214Y0171834D02*
X0179365Y0171834D01*
X0179749Y0171450D01*
X0179749Y0169915D01*
X0179365Y0169532D01*
X0178214Y0169532D01*
X0178214Y0171834D01*
X0176772Y0171834D02*
X0176772Y0169532D01*
X0197500Y0143113D02*
X0198651Y0143113D01*
X0199035Y0142730D01*
X0199035Y0141962D01*
X0198651Y0141579D01*
X0197500Y0141579D01*
X0197500Y0140811D02*
X0197500Y0143113D01*
X0199710Y0142730D02*
X0200094Y0143113D01*
X0200861Y0143113D01*
X0201245Y0142730D01*
X0201245Y0141195D01*
X0200861Y0140811D01*
X0200094Y0140811D01*
X0199710Y0141195D01*
X0199710Y0142730D01*
X0201920Y0143113D02*
X0203455Y0143113D01*
X0204130Y0143113D02*
X0204130Y0140811D01*
X0205665Y0140811D01*
X0204897Y0141962D02*
X0204130Y0141962D01*
X0204130Y0143113D02*
X0205665Y0143113D01*
X0202687Y0143113D02*
X0202687Y0140811D01*
X0216300Y0138566D02*
X0217300Y0138566D01*
X0217300Y0137066D01*
X0216300Y0137066D01*
X0216300Y0138566D01*
X0216300Y0138526D02*
X0217300Y0138526D01*
X0217300Y0138428D02*
X0216300Y0138428D01*
X0216300Y0138329D02*
X0217300Y0138329D01*
X0217300Y0138231D02*
X0216300Y0138231D01*
X0216300Y0138132D02*
X0217300Y0138132D01*
X0217300Y0138034D02*
X0216300Y0138034D01*
X0216300Y0137935D02*
X0217300Y0137935D01*
X0217300Y0137837D02*
X0216300Y0137837D01*
X0216300Y0137738D02*
X0217300Y0137738D01*
X0217300Y0137640D02*
X0216300Y0137640D01*
X0216300Y0137541D02*
X0217300Y0137541D01*
X0217300Y0137443D02*
X0216300Y0137443D01*
X0216300Y0137344D02*
X0217300Y0137344D01*
X0217300Y0137246D02*
X0216300Y0137246D01*
X0216300Y0137147D02*
X0217300Y0137147D01*
X0188566Y0140300D02*
X0188566Y0141300D01*
X0187066Y0141300D01*
X0187066Y0140300D01*
X0188566Y0140300D01*
X0188566Y0140398D02*
X0187066Y0140398D01*
X0187066Y0140496D02*
X0188566Y0140496D01*
X0188566Y0140595D02*
X0187066Y0140595D01*
X0187066Y0140694D02*
X0188566Y0140694D01*
X0188566Y0140792D02*
X0187066Y0140792D01*
X0187066Y0140891D02*
X0188566Y0140891D01*
X0188566Y0140989D02*
X0187066Y0140989D01*
X0187066Y0141088D02*
X0188566Y0141088D01*
X0188566Y0141186D02*
X0187066Y0141186D01*
X0187066Y0141285D02*
X0188566Y0141285D01*
X0186300Y0115534D02*
X0185300Y0115534D01*
X0185300Y0114034D01*
X0186300Y0114034D01*
X0186300Y0115534D01*
X0186300Y0115475D02*
X0185300Y0115475D01*
X0185300Y0115376D02*
X0186300Y0115376D01*
X0186300Y0115278D02*
X0185300Y0115278D01*
X0185300Y0115179D02*
X0186300Y0115179D01*
X0186300Y0115081D02*
X0185300Y0115081D01*
X0185300Y0114982D02*
X0186300Y0114982D01*
X0186300Y0114884D02*
X0185300Y0114884D01*
X0185300Y0114785D02*
X0186300Y0114785D01*
X0186300Y0114687D02*
X0185300Y0114687D01*
X0185300Y0114588D02*
X0186300Y0114588D01*
X0186300Y0114490D02*
X0185300Y0114490D01*
X0185300Y0114391D02*
X0186300Y0114391D01*
X0186300Y0114292D02*
X0185300Y0114292D01*
X0185300Y0114194D02*
X0186300Y0114194D01*
X0186300Y0114095D02*
X0185300Y0114095D01*
X0139387Y0082868D02*
X0139003Y0083252D01*
X0138236Y0083252D01*
X0137852Y0082868D01*
X0137852Y0081333D01*
X0138236Y0080950D01*
X0139003Y0080950D01*
X0139387Y0081333D01*
X0139387Y0082101D01*
X0138620Y0082101D01*
X0137177Y0083252D02*
X0135642Y0083252D01*
X0136410Y0083252D02*
X0136410Y0080950D01*
X0134967Y0081333D02*
X0134967Y0082868D01*
X0134583Y0083252D01*
X0133816Y0083252D01*
X0133432Y0082868D01*
X0133432Y0081333D01*
X0133816Y0080950D01*
X0134583Y0080950D01*
X0134967Y0081333D01*
X0132757Y0082101D02*
X0132374Y0081717D01*
X0131223Y0081717D01*
X0131223Y0080950D02*
X0131223Y0083252D01*
X0132374Y0083252D01*
X0132757Y0082868D01*
X0132757Y0082101D01*
X0125534Y0082079D02*
X0124034Y0082079D01*
X0124034Y0081981D02*
X0125534Y0081981D01*
X0125534Y0081882D02*
X0124034Y0081882D01*
X0124034Y0081784D02*
X0125534Y0081784D01*
X0125534Y0081685D02*
X0124034Y0081685D01*
X0124034Y0081587D02*
X0125534Y0081587D01*
X0125534Y0081488D02*
X0124034Y0081488D01*
X0124034Y0081390D02*
X0125534Y0081390D01*
X0125534Y0081300D02*
X0125534Y0082300D01*
X0124034Y0082300D01*
X0124034Y0081300D01*
X0125534Y0081300D01*
X0125534Y0082178D02*
X0124034Y0082178D01*
X0124034Y0082276D02*
X0125534Y0082276D01*
X0147066Y0051300D02*
X0148566Y0051300D01*
X0148566Y0050300D01*
X0147066Y0050300D01*
X0147066Y0051300D01*
X0147066Y0051245D02*
X0148566Y0051245D01*
X0148566Y0051147D02*
X0147066Y0051147D01*
X0147066Y0051048D02*
X0148566Y0051048D01*
X0148566Y0050950D02*
X0147066Y0050950D01*
X0147066Y0050851D02*
X0148566Y0050851D01*
X0148566Y0050753D02*
X0147066Y0050753D01*
X0147066Y0050654D02*
X0148566Y0050654D01*
X0148566Y0050556D02*
X0147066Y0050556D01*
X0147066Y0050457D02*
X0148566Y0050457D01*
X0148566Y0050359D02*
X0147066Y0050359D01*
X0280300Y0109034D02*
X0281300Y0109034D01*
X0281300Y0110534D01*
X0280300Y0110534D01*
X0280300Y0109034D01*
X0280300Y0109071D02*
X0281300Y0109071D01*
X0281300Y0109170D02*
X0280300Y0109170D01*
X0280300Y0109268D02*
X0281300Y0109268D01*
X0281300Y0109367D02*
X0280300Y0109367D01*
X0280300Y0109465D02*
X0281300Y0109465D01*
X0281300Y0109564D02*
X0280300Y0109564D01*
X0280300Y0109662D02*
X0281300Y0109662D01*
X0281300Y0109761D02*
X0280300Y0109761D01*
X0280300Y0109859D02*
X0281300Y0109859D01*
X0281300Y0109958D02*
X0280300Y0109958D01*
X0280300Y0110056D02*
X0281300Y0110056D01*
X0281300Y0110155D02*
X0280300Y0110155D01*
X0280300Y0110254D02*
X0281300Y0110254D01*
X0281300Y0110352D02*
X0280300Y0110352D01*
X0280300Y0110451D02*
X0281300Y0110451D01*
X0311300Y0132066D02*
X0311300Y0133566D01*
X0312300Y0133566D01*
X0312300Y0132066D01*
X0311300Y0132066D01*
X0311300Y0132123D02*
X0312300Y0132123D01*
X0312300Y0132222D02*
X0311300Y0132222D01*
X0311300Y0132320D02*
X0312300Y0132320D01*
X0312300Y0132419D02*
X0311300Y0132419D01*
X0311300Y0132517D02*
X0312300Y0132517D01*
X0312300Y0132616D02*
X0311300Y0132616D01*
X0311300Y0132714D02*
X0312300Y0132714D01*
X0312300Y0132813D02*
X0311300Y0132813D01*
X0311300Y0132911D02*
X0312300Y0132911D01*
X0312300Y0133010D02*
X0311300Y0133010D01*
X0311300Y0133108D02*
X0312300Y0133108D01*
X0312300Y0133207D02*
X0311300Y0133207D01*
X0311300Y0133305D02*
X0312300Y0133305D01*
X0312300Y0133404D02*
X0311300Y0133404D01*
X0311300Y0133502D02*
X0312300Y0133502D01*
X0300144Y0137385D02*
X0298610Y0137385D01*
X0298610Y0135083D01*
X0298610Y0136234D02*
X0299377Y0136234D01*
X0297934Y0137385D02*
X0296400Y0137385D01*
X0297167Y0137385D02*
X0297167Y0135083D01*
X0295725Y0135467D02*
X0295725Y0137001D01*
X0295341Y0137385D01*
X0294574Y0137385D01*
X0294190Y0137001D01*
X0294190Y0135467D01*
X0294574Y0135083D01*
X0295341Y0135083D01*
X0295725Y0135467D01*
X0293515Y0136234D02*
X0293131Y0135850D01*
X0291980Y0135850D01*
X0291980Y0135083D02*
X0291980Y0137385D01*
X0293131Y0137385D01*
X0293515Y0137001D01*
X0293515Y0136234D01*
X0453985Y0302257D02*
X0454169Y0302257D01*
X0454352Y0302441D01*
X0454352Y0302808D01*
X0454536Y0302991D01*
X0454719Y0302991D01*
X0454903Y0302808D01*
X0454903Y0302441D01*
X0454719Y0302257D01*
X0453985Y0302257D02*
X0453802Y0302441D01*
X0453802Y0302808D01*
X0453985Y0302991D01*
X0453985Y0303362D02*
X0454719Y0303362D01*
X0454903Y0303546D01*
X0454903Y0303913D01*
X0454719Y0304096D01*
X0454903Y0304467D02*
X0454903Y0305201D01*
X0454903Y0305572D02*
X0453802Y0305572D01*
X0454352Y0305755D02*
X0454903Y0306306D01*
X0454536Y0305572D02*
X0453802Y0306306D01*
X0453802Y0304467D02*
X0454903Y0304467D01*
X0453985Y0304096D02*
X0453802Y0303913D01*
X0453802Y0303546D01*
X0453985Y0303362D01*
X0460895Y0303675D02*
X0461996Y0303675D01*
X0461812Y0304046D02*
X0461996Y0304230D01*
X0461996Y0304596D01*
X0461812Y0304780D01*
X0461078Y0304780D01*
X0460895Y0304596D01*
X0460895Y0304230D01*
X0461078Y0304046D01*
X0461812Y0304046D01*
X0461262Y0303308D02*
X0460895Y0303675D01*
X0461262Y0303308D02*
X0460895Y0302941D01*
X0461996Y0302941D01*
X0461812Y0305151D02*
X0461996Y0305334D01*
X0461996Y0305701D01*
X0461812Y0305885D01*
X0461629Y0305885D01*
X0461445Y0305701D01*
X0461445Y0305334D01*
X0461262Y0305151D01*
X0461078Y0305151D01*
X0460895Y0305334D01*
X0460895Y0305701D01*
X0461078Y0305885D01*
X0460895Y0306256D02*
X0460895Y0306623D01*
X0460895Y0306439D02*
X0461996Y0306439D01*
X0461996Y0306256D02*
X0461996Y0306623D01*
X0469157Y0306593D02*
X0469341Y0306777D01*
X0470074Y0306777D01*
X0470258Y0306593D01*
X0470258Y0306226D01*
X0470074Y0306043D01*
X0469341Y0306043D01*
X0469157Y0306226D01*
X0469157Y0306593D01*
X0469341Y0305672D02*
X0469157Y0305488D01*
X0469157Y0305121D01*
X0469341Y0304938D01*
X0469524Y0304938D01*
X0469708Y0305121D01*
X0469708Y0305488D01*
X0469891Y0305672D01*
X0470074Y0305672D01*
X0470258Y0305488D01*
X0470258Y0305121D01*
X0470074Y0304938D01*
X0470258Y0304568D02*
X0470258Y0304201D01*
X0470258Y0304385D02*
X0469157Y0304385D01*
X0469157Y0304568D02*
X0469157Y0304201D01*
X0469157Y0303830D02*
X0470258Y0303830D01*
X0470258Y0303096D02*
X0469157Y0303096D01*
X0469524Y0303463D01*
X0469157Y0303830D01*
X0477213Y0303905D02*
X0477396Y0304089D01*
X0477580Y0304089D01*
X0477763Y0303905D01*
X0477947Y0304089D01*
X0478130Y0304089D01*
X0478314Y0303905D01*
X0478314Y0303538D01*
X0478130Y0303355D01*
X0477763Y0303722D02*
X0477763Y0303905D01*
X0477213Y0303905D02*
X0477213Y0303538D01*
X0477396Y0303355D01*
X0478130Y0304460D02*
X0478130Y0304643D01*
X0478314Y0304643D01*
X0478314Y0304460D01*
X0478130Y0304460D01*
X0478130Y0305012D02*
X0478314Y0305196D01*
X0478314Y0305563D01*
X0478130Y0305746D01*
X0477947Y0305746D01*
X0477763Y0305563D01*
X0477763Y0305379D01*
X0477763Y0305563D02*
X0477580Y0305746D01*
X0477396Y0305746D01*
X0477213Y0305563D01*
X0477213Y0305196D01*
X0477396Y0305012D01*
X0477213Y0306117D02*
X0477947Y0306117D01*
X0478314Y0306484D01*
X0477947Y0306851D01*
X0477213Y0306851D01*
X0485326Y0306176D02*
X0485326Y0305626D01*
X0485509Y0305442D01*
X0485693Y0305626D01*
X0485693Y0305993D01*
X0485876Y0306176D01*
X0486060Y0305993D01*
X0486060Y0305442D01*
X0485876Y0305071D02*
X0485693Y0304888D01*
X0485693Y0304521D01*
X0485509Y0304337D01*
X0485326Y0304521D01*
X0485326Y0305071D01*
X0485876Y0305071D02*
X0486060Y0304888D01*
X0486060Y0304337D01*
X0492550Y0306299D02*
X0493651Y0306299D01*
X0493651Y0305748D01*
X0493467Y0305565D01*
X0493100Y0305565D01*
X0492917Y0305748D01*
X0492917Y0306299D01*
X0493100Y0305194D02*
X0493651Y0305194D01*
X0493100Y0305194D02*
X0492917Y0305010D01*
X0492917Y0304460D01*
X0493651Y0304460D01*
X0493651Y0304089D02*
X0493651Y0303538D01*
X0493467Y0303355D01*
X0493100Y0303355D01*
X0492917Y0303538D01*
X0492917Y0304089D01*
X0493834Y0304089D01*
X0494018Y0303905D01*
X0494018Y0303722D01*
D17*
X0227966Y0265186D02*
X0224830Y0262050D01*
X0224830Y0263618D02*
X0227966Y0263618D01*
X0227966Y0262050D02*
X0224830Y0265186D01*
X0226398Y0265186D02*
X0226398Y0262050D01*
X0177966Y0250186D02*
X0174830Y0247050D01*
X0176398Y0247050D02*
X0176398Y0250186D01*
X0174830Y0250186D02*
X0177966Y0247050D01*
X0177966Y0248618D02*
X0174830Y0248618D01*
X0152770Y0248982D02*
X0149634Y0248982D01*
X0149634Y0250550D02*
X0152770Y0247414D01*
X0151202Y0247414D02*
X0151202Y0250550D01*
X0152770Y0250550D02*
X0149634Y0247414D01*
X0189634Y0170550D02*
X0192770Y0167414D01*
X0192770Y0168982D02*
X0189634Y0168982D01*
X0189634Y0167414D02*
X0192770Y0170550D01*
X0191202Y0170550D02*
X0191202Y0167414D01*
X0190186Y0142770D02*
X0187050Y0139634D01*
X0188618Y0139634D02*
X0188618Y0142770D01*
X0187050Y0142770D02*
X0190186Y0139634D01*
X0190186Y0141202D02*
X0187050Y0141202D01*
X0282050Y0137770D02*
X0285186Y0134634D01*
X0283618Y0134634D02*
X0283618Y0137770D01*
X0285186Y0137770D02*
X0282050Y0134634D01*
X0282050Y0136202D02*
X0285186Y0136202D01*
X0152770Y0080550D02*
X0149634Y0077414D01*
X0149634Y0078982D02*
X0152770Y0078982D01*
X0152770Y0077414D02*
X0149634Y0080550D01*
X0151202Y0080550D02*
X0151202Y0077414D01*
D18*
X0206100Y0044900D03*
X0211100Y0038800D03*
X0252700Y0166100D03*
X0258800Y0171100D03*
X0187700Y0226100D03*
X0193800Y0231100D03*
M02*
