G75*
%MOIN*%
%OFA0B0*%
%FSLAX25Y25*%
%IPPOS*%
%LPD*%
%AMOC8*
5,1,8,0,0,1.08239X$1,22.5*
%
%ADD10C,0.00000*%
D10*
X0001300Y0001300D02*
X0001300Y0316261D01*
X0560001Y0316261D01*
X0560001Y0001300D01*
X0001300Y0001300D01*
X0015611Y0016300D02*
X0015613Y0016352D01*
X0015619Y0016404D01*
X0015629Y0016455D01*
X0015642Y0016505D01*
X0015660Y0016555D01*
X0015681Y0016602D01*
X0015705Y0016648D01*
X0015734Y0016692D01*
X0015765Y0016734D01*
X0015799Y0016773D01*
X0015836Y0016810D01*
X0015876Y0016843D01*
X0015919Y0016874D01*
X0015963Y0016901D01*
X0016009Y0016925D01*
X0016058Y0016945D01*
X0016107Y0016961D01*
X0016158Y0016974D01*
X0016209Y0016983D01*
X0016261Y0016988D01*
X0016313Y0016989D01*
X0016365Y0016986D01*
X0016417Y0016979D01*
X0016468Y0016968D01*
X0016518Y0016954D01*
X0016567Y0016935D01*
X0016614Y0016913D01*
X0016659Y0016888D01*
X0016703Y0016859D01*
X0016744Y0016827D01*
X0016783Y0016792D01*
X0016818Y0016754D01*
X0016851Y0016713D01*
X0016881Y0016671D01*
X0016907Y0016626D01*
X0016930Y0016579D01*
X0016949Y0016530D01*
X0016965Y0016480D01*
X0016977Y0016430D01*
X0016985Y0016378D01*
X0016989Y0016326D01*
X0016989Y0016274D01*
X0016985Y0016222D01*
X0016977Y0016170D01*
X0016965Y0016120D01*
X0016949Y0016070D01*
X0016930Y0016021D01*
X0016907Y0015974D01*
X0016881Y0015929D01*
X0016851Y0015887D01*
X0016818Y0015846D01*
X0016783Y0015808D01*
X0016744Y0015773D01*
X0016703Y0015741D01*
X0016659Y0015712D01*
X0016614Y0015687D01*
X0016567Y0015665D01*
X0016518Y0015646D01*
X0016468Y0015632D01*
X0016417Y0015621D01*
X0016365Y0015614D01*
X0016313Y0015611D01*
X0016261Y0015612D01*
X0016209Y0015617D01*
X0016158Y0015626D01*
X0016107Y0015639D01*
X0016058Y0015655D01*
X0016009Y0015675D01*
X0015963Y0015699D01*
X0015919Y0015726D01*
X0015876Y0015757D01*
X0015836Y0015790D01*
X0015799Y0015827D01*
X0015765Y0015866D01*
X0015734Y0015908D01*
X0015705Y0015952D01*
X0015681Y0015998D01*
X0015660Y0016045D01*
X0015642Y0016095D01*
X0015629Y0016145D01*
X0015619Y0016196D01*
X0015613Y0016248D01*
X0015611Y0016300D01*
X0400611Y0016300D02*
X0400613Y0016352D01*
X0400619Y0016404D01*
X0400629Y0016455D01*
X0400642Y0016505D01*
X0400660Y0016555D01*
X0400681Y0016602D01*
X0400705Y0016648D01*
X0400734Y0016692D01*
X0400765Y0016734D01*
X0400799Y0016773D01*
X0400836Y0016810D01*
X0400876Y0016843D01*
X0400919Y0016874D01*
X0400963Y0016901D01*
X0401009Y0016925D01*
X0401058Y0016945D01*
X0401107Y0016961D01*
X0401158Y0016974D01*
X0401209Y0016983D01*
X0401261Y0016988D01*
X0401313Y0016989D01*
X0401365Y0016986D01*
X0401417Y0016979D01*
X0401468Y0016968D01*
X0401518Y0016954D01*
X0401567Y0016935D01*
X0401614Y0016913D01*
X0401659Y0016888D01*
X0401703Y0016859D01*
X0401744Y0016827D01*
X0401783Y0016792D01*
X0401818Y0016754D01*
X0401851Y0016713D01*
X0401881Y0016671D01*
X0401907Y0016626D01*
X0401930Y0016579D01*
X0401949Y0016530D01*
X0401965Y0016480D01*
X0401977Y0016430D01*
X0401985Y0016378D01*
X0401989Y0016326D01*
X0401989Y0016274D01*
X0401985Y0016222D01*
X0401977Y0016170D01*
X0401965Y0016120D01*
X0401949Y0016070D01*
X0401930Y0016021D01*
X0401907Y0015974D01*
X0401881Y0015929D01*
X0401851Y0015887D01*
X0401818Y0015846D01*
X0401783Y0015808D01*
X0401744Y0015773D01*
X0401703Y0015741D01*
X0401659Y0015712D01*
X0401614Y0015687D01*
X0401567Y0015665D01*
X0401518Y0015646D01*
X0401468Y0015632D01*
X0401417Y0015621D01*
X0401365Y0015614D01*
X0401313Y0015611D01*
X0401261Y0015612D01*
X0401209Y0015617D01*
X0401158Y0015626D01*
X0401107Y0015639D01*
X0401058Y0015655D01*
X0401009Y0015675D01*
X0400963Y0015699D01*
X0400919Y0015726D01*
X0400876Y0015757D01*
X0400836Y0015790D01*
X0400799Y0015827D01*
X0400765Y0015866D01*
X0400734Y0015908D01*
X0400705Y0015952D01*
X0400681Y0015998D01*
X0400660Y0016045D01*
X0400642Y0016095D01*
X0400629Y0016145D01*
X0400619Y0016196D01*
X0400613Y0016248D01*
X0400611Y0016300D01*
X0540611Y0086300D02*
X0540613Y0086352D01*
X0540619Y0086404D01*
X0540629Y0086455D01*
X0540642Y0086505D01*
X0540660Y0086555D01*
X0540681Y0086602D01*
X0540705Y0086648D01*
X0540734Y0086692D01*
X0540765Y0086734D01*
X0540799Y0086773D01*
X0540836Y0086810D01*
X0540876Y0086843D01*
X0540919Y0086874D01*
X0540963Y0086901D01*
X0541009Y0086925D01*
X0541058Y0086945D01*
X0541107Y0086961D01*
X0541158Y0086974D01*
X0541209Y0086983D01*
X0541261Y0086988D01*
X0541313Y0086989D01*
X0541365Y0086986D01*
X0541417Y0086979D01*
X0541468Y0086968D01*
X0541518Y0086954D01*
X0541567Y0086935D01*
X0541614Y0086913D01*
X0541659Y0086888D01*
X0541703Y0086859D01*
X0541744Y0086827D01*
X0541783Y0086792D01*
X0541818Y0086754D01*
X0541851Y0086713D01*
X0541881Y0086671D01*
X0541907Y0086626D01*
X0541930Y0086579D01*
X0541949Y0086530D01*
X0541965Y0086480D01*
X0541977Y0086430D01*
X0541985Y0086378D01*
X0541989Y0086326D01*
X0541989Y0086274D01*
X0541985Y0086222D01*
X0541977Y0086170D01*
X0541965Y0086120D01*
X0541949Y0086070D01*
X0541930Y0086021D01*
X0541907Y0085974D01*
X0541881Y0085929D01*
X0541851Y0085887D01*
X0541818Y0085846D01*
X0541783Y0085808D01*
X0541744Y0085773D01*
X0541703Y0085741D01*
X0541659Y0085712D01*
X0541614Y0085687D01*
X0541567Y0085665D01*
X0541518Y0085646D01*
X0541468Y0085632D01*
X0541417Y0085621D01*
X0541365Y0085614D01*
X0541313Y0085611D01*
X0541261Y0085612D01*
X0541209Y0085617D01*
X0541158Y0085626D01*
X0541107Y0085639D01*
X0541058Y0085655D01*
X0541009Y0085675D01*
X0540963Y0085699D01*
X0540919Y0085726D01*
X0540876Y0085757D01*
X0540836Y0085790D01*
X0540799Y0085827D01*
X0540765Y0085866D01*
X0540734Y0085908D01*
X0540705Y0085952D01*
X0540681Y0085998D01*
X0540660Y0086045D01*
X0540642Y0086095D01*
X0540629Y0086145D01*
X0540619Y0086196D01*
X0540613Y0086248D01*
X0540611Y0086300D01*
X0540611Y0246300D02*
X0540613Y0246352D01*
X0540619Y0246404D01*
X0540629Y0246455D01*
X0540642Y0246505D01*
X0540660Y0246555D01*
X0540681Y0246602D01*
X0540705Y0246648D01*
X0540734Y0246692D01*
X0540765Y0246734D01*
X0540799Y0246773D01*
X0540836Y0246810D01*
X0540876Y0246843D01*
X0540919Y0246874D01*
X0540963Y0246901D01*
X0541009Y0246925D01*
X0541058Y0246945D01*
X0541107Y0246961D01*
X0541158Y0246974D01*
X0541209Y0246983D01*
X0541261Y0246988D01*
X0541313Y0246989D01*
X0541365Y0246986D01*
X0541417Y0246979D01*
X0541468Y0246968D01*
X0541518Y0246954D01*
X0541567Y0246935D01*
X0541614Y0246913D01*
X0541659Y0246888D01*
X0541703Y0246859D01*
X0541744Y0246827D01*
X0541783Y0246792D01*
X0541818Y0246754D01*
X0541851Y0246713D01*
X0541881Y0246671D01*
X0541907Y0246626D01*
X0541930Y0246579D01*
X0541949Y0246530D01*
X0541965Y0246480D01*
X0541977Y0246430D01*
X0541985Y0246378D01*
X0541989Y0246326D01*
X0541989Y0246274D01*
X0541985Y0246222D01*
X0541977Y0246170D01*
X0541965Y0246120D01*
X0541949Y0246070D01*
X0541930Y0246021D01*
X0541907Y0245974D01*
X0541881Y0245929D01*
X0541851Y0245887D01*
X0541818Y0245846D01*
X0541783Y0245808D01*
X0541744Y0245773D01*
X0541703Y0245741D01*
X0541659Y0245712D01*
X0541614Y0245687D01*
X0541567Y0245665D01*
X0541518Y0245646D01*
X0541468Y0245632D01*
X0541417Y0245621D01*
X0541365Y0245614D01*
X0541313Y0245611D01*
X0541261Y0245612D01*
X0541209Y0245617D01*
X0541158Y0245626D01*
X0541107Y0245639D01*
X0541058Y0245655D01*
X0541009Y0245675D01*
X0540963Y0245699D01*
X0540919Y0245726D01*
X0540876Y0245757D01*
X0540836Y0245790D01*
X0540799Y0245827D01*
X0540765Y0245866D01*
X0540734Y0245908D01*
X0540705Y0245952D01*
X0540681Y0245998D01*
X0540660Y0246045D01*
X0540642Y0246095D01*
X0540629Y0246145D01*
X0540619Y0246196D01*
X0540613Y0246248D01*
X0540611Y0246300D01*
X0525611Y0301300D02*
X0525613Y0301352D01*
X0525619Y0301404D01*
X0525629Y0301455D01*
X0525642Y0301505D01*
X0525660Y0301555D01*
X0525681Y0301602D01*
X0525705Y0301648D01*
X0525734Y0301692D01*
X0525765Y0301734D01*
X0525799Y0301773D01*
X0525836Y0301810D01*
X0525876Y0301843D01*
X0525919Y0301874D01*
X0525963Y0301901D01*
X0526009Y0301925D01*
X0526058Y0301945D01*
X0526107Y0301961D01*
X0526158Y0301974D01*
X0526209Y0301983D01*
X0526261Y0301988D01*
X0526313Y0301989D01*
X0526365Y0301986D01*
X0526417Y0301979D01*
X0526468Y0301968D01*
X0526518Y0301954D01*
X0526567Y0301935D01*
X0526614Y0301913D01*
X0526659Y0301888D01*
X0526703Y0301859D01*
X0526744Y0301827D01*
X0526783Y0301792D01*
X0526818Y0301754D01*
X0526851Y0301713D01*
X0526881Y0301671D01*
X0526907Y0301626D01*
X0526930Y0301579D01*
X0526949Y0301530D01*
X0526965Y0301480D01*
X0526977Y0301430D01*
X0526985Y0301378D01*
X0526989Y0301326D01*
X0526989Y0301274D01*
X0526985Y0301222D01*
X0526977Y0301170D01*
X0526965Y0301120D01*
X0526949Y0301070D01*
X0526930Y0301021D01*
X0526907Y0300974D01*
X0526881Y0300929D01*
X0526851Y0300887D01*
X0526818Y0300846D01*
X0526783Y0300808D01*
X0526744Y0300773D01*
X0526703Y0300741D01*
X0526659Y0300712D01*
X0526614Y0300687D01*
X0526567Y0300665D01*
X0526518Y0300646D01*
X0526468Y0300632D01*
X0526417Y0300621D01*
X0526365Y0300614D01*
X0526313Y0300611D01*
X0526261Y0300612D01*
X0526209Y0300617D01*
X0526158Y0300626D01*
X0526107Y0300639D01*
X0526058Y0300655D01*
X0526009Y0300675D01*
X0525963Y0300699D01*
X0525919Y0300726D01*
X0525876Y0300757D01*
X0525836Y0300790D01*
X0525799Y0300827D01*
X0525765Y0300866D01*
X0525734Y0300908D01*
X0525705Y0300952D01*
X0525681Y0300998D01*
X0525660Y0301045D01*
X0525642Y0301095D01*
X0525629Y0301145D01*
X0525619Y0301196D01*
X0525613Y0301248D01*
X0525611Y0301300D01*
X0020611Y0296300D02*
X0020613Y0296352D01*
X0020619Y0296404D01*
X0020629Y0296455D01*
X0020642Y0296505D01*
X0020660Y0296555D01*
X0020681Y0296602D01*
X0020705Y0296648D01*
X0020734Y0296692D01*
X0020765Y0296734D01*
X0020799Y0296773D01*
X0020836Y0296810D01*
X0020876Y0296843D01*
X0020919Y0296874D01*
X0020963Y0296901D01*
X0021009Y0296925D01*
X0021058Y0296945D01*
X0021107Y0296961D01*
X0021158Y0296974D01*
X0021209Y0296983D01*
X0021261Y0296988D01*
X0021313Y0296989D01*
X0021365Y0296986D01*
X0021417Y0296979D01*
X0021468Y0296968D01*
X0021518Y0296954D01*
X0021567Y0296935D01*
X0021614Y0296913D01*
X0021659Y0296888D01*
X0021703Y0296859D01*
X0021744Y0296827D01*
X0021783Y0296792D01*
X0021818Y0296754D01*
X0021851Y0296713D01*
X0021881Y0296671D01*
X0021907Y0296626D01*
X0021930Y0296579D01*
X0021949Y0296530D01*
X0021965Y0296480D01*
X0021977Y0296430D01*
X0021985Y0296378D01*
X0021989Y0296326D01*
X0021989Y0296274D01*
X0021985Y0296222D01*
X0021977Y0296170D01*
X0021965Y0296120D01*
X0021949Y0296070D01*
X0021930Y0296021D01*
X0021907Y0295974D01*
X0021881Y0295929D01*
X0021851Y0295887D01*
X0021818Y0295846D01*
X0021783Y0295808D01*
X0021744Y0295773D01*
X0021703Y0295741D01*
X0021659Y0295712D01*
X0021614Y0295687D01*
X0021567Y0295665D01*
X0021518Y0295646D01*
X0021468Y0295632D01*
X0021417Y0295621D01*
X0021365Y0295614D01*
X0021313Y0295611D01*
X0021261Y0295612D01*
X0021209Y0295617D01*
X0021158Y0295626D01*
X0021107Y0295639D01*
X0021058Y0295655D01*
X0021009Y0295675D01*
X0020963Y0295699D01*
X0020919Y0295726D01*
X0020876Y0295757D01*
X0020836Y0295790D01*
X0020799Y0295827D01*
X0020765Y0295866D01*
X0020734Y0295908D01*
X0020705Y0295952D01*
X0020681Y0295998D01*
X0020660Y0296045D01*
X0020642Y0296095D01*
X0020629Y0296145D01*
X0020619Y0296196D01*
X0020613Y0296248D01*
X0020611Y0296300D01*
M02*
