G75*
%MOIN*%
%OFA0B0*%
%FSLAX25Y25*%
%IPPOS*%
%LPD*%
%AMOC8*
5,1,8,0,0,1.08239X$1,22.5*
%
%ADD10C,0.06800*%
%ADD11OC8,0.06000*%
%ADD12OC8,0.06737*%
%ADD13R,0.05918X0.06706*%
%ADD14C,0.03778*%
D10*
X0018106Y0065200D02*
X0024106Y0065200D01*
X0024106Y0075200D02*
X0018106Y0075200D01*
X0018106Y0085200D02*
X0024106Y0085200D01*
D11*
X0116106Y0180200D03*
X0136106Y0180200D03*
D12*
X0401106Y0185200D03*
X0411106Y0185200D03*
X0421106Y0185200D03*
X0431106Y0185200D03*
X0441106Y0185200D03*
X0451106Y0185200D03*
X0461106Y0185200D03*
X0471106Y0185200D03*
X0481106Y0185200D03*
X0491106Y0185200D03*
X0491106Y0195200D03*
X0481106Y0195200D03*
X0471106Y0195200D03*
X0461106Y0195200D03*
X0451106Y0195200D03*
X0441106Y0195200D03*
X0431106Y0195200D03*
X0421106Y0195200D03*
X0411106Y0195200D03*
X0401106Y0195200D03*
X0401106Y0025200D03*
X0411106Y0025200D03*
X0421106Y0025200D03*
X0431106Y0025200D03*
X0441106Y0025200D03*
X0451106Y0025200D03*
X0461106Y0025200D03*
X0471106Y0025200D03*
X0481106Y0025200D03*
X0491106Y0025200D03*
X0491106Y0015200D03*
X0481106Y0015200D03*
X0471106Y0015200D03*
X0461106Y0015200D03*
X0451106Y0015200D03*
X0441106Y0015200D03*
X0431106Y0015200D03*
X0421106Y0015200D03*
X0411106Y0015200D03*
X0401106Y0015200D03*
D13*
X0089846Y0120200D03*
X0082366Y0120200D03*
D14*
X0034856Y0023950D03*
X0031106Y0026450D03*
X0032356Y0030200D03*
X0026106Y0031450D03*
X0049856Y0028950D03*
X0057356Y0025200D03*
X0049856Y0021450D03*
X0066106Y0016450D03*
X0072356Y0040200D03*
X0079856Y0046450D03*
X0079856Y0053950D03*
X0083606Y0053950D03*
X0078606Y0057700D03*
X0091106Y0053950D03*
X0067356Y0065200D03*
X0069856Y0071450D03*
X0057356Y0071450D03*
X0049856Y0065200D03*
X0047356Y0071450D03*
X0048606Y0076450D03*
X0044856Y0076450D03*
X0048606Y0081450D03*
X0044856Y0083950D03*
X0037356Y0087700D03*
X0029856Y0081450D03*
X0034856Y0098950D03*
X0044856Y0101450D03*
X0049856Y0098950D03*
X0056106Y0105200D03*
X0053606Y0111450D03*
X0057356Y0113950D03*
X0061106Y0118950D03*
X0081106Y0126450D03*
X0072356Y0131450D03*
X0071106Y0140200D03*
X0084856Y0150200D03*
X0091106Y0147700D03*
X0096106Y0145200D03*
X0101106Y0138950D03*
X0114856Y0137700D03*
X0134856Y0147700D03*
X0140042Y0144136D03*
X0146106Y0147811D03*
X0134856Y0152700D03*
X0134856Y0156450D03*
X0143606Y0160200D03*
X0147356Y0156450D03*
X0158606Y0153950D03*
X0166106Y0157700D03*
X0181106Y0155200D03*
X0186106Y0151450D03*
X0191106Y0150200D03*
X0181106Y0150200D03*
X0189856Y0157700D03*
X0182356Y0160200D03*
X0181106Y0170200D03*
X0186106Y0170200D03*
X0207356Y0165200D03*
X0211106Y0170200D03*
X0216106Y0163950D03*
X0219856Y0158950D03*
X0216106Y0156450D03*
X0209856Y0157700D03*
X0216106Y0150200D03*
X0206106Y0145200D03*
X0216106Y0140200D03*
X0231106Y0135200D03*
X0241106Y0120200D03*
X0246106Y0120200D03*
X0256106Y0120200D03*
X0242356Y0103950D03*
X0229856Y0096450D03*
X0227356Y0086450D03*
X0211106Y0095200D03*
X0208606Y0103950D03*
X0222356Y0103950D03*
X0197356Y0108950D03*
X0186106Y0100200D03*
X0183606Y0091450D03*
X0184856Y0087700D03*
X0181106Y0087700D03*
X0176106Y0088950D03*
X0164856Y0091450D03*
X0161106Y0100200D03*
X0146106Y0085200D03*
X0136106Y0085200D03*
X0146106Y0075200D03*
X0164856Y0082700D03*
X0176106Y0082700D03*
X0197195Y0090200D03*
X0197356Y0093950D03*
X0206106Y0076450D03*
X0226106Y0075200D03*
X0241106Y0075200D03*
X0261106Y0065200D03*
X0253606Y0060200D03*
X0252356Y0055200D03*
X0247356Y0055200D03*
X0253606Y0048950D03*
X0251106Y0042700D03*
X0253606Y0035200D03*
X0249856Y0031450D03*
X0261106Y0026450D03*
X0264856Y0022700D03*
X0268606Y0020200D03*
X0272356Y0017700D03*
X0267356Y0013950D03*
X0257356Y0022700D03*
X0251106Y0016450D03*
X0216106Y0035200D03*
X0224856Y0043950D03*
X0232356Y0043950D03*
X0231106Y0040200D03*
X0234856Y0048950D03*
X0226106Y0057700D03*
X0201106Y0040200D03*
X0177356Y0032700D03*
X0146106Y0036450D03*
X0141106Y0035200D03*
X0141106Y0045200D03*
X0146106Y0050200D03*
X0142356Y0057700D03*
X0091106Y0070200D03*
X0091106Y0081450D03*
X0081106Y0090200D03*
X0072356Y0083950D03*
X0061106Y0090200D03*
X0069856Y0096450D03*
X0076106Y0100200D03*
X0081106Y0110200D03*
X0071106Y0110200D03*
X0091106Y0110200D03*
X0101106Y0100200D03*
X0131106Y0100200D03*
X0146106Y0120200D03*
X0144856Y0138950D03*
X0181106Y0138950D03*
X0201106Y0120200D03*
X0236106Y0152700D03*
X0242356Y0152700D03*
X0238606Y0161450D03*
X0236106Y0166450D03*
X0239856Y0168950D03*
X0234856Y0173950D03*
X0224856Y0168950D03*
X0246106Y0163950D03*
X0261106Y0170200D03*
X0266106Y0170200D03*
X0271106Y0170200D03*
X0281106Y0165200D03*
X0276106Y0160200D03*
X0267356Y0163950D03*
X0262356Y0158950D03*
X0262356Y0151450D03*
X0281106Y0150200D03*
X0304856Y0153950D03*
X0309856Y0156450D03*
X0302356Y0162700D03*
X0323606Y0166450D03*
X0337356Y0163950D03*
X0331106Y0155200D03*
X0326106Y0155200D03*
X0312356Y0145200D03*
X0309856Y0150200D03*
X0304856Y0141450D03*
X0321106Y0122700D03*
X0327356Y0122700D03*
X0323606Y0116450D03*
X0327356Y0112700D03*
X0322356Y0110200D03*
X0314856Y0107700D03*
X0296106Y0100200D03*
X0292356Y0101450D03*
X0286106Y0110200D03*
X0296106Y0120200D03*
X0266106Y0095200D03*
X0262356Y0091450D03*
X0271106Y0090200D03*
X0304856Y0075200D03*
X0316106Y0076450D03*
X0336106Y0070200D03*
X0341106Y0085200D03*
X0334856Y0092700D03*
X0344856Y0102700D03*
X0342356Y0110200D03*
X0362356Y0107700D03*
X0362356Y0097700D03*
X0361106Y0091450D03*
X0366106Y0080200D03*
X0386106Y0080200D03*
X0397356Y0076450D03*
X0403606Y0073950D03*
X0401106Y0065200D03*
X0392356Y0063950D03*
X0416106Y0063950D03*
X0416106Y0073950D03*
X0437356Y0083950D03*
X0441106Y0083950D03*
X0451106Y0078950D03*
X0449856Y0075200D03*
X0459856Y0077700D03*
X0464856Y0073950D03*
X0476106Y0075200D03*
X0487356Y0081450D03*
X0487356Y0090200D03*
X0479856Y0097700D03*
X0486106Y0100200D03*
X0473606Y0102700D03*
X0468606Y0103950D03*
X0464856Y0103950D03*
X0456106Y0107700D03*
X0464856Y0113950D03*
X0461106Y0116450D03*
X0467356Y0121450D03*
X0472356Y0122700D03*
X0472356Y0126450D03*
X0476106Y0126450D03*
X0483606Y0121450D03*
X0491106Y0123950D03*
X0493606Y0117700D03*
X0487356Y0112700D03*
X0474856Y0113950D03*
X0469856Y0113950D03*
X0452356Y0121450D03*
X0441106Y0116450D03*
X0454856Y0101450D03*
X0472356Y0097700D03*
X0476106Y0086450D03*
X0464856Y0086450D03*
X0462356Y0082700D03*
X0457356Y0081450D03*
X0487356Y0063950D03*
X0496106Y0058950D03*
X0461106Y0061450D03*
X0431106Y0045200D03*
X0421106Y0050200D03*
X0441106Y0035200D03*
X0454856Y0037700D03*
X0391106Y0035200D03*
X0387356Y0032700D03*
X0382356Y0045200D03*
X0377356Y0043950D03*
X0361106Y0031450D03*
X0283606Y0061450D03*
X0271106Y0055200D03*
X0271106Y0045200D03*
X0389856Y0117700D03*
X0382356Y0120200D03*
X0394856Y0122700D03*
X0393606Y0127700D03*
X0397356Y0127700D03*
X0402356Y0122700D03*
X0402356Y0132700D03*
X0416106Y0146450D03*
X0428606Y0146450D03*
X0427356Y0155200D03*
X0416106Y0155200D03*
X0436106Y0163950D03*
X0439856Y0160200D03*
X0449856Y0170200D03*
X0461106Y0161450D03*
X0464856Y0157700D03*
X0467356Y0153950D03*
X0486106Y0145200D03*
X0467356Y0143950D03*
X0467356Y0137700D03*
X0476106Y0136450D03*
X0459856Y0140200D03*
X0454856Y0141450D03*
X0496106Y0165200D03*
X0436106Y0177700D03*
X0396106Y0167700D03*
X0396106Y0163950D03*
X0371106Y0188950D03*
X0271106Y0180200D03*
X0211106Y0180200D03*
X0197356Y0186450D03*
X0194856Y0191450D03*
X0189856Y0191450D03*
X0151106Y0193950D03*
X0147356Y0191450D03*
X0143606Y0188950D03*
X0138606Y0187700D03*
X0136106Y0192700D03*
X0139856Y0196450D03*
X0053606Y0143950D03*
X0044856Y0138950D03*
X0047356Y0132700D03*
X0051106Y0130200D03*
X0041106Y0120200D03*
X0033606Y0113950D03*
X0029856Y0106450D03*
X0026106Y0121450D03*
X0101106Y0120200D03*
X0061106Y0050200D03*
X0037356Y0048950D03*
M02*
