%
M48
M72
T01C0.01378
T02C0.03200
T03C0.03937
T04C0.04000
%
T01
X34856Y23950
X31106Y26450
X32356Y30200
X26106Y31450
X49856Y28950
X57356Y25200
X49856Y21450
X66106Y16450
X72356Y40200
X79856Y46450
X79856Y53950
X83606Y53950
X78606Y57700
X91106Y53950
X67356Y65200
X69856Y71450
X57356Y71450
X49856Y65200
X47356Y71450
X48606Y76450
X44856Y76450
X48606Y81450
X44856Y83950
X37356Y87700
X29856Y81450
X34856Y98950
X44856Y101450
X49856Y98950
X56106Y105200
X53606Y111450
X57356Y113950
X61106Y118950
X81106Y126450
X72356Y131450
X71106Y140200
X84856Y150200
X91106Y147700
X96106Y145200
X101106Y138950
X114856Y137700
X134856Y147700
X140042Y144136
X146106Y147811
X134856Y152700
X134856Y156450
X143606Y160200
X147356Y156450
X158606Y153950
X166106Y157700
X181106Y155200
X186106Y151450
X191106Y150200
X181106Y150200
X189856Y157700
X182356Y160200
X181106Y170200
X186106Y170200
X207356Y165200
X211106Y170200
X216106Y163950
X219856Y158950
X216106Y156450
X209856Y157700
X216106Y150200
X206106Y145200
X216106Y140200
X231106Y135200
X241106Y120200
X246106Y120200
X256106Y120200
X242356Y103950
X229856Y96450
X227356Y86450
X211106Y95200
X208606Y103950
X222356Y103950
X197356Y108950
X186106Y100200
X183606Y91450
X184856Y87700
X181106Y87700
X176106Y88950
X164856Y91450
X161106Y100200
X146106Y85200
X136106Y85200
X146106Y75200
X164856Y82700
X176106Y82700
X197195Y90200
X197356Y93950
X206106Y76450
X226106Y75200
X241106Y75200
X261106Y65200
X253606Y60200
X252356Y55200
X247356Y55200
X253606Y48950
X251106Y42700
X253606Y35200
X249856Y31450
X261106Y26450
X264856Y22700
X268606Y20200
X272356Y17700
X267356Y13950
X257356Y22700
X251106Y16450
X216106Y35200
X224856Y43950
X232356Y43950
X231106Y40200
X234856Y48950
X226106Y57700
X201106Y40200
X177356Y32700
X146106Y36450
X141106Y35200
X141106Y45200
X146106Y50200
X142356Y57700
X91106Y70200
X91106Y81450
X81106Y90200
X72356Y83950
X61106Y90200
X69856Y96450
X76106Y100200
X81106Y110200
X71106Y110200
X91106Y110200
X101106Y100200
X131106Y100200
X146106Y120200
X144856Y138950
X181106Y138950
X201106Y120200
X236106Y152700
X242356Y152700
X238606Y161450
X236106Y166450
X239856Y168950
X234856Y173950
X224856Y168950
X246106Y163950
X261106Y170200
X266106Y170200
X271106Y170200
X281106Y165200
X276106Y160200
X267356Y163950
X262356Y158950
X262356Y151450
X281106Y150200
X304856Y153950
X309856Y156450
X302356Y162700
X323606Y166450
X337356Y163950
X331106Y155200
X326106Y155200
X312356Y145200
X309856Y150200
X304856Y141450
X321106Y122700
X327356Y122700
X323606Y116450
X327356Y112700
X322356Y110200
X314856Y107700
X296106Y100200
X292356Y101450
X286106Y110200
X296106Y120200
X266106Y95200
X262356Y91450
X271106Y90200
X304856Y75200
X316106Y76450
X336106Y70200
X341106Y85200
X334856Y92700
X344856Y102700
X342356Y110200
X362356Y107700
X362356Y97700
X361106Y91450
X366106Y80200
X386106Y80200
X397356Y76450
X403606Y73950
X401106Y65200
X392356Y63950
X416106Y63950
X416106Y73950
X437356Y83950
X441106Y83950
X451106Y78950
X449856Y75200
X459856Y77700
X464856Y73950
X476106Y75200
X487356Y81450
X487356Y90200
X479856Y97700
X486106Y100200
X473606Y102700
X468606Y103950
X464856Y103950
X456106Y107700
X464856Y113950
X461106Y116450
X467356Y121450
X472356Y122700
X472356Y126450
X476106Y126450
X483606Y121450
X491106Y123950
X493606Y117700
X487356Y112700
X474856Y113950
X469856Y113950
X452356Y121450
X441106Y116450
X454856Y101450
X472356Y97700
X476106Y86450
X464856Y86450
X462356Y82700
X457356Y81450
X487356Y63950
X496106Y58950
X461106Y61450
X431106Y45200
X421106Y50200
X441106Y35200
X454856Y37700
X391106Y35200
X387356Y32700
X382356Y45200
X377356Y43950
X361106Y31450
X283606Y61450
X271106Y55200
X271106Y45200
X389856Y117700
X382356Y120200
X394856Y122700
X393606Y127700
X397356Y127700
X402356Y122700
X402356Y132700
X416106Y146450
X428606Y146450
X427356Y155200
X416106Y155200
X436106Y163950
X439856Y160200
X449856Y170200
X461106Y161450
X464856Y157700
X467356Y153950
X486106Y145200
X467356Y143950
X467356Y137700
X476106Y136450
X459856Y140200
X454856Y141450
X496106Y165200
X436106Y177700
X396106Y167700
X396106Y163950
X371106Y188950
X271106Y180200
X211106Y180200
X197356Y186450
X194856Y191450
X189856Y191450
X151106Y193950
X147356Y191450
X143606Y188950
X138606Y187700
X136106Y192700
X139856Y196450
X53606Y143950
X44856Y138950
X47356Y132700
X51106Y130200
X41106Y120200
X33606Y113950
X29856Y106450
X26106Y121450
X101106Y120200
X61106Y50200
X37356Y48950
T02
X116106Y180200
X136106Y180200
T03
X401106Y185200
X411106Y185200
X421106Y185200
X431106Y185200
X441106Y185200
X451106Y185200
X461106Y185200
X471106Y185200
X481106Y185200
X491106Y185200
X491106Y195200
X481106Y195200
X471106Y195200
X461106Y195200
X451106Y195200
X441106Y195200
X431106Y195200
X421106Y195200
X411106Y195200
X401106Y195200
X401106Y25200
X411106Y25200
X421106Y25200
X431106Y25200
X441106Y25200
X451106Y25200
X461106Y25200
X471106Y25200
X481106Y25200
X491106Y25200
X491106Y15200
X481106Y15200
X471106Y15200
X461106Y15200
X451106Y15200
X441106Y15200
X431106Y15200
X421106Y15200
X411106Y15200
X401106Y15200
T04
X21106Y65200
X21106Y75200
X21106Y85200
M30
