G75*
%MOIN*%
%OFA0B0*%
%FSLAX25Y25*%
%IPPOS*%
%LPD*%
%AMOC8*
5,1,8,0,0,1.08239X$1,22.5*
%
%ADD10R,0.06706X0.05918*%
%ADD11R,0.05918X0.06706*%
%ADD12C,0.06800*%
%ADD13OC8,0.06000*%
%ADD14OC8,0.06737*%
%ADD15R,0.04343X0.02178*%
%ADD16R,0.04700X0.02000*%
%ADD17R,0.02178X0.04343*%
%ADD18R,0.06600X0.02200*%
%ADD19R,0.02000X0.04700*%
%ADD20C,0.03778*%
D10*
X0111106Y0041460D03*
X0121106Y0038940D03*
X0121106Y0031460D03*
X0111106Y0048940D03*
X0121106Y0051460D03*
X0121106Y0058940D03*
X0151106Y0091460D03*
X0151106Y0098940D03*
X0161106Y0141460D03*
X0161106Y0148940D03*
X0161106Y0161460D03*
X0161106Y0168940D03*
X0121106Y0168940D03*
X0121106Y0161460D03*
X0306106Y0108940D03*
X0306106Y0101460D03*
X0391106Y0058940D03*
X0391106Y0051460D03*
X0431106Y0051460D03*
X0431106Y0058940D03*
D11*
X0414846Y0050200D03*
X0407366Y0050200D03*
X0404846Y0090200D03*
X0397366Y0090200D03*
X0417366Y0090200D03*
X0424846Y0090200D03*
X0334846Y0085200D03*
X0327366Y0085200D03*
X0304846Y0090200D03*
X0297366Y0090200D03*
X0274846Y0105200D03*
X0267366Y0105200D03*
X0234846Y0125200D03*
X0227366Y0125200D03*
X0174846Y0120200D03*
X0167366Y0120200D03*
X0134846Y0130200D03*
X0127366Y0130200D03*
X0119846Y0150200D03*
X0112366Y0150200D03*
X0109846Y0160200D03*
X0102366Y0160200D03*
X0137366Y0170200D03*
X0144846Y0170200D03*
X0157366Y0180200D03*
X0164846Y0180200D03*
X0104846Y0180200D03*
X0097366Y0180200D03*
X0084846Y0180200D03*
X0077366Y0180200D03*
X0237366Y0180200D03*
X0244846Y0180200D03*
X0224846Y0095200D03*
X0217366Y0095200D03*
X0267366Y0070200D03*
X0274846Y0070200D03*
X0229846Y0065200D03*
X0222366Y0065200D03*
X0174846Y0060200D03*
X0167366Y0060200D03*
X0169846Y0035200D03*
X0162366Y0035200D03*
X0164846Y0025200D03*
X0157366Y0025200D03*
X0084846Y0070200D03*
X0077366Y0070200D03*
D12*
X0024106Y0065200D02*
X0018106Y0065200D01*
X0018106Y0075200D02*
X0024106Y0075200D01*
X0024106Y0085200D02*
X0018106Y0085200D01*
D13*
X0116106Y0180200D03*
X0136106Y0180200D03*
D14*
X0401106Y0185200D03*
X0411106Y0185200D03*
X0421106Y0185200D03*
X0431106Y0185200D03*
X0441106Y0185200D03*
X0451106Y0185200D03*
X0461106Y0185200D03*
X0471106Y0185200D03*
X0481106Y0185200D03*
X0491106Y0185200D03*
X0491106Y0195200D03*
X0481106Y0195200D03*
X0471106Y0195200D03*
X0461106Y0195200D03*
X0451106Y0195200D03*
X0441106Y0195200D03*
X0431106Y0195200D03*
X0421106Y0195200D03*
X0411106Y0195200D03*
X0401106Y0195200D03*
X0401106Y0025200D03*
X0411106Y0025200D03*
X0421106Y0025200D03*
X0431106Y0025200D03*
X0441106Y0025200D03*
X0451106Y0025200D03*
X0461106Y0025200D03*
X0471106Y0025200D03*
X0481106Y0025200D03*
X0491106Y0025200D03*
X0491106Y0015200D03*
X0481106Y0015200D03*
X0471106Y0015200D03*
X0461106Y0015200D03*
X0451106Y0015200D03*
X0441106Y0015200D03*
X0431106Y0015200D03*
X0421106Y0015200D03*
X0411106Y0015200D03*
X0401106Y0015200D03*
D15*
X0039787Y0021243D03*
X0039787Y0023802D03*
X0039787Y0026361D03*
X0039787Y0028920D03*
X0039787Y0031480D03*
X0039787Y0034039D03*
X0039787Y0036598D03*
X0039787Y0039157D03*
X0062425Y0039157D03*
X0062425Y0036598D03*
X0062425Y0034039D03*
X0062425Y0031480D03*
X0062425Y0028920D03*
X0062425Y0026361D03*
X0062425Y0023802D03*
X0062425Y0021243D03*
X0062425Y0066243D03*
X0062425Y0068802D03*
X0062425Y0071361D03*
X0062425Y0073920D03*
X0062425Y0076480D03*
X0062425Y0079039D03*
X0062425Y0081598D03*
X0062425Y0084157D03*
X0062425Y0096243D03*
X0062425Y0098802D03*
X0062425Y0101361D03*
X0062425Y0103920D03*
X0062425Y0106480D03*
X0062425Y0109039D03*
X0062425Y0111598D03*
X0062425Y0114157D03*
X0062425Y0126243D03*
X0062425Y0128802D03*
X0062425Y0131361D03*
X0062425Y0133920D03*
X0062425Y0136480D03*
X0062425Y0139039D03*
X0062425Y0141598D03*
X0062425Y0144157D03*
X0039787Y0144157D03*
X0039787Y0141598D03*
X0039787Y0139039D03*
X0039787Y0136480D03*
X0039787Y0133920D03*
X0039787Y0131361D03*
X0039787Y0128802D03*
X0039787Y0126243D03*
X0039787Y0114157D03*
X0039787Y0111598D03*
X0039787Y0109039D03*
X0039787Y0106480D03*
X0039787Y0103920D03*
X0039787Y0101361D03*
X0039787Y0098802D03*
X0039787Y0096243D03*
X0039787Y0084157D03*
X0039787Y0081598D03*
X0039787Y0079039D03*
X0039787Y0076480D03*
X0039787Y0073920D03*
X0039787Y0071361D03*
X0039787Y0068802D03*
X0039787Y0066243D03*
D16*
X0129619Y0142523D03*
X0129619Y0145082D03*
X0129619Y0147641D03*
X0129619Y0150200D03*
X0129619Y0152759D03*
X0129619Y0155318D03*
X0129619Y0157877D03*
X0152593Y0157877D03*
X0152593Y0155318D03*
X0152593Y0152759D03*
X0152593Y0150200D03*
X0152593Y0147641D03*
X0152593Y0145082D03*
X0152593Y0142523D03*
X0334619Y0117877D03*
X0334619Y0115318D03*
X0334619Y0112759D03*
X0334619Y0110200D03*
X0334619Y0107641D03*
X0334619Y0105082D03*
X0334619Y0102523D03*
X0357593Y0102523D03*
X0357593Y0105082D03*
X0357593Y0107641D03*
X0357593Y0110200D03*
X0357593Y0112759D03*
X0357593Y0115318D03*
X0357593Y0117877D03*
D17*
X0462149Y0108881D03*
X0464708Y0108881D03*
X0467267Y0108881D03*
X0469826Y0108881D03*
X0472385Y0108881D03*
X0474944Y0108881D03*
X0477504Y0108881D03*
X0480063Y0108881D03*
X0480063Y0091519D03*
X0477504Y0091519D03*
X0474944Y0091519D03*
X0472385Y0091519D03*
X0469826Y0091519D03*
X0467267Y0091519D03*
X0464708Y0091519D03*
X0462149Y0091519D03*
X0462149Y0068881D03*
X0464708Y0068881D03*
X0467267Y0068881D03*
X0469826Y0068881D03*
X0472385Y0068881D03*
X0474944Y0068881D03*
X0477504Y0068881D03*
X0480063Y0068881D03*
X0480063Y0131519D03*
X0477504Y0131519D03*
X0474944Y0131519D03*
X0472385Y0131519D03*
X0469826Y0131519D03*
X0467267Y0131519D03*
X0464708Y0131519D03*
X0462149Y0131519D03*
X0462149Y0148881D03*
X0464708Y0148881D03*
X0467267Y0148881D03*
X0469826Y0148881D03*
X0472385Y0148881D03*
X0474944Y0148881D03*
X0477504Y0148881D03*
X0480063Y0148881D03*
X0480063Y0171519D03*
X0477504Y0171519D03*
X0474944Y0171519D03*
X0472385Y0171519D03*
X0469826Y0171519D03*
X0467267Y0171519D03*
X0464708Y0171519D03*
X0462149Y0171519D03*
D18*
X0317206Y0171716D03*
X0317206Y0169157D03*
X0317206Y0166598D03*
X0317206Y0164039D03*
X0317206Y0161480D03*
X0317206Y0158920D03*
X0317206Y0156361D03*
X0317206Y0153802D03*
X0317206Y0151243D03*
X0317206Y0148684D03*
X0295006Y0148684D03*
X0295006Y0151243D03*
X0295006Y0153802D03*
X0295006Y0156361D03*
X0295006Y0158920D03*
X0295006Y0161480D03*
X0295006Y0164039D03*
X0295006Y0166598D03*
X0295006Y0169157D03*
X0295006Y0171716D03*
X0252206Y0171716D03*
X0252206Y0169157D03*
X0252206Y0166598D03*
X0252206Y0164039D03*
X0252206Y0161480D03*
X0252206Y0158920D03*
X0252206Y0156361D03*
X0252206Y0153802D03*
X0252206Y0151243D03*
X0252206Y0148684D03*
X0230006Y0148684D03*
X0230006Y0151243D03*
X0230006Y0153802D03*
X0230006Y0156361D03*
X0230006Y0158920D03*
X0230006Y0161480D03*
X0230006Y0164039D03*
X0230006Y0166598D03*
X0230006Y0169157D03*
X0230006Y0171716D03*
X0197206Y0171716D03*
X0197206Y0169157D03*
X0197206Y0166598D03*
X0197206Y0164039D03*
X0197206Y0161480D03*
X0197206Y0158920D03*
X0197206Y0156361D03*
X0197206Y0153802D03*
X0197206Y0151243D03*
X0197206Y0148684D03*
X0175006Y0148684D03*
X0175006Y0151243D03*
X0175006Y0153802D03*
X0175006Y0156361D03*
X0175006Y0158920D03*
X0175006Y0161480D03*
X0175006Y0164039D03*
X0175006Y0166598D03*
X0175006Y0169157D03*
X0175006Y0171716D03*
X0170006Y0106716D03*
X0170006Y0104157D03*
X0170006Y0101598D03*
X0170006Y0099039D03*
X0170006Y0096480D03*
X0170006Y0093920D03*
X0170006Y0091361D03*
X0170006Y0088802D03*
X0170006Y0086243D03*
X0170006Y0083684D03*
X0192206Y0083684D03*
X0192206Y0086243D03*
X0192206Y0088802D03*
X0192206Y0091361D03*
X0192206Y0093920D03*
X0192206Y0096480D03*
X0192206Y0099039D03*
X0192206Y0101598D03*
X0192206Y0104157D03*
X0192206Y0106716D03*
X0235006Y0106716D03*
X0235006Y0104157D03*
X0235006Y0101598D03*
X0235006Y0099039D03*
X0235006Y0096480D03*
X0235006Y0093920D03*
X0235006Y0091361D03*
X0235006Y0088802D03*
X0235006Y0086243D03*
X0235006Y0083684D03*
X0257206Y0083684D03*
X0257206Y0086243D03*
X0257206Y0088802D03*
X0257206Y0091361D03*
X0257206Y0093920D03*
X0257206Y0096480D03*
X0257206Y0099039D03*
X0257206Y0101598D03*
X0257206Y0104157D03*
X0257206Y0106716D03*
X0262206Y0056716D03*
X0262206Y0054157D03*
X0262206Y0051598D03*
X0262206Y0049039D03*
X0262206Y0046480D03*
X0262206Y0043920D03*
X0262206Y0041361D03*
X0262206Y0038802D03*
X0262206Y0036243D03*
X0262206Y0033684D03*
X0240006Y0033684D03*
X0240006Y0036243D03*
X0240006Y0038802D03*
X0240006Y0041361D03*
X0240006Y0043920D03*
X0240006Y0046480D03*
X0240006Y0049039D03*
X0240006Y0051598D03*
X0240006Y0054157D03*
X0240006Y0056716D03*
X0152206Y0056716D03*
X0152206Y0054157D03*
X0152206Y0051598D03*
X0152206Y0049039D03*
X0152206Y0046480D03*
X0152206Y0043920D03*
X0152206Y0041361D03*
X0152206Y0038802D03*
X0152206Y0036243D03*
X0152206Y0033684D03*
X0130006Y0033684D03*
X0130006Y0036243D03*
X0130006Y0038802D03*
X0130006Y0041361D03*
X0130006Y0043920D03*
X0130006Y0046480D03*
X0130006Y0049039D03*
X0130006Y0051598D03*
X0130006Y0054157D03*
X0130006Y0056716D03*
D19*
X0403429Y0058713D03*
X0405988Y0058713D03*
X0408547Y0058713D03*
X0411106Y0058713D03*
X0413665Y0058713D03*
X0416224Y0058713D03*
X0418783Y0058713D03*
X0418783Y0081687D03*
X0416224Y0081687D03*
X0413665Y0081687D03*
X0411106Y0081687D03*
X0408547Y0081687D03*
X0405988Y0081687D03*
X0403429Y0081687D03*
D20*
X0397356Y0076450D03*
X0403606Y0073950D03*
X0401106Y0065200D03*
X0392356Y0063950D03*
X0416106Y0063950D03*
X0416106Y0073950D03*
X0437356Y0083950D03*
X0441106Y0083950D03*
X0451106Y0078950D03*
X0449856Y0075200D03*
X0459856Y0077700D03*
X0464856Y0073950D03*
X0476106Y0075200D03*
X0487356Y0081450D03*
X0487356Y0090200D03*
X0479856Y0097700D03*
X0486106Y0100200D03*
X0473606Y0102700D03*
X0468606Y0103950D03*
X0464856Y0103950D03*
X0456106Y0107700D03*
X0464856Y0113950D03*
X0461106Y0116450D03*
X0467356Y0121450D03*
X0472356Y0122700D03*
X0472356Y0126450D03*
X0476106Y0126450D03*
X0483606Y0121450D03*
X0491106Y0123950D03*
X0493606Y0117700D03*
X0487356Y0112700D03*
X0474856Y0113950D03*
X0469856Y0113950D03*
X0452356Y0121450D03*
X0441106Y0116450D03*
X0454856Y0101450D03*
X0472356Y0097700D03*
X0476106Y0086450D03*
X0464856Y0086450D03*
X0462356Y0082700D03*
X0457356Y0081450D03*
X0487356Y0063950D03*
X0496106Y0058950D03*
X0461106Y0061450D03*
X0431106Y0045200D03*
X0421106Y0050200D03*
X0441106Y0035200D03*
X0454856Y0037700D03*
X0391106Y0035200D03*
X0387356Y0032700D03*
X0382356Y0045200D03*
X0377356Y0043950D03*
X0361106Y0031450D03*
X0336106Y0070200D03*
X0316106Y0076450D03*
X0304856Y0075200D03*
X0283606Y0061450D03*
X0271106Y0055200D03*
X0271106Y0045200D03*
X0253606Y0048950D03*
X0252356Y0055200D03*
X0247356Y0055200D03*
X0253606Y0060200D03*
X0261106Y0065200D03*
X0241106Y0075200D03*
X0226106Y0075200D03*
X0206106Y0076450D03*
X0227356Y0086450D03*
X0229856Y0096450D03*
X0222356Y0103950D03*
X0208606Y0103950D03*
X0211106Y0095200D03*
X0197356Y0093950D03*
X0197195Y0090200D03*
X0184856Y0087700D03*
X0181106Y0087700D03*
X0176106Y0088950D03*
X0183606Y0091450D03*
X0186106Y0100200D03*
X0197356Y0108950D03*
X0201106Y0120200D03*
X0231106Y0135200D03*
X0216106Y0140200D03*
X0206106Y0145200D03*
X0216106Y0150200D03*
X0216106Y0156450D03*
X0219856Y0158950D03*
X0216106Y0163950D03*
X0209856Y0157700D03*
X0207356Y0165200D03*
X0211106Y0170200D03*
X0224856Y0168950D03*
X0234856Y0173950D03*
X0239856Y0168950D03*
X0236106Y0166450D03*
X0238606Y0161450D03*
X0246106Y0163950D03*
X0261106Y0170200D03*
X0266106Y0170200D03*
X0271106Y0170200D03*
X0281106Y0165200D03*
X0276106Y0160200D03*
X0267356Y0163950D03*
X0262356Y0158950D03*
X0262356Y0151450D03*
X0281106Y0150200D03*
X0304856Y0153950D03*
X0309856Y0156450D03*
X0302356Y0162700D03*
X0323606Y0166450D03*
X0337356Y0163950D03*
X0331106Y0155200D03*
X0326106Y0155200D03*
X0312356Y0145200D03*
X0309856Y0150200D03*
X0304856Y0141450D03*
X0321106Y0122700D03*
X0327356Y0122700D03*
X0323606Y0116450D03*
X0327356Y0112700D03*
X0322356Y0110200D03*
X0314856Y0107700D03*
X0296106Y0100200D03*
X0292356Y0101450D03*
X0286106Y0110200D03*
X0296106Y0120200D03*
X0256106Y0120200D03*
X0246106Y0120200D03*
X0241106Y0120200D03*
X0242356Y0103950D03*
X0262356Y0091450D03*
X0266106Y0095200D03*
X0271106Y0090200D03*
X0226106Y0057700D03*
X0234856Y0048950D03*
X0232356Y0043950D03*
X0224856Y0043950D03*
X0231106Y0040200D03*
X0216106Y0035200D03*
X0201106Y0040200D03*
X0177356Y0032700D03*
X0146106Y0036450D03*
X0141106Y0035200D03*
X0141106Y0045200D03*
X0146106Y0050200D03*
X0142356Y0057700D03*
X0146106Y0075200D03*
X0146106Y0085200D03*
X0136106Y0085200D03*
X0131106Y0100200D03*
X0161106Y0100200D03*
X0164856Y0091450D03*
X0164856Y0082700D03*
X0176106Y0082700D03*
X0146106Y0120200D03*
X0144856Y0138950D03*
X0140042Y0144136D03*
X0134856Y0147700D03*
X0134856Y0152700D03*
X0134856Y0156450D03*
X0143606Y0160200D03*
X0147356Y0156450D03*
X0158606Y0153950D03*
X0166106Y0157700D03*
X0181106Y0155200D03*
X0186106Y0151450D03*
X0191106Y0150200D03*
X0181106Y0150200D03*
X0189856Y0157700D03*
X0182356Y0160200D03*
X0181106Y0170200D03*
X0186106Y0170200D03*
X0211106Y0180200D03*
X0197356Y0186450D03*
X0194856Y0191450D03*
X0189856Y0191450D03*
X0151106Y0193950D03*
X0147356Y0191450D03*
X0143606Y0188950D03*
X0138606Y0187700D03*
X0136106Y0192700D03*
X0139856Y0196450D03*
X0084856Y0150200D03*
X0091106Y0147700D03*
X0096106Y0145200D03*
X0101106Y0138950D03*
X0114856Y0137700D03*
X0146106Y0147811D03*
X0181106Y0138950D03*
X0236106Y0152700D03*
X0242356Y0152700D03*
X0271106Y0180200D03*
X0371106Y0188950D03*
X0396106Y0167700D03*
X0396106Y0163950D03*
X0416106Y0155200D03*
X0427356Y0155200D03*
X0439856Y0160200D03*
X0436106Y0163950D03*
X0449856Y0170200D03*
X0461106Y0161450D03*
X0464856Y0157700D03*
X0467356Y0153950D03*
X0486106Y0145200D03*
X0467356Y0143950D03*
X0467356Y0137700D03*
X0476106Y0136450D03*
X0459856Y0140200D03*
X0454856Y0141450D03*
X0428606Y0146450D03*
X0416106Y0146450D03*
X0402356Y0132700D03*
X0397356Y0127700D03*
X0393606Y0127700D03*
X0394856Y0122700D03*
X0389856Y0117700D03*
X0382356Y0120200D03*
X0402356Y0122700D03*
X0362356Y0107700D03*
X0362356Y0097700D03*
X0361106Y0091450D03*
X0344856Y0102700D03*
X0342356Y0110200D03*
X0334856Y0092700D03*
X0341106Y0085200D03*
X0366106Y0080200D03*
X0386106Y0080200D03*
X0272356Y0017700D03*
X0268606Y0020200D03*
X0264856Y0022700D03*
X0261106Y0026450D03*
X0257356Y0022700D03*
X0251106Y0016450D03*
X0267356Y0013950D03*
X0249856Y0031450D03*
X0253606Y0035200D03*
X0251106Y0042700D03*
X0101106Y0100200D03*
X0091106Y0110200D03*
X0081106Y0110200D03*
X0071106Y0110200D03*
X0076106Y0100200D03*
X0069856Y0096450D03*
X0061106Y0090200D03*
X0072356Y0083950D03*
X0081106Y0090200D03*
X0091106Y0081450D03*
X0091106Y0070200D03*
X0069856Y0071450D03*
X0067356Y0065200D03*
X0057356Y0071450D03*
X0049856Y0065200D03*
X0047356Y0071450D03*
X0048606Y0076450D03*
X0044856Y0076450D03*
X0048606Y0081450D03*
X0044856Y0083950D03*
X0037356Y0087700D03*
X0029856Y0081450D03*
X0034856Y0098950D03*
X0044856Y0101450D03*
X0049856Y0098950D03*
X0056106Y0105200D03*
X0053606Y0111450D03*
X0057356Y0113950D03*
X0061106Y0118950D03*
X0081106Y0126450D03*
X0072356Y0131450D03*
X0071106Y0140200D03*
X0053606Y0143950D03*
X0044856Y0138950D03*
X0047356Y0132700D03*
X0051106Y0130200D03*
X0041106Y0120200D03*
X0033606Y0113950D03*
X0029856Y0106450D03*
X0026106Y0121450D03*
X0101106Y0120200D03*
X0078606Y0057700D03*
X0079856Y0053950D03*
X0083606Y0053950D03*
X0091106Y0053950D03*
X0079856Y0046450D03*
X0072356Y0040200D03*
X0061106Y0050200D03*
X0037356Y0048950D03*
X0032356Y0030200D03*
X0026106Y0031450D03*
X0031106Y0026450D03*
X0034856Y0023950D03*
X0049856Y0021450D03*
X0057356Y0025200D03*
X0049856Y0028950D03*
X0066106Y0016450D03*
X0436106Y0177700D03*
X0496106Y0165200D03*
M02*
