%
M48
M72
T01C0.01378
T02C0.02756
T03C0.03937
T04C0.04000
%
T01
X16300Y16300
X39800Y11300
X46300Y21300
X46300Y26300
X51300Y31300
X66300Y31300
X71300Y31300
X81300Y31300
X86300Y36300
X91300Y36300
X96300Y36300
X67580Y39763
X51300Y46300
X43911Y46300
X36300Y56300
X53689Y56300
X36300Y70287
X41300Y88032
X46300Y88270
X48911Y101300
X43911Y106300
X51300Y110952
X36300Y116300
X31300Y116300
X56300Y121300
X56300Y126300
X83770Y118830
X86330Y121330
X91300Y116300
X111536Y111536
X117021Y103662
X124300Y93800
X132300Y98300
X135889Y86687
X147300Y93800
X166300Y96300
X181300Y98689
X182560Y106300
X186300Y111300
X180731Y116869
X195187Y118911
X206400Y114554
X205300Y131300
X198150Y135158
X190700Y142046
X172461Y150195
X164554Y150700
X166300Y156300
X169902Y161905
X166300Y162411
X176244Y156356
X182698Y162405
X201300Y163689
X210287Y166365
X241300Y156300
X248859Y154758
X251800Y143540
X231300Y141060
X234800Y130300
X237520Y118911
X257844Y131744
X271300Y136300
X281300Y141300
X286300Y136300
X301300Y131300
X306300Y136300
X326300Y136300
X331300Y128689
X336300Y128689
X341300Y131300
X346300Y128689
X344625Y118698
X344881Y114381
X336300Y111300
X336689Y118800
X321300Y118911
X316300Y116300
X346120Y106300
X357837Y105020
X356300Y116300
X357436Y119878
X361300Y121300
X378911Y122641
X381300Y126300
X383911Y121300
X390277Y119686
X386300Y116300
X401300Y126300
X375792Y95792
X392666Y91300
X392666Y86300
X383911Y81300
X378911Y81300
X381300Y76300
X386300Y76300
X390277Y77323
X361300Y56300
X361300Y51300
X366300Y46300
X388800Y50509
X346120Y66300
X336300Y66300
X340100Y76404
X346300Y81300
X351300Y86300
X326300Y91300
X300513Y95788
X286300Y101300
X286300Y106300
X271300Y106300
X246300Y86300
X261143Y72166
X229646Y72166
X206300Y71300
X201300Y76300
X191300Y86300
X171300Y78911
X153800Y70800
X142622Y68750
X132079Y62079
X113344Y64553
X91300Y66300
X111536Y80040
X81300Y96300
X132560Y112800
X141125Y116869
X171300Y136300
X146300Y141060
X141258Y146300
X139800Y155040
X133911Y166654
X141300Y176300
X168689Y183911
X176300Y181300
X191300Y194089
X183859Y204867
X192548Y209813
X181300Y213852
X166300Y206300
X156300Y206300
X150906Y206024
X156300Y196300
X129800Y216300
X151226Y225110
X141300Y231300
X136300Y231300
X126342Y231300
X126300Y241300
X131300Y241300
X146300Y241300
X146300Y236300
X151300Y251300
X136300Y261300
X136300Y266300
X130554Y257046
X116300Y246300
X101300Y226300
X106300Y206300
X91300Y206300
X76300Y193456
X76300Y189878
X76300Y186300
X81300Y181300
X67580Y189763
X63095Y191474
X56300Y186300
X51300Y191300
X48911Y181300
X46300Y176300
X41300Y171300
X46300Y161688
X111300Y156300
X111300Y183911
X41300Y206300
X56300Y231300
X71300Y251300
X131300Y281300
X141300Y286300
X176300Y276300
X187461Y266905
X192122Y267122
X211300Y261300
X201300Y256300
X197244Y244930
X186300Y241300
X181300Y241300
X176300Y236826
X179554Y245200
X191300Y236300
X196300Y226300
X201300Y221300
X181300Y227842
X221300Y226300
X236300Y246300
X244300Y249300
X246300Y256300
X256300Y261300
X261300Y266300
X255300Y272560
X246722Y270171
X242580Y270195
X246300Y279311
X250166Y281700
X231300Y271300
X226300Y276300
X221300Y271300
X216800Y276560
X203800Y285040
X186300Y291300
X176300Y301300
X197680Y301300
X226300Y261300
X266300Y246300
X271300Y241300
X286300Y236300
X286300Y231300
X296300Y228689
X300800Y239969
X298689Y242917
X300860Y245806
X296060Y247300
X289800Y251800
X296989Y256800
X315800Y266342
X316300Y270040
X331300Y266300
X301300Y276300
X283911Y271300
X271300Y273911
X266300Y301300
X313197Y301300
X346300Y301300
X371300Y301300
X371300Y286300
X391300Y236300
X421300Y223911
X431300Y226300
X428479Y231300
X425808Y233689
X441300Y221300
X465867Y221772
X457993Y237520
X513111Y229646
X516300Y226300
X541300Y246300
X513111Y284765
X536300Y291300
X526300Y301300
X416300Y201300
X410749Y190276
X391300Y201300
X381300Y191300
X381300Y181300
X381300Y176300
X382722Y171300
X386300Y171300
X386300Y166300
X392666Y161300
X395055Y156300
X366684Y171684
X356300Y161300
X343689Y161300
X345620Y170300
X338911Y176300
X341300Y181300
X336300Y183911
X346300Y189311
X348689Y186300
X351300Y191300
X346300Y197045
X340900Y192267
X321300Y206300
X341300Y221300
X333689Y226300
X328800Y223800
X321763Y237580
X311513Y236513
X266300Y231300
X256300Y221300
X251300Y201300
X246300Y194089
X226300Y201300
X221300Y201560
X211300Y196800
X241300Y181300
X246300Y166300
X212800Y147674
X212400Y141816
X286300Y176300
X286300Y181300
X286300Y196300
X316300Y181300
X291300Y166300
X296300Y156040
X331300Y161300
X343689Y151300
X456300Y193911
X465867Y190276
X476300Y198911
X481300Y196300
X481615Y182402
X471300Y176300
X476300Y171300
X471300Y166300
X491300Y151300
X501300Y126300
X501300Y96300
X486300Y96300
X481615Y88689
X471300Y91300
X455944Y91384
X450150Y84998
X498689Y50841
X486300Y41300
X511300Y30040
X521042Y11300
X546300Y16300
X461300Y11300
X401300Y16300
X361209Y7989
X356300Y9189
X356300Y12767
X341019Y29234
X326300Y36300
X206300Y52722
X206300Y56300
X190276Y64292
X180800Y51758
X176300Y36300
X154300Y49300
X135158Y49164
X126300Y31300
X96300Y11300
X91300Y11300
X86300Y11789
X541300Y86300
X21300Y296300
T02
X9135Y279174
X9135Y271300
X9135Y263426
X13446Y208957
X13446Y201083
X13446Y193209
X11135Y104174
X11135Y96300
X11135Y88426
X408295Y298529
X416169Y298529
X424043Y298529
X431917Y298529
X454056Y298347
X461930Y298347
X469804Y298347
X477678Y298347
X485550Y298359
X493424Y298359
T03
X491300Y216300
X481300Y216300
X471300Y216300
X461300Y216300
X451300Y216300
X451300Y206300
X461300Y206300
X471300Y206300
X481300Y206300
X491300Y206300
X501300Y206300
X511300Y206300
X521300Y206300
X531300Y206300
X541300Y206300
X541300Y216300
X531300Y216300
X521300Y216300
X511300Y216300
X501300Y216300
X501300Y46300
X511300Y46300
X521300Y46300
X531300Y46300
X541300Y46300
X541300Y36300
X531300Y36300
X521300Y36300
X511300Y36300
X501300Y36300
X491300Y36300
X481300Y36300
X471300Y36300
X461300Y36300
X451300Y36300
X451300Y46300
X461300Y46300
X471300Y46300
X481300Y46300
X491300Y46300
T04
X285552Y46457
X242118Y41638
X76300Y16300
X31800Y19300
X16300Y31300
X16300Y56300
X28800Y138800
X28800Y152800
X28800Y166800
X41300Y196300
X26300Y231300
X51300Y251300
X81300Y246300
X86300Y261300
X66300Y271300
X106300Y291300
X126300Y286300
X146300Y296300
X116300Y271300
X166300Y246300
X266300Y291300
X281300Y286300
X391300Y296300
X391300Y246300
X406300Y246300
X421300Y246300
X436300Y246300
X451300Y246300
M30
