M48
;GenerationSoftware,Autodesk,EAGLE,9.0.1*%
;CreationDate,2019-04-22T21:03:59Z*%
FMAT,2
ICI,OFF
METRIC,TZ,000.0000
T4C0.3500
T3C1.0000
T2C1.0160
T1C3.5560
%
G90
M71
T1
X33020Y33020
X1567180Y33020
X34290Y2020570
X1567180Y2021840
T2
X139700Y863600
X165100Y863600
X165100Y889000
X165100Y914400
X165100Y939800
X165100Y965200
X165100Y990600
X139700Y990600
X139700Y889000
X139700Y914400
X139700Y939800
X139700Y965200
T3
X1409700Y1435100
X457200Y1231900
X647700Y812800
X355600Y1638300
X1397000Y1676400
X1333500Y1498600
X419100Y1803400
X304800Y1638300
X1282700Y254000
X241300Y1244600
X990600Y2019300
X1219200Y977900
X1244600Y914400
X1574800Y711200
X508000Y1689100
X508000Y1663700
X508000Y1460500
X508000Y1435100
X508000Y1384300
X508000Y1409700
X508000Y1358900
X508000Y1333500
X1117600Y1346200
X1117600Y1371600
X1117600Y1422400
X1117600Y1397000
X927100Y1066800
X901700Y1066800
X876300Y1066800
X850900Y1066800
X1117600Y1524000
X1117600Y1498600
X1117600Y1447800
X1117600Y1473200
X825500Y1066800
X800100Y1066800
X508000Y1739900
X508000Y1714500
X749300Y1066800
X774700Y1066800
X927100Y622300
X901700Y622300
X850900Y622300
X876300Y622300
X825500Y622300
X800100Y622300
X774700Y622300
X749300Y622300
X1282700Y228600
X1282700Y203200
X1282700Y177800
X1282700Y127000
X1282700Y152400
X1282700Y101600
X1282700Y76200
X241300Y304800
X241300Y279400
X1117600Y1600200
X1117600Y1574800
X241300Y228600
X241300Y254000
X241300Y203200
X241300Y177800
X241300Y127000
X241300Y152400
X977900Y1917700
X1003300Y1917700
X736600Y1943100
X711200Y1943100
X1117600Y1727200
X1117600Y1752600
X508000Y1612900
X508000Y1638300
X508000Y1562100
X508000Y1587500
X1117600Y1625600
X1117600Y1651000
X1117600Y1676400
X1117600Y1701800
X508000Y1485900
X508000Y1511300
T4
X266700Y889000
X406400Y1435100
X711200Y1193800
X711200Y1422400
X406400Y1384300
X381000Y1168400
X520700Y1155700
X825500Y1320800
X863600Y1282700
X1028700Y1333500
X1092200Y1104900
X1016000Y1041400
X1384300Y1130300
X1270000Y1460500
X1151807Y1206500
X1016000Y1168400
X1079500Y1130300
X800100Y1016000
X1397000Y977900
X558800Y825500
X1117600Y800100
X914400Y571500
X838200Y558800
X1320800Y711200
X1016000Y698500
X393700Y558800
X812800Y558800
X825500Y673100
X1320800Y685800
X825500Y520700
X419100Y520700
X952500Y520700
X317500Y419100
X431800Y279400
X558800Y381000
X723900Y406400
X749300Y533400
X838200Y838200
X1054100Y533400
X711200Y444500
X736600Y368300
X1079500Y558800
X1041400Y279400
X584200Y304800
X787400Y317500
X457200Y482600
X279400Y381000
X533400Y469900
X622300Y469900
X850900Y482600
X812800Y482600
X1422400Y190500
X1422400Y431800
X1422400Y536100
X1562100Y165100
X1333500Y292100
X1181100Y292100
X393700Y571500
X304800Y520700
X304800Y469900
X406400Y292100
X1574800Y317500
X1181100Y304800
X762000Y1955800
X673100Y914400
X1460500Y901700
X850900Y977900
X203200Y889000
X673100Y939800
X1397000Y939800
X673100Y850900
X736600Y939800
X266700Y914400
X457200Y914400
X1397000Y927100
X330200Y939800
X457200Y939800
X1397000Y952500
X393700Y965200
X673100Y965200
X1397000Y965200
X482600Y977900
X88900Y927100
X927100Y393700
X190500Y355600
X469900Y1828800
X609600Y774700
X914400Y1917700
X774700Y469900
X698500Y177800
X647700Y1689100
X1257300Y520700
X457200Y863600
X330200Y444500
X787400Y1206500
X736600Y1447800
X1485900Y812800
X1206500Y1104900
X1574800Y939800
X1574800Y876300
X749300Y787400
X980920Y749300
X76200Y863600
X977900Y1143000
X977900Y1333500
X698500Y1574800
X914400Y88900
X139700Y711200
X971832Y1028700
X266700Y1549400
X812800Y1549400
X393700Y1778000
X762000Y1778000
X965200Y215900
X114300Y749300
X114300Y952500
X114300Y988425
X711200Y1536700
X647700Y838200
X520700Y838200
X457200Y952500
X939800Y1866900
X927100Y1676400
X927100Y165100
X927100Y330200
X1397000Y495300
X495300Y444500
X508000Y508000
X508000Y838200
X533400Y330200
X495300Y381000
X952500Y1257300
X952500Y1219200
X1308100Y1079500
X1371600Y1028700
X469900Y1054100
X927100Y1574800
X863600Y1536700
X558800Y254000
X838200Y1473200
X1397000Y1816100
X1435100Y914400
X1498600Y1930400
X914400Y1943100
X812800Y990600
X698500Y1549400
X736600Y1663700
X596900Y1524000
X635000Y1447800
X787400Y698500
X25400Y939800
X50800Y838200
X393700Y882932
X393700Y1739900
X1397000Y889000
X330200Y876300
X457200Y876300
X787400Y1562100
X1422400Y927100
X1117600Y1155700
X1219200Y1549400
X1244600Y1676400
X1536700Y812800
X1536700Y1676400
X1193800Y1638300
X1181100Y1968500
X914400Y1968500
X723900Y1320800
X711200Y1473200
X469900Y1308100
X292100Y1308100
X558800Y914400
M30