G75*
%MOIN*%
%OFA0B0*%
%FSLAX25Y25*%
%IPPOS*%
%LPD*%
%AMOC8*
5,1,8,0,0,1.08239X$1,22.5*
%
%ADD10C,0.06800*%
%ADD11OC8,0.06000*%
%ADD12OC8,0.06737*%
%ADD13R,0.05918X0.06706*%
%ADD14C,0.03778*%
D10*
X0018106Y0065200D02*
X0024106Y0065200D01*
X0024106Y0075200D02*
X0018106Y0075200D01*
X0018106Y0085200D02*
X0024106Y0085200D01*
D11*
X0116106Y0180200D03*
X0136106Y0180200D03*
D12*
X0401106Y0185200D03*
X0411106Y0185200D03*
X0421106Y0185200D03*
X0431106Y0185200D03*
X0441106Y0185200D03*
X0451106Y0185200D03*
X0461106Y0185200D03*
X0471106Y0185200D03*
X0481106Y0185200D03*
X0491106Y0185200D03*
X0491106Y0195200D03*
X0481106Y0195200D03*
X0471106Y0195200D03*
X0461106Y0195200D03*
X0451106Y0195200D03*
X0441106Y0195200D03*
X0431106Y0195200D03*
X0421106Y0195200D03*
X0411106Y0195200D03*
X0401106Y0195200D03*
X0401106Y0025200D03*
X0411106Y0025200D03*
X0421106Y0025200D03*
X0431106Y0025200D03*
X0441106Y0025200D03*
X0451106Y0025200D03*
X0461106Y0025200D03*
X0471106Y0025200D03*
X0481106Y0025200D03*
X0491106Y0025200D03*
X0491106Y0015200D03*
X0481106Y0015200D03*
X0471106Y0015200D03*
X0461106Y0015200D03*
X0451106Y0015200D03*
X0441106Y0015200D03*
X0431106Y0015200D03*
X0421106Y0015200D03*
X0411106Y0015200D03*
X0401106Y0015200D03*
D13*
X0089846Y0120200D03*
X0082366Y0120200D03*
D14*
X0043306Y0013000D03*
X0051106Y0017200D03*
X0056506Y0017200D03*
X0057706Y0024400D03*
X0058306Y0029200D03*
X0055906Y0034600D03*
X0046306Y0031000D03*
X0044506Y0023800D03*
X0030706Y0032800D03*
X0040306Y0042400D03*
X0042106Y0049000D03*
X0038506Y0050200D03*
X0038506Y0055000D03*
X0042106Y0055000D03*
X0045706Y0055000D03*
X0047506Y0049000D03*
X0034906Y0055000D03*
X0053506Y0069400D03*
X0058306Y0074800D03*
X0055906Y0077800D03*
X0052306Y0081400D03*
X0066706Y0084400D03*
X0045706Y0094000D03*
X0038506Y0091000D03*
X0034906Y0086200D03*
X0029506Y0088000D03*
X0027106Y0079600D03*
X0035506Y0071800D03*
X0066706Y0071200D03*
X0066706Y0066400D03*
X0068506Y0050800D03*
X0063706Y0042400D03*
X0059506Y0041800D03*
X0091906Y0045400D03*
X0093706Y0050800D03*
X0138706Y0056800D03*
X0145906Y0052000D03*
X0157306Y0040600D03*
X0145906Y0036400D03*
X0177706Y0047200D03*
X0201706Y0037600D03*
X0198706Y0034600D03*
X0206506Y0035200D03*
X0196306Y0025000D03*
X0176506Y0016000D03*
X0127906Y0014800D03*
X0159706Y0062200D03*
X0164506Y0067000D03*
X0170506Y0069400D03*
X0184306Y0074800D03*
X0178306Y0080800D03*
X0186706Y0085600D03*
X0181306Y0091000D03*
X0175906Y0094000D03*
X0175306Y0098800D03*
X0158506Y0103600D03*
X0171706Y0112000D03*
X0197506Y0096400D03*
X0205106Y0098200D03*
X0212306Y0096400D03*
X0209906Y0093400D03*
X0217906Y0104200D03*
X0229906Y0112000D03*
X0229906Y0116800D03*
X0237106Y0119200D03*
X0239506Y0122800D03*
X0248506Y0112000D03*
X0243706Y0107200D03*
X0252106Y0103600D03*
X0239995Y0102068D03*
X0246106Y0090400D03*
X0262306Y0091000D03*
X0271106Y0085200D03*
X0311106Y0095200D03*
X0319906Y0100000D03*
X0324706Y0100000D03*
X0330106Y0097600D03*
X0341506Y0101800D03*
X0346906Y0100000D03*
X0336106Y0090400D03*
X0313306Y0105400D03*
X0311506Y0110800D03*
X0304906Y0113800D03*
X0304906Y0117400D03*
X0304906Y0121000D03*
X0298306Y0120400D03*
X0289906Y0125200D03*
X0289906Y0142269D03*
X0304906Y0142000D03*
X0317506Y0145600D03*
X0322306Y0153400D03*
X0322306Y0163600D03*
X0325906Y0163600D03*
X0308506Y0155800D03*
X0301306Y0156400D03*
X0289906Y0166000D03*
X0281106Y0165989D03*
X0270106Y0166000D03*
X0268306Y0171400D03*
X0264706Y0171400D03*
X0257506Y0169600D03*
X0264106Y0160000D03*
X0268906Y0152200D03*
X0262906Y0146200D03*
X0257506Y0152200D03*
X0245506Y0146200D03*
X0240706Y0151000D03*
X0235906Y0153400D03*
X0244306Y0159400D03*
X0224506Y0159400D03*
X0222706Y0165400D03*
X0203506Y0161200D03*
X0190906Y0158800D03*
X0186106Y0157600D03*
X0180106Y0158800D03*
X0184306Y0165400D03*
X0169906Y0160000D03*
X0169306Y0169000D03*
X0156706Y0156400D03*
X0137506Y0154000D03*
X0133906Y0150400D03*
X0124306Y0154600D03*
X0096106Y0145200D03*
X0091106Y0140200D03*
X0072706Y0146800D03*
X0066285Y0140200D03*
X0070306Y0137200D03*
X0076106Y0130200D03*
X0081706Y0130000D03*
X0063706Y0122800D03*
X0054706Y0126400D03*
X0048706Y0126400D03*
X0046306Y0131200D03*
X0051106Y0132400D03*
X0051706Y0137200D03*
X0048706Y0113800D03*
X0045106Y0114400D03*
X0048706Y0110200D03*
X0043906Y0106600D03*
X0035506Y0111400D03*
X0066706Y0103000D03*
X0066706Y0099400D03*
X0077506Y0109000D03*
X0113506Y0109600D03*
X0145906Y0131200D03*
X0150706Y0136000D03*
X0157306Y0130000D03*
X0167506Y0140200D03*
X0176506Y0145600D03*
X0181906Y0151000D03*
X0213706Y0176200D03*
X0217306Y0179800D03*
X0146106Y0180200D03*
X0106306Y0195400D03*
X0102706Y0195400D03*
X0094306Y0187000D03*
X0082906Y0193000D03*
X0079306Y0196600D03*
X0259906Y0139638D03*
X0259906Y0121180D03*
X0353506Y0115600D03*
X0363106Y0113800D03*
X0367306Y0102400D03*
X0397306Y0095800D03*
X0399706Y0082600D03*
X0406106Y0066400D03*
X0411106Y0062800D03*
X0415306Y0066400D03*
X0400306Y0056800D03*
X0402706Y0052000D03*
X0401106Y0045200D03*
X0391106Y0066400D03*
X0432706Y0080200D03*
X0454306Y0079000D03*
X0454306Y0085600D03*
X0461506Y0085600D03*
X0465106Y0086800D03*
X0469906Y0087400D03*
X0473506Y0087400D03*
X0472306Y0095800D03*
X0468706Y0097600D03*
X0462106Y0099400D03*
X0466906Y0104200D03*
X0474706Y0102400D03*
X0456706Y0108400D03*
X0451906Y0106000D03*
X0447106Y0101200D03*
X0470506Y0113200D03*
X0471106Y0118000D03*
X0462706Y0117400D03*
X0459106Y0117400D03*
X0459106Y0122200D03*
X0449506Y0127000D03*
X0447106Y0136600D03*
X0457306Y0136600D03*
X0469306Y0140200D03*
X0462706Y0142600D03*
X0459106Y0142600D03*
X0455506Y0142600D03*
X0451906Y0142600D03*
X0447106Y0142600D03*
X0426706Y0143800D03*
X0423106Y0143800D03*
X0417106Y0147400D03*
X0424306Y0133600D03*
X0471706Y0135400D03*
X0480717Y0140500D03*
X0476106Y0145020D03*
X0479506Y0127600D03*
X0472306Y0123400D03*
X0486706Y0118000D03*
X0486706Y0114400D03*
X0480106Y0115000D03*
X0491506Y0119200D03*
X0477106Y0076600D03*
X0477706Y0073000D03*
X0465106Y0060400D03*
X0451306Y0061600D03*
X0482506Y0050200D03*
X0485506Y0052600D03*
X0467506Y0038800D03*
X0445906Y0017800D03*
X0274306Y0047800D03*
X0274306Y0053800D03*
X0255106Y0046600D03*
X0256906Y0043000D03*
X0246106Y0043000D03*
X0234706Y0045400D03*
X0234706Y0049000D03*
X0248506Y0049000D03*
X0252106Y0052600D03*
X0228106Y0042400D03*
X0234106Y0036400D03*
X0244306Y0030400D03*
X0241306Y0028000D03*
X0235906Y0022600D03*
X0253906Y0020800D03*
X0217306Y0072400D03*
X0299506Y0177400D03*
X0306106Y0179800D03*
X0384706Y0188800D03*
X0387706Y0191200D03*
X0391306Y0194800D03*
X0388306Y0197200D03*
X0450706Y0168400D03*
X0469906Y0166000D03*
X0473506Y0180400D03*
X0456106Y0190000D03*
M02*
