G75*
%MOIN*%
%OFA0B0*%
%FSLAX25Y25*%
%IPPOS*%
%LPD*%
%AMOC8*
5,1,8,0,0,1.08239X$1,22.5*
%
%ADD10R,0.05906X0.05118*%
%ADD11R,0.05118X0.05906*%
%ADD12C,0.06000*%
%ADD13OC8,0.05200*%
%ADD14OC8,0.05937*%
%ADD15R,0.03543X0.01378*%
%ADD16R,0.03900X0.01200*%
%ADD17R,0.01378X0.03543*%
%ADD18R,0.05800X0.01400*%
%ADD19R,0.01200X0.03900*%
%ADD20C,0.00600*%
%ADD21C,0.02978*%
D10*
X0111106Y0041460D03*
X0121106Y0038940D03*
X0121106Y0031460D03*
X0111106Y0048940D03*
X0121106Y0051460D03*
X0121106Y0058940D03*
X0156106Y0091460D03*
X0156106Y0098940D03*
X0161106Y0141460D03*
X0161106Y0148940D03*
X0161106Y0161460D03*
X0161106Y0168940D03*
X0121106Y0168940D03*
X0121106Y0161460D03*
X0306106Y0108940D03*
X0306106Y0101460D03*
X0391106Y0058940D03*
X0391106Y0051460D03*
X0431106Y0051460D03*
X0431106Y0058940D03*
D11*
X0414846Y0050200D03*
X0407366Y0050200D03*
X0404846Y0090200D03*
X0397366Y0090200D03*
X0417366Y0090200D03*
X0424846Y0090200D03*
X0334846Y0085200D03*
X0327366Y0085200D03*
X0304846Y0090200D03*
X0297366Y0090200D03*
X0274846Y0105200D03*
X0267366Y0105200D03*
X0234846Y0125200D03*
X0227366Y0125200D03*
X0174846Y0120200D03*
X0167366Y0120200D03*
X0134846Y0130200D03*
X0127366Y0130200D03*
X0119846Y0150200D03*
X0112366Y0150200D03*
X0109846Y0160200D03*
X0102366Y0160200D03*
X0137366Y0170200D03*
X0144846Y0170200D03*
X0157366Y0180200D03*
X0164846Y0180200D03*
X0104846Y0180200D03*
X0097366Y0180200D03*
X0084846Y0180200D03*
X0077366Y0180200D03*
X0237366Y0180200D03*
X0244846Y0180200D03*
X0224846Y0095200D03*
X0217366Y0095200D03*
X0267366Y0070200D03*
X0274846Y0070200D03*
X0229846Y0065200D03*
X0222366Y0065200D03*
X0174846Y0060200D03*
X0167366Y0060200D03*
X0169846Y0035200D03*
X0162366Y0035200D03*
X0164846Y0025200D03*
X0157366Y0025200D03*
X0084846Y0070200D03*
X0077366Y0070200D03*
D12*
X0024106Y0065200D02*
X0018106Y0065200D01*
X0018106Y0075200D02*
X0024106Y0075200D01*
X0024106Y0085200D02*
X0018106Y0085200D01*
D13*
X0116106Y0180200D03*
X0136106Y0180200D03*
D14*
X0401106Y0185200D03*
X0411106Y0185200D03*
X0421106Y0185200D03*
X0431106Y0185200D03*
X0441106Y0185200D03*
X0451106Y0185200D03*
X0461106Y0185200D03*
X0471106Y0185200D03*
X0481106Y0185200D03*
X0491106Y0185200D03*
X0491106Y0195200D03*
X0481106Y0195200D03*
X0471106Y0195200D03*
X0461106Y0195200D03*
X0451106Y0195200D03*
X0441106Y0195200D03*
X0431106Y0195200D03*
X0421106Y0195200D03*
X0411106Y0195200D03*
X0401106Y0195200D03*
X0401106Y0025200D03*
X0411106Y0025200D03*
X0421106Y0025200D03*
X0431106Y0025200D03*
X0441106Y0025200D03*
X0451106Y0025200D03*
X0461106Y0025200D03*
X0471106Y0025200D03*
X0481106Y0025200D03*
X0491106Y0025200D03*
X0491106Y0015200D03*
X0481106Y0015200D03*
X0471106Y0015200D03*
X0461106Y0015200D03*
X0451106Y0015200D03*
X0441106Y0015200D03*
X0431106Y0015200D03*
X0421106Y0015200D03*
X0411106Y0015200D03*
X0401106Y0015200D03*
D15*
X0062425Y0021243D03*
X0062425Y0023802D03*
X0062425Y0026361D03*
X0062425Y0028920D03*
X0062425Y0031480D03*
X0062425Y0034039D03*
X0062425Y0036598D03*
X0062425Y0039157D03*
X0039787Y0039157D03*
X0039787Y0036598D03*
X0039787Y0034039D03*
X0039787Y0031480D03*
X0039787Y0028920D03*
X0039787Y0026361D03*
X0039787Y0023802D03*
X0039787Y0021243D03*
X0039787Y0066243D03*
X0039787Y0068802D03*
X0039787Y0071361D03*
X0039787Y0073920D03*
X0039787Y0076480D03*
X0039787Y0079039D03*
X0039787Y0081598D03*
X0039787Y0084157D03*
X0039787Y0096243D03*
X0039787Y0098802D03*
X0039787Y0101361D03*
X0039787Y0103920D03*
X0039787Y0106480D03*
X0039787Y0109039D03*
X0039787Y0111598D03*
X0039787Y0114157D03*
X0039787Y0126243D03*
X0039787Y0128802D03*
X0039787Y0131361D03*
X0039787Y0133920D03*
X0039787Y0136480D03*
X0039787Y0139039D03*
X0039787Y0141598D03*
X0039787Y0144157D03*
X0062425Y0144157D03*
X0062425Y0141598D03*
X0062425Y0139039D03*
X0062425Y0136480D03*
X0062425Y0133920D03*
X0062425Y0131361D03*
X0062425Y0128802D03*
X0062425Y0126243D03*
X0062425Y0114157D03*
X0062425Y0111598D03*
X0062425Y0109039D03*
X0062425Y0106480D03*
X0062425Y0103920D03*
X0062425Y0101361D03*
X0062425Y0098802D03*
X0062425Y0096243D03*
X0062425Y0084157D03*
X0062425Y0081598D03*
X0062425Y0079039D03*
X0062425Y0076480D03*
X0062425Y0073920D03*
X0062425Y0071361D03*
X0062425Y0068802D03*
X0062425Y0066243D03*
D16*
X0129619Y0142523D03*
X0129619Y0145082D03*
X0129619Y0147641D03*
X0129619Y0150200D03*
X0129619Y0152759D03*
X0129619Y0155318D03*
X0129619Y0157877D03*
X0152593Y0157877D03*
X0152593Y0155318D03*
X0152593Y0152759D03*
X0152593Y0150200D03*
X0152593Y0147641D03*
X0152593Y0145082D03*
X0152593Y0142523D03*
X0334619Y0117877D03*
X0334619Y0115318D03*
X0334619Y0112759D03*
X0334619Y0110200D03*
X0334619Y0107641D03*
X0334619Y0105082D03*
X0334619Y0102523D03*
X0357593Y0102523D03*
X0357593Y0105082D03*
X0357593Y0107641D03*
X0357593Y0110200D03*
X0357593Y0112759D03*
X0357593Y0115318D03*
X0357593Y0117877D03*
D17*
X0462149Y0108881D03*
X0464708Y0108881D03*
X0467267Y0108881D03*
X0469826Y0108881D03*
X0472385Y0108881D03*
X0474944Y0108881D03*
X0477504Y0108881D03*
X0480063Y0108881D03*
X0480063Y0091519D03*
X0477504Y0091519D03*
X0474944Y0091519D03*
X0472385Y0091519D03*
X0469826Y0091519D03*
X0467267Y0091519D03*
X0464708Y0091519D03*
X0462149Y0091519D03*
X0462149Y0068881D03*
X0464708Y0068881D03*
X0467267Y0068881D03*
X0469826Y0068881D03*
X0472385Y0068881D03*
X0474944Y0068881D03*
X0477504Y0068881D03*
X0480063Y0068881D03*
X0480063Y0131519D03*
X0477504Y0131519D03*
X0474944Y0131519D03*
X0472385Y0131519D03*
X0469826Y0131519D03*
X0467267Y0131519D03*
X0464708Y0131519D03*
X0462149Y0131519D03*
X0462149Y0148881D03*
X0464708Y0148881D03*
X0467267Y0148881D03*
X0469826Y0148881D03*
X0472385Y0148881D03*
X0474944Y0148881D03*
X0477504Y0148881D03*
X0480063Y0148881D03*
X0480063Y0171519D03*
X0477504Y0171519D03*
X0474944Y0171519D03*
X0472385Y0171519D03*
X0469826Y0171519D03*
X0467267Y0171519D03*
X0464708Y0171519D03*
X0462149Y0171519D03*
D18*
X0317206Y0171716D03*
X0317206Y0169157D03*
X0317206Y0166598D03*
X0317206Y0164039D03*
X0317206Y0161480D03*
X0317206Y0158920D03*
X0317206Y0156361D03*
X0317206Y0153802D03*
X0317206Y0151243D03*
X0317206Y0148684D03*
X0295006Y0148684D03*
X0295006Y0151243D03*
X0295006Y0153802D03*
X0295006Y0156361D03*
X0295006Y0158920D03*
X0295006Y0161480D03*
X0295006Y0164039D03*
X0295006Y0166598D03*
X0295006Y0169157D03*
X0295006Y0171716D03*
X0252206Y0171716D03*
X0252206Y0169157D03*
X0252206Y0166598D03*
X0252206Y0164039D03*
X0252206Y0161480D03*
X0252206Y0158920D03*
X0252206Y0156361D03*
X0252206Y0153802D03*
X0252206Y0151243D03*
X0252206Y0148684D03*
X0230006Y0148684D03*
X0230006Y0151243D03*
X0230006Y0153802D03*
X0230006Y0156361D03*
X0230006Y0158920D03*
X0230006Y0161480D03*
X0230006Y0164039D03*
X0230006Y0166598D03*
X0230006Y0169157D03*
X0230006Y0171716D03*
X0197206Y0171716D03*
X0197206Y0169157D03*
X0197206Y0166598D03*
X0197206Y0164039D03*
X0197206Y0161480D03*
X0197206Y0158920D03*
X0197206Y0156361D03*
X0197206Y0153802D03*
X0197206Y0151243D03*
X0197206Y0148684D03*
X0175006Y0148684D03*
X0175006Y0151243D03*
X0175006Y0153802D03*
X0175006Y0156361D03*
X0175006Y0158920D03*
X0175006Y0161480D03*
X0175006Y0164039D03*
X0175006Y0166598D03*
X0175006Y0169157D03*
X0175006Y0171716D03*
X0170006Y0106716D03*
X0170006Y0104157D03*
X0170006Y0101598D03*
X0170006Y0099039D03*
X0170006Y0096480D03*
X0170006Y0093920D03*
X0170006Y0091361D03*
X0170006Y0088802D03*
X0170006Y0086243D03*
X0170006Y0083684D03*
X0192206Y0083684D03*
X0192206Y0086243D03*
X0192206Y0088802D03*
X0192206Y0091361D03*
X0192206Y0093920D03*
X0192206Y0096480D03*
X0192206Y0099039D03*
X0192206Y0101598D03*
X0192206Y0104157D03*
X0192206Y0106716D03*
X0235006Y0106716D03*
X0235006Y0104157D03*
X0235006Y0101598D03*
X0235006Y0099039D03*
X0235006Y0096480D03*
X0235006Y0093920D03*
X0235006Y0091361D03*
X0235006Y0088802D03*
X0235006Y0086243D03*
X0235006Y0083684D03*
X0257206Y0083684D03*
X0257206Y0086243D03*
X0257206Y0088802D03*
X0257206Y0091361D03*
X0257206Y0093920D03*
X0257206Y0096480D03*
X0257206Y0099039D03*
X0257206Y0101598D03*
X0257206Y0104157D03*
X0257206Y0106716D03*
X0262206Y0056716D03*
X0262206Y0054157D03*
X0262206Y0051598D03*
X0262206Y0049039D03*
X0262206Y0046480D03*
X0262206Y0043920D03*
X0262206Y0041361D03*
X0262206Y0038802D03*
X0262206Y0036243D03*
X0262206Y0033684D03*
X0240006Y0033684D03*
X0240006Y0036243D03*
X0240006Y0038802D03*
X0240006Y0041361D03*
X0240006Y0043920D03*
X0240006Y0046480D03*
X0240006Y0049039D03*
X0240006Y0051598D03*
X0240006Y0054157D03*
X0240006Y0056716D03*
X0152206Y0056716D03*
X0152206Y0054157D03*
X0152206Y0051598D03*
X0152206Y0049039D03*
X0152206Y0046480D03*
X0152206Y0043920D03*
X0152206Y0041361D03*
X0152206Y0038802D03*
X0152206Y0036243D03*
X0152206Y0033684D03*
X0130006Y0033684D03*
X0130006Y0036243D03*
X0130006Y0038802D03*
X0130006Y0041361D03*
X0130006Y0043920D03*
X0130006Y0046480D03*
X0130006Y0049039D03*
X0130006Y0051598D03*
X0130006Y0054157D03*
X0130006Y0056716D03*
D19*
X0403429Y0058713D03*
X0405988Y0058713D03*
X0408547Y0058713D03*
X0411106Y0058713D03*
X0413665Y0058713D03*
X0416224Y0058713D03*
X0418783Y0058713D03*
X0418783Y0081687D03*
X0416224Y0081687D03*
X0413665Y0081687D03*
X0411106Y0081687D03*
X0408547Y0081687D03*
X0405988Y0081687D03*
X0403429Y0081687D03*
D20*
X0036706Y0023200D02*
X0036706Y0020200D01*
X0037306Y0019600D01*
X0064906Y0019600D01*
X0090706Y0045400D01*
X0091906Y0045400D01*
X0093706Y0050800D02*
X0094906Y0050800D01*
X0126106Y0019600D01*
X0187306Y0019600D01*
X0205306Y0037600D01*
X0228106Y0037600D01*
X0240106Y0025600D01*
X0259306Y0025600D01*
X0271906Y0038200D01*
X0271906Y0049000D01*
X0273106Y0050200D01*
X0385306Y0050200D01*
X0403906Y0031600D01*
X0460306Y0031600D01*
X0465106Y0036400D01*
X0465106Y0060400D01*
X0465106Y0064000D02*
X0456106Y0055000D01*
X0427906Y0055000D01*
X0426706Y0056200D01*
X0426706Y0060400D01*
X0417106Y0070000D01*
X0403306Y0070000D01*
X0360706Y0112600D01*
X0360706Y0113800D01*
X0359506Y0115000D01*
X0357706Y0115000D01*
X0357593Y0115318D01*
X0357706Y0115600D01*
X0357706Y0117400D01*
X0357593Y0117877D01*
X0360706Y0119800D02*
X0320506Y0119800D01*
X0311506Y0110800D01*
X0307306Y0112600D02*
X0307306Y0153400D01*
X0306106Y0154600D01*
X0306106Y0157000D01*
X0311506Y0162400D01*
X0302506Y0171400D01*
X0295306Y0171400D01*
X0295006Y0171716D01*
X0294706Y0169600D02*
X0295006Y0169157D01*
X0295306Y0169000D01*
X0297706Y0169000D01*
X0298906Y0167800D01*
X0298906Y0161200D01*
X0300106Y0161200D01*
X0303706Y0157600D01*
X0303706Y0155200D01*
X0302506Y0154000D01*
X0295306Y0154000D01*
X0295006Y0153802D01*
X0294706Y0153400D01*
X0273706Y0153400D01*
X0270106Y0149800D01*
X0256306Y0149800D01*
X0255106Y0151000D01*
X0252706Y0151000D01*
X0252206Y0151243D01*
X0252106Y0151000D01*
X0246706Y0151000D01*
X0235306Y0139600D01*
X0235306Y0125200D01*
X0234846Y0125200D01*
X0234706Y0125200D01*
X0234706Y0118000D01*
X0237106Y0115600D01*
X0240706Y0115600D01*
X0247306Y0109000D01*
X0247306Y0101200D01*
X0256906Y0101200D01*
X0257206Y0101598D01*
X0256906Y0103600D02*
X0252106Y0103600D01*
X0256906Y0103600D02*
X0257206Y0104157D01*
X0257506Y0104200D01*
X0257506Y0106600D01*
X0257206Y0106716D01*
X0257506Y0107200D01*
X0262306Y0107200D01*
X0268906Y0113800D01*
X0304906Y0113800D01*
X0307306Y0112600D02*
X0306106Y0111400D01*
X0306106Y0108940D01*
X0309706Y0105400D02*
X0282106Y0105400D01*
X0265306Y0088600D01*
X0257506Y0088600D01*
X0257206Y0088802D01*
X0257506Y0086800D02*
X0257206Y0086243D01*
X0256906Y0086800D01*
X0253906Y0086800D01*
X0253306Y0087400D01*
X0253306Y0088000D01*
X0244906Y0088000D01*
X0238306Y0094600D01*
X0244906Y0101200D01*
X0247306Y0101200D01*
X0246106Y0104800D02*
X0238306Y0097000D01*
X0235306Y0097000D01*
X0235006Y0096480D01*
X0235306Y0094000D02*
X0235006Y0093920D01*
X0235306Y0093400D01*
X0235306Y0091600D01*
X0235006Y0091361D01*
X0234706Y0089200D02*
X0235006Y0088802D01*
X0235306Y0088600D01*
X0237706Y0088600D01*
X0242506Y0083800D01*
X0256906Y0083800D01*
X0257206Y0083684D01*
X0257506Y0086800D02*
X0261106Y0086800D01*
X0261106Y0082600D01*
X0259906Y0081400D01*
X0234706Y0081400D01*
X0234706Y0083200D01*
X0235006Y0083684D01*
X0234706Y0081400D02*
X0234706Y0070000D01*
X0230506Y0065800D01*
X0229846Y0065200D01*
X0229906Y0065200D01*
X0230506Y0065800D01*
X0239506Y0056800D01*
X0240006Y0056716D01*
X0240106Y0056200D01*
X0240106Y0054400D01*
X0240006Y0054157D01*
X0239506Y0053800D01*
X0235906Y0053800D01*
X0232306Y0050200D01*
X0232306Y0044200D01*
X0232906Y0043600D01*
X0229306Y0040000D01*
X0181306Y0040000D01*
X0170506Y0050800D01*
X0170506Y0054400D01*
X0152506Y0054400D01*
X0152206Y0054157D01*
X0151906Y0054400D01*
X0148306Y0054400D01*
X0148306Y0091000D01*
X0156106Y0098800D01*
X0156106Y0098940D01*
X0156106Y0099400D01*
X0157906Y0099400D01*
X0165706Y0107200D01*
X0165706Y0107800D01*
X0166306Y0108400D01*
X0174106Y0108400D01*
X0174106Y0105400D01*
X0172906Y0104200D01*
X0170506Y0104200D01*
X0170006Y0104157D01*
X0169906Y0103600D01*
X0166906Y0103600D01*
X0164506Y0101200D01*
X0164506Y0091600D01*
X0166906Y0089200D01*
X0169906Y0089200D01*
X0170006Y0088802D01*
X0170506Y0089200D01*
X0174706Y0089200D01*
X0178306Y0092800D01*
X0178306Y0095200D01*
X0177106Y0096400D01*
X0170506Y0096400D01*
X0170006Y0096480D01*
X0170506Y0098800D02*
X0170006Y0099039D01*
X0170506Y0098800D02*
X0175306Y0098800D01*
X0172906Y0101800D02*
X0170506Y0101800D01*
X0170006Y0101598D01*
X0169906Y0101200D01*
X0166906Y0101200D01*
X0165706Y0100000D01*
X0165706Y0092800D01*
X0166906Y0091600D01*
X0169906Y0091600D01*
X0170006Y0091361D01*
X0170006Y0093920D02*
X0170506Y0094000D01*
X0175906Y0094000D01*
X0181306Y0091000D02*
X0181306Y0121000D01*
X0177706Y0124600D01*
X0159106Y0124600D01*
X0157306Y0122800D01*
X0063706Y0122800D01*
X0062506Y0125800D02*
X0062425Y0126243D01*
X0062506Y0125800D02*
X0122506Y0125800D01*
X0123706Y0124600D01*
X0157306Y0124600D01*
X0158506Y0125800D01*
X0217306Y0125800D01*
X0228706Y0114400D01*
X0240106Y0114400D01*
X0246106Y0108400D01*
X0246106Y0104800D01*
X0243706Y0107200D02*
X0235306Y0107200D01*
X0235006Y0106716D01*
X0234706Y0107200D01*
X0229906Y0112000D01*
X0229906Y0116800D02*
X0229906Y0122800D01*
X0227506Y0125200D01*
X0227366Y0125200D01*
X0237106Y0119200D02*
X0238306Y0118000D01*
X0299506Y0118000D01*
X0302506Y0121000D01*
X0304906Y0121000D01*
X0304906Y0117400D02*
X0304306Y0116800D01*
X0270106Y0116800D01*
X0265306Y0112000D01*
X0248506Y0112000D01*
X0239995Y0102068D02*
X0237906Y0104157D01*
X0235006Y0104157D01*
X0234706Y0104200D01*
X0217906Y0104200D01*
X0201106Y0104200D01*
X0198706Y0106600D01*
X0192706Y0106600D01*
X0192206Y0106716D01*
X0192106Y0106600D01*
X0189706Y0106600D01*
X0187906Y0104800D01*
X0187906Y0100600D01*
X0189106Y0099400D01*
X0192106Y0099400D01*
X0192206Y0099039D01*
X0192706Y0098800D01*
X0198706Y0098800D01*
X0199906Y0097600D01*
X0199906Y0091600D01*
X0195106Y0086800D01*
X0192706Y0086800D01*
X0192206Y0086243D01*
X0192106Y0088600D02*
X0192206Y0088802D01*
X0192106Y0088600D02*
X0189106Y0088600D01*
X0186706Y0086200D01*
X0186706Y0085600D01*
X0184306Y0086800D02*
X0184306Y0081400D01*
X0172306Y0069400D01*
X0170506Y0069400D01*
X0169306Y0071800D02*
X0166906Y0069400D01*
X0166906Y0065200D01*
X0164506Y0062800D01*
X0162106Y0065200D01*
X0162106Y0101200D01*
X0167506Y0106600D01*
X0169906Y0106600D01*
X0170006Y0106716D01*
X0174106Y0108400D02*
X0174106Y0113200D01*
X0167506Y0119800D01*
X0167366Y0120200D01*
X0174846Y0120200D02*
X0175306Y0119800D01*
X0175306Y0104200D01*
X0172906Y0101800D01*
X0158506Y0103600D02*
X0152506Y0109600D01*
X0113506Y0109600D01*
X0124306Y0125800D02*
X0153106Y0125800D01*
X0157306Y0130000D01*
X0164506Y0133600D02*
X0176506Y0145600D01*
X0175306Y0148600D02*
X0175006Y0148684D01*
X0174706Y0148600D01*
X0167506Y0141400D01*
X0167506Y0140200D01*
X0165106Y0138400D02*
X0162706Y0136000D01*
X0150706Y0136000D01*
X0149506Y0133600D02*
X0148306Y0134800D01*
X0148306Y0145000D01*
X0150706Y0147400D01*
X0152506Y0147400D01*
X0152593Y0147641D01*
X0153106Y0145600D02*
X0152593Y0145082D01*
X0153106Y0145600D02*
X0157906Y0145600D01*
X0160906Y0148600D01*
X0161106Y0148940D01*
X0161506Y0149200D01*
X0161506Y0161200D01*
X0161106Y0161460D01*
X0161506Y0161800D01*
X0165106Y0165400D01*
X0165106Y0168400D01*
X0168106Y0171400D01*
X0174706Y0171400D01*
X0175006Y0171716D01*
X0175006Y0169157D02*
X0175306Y0169000D01*
X0178906Y0169000D01*
X0178906Y0173200D01*
X0178306Y0173800D01*
X0168706Y0173800D01*
X0163906Y0169000D01*
X0161506Y0169000D01*
X0161106Y0168940D01*
X0160906Y0169000D01*
X0160906Y0183400D01*
X0162106Y0184600D01*
X0184306Y0184600D01*
X0196906Y0172000D01*
X0197206Y0171716D01*
X0197506Y0171400D01*
X0215506Y0171400D01*
X0220306Y0166600D01*
X0220306Y0164200D01*
X0222706Y0161800D01*
X0229906Y0161800D01*
X0230006Y0161480D01*
X0230506Y0161200D01*
X0232906Y0161200D01*
X0247906Y0176200D01*
X0252106Y0172000D01*
X0252206Y0171716D01*
X0252706Y0172000D01*
X0258706Y0172000D01*
X0259906Y0170800D01*
X0259906Y0168400D01*
X0266506Y0161800D01*
X0294706Y0161800D01*
X0295006Y0161480D01*
X0295306Y0161200D01*
X0298906Y0161200D01*
X0297706Y0158800D02*
X0295306Y0158800D01*
X0295006Y0158920D01*
X0294706Y0158800D01*
X0266506Y0158800D01*
X0259906Y0152200D01*
X0257506Y0152200D01*
X0252206Y0153802D02*
X0252106Y0154000D01*
X0247306Y0154000D01*
X0225706Y0132400D01*
X0148906Y0132400D01*
X0147106Y0134200D01*
X0147106Y0140800D01*
X0135106Y0152800D01*
X0129706Y0152800D01*
X0129619Y0152759D01*
X0129106Y0152200D01*
X0121906Y0152200D01*
X0120106Y0150400D01*
X0119846Y0150200D01*
X0126706Y0149800D02*
X0113506Y0136600D01*
X0124306Y0125800D01*
X0127366Y0130200D02*
X0127906Y0130600D01*
X0129106Y0131800D01*
X0129106Y0142000D01*
X0129619Y0142523D01*
X0129706Y0142600D01*
X0129706Y0145000D01*
X0129619Y0145082D01*
X0129619Y0147641D02*
X0129706Y0148000D01*
X0131506Y0148000D01*
X0133906Y0150400D01*
X0129619Y0150200D02*
X0129106Y0149800D01*
X0126706Y0149800D01*
X0124306Y0154600D02*
X0109906Y0154600D01*
X0092506Y0137200D01*
X0070306Y0137200D01*
X0066285Y0140200D02*
X0066106Y0140200D01*
X0066285Y0140200D01*
X0091106Y0140200D01*
X0086506Y0144400D02*
X0102106Y0160000D01*
X0102366Y0160200D01*
X0102706Y0160600D01*
X0121906Y0179800D01*
X0135706Y0179800D01*
X0136106Y0180200D01*
X0146106Y0180200D02*
X0146106Y0170200D01*
X0144846Y0170200D01*
X0145306Y0165200D01*
X0145306Y0155800D01*
X0150706Y0150400D01*
X0152506Y0150400D01*
X0152593Y0150200D01*
X0153106Y0150400D01*
X0154306Y0150400D01*
X0156706Y0152800D01*
X0156706Y0156400D01*
X0156706Y0164200D01*
X0160906Y0168400D01*
X0161106Y0168940D01*
X0169306Y0169000D02*
X0171706Y0166600D01*
X0174706Y0166600D01*
X0175006Y0166598D01*
X0175306Y0164200D02*
X0175006Y0164039D01*
X0175306Y0164200D02*
X0183106Y0164200D01*
X0184306Y0165400D01*
X0186106Y0163600D02*
X0182506Y0160000D01*
X0181306Y0161200D01*
X0175306Y0161200D01*
X0175006Y0161480D01*
X0175006Y0158920D02*
X0175306Y0158800D01*
X0180106Y0158800D01*
X0182506Y0160000D02*
X0182506Y0157600D01*
X0178906Y0154000D01*
X0175306Y0154000D01*
X0175006Y0153802D01*
X0174706Y0155800D02*
X0175006Y0156361D01*
X0174706Y0155800D02*
X0171706Y0155800D01*
X0169906Y0157600D01*
X0169906Y0160000D01*
X0171706Y0155800D02*
X0165106Y0149200D01*
X0165106Y0138400D01*
X0161106Y0141460D02*
X0160906Y0142000D01*
X0153106Y0142000D01*
X0152593Y0142523D01*
X0152593Y0152759D02*
X0152506Y0152800D01*
X0150706Y0152800D01*
X0149506Y0154000D01*
X0149506Y0179200D01*
X0156106Y0185800D01*
X0204106Y0185800D01*
X0213706Y0176200D01*
X0217306Y0179800D02*
X0234106Y0179800D01*
X0234106Y0167800D01*
X0232906Y0166600D01*
X0230506Y0166600D01*
X0230006Y0166598D01*
X0229906Y0164200D02*
X0230006Y0164039D01*
X0230506Y0164200D01*
X0232906Y0164200D01*
X0241306Y0172600D01*
X0241306Y0184000D01*
X0241906Y0184600D01*
X0247906Y0184600D01*
X0268906Y0163600D01*
X0294706Y0163600D01*
X0295006Y0164039D01*
X0294706Y0166000D02*
X0295006Y0166598D01*
X0294706Y0166000D02*
X0289906Y0166000D01*
X0291706Y0169600D02*
X0294706Y0169600D01*
X0291706Y0169600D02*
X0291106Y0170200D01*
X0285317Y0170200D01*
X0281106Y0165989D01*
X0291106Y0170200D02*
X0291106Y0173200D01*
X0291706Y0173800D01*
X0301906Y0173800D01*
X0305506Y0170200D01*
X0313306Y0170200D01*
X0314506Y0171400D01*
X0316906Y0171400D01*
X0317206Y0171716D01*
X0317506Y0169600D02*
X0317206Y0169157D01*
X0317506Y0169600D02*
X0320506Y0169600D01*
X0321106Y0170200D01*
X0321106Y0173200D01*
X0319306Y0175000D01*
X0268306Y0175000D01*
X0264706Y0171400D01*
X0268306Y0171400D02*
X0268306Y0167800D01*
X0270106Y0166000D01*
X0264106Y0160000D02*
X0255706Y0160000D01*
X0255106Y0159400D01*
X0252706Y0159400D01*
X0252206Y0158920D01*
X0252106Y0156400D02*
X0252206Y0156361D01*
X0252106Y0156400D02*
X0249706Y0156400D01*
X0246706Y0159400D01*
X0244306Y0159400D01*
X0241906Y0160600D02*
X0241906Y0158200D01*
X0246106Y0154000D01*
X0247306Y0154000D01*
X0240706Y0151000D02*
X0230506Y0151000D01*
X0230006Y0151243D01*
X0229906Y0151000D01*
X0229906Y0149200D01*
X0230006Y0148684D01*
X0229906Y0148600D01*
X0228106Y0146800D01*
X0193906Y0146800D01*
X0192106Y0148600D01*
X0175306Y0148600D01*
X0175006Y0148684D02*
X0175306Y0149200D01*
X0175306Y0151000D01*
X0175006Y0151243D01*
X0181906Y0151000D02*
X0181906Y0155200D01*
X0183706Y0157000D01*
X0183706Y0158800D01*
X0186106Y0161200D01*
X0196906Y0161200D01*
X0197206Y0161480D01*
X0196906Y0163600D02*
X0197206Y0164039D01*
X0196906Y0163600D02*
X0186706Y0163600D01*
X0186706Y0166600D01*
X0184306Y0169000D01*
X0178906Y0169000D01*
X0186106Y0163600D02*
X0186706Y0163600D01*
X0190906Y0158800D02*
X0196906Y0158800D01*
X0197206Y0158920D01*
X0196906Y0156400D02*
X0197206Y0156361D01*
X0196906Y0156400D02*
X0187306Y0156400D01*
X0186106Y0157600D01*
X0197206Y0153802D02*
X0197506Y0154000D01*
X0199906Y0154000D01*
X0201106Y0155200D01*
X0201106Y0155800D01*
X0229906Y0155800D01*
X0230006Y0156361D01*
X0230506Y0154000D02*
X0230006Y0153802D01*
X0229906Y0153400D01*
X0226906Y0153400D01*
X0225106Y0151600D01*
X0197506Y0151600D01*
X0197206Y0151243D01*
X0197506Y0151000D01*
X0197506Y0149200D01*
X0197206Y0148684D01*
X0201106Y0155800D02*
X0201106Y0165400D01*
X0200506Y0166000D01*
X0197506Y0166000D01*
X0197206Y0166598D01*
X0196906Y0166600D01*
X0194506Y0166600D01*
X0181306Y0179800D01*
X0165106Y0179800D01*
X0164846Y0180200D01*
X0157366Y0180200D02*
X0157306Y0179800D01*
X0153106Y0175600D01*
X0153106Y0158200D01*
X0152593Y0157877D01*
X0152506Y0157600D01*
X0152506Y0155800D01*
X0152593Y0155318D01*
X0137506Y0154000D02*
X0137506Y0170200D01*
X0137366Y0170200D01*
X0135706Y0174400D02*
X0134506Y0174400D01*
X0124906Y0164800D01*
X0129106Y0160600D01*
X0129106Y0158200D01*
X0129619Y0157877D01*
X0129106Y0155800D02*
X0126706Y0155800D01*
X0121306Y0161200D01*
X0121106Y0161460D01*
X0120706Y0161200D01*
X0120106Y0160600D01*
X0109906Y0160600D01*
X0109846Y0160200D01*
X0121306Y0168400D02*
X0121106Y0168940D01*
X0121306Y0168400D02*
X0124906Y0164800D01*
X0135706Y0174400D02*
X0148306Y0187000D01*
X0206506Y0187000D01*
X0221506Y0172000D01*
X0229906Y0172000D01*
X0230006Y0171716D01*
X0230006Y0169157D02*
X0229906Y0169000D01*
X0222706Y0169000D01*
X0220306Y0166600D01*
X0222706Y0165400D02*
X0226306Y0165400D01*
X0227506Y0164200D01*
X0229906Y0164200D01*
X0232906Y0161200D02*
X0234106Y0160000D01*
X0234106Y0155200D01*
X0232906Y0154000D01*
X0230506Y0154000D01*
X0235906Y0153400D02*
X0235906Y0156400D01*
X0248506Y0169000D01*
X0252106Y0169000D01*
X0252206Y0169157D01*
X0252706Y0169600D01*
X0257506Y0169600D01*
X0259906Y0168400D02*
X0255706Y0164200D01*
X0252706Y0164200D01*
X0252206Y0164039D01*
X0252106Y0163600D01*
X0252106Y0161800D01*
X0252206Y0161480D01*
X0252106Y0166000D02*
X0247306Y0166000D01*
X0241906Y0160600D01*
X0252106Y0166000D02*
X0252206Y0166598D01*
X0247906Y0176200D02*
X0244306Y0179800D01*
X0244846Y0180200D01*
X0237366Y0180200D02*
X0237106Y0179800D01*
X0234106Y0179800D01*
X0223306Y0159400D02*
X0213706Y0169000D01*
X0197506Y0169000D01*
X0197206Y0169157D01*
X0203506Y0161200D02*
X0219106Y0161200D01*
X0223306Y0157000D01*
X0225706Y0157000D01*
X0227506Y0158800D01*
X0229906Y0158800D01*
X0230006Y0158920D01*
X0224506Y0159400D02*
X0223306Y0159400D01*
X0245506Y0146200D02*
X0249706Y0146200D01*
X0252106Y0148600D01*
X0252206Y0148684D01*
X0252706Y0148600D01*
X0294706Y0148600D01*
X0295006Y0148684D01*
X0295306Y0148600D01*
X0298306Y0145600D01*
X0298306Y0120400D01*
X0289906Y0125200D02*
X0289906Y0142269D01*
X0297706Y0151000D02*
X0304906Y0143800D01*
X0304906Y0142000D01*
X0317506Y0145600D02*
X0317506Y0148600D01*
X0317206Y0148684D01*
X0317206Y0151243D01*
X0317506Y0153400D02*
X0317206Y0153802D01*
X0317506Y0153400D02*
X0322306Y0153400D01*
X0317206Y0156361D02*
X0316906Y0155800D01*
X0308506Y0155800D01*
X0301306Y0156400D02*
X0300106Y0156400D01*
X0297706Y0158800D01*
X0295006Y0156361D02*
X0294706Y0155800D01*
X0272506Y0155800D01*
X0268906Y0152200D01*
X0262906Y0146200D02*
X0239506Y0122800D01*
X0259906Y0121180D02*
X0259906Y0139638D01*
X0295006Y0151243D02*
X0295306Y0151000D01*
X0297706Y0151000D01*
X0311506Y0162400D02*
X0312106Y0161800D01*
X0316906Y0161800D01*
X0317206Y0161480D01*
X0317506Y0159400D02*
X0317206Y0158920D01*
X0317506Y0159400D02*
X0320506Y0159400D01*
X0322306Y0161200D01*
X0322306Y0163600D01*
X0325906Y0163600D02*
X0333106Y0163600D01*
X0400906Y0095800D01*
X0400906Y0086800D01*
X0401506Y0086200D01*
X0410506Y0086200D01*
X0413506Y0083200D01*
X0413506Y0082000D01*
X0413665Y0081687D01*
X0416224Y0081687D02*
X0416506Y0082000D01*
X0416506Y0089200D01*
X0417106Y0089800D01*
X0417366Y0090200D01*
X0417106Y0090400D01*
X0405106Y0090400D01*
X0404846Y0090200D01*
X0397366Y0090200D02*
X0397306Y0090400D01*
X0397306Y0095800D01*
X0395506Y0085000D02*
X0360706Y0119800D01*
X0363106Y0113800D02*
X0364906Y0113800D01*
X0407506Y0071200D01*
X0418906Y0071200D01*
X0430906Y0059200D01*
X0431106Y0058940D01*
X0431506Y0059200D01*
X0452506Y0059200D01*
X0462106Y0068800D01*
X0462149Y0068881D01*
X0464708Y0068881D02*
X0465106Y0068800D01*
X0465106Y0064000D01*
X0481306Y0047800D01*
X0484306Y0047800D01*
X0487906Y0051400D01*
X0487906Y0089800D01*
X0477706Y0100000D01*
X0484306Y0106600D01*
X0484306Y0148600D01*
X0481306Y0151600D01*
X0465706Y0151600D01*
X0465106Y0151000D01*
X0465106Y0149200D01*
X0464708Y0148881D01*
X0462706Y0148600D02*
X0462149Y0148881D01*
X0462706Y0148600D02*
X0462706Y0142600D01*
X0463906Y0140200D02*
X0423106Y0140200D01*
X0420706Y0142600D01*
X0420706Y0185200D01*
X0421106Y0185200D01*
X0417106Y0183400D02*
X0417106Y0191200D01*
X0421106Y0195200D01*
X0422506Y0199600D02*
X0426706Y0195400D01*
X0426706Y0193600D01*
X0430906Y0189400D01*
X0432706Y0189400D01*
X0436906Y0185200D01*
X0436906Y0183400D01*
X0439306Y0181000D01*
X0442906Y0181000D01*
X0445306Y0183400D01*
X0445306Y0190600D01*
X0441106Y0194800D01*
X0441106Y0195200D01*
X0436906Y0195400D02*
X0436906Y0189400D01*
X0441106Y0185200D01*
X0456106Y0190000D02*
X0456106Y0177400D01*
X0447706Y0169000D01*
X0447706Y0164800D01*
X0426706Y0143800D01*
X0423106Y0143800D02*
X0446506Y0167200D01*
X0446506Y0196600D01*
X0449506Y0199600D01*
X0462706Y0199600D01*
X0465106Y0197200D01*
X0465106Y0195400D01*
X0471106Y0189400D01*
X0471106Y0185200D01*
X0473506Y0180400D02*
X0475306Y0180400D01*
X0495106Y0160600D01*
X0495106Y0053200D01*
X0486706Y0044800D01*
X0486706Y0014800D01*
X0481906Y0010000D01*
X0060106Y0010000D01*
X0052906Y0017200D01*
X0051106Y0017200D01*
X0056506Y0017200D02*
X0121906Y0017200D01*
X0127906Y0011200D01*
X0472906Y0011200D01*
X0477106Y0015400D01*
X0477106Y0037000D01*
X0493906Y0053800D01*
X0493906Y0157600D01*
X0480106Y0171400D01*
X0480063Y0171519D01*
X0477504Y0171519D02*
X0477106Y0172000D01*
X0477106Y0173200D01*
X0465106Y0185200D01*
X0465106Y0187000D01*
X0460906Y0191200D01*
X0458506Y0191200D01*
X0454906Y0194800D01*
X0451306Y0194800D01*
X0451106Y0195200D01*
X0436906Y0195400D02*
X0431506Y0200800D01*
X0399106Y0200800D01*
X0395506Y0197200D01*
X0395506Y0195400D01*
X0377506Y0177400D01*
X0304906Y0177400D01*
X0291706Y0190600D01*
X0078706Y0190600D01*
X0072706Y0184600D01*
X0072706Y0173200D01*
X0041506Y0142000D01*
X0040306Y0142000D01*
X0039787Y0141598D01*
X0040306Y0139600D02*
X0039787Y0139039D01*
X0040306Y0139600D02*
X0042106Y0139600D01*
X0073906Y0171400D01*
X0073906Y0184000D01*
X0079306Y0189400D01*
X0291106Y0189400D01*
X0304306Y0176200D01*
X0378106Y0176200D01*
X0396706Y0194800D01*
X0396706Y0196600D01*
X0399706Y0199600D01*
X0422506Y0199600D01*
X0417106Y0183400D02*
X0419506Y0181000D01*
X0419506Y0134800D01*
X0457906Y0096400D01*
X0457906Y0083800D01*
X0466906Y0074800D01*
X0466906Y0069400D01*
X0467267Y0068881D01*
X0469306Y0069400D02*
X0469826Y0068881D01*
X0469306Y0069400D02*
X0469306Y0074200D01*
X0459106Y0084400D01*
X0459106Y0096400D01*
X0462106Y0099400D01*
X0464506Y0101200D02*
X0459706Y0106000D01*
X0451906Y0106000D01*
X0456706Y0108400D02*
X0444706Y0120400D01*
X0444706Y0133600D01*
X0424306Y0133600D01*
X0417106Y0135400D02*
X0417106Y0147400D01*
X0417106Y0135400D02*
X0456706Y0095800D01*
X0456706Y0077800D01*
X0451306Y0072400D01*
X0451306Y0061600D01*
X0430906Y0052000D02*
X0431106Y0051460D01*
X0430906Y0052000D02*
X0424306Y0052000D01*
X0420706Y0055600D01*
X0415306Y0050200D01*
X0414846Y0050200D01*
X0414706Y0050200D01*
X0410506Y0046000D01*
X0404506Y0046000D01*
X0401106Y0045200D01*
X0404506Y0046000D02*
X0399106Y0051400D01*
X0391306Y0051400D01*
X0391106Y0051460D01*
X0390706Y0052000D01*
X0373306Y0052000D01*
X0340306Y0085000D01*
X0334906Y0085000D01*
X0334846Y0085200D01*
X0327706Y0085600D02*
X0327366Y0085200D01*
X0327706Y0085600D02*
X0334906Y0092800D01*
X0336106Y0092800D01*
X0345706Y0102400D01*
X0357106Y0102400D01*
X0357593Y0102523D01*
X0357706Y0102400D01*
X0367306Y0102400D01*
X0357706Y0103000D02*
X0357593Y0102523D01*
X0357706Y0103000D02*
X0357706Y0104800D01*
X0357593Y0105082D01*
X0357106Y0107200D02*
X0357593Y0107641D01*
X0357106Y0107200D02*
X0346906Y0107200D01*
X0341506Y0101800D01*
X0346906Y0100000D02*
X0349906Y0100000D01*
X0390706Y0059200D01*
X0391106Y0058940D01*
X0391306Y0059200D01*
X0393706Y0061600D01*
X0407506Y0061600D01*
X0408106Y0061000D01*
X0408106Y0059200D01*
X0408547Y0058713D01*
X0411106Y0058713D02*
X0411106Y0062800D01*
X0411106Y0065800D01*
X0414106Y0068800D01*
X0416506Y0068800D01*
X0420706Y0064600D01*
X0420706Y0055600D01*
X0418783Y0058713D02*
X0418306Y0058600D01*
X0416506Y0058600D01*
X0416224Y0058713D01*
X0415906Y0059200D01*
X0415906Y0065800D01*
X0415306Y0066400D01*
X0406106Y0066400D02*
X0391106Y0066400D01*
X0400306Y0056800D02*
X0402106Y0058600D01*
X0403306Y0058600D01*
X0403429Y0058713D01*
X0403906Y0058600D01*
X0405706Y0058600D01*
X0405988Y0058713D01*
X0411106Y0054400D02*
X0395506Y0054400D01*
X0394906Y0055000D01*
X0372106Y0055000D01*
X0336706Y0090400D01*
X0336106Y0090400D01*
X0325306Y0089200D02*
X0316306Y0089200D01*
X0278506Y0051400D01*
X0267106Y0051400D01*
X0265306Y0049600D01*
X0267706Y0047200D01*
X0267706Y0036400D01*
X0265306Y0034000D01*
X0262306Y0034000D01*
X0262206Y0033684D01*
X0261706Y0033400D01*
X0256306Y0028000D01*
X0241306Y0028000D01*
X0238306Y0030400D02*
X0244306Y0030400D01*
X0243106Y0034000D02*
X0244306Y0035200D01*
X0244306Y0036400D01*
X0252706Y0036400D01*
X0252706Y0047800D01*
X0256306Y0051400D01*
X0261706Y0051400D01*
X0262206Y0051598D01*
X0262306Y0052000D01*
X0265306Y0052000D01*
X0267106Y0053800D01*
X0267106Y0070000D01*
X0267366Y0070200D01*
X0264106Y0074200D02*
X0244306Y0054400D01*
X0244306Y0053200D01*
X0243106Y0052000D01*
X0240106Y0052000D01*
X0240006Y0051598D01*
X0240006Y0049039D02*
X0239506Y0049000D01*
X0234706Y0049000D01*
X0240006Y0046480D02*
X0240106Y0046600D01*
X0242506Y0046600D01*
X0247306Y0051400D01*
X0249706Y0051400D01*
X0250906Y0050200D01*
X0250906Y0047800D01*
X0246106Y0043000D01*
X0243706Y0044200D02*
X0240106Y0044200D01*
X0240006Y0043920D01*
X0239506Y0044200D01*
X0237106Y0044200D01*
X0235906Y0045400D01*
X0234706Y0045400D01*
X0232906Y0043600D02*
X0234706Y0041800D01*
X0239506Y0041800D01*
X0240006Y0041361D01*
X0240106Y0041200D01*
X0242506Y0041200D01*
X0244306Y0039400D01*
X0244306Y0036400D01*
X0243106Y0034000D02*
X0240106Y0034000D01*
X0240006Y0033684D01*
X0240006Y0036243D02*
X0239506Y0036400D01*
X0235906Y0036400D01*
X0235906Y0032800D01*
X0238306Y0030400D01*
X0237106Y0025000D02*
X0238906Y0023200D01*
X0386506Y0023200D01*
X0393706Y0030400D01*
X0456106Y0030400D01*
X0460906Y0025600D01*
X0461106Y0025200D01*
X0466906Y0025000D02*
X0460306Y0031600D01*
X0466906Y0025000D02*
X0466906Y0019600D01*
X0471106Y0015400D01*
X0471106Y0015200D01*
X0461106Y0015200D02*
X0455506Y0020800D01*
X0399106Y0020800D01*
X0394306Y0016000D01*
X0176506Y0016000D01*
X0175306Y0013600D02*
X0393706Y0013600D01*
X0399706Y0019600D01*
X0444106Y0019600D01*
X0445906Y0017800D01*
X0441106Y0025200D02*
X0441106Y0025600D01*
X0436306Y0025600D01*
X0432706Y0029200D01*
X0394306Y0029200D01*
X0385906Y0020800D01*
X0253906Y0020800D01*
X0259906Y0024400D02*
X0274306Y0038800D01*
X0274306Y0047800D01*
X0265306Y0049600D02*
X0262306Y0049600D01*
X0262206Y0049039D01*
X0261706Y0046600D02*
X0255106Y0046600D01*
X0261706Y0046600D02*
X0262206Y0046480D01*
X0262206Y0043920D02*
X0262306Y0043600D01*
X0265306Y0043600D01*
X0266506Y0042400D01*
X0266506Y0040600D01*
X0265306Y0039400D01*
X0262306Y0039400D01*
X0262206Y0038802D01*
X0262306Y0038800D01*
X0262306Y0036400D01*
X0262206Y0036243D01*
X0261706Y0036400D01*
X0252706Y0036400D01*
X0258106Y0041800D02*
X0256906Y0043000D01*
X0258106Y0041800D02*
X0261706Y0041800D01*
X0262206Y0041361D01*
X0248506Y0049000D02*
X0243706Y0044200D01*
X0240006Y0038802D02*
X0239506Y0038800D01*
X0201706Y0038800D01*
X0201706Y0037600D01*
X0201706Y0038800D02*
X0173506Y0038800D01*
X0169906Y0035200D01*
X0169846Y0035200D01*
X0164506Y0033400D02*
X0162706Y0035200D01*
X0162366Y0035200D01*
X0162106Y0035200D01*
X0162106Y0041800D01*
X0154906Y0049000D01*
X0152506Y0049000D01*
X0152206Y0049039D01*
X0152206Y0051598D02*
X0152506Y0052000D01*
X0152506Y0053800D01*
X0152206Y0054157D01*
X0152206Y0056716D02*
X0152506Y0056800D01*
X0154306Y0056800D01*
X0159706Y0062200D01*
X0163906Y0061600D02*
X0163906Y0056800D01*
X0164506Y0056200D01*
X0170506Y0056200D01*
X0171106Y0056800D01*
X0171106Y0065200D01*
X0189106Y0083200D01*
X0192106Y0083200D01*
X0192206Y0083684D01*
X0192706Y0083800D01*
X0195106Y0083800D01*
X0201106Y0089800D01*
X0201106Y0098200D01*
X0198106Y0101200D01*
X0192706Y0101200D01*
X0192206Y0101598D01*
X0192706Y0103600D02*
X0192206Y0104157D01*
X0192706Y0103600D02*
X0199906Y0103600D01*
X0205306Y0098200D01*
X0205106Y0098200D01*
X0206306Y0095800D02*
X0206306Y0074800D01*
X0220906Y0065200D01*
X0222366Y0065200D01*
X0226306Y0062200D02*
X0226306Y0080200D01*
X0227506Y0081400D01*
X0226906Y0081400D01*
X0209906Y0093400D01*
X0207506Y0095200D02*
X0207506Y0077200D01*
X0217306Y0072400D01*
X0206306Y0074800D02*
X0184306Y0074800D01*
X0180706Y0079600D02*
X0172906Y0071800D01*
X0169306Y0071800D01*
X0164506Y0067000D02*
X0164506Y0077800D01*
X0169906Y0083200D01*
X0170006Y0083684D01*
X0170006Y0086243D02*
X0170506Y0086200D01*
X0172906Y0086200D01*
X0178306Y0080800D01*
X0180706Y0079600D02*
X0180706Y0085000D01*
X0183706Y0088000D01*
X0183706Y0090400D01*
X0189706Y0096400D01*
X0192106Y0096400D01*
X0192206Y0096480D01*
X0192706Y0094000D02*
X0192206Y0093920D01*
X0192706Y0094000D02*
X0195106Y0094000D01*
X0197506Y0096400D01*
X0192206Y0091361D02*
X0192106Y0091000D01*
X0188506Y0091000D01*
X0184306Y0086800D01*
X0206306Y0095800D02*
X0211706Y0101200D01*
X0234706Y0101200D01*
X0235006Y0101598D01*
X0234706Y0099400D02*
X0235006Y0099039D01*
X0234706Y0099400D02*
X0211706Y0099400D01*
X0207506Y0095200D01*
X0212306Y0096400D02*
X0218506Y0095200D01*
X0217366Y0095200D01*
X0224846Y0095200D02*
X0229906Y0095200D01*
X0229906Y0091000D01*
X0231706Y0089200D01*
X0234706Y0089200D01*
X0235006Y0086243D02*
X0234706Y0086200D01*
X0232306Y0086200D01*
X0227506Y0081400D01*
X0235306Y0094000D02*
X0237706Y0094000D01*
X0238306Y0094600D01*
X0246106Y0090400D02*
X0252106Y0096400D01*
X0256906Y0096400D01*
X0257206Y0096480D01*
X0257506Y0094000D02*
X0257206Y0093920D01*
X0256906Y0093400D01*
X0253906Y0093400D01*
X0253306Y0092800D01*
X0253306Y0088000D01*
X0257206Y0091361D02*
X0257506Y0091000D01*
X0262306Y0091000D01*
X0263506Y0094000D02*
X0257506Y0094000D01*
X0263506Y0094000D02*
X0274306Y0104800D01*
X0274846Y0105200D01*
X0277306Y0109600D02*
X0271906Y0109600D01*
X0267706Y0105400D01*
X0267366Y0105200D01*
X0267106Y0104800D01*
X0261706Y0099400D01*
X0257506Y0099400D01*
X0257206Y0099039D01*
X0268706Y0090200D02*
X0265306Y0086800D01*
X0261106Y0086800D01*
X0268706Y0090200D02*
X0297366Y0090200D01*
X0302506Y0100600D01*
X0305506Y0100600D01*
X0306106Y0101200D01*
X0306106Y0101460D01*
X0306106Y0100200D01*
X0311106Y0095200D01*
X0310106Y0090200D02*
X0304846Y0090200D01*
X0310106Y0090200D02*
X0319906Y0100000D01*
X0322306Y0098800D02*
X0322306Y0101200D01*
X0328306Y0107200D01*
X0334306Y0107200D01*
X0334619Y0107641D01*
X0334619Y0110200D02*
X0318106Y0110200D01*
X0313306Y0105400D01*
X0309706Y0105400D02*
X0316906Y0112600D01*
X0334306Y0112600D01*
X0334619Y0112759D01*
X0334619Y0115318D02*
X0334906Y0115600D01*
X0353506Y0115600D01*
X0357106Y0112600D02*
X0348706Y0112600D01*
X0325306Y0089200D01*
X0322906Y0097600D02*
X0330106Y0097600D01*
X0327106Y0102400D02*
X0324706Y0100000D01*
X0322306Y0098800D02*
X0297706Y0074200D01*
X0271306Y0074200D01*
X0271306Y0066400D01*
X0274306Y0063400D01*
X0274306Y0053800D01*
X0262306Y0054400D02*
X0262206Y0054157D01*
X0261706Y0053800D01*
X0259306Y0053800D01*
X0258106Y0052600D01*
X0252106Y0052600D01*
X0262306Y0054400D02*
X0262306Y0056200D01*
X0262206Y0056716D01*
X0274846Y0070200D02*
X0274906Y0070600D01*
X0295906Y0070600D01*
X0322906Y0097600D01*
X0327106Y0102400D02*
X0334306Y0102400D01*
X0334619Y0102523D01*
X0334906Y0103000D01*
X0334906Y0104800D01*
X0334619Y0105082D01*
X0334906Y0115600D02*
X0334906Y0117400D01*
X0334619Y0117877D01*
X0357106Y0112600D02*
X0357593Y0112759D01*
X0395506Y0085000D02*
X0409306Y0085000D01*
X0411106Y0083200D01*
X0411106Y0081687D01*
X0411106Y0080200D01*
X0413506Y0077800D01*
X0433906Y0077800D01*
X0441706Y0085600D01*
X0454306Y0085600D01*
X0461506Y0085600D02*
X0462106Y0086200D01*
X0462106Y0091000D01*
X0462149Y0091519D01*
X0464506Y0091600D02*
X0464708Y0091519D01*
X0464506Y0091600D02*
X0464506Y0101200D01*
X0464506Y0103000D02*
X0464506Y0108400D01*
X0464708Y0108881D01*
X0462706Y0109000D02*
X0462149Y0108881D01*
X0462706Y0109000D02*
X0462706Y0117400D01*
X0463906Y0119800D02*
X0453106Y0119800D01*
X0447106Y0125800D01*
X0447106Y0136600D01*
X0444706Y0137800D02*
X0445906Y0139000D01*
X0464506Y0139000D01*
X0469306Y0143800D01*
X0469306Y0148600D01*
X0469826Y0148881D01*
X0467267Y0148881D02*
X0466906Y0148600D01*
X0466906Y0143200D01*
X0463906Y0140200D01*
X0459106Y0142600D02*
X0459106Y0149800D01*
X0464506Y0155200D01*
X0464506Y0171400D01*
X0464708Y0171519D01*
X0462149Y0171519D02*
X0462106Y0171400D01*
X0455506Y0164800D01*
X0455506Y0142600D01*
X0451906Y0142600D02*
X0451906Y0165400D01*
X0460906Y0174400D01*
X0471106Y0174400D01*
X0472306Y0173200D01*
X0472306Y0172000D01*
X0472385Y0171519D01*
X0474706Y0172000D02*
X0474944Y0171519D01*
X0474706Y0172000D02*
X0474706Y0173200D01*
X0462706Y0185200D01*
X0461106Y0185200D01*
X0467267Y0171519D02*
X0467506Y0171400D01*
X0467506Y0164800D01*
X0479506Y0152800D01*
X0481906Y0152800D01*
X0486706Y0148000D01*
X0486706Y0118000D01*
X0489106Y0116800D02*
X0486706Y0114400D01*
X0489106Y0116800D02*
X0489106Y0147400D01*
X0469906Y0166600D01*
X0469906Y0166000D01*
X0469906Y0166600D02*
X0469906Y0171400D01*
X0469826Y0171519D01*
X0450706Y0168400D02*
X0450706Y0166000D01*
X0447106Y0162400D01*
X0447106Y0142600D01*
X0444706Y0137800D02*
X0444706Y0133600D01*
X0449506Y0127000D02*
X0450106Y0127000D01*
X0458506Y0135400D01*
X0462106Y0131800D01*
X0462149Y0131519D01*
X0464506Y0131200D02*
X0464708Y0131519D01*
X0464506Y0131200D02*
X0464506Y0130000D01*
X0459106Y0124600D01*
X0459106Y0122200D01*
X0463906Y0119800D02*
X0466906Y0116800D01*
X0466906Y0109000D01*
X0467267Y0108881D01*
X0469306Y0108400D02*
X0469826Y0108881D01*
X0469306Y0108400D02*
X0469306Y0106600D01*
X0466906Y0104200D01*
X0464506Y0103000D02*
X0467506Y0100000D01*
X0477706Y0100000D01*
X0474706Y0102400D02*
X0474706Y0104800D01*
X0472906Y0106600D01*
X0472906Y0108400D01*
X0472385Y0108881D01*
X0472906Y0109000D01*
X0472906Y0111400D01*
X0481906Y0120400D01*
X0481906Y0133600D01*
X0472906Y0142600D01*
X0472906Y0148600D01*
X0472385Y0148881D01*
X0477504Y0148881D02*
X0477706Y0149200D01*
X0479506Y0149200D01*
X0480063Y0148881D01*
X0480106Y0148600D01*
X0483106Y0145600D01*
X0483106Y0119800D01*
X0480106Y0116800D01*
X0480106Y0115000D01*
X0480106Y0109000D01*
X0480063Y0108881D01*
X0479506Y0109000D01*
X0477706Y0109000D01*
X0477504Y0108881D01*
X0470506Y0113200D02*
X0470506Y0115000D01*
X0467506Y0118000D01*
X0467506Y0131200D01*
X0467267Y0131519D01*
X0469826Y0131519D02*
X0469906Y0131200D01*
X0469906Y0122200D01*
X0471106Y0121000D01*
X0471106Y0118000D01*
X0472306Y0123400D02*
X0472306Y0131200D01*
X0472385Y0131519D01*
X0474706Y0131800D02*
X0474944Y0131519D01*
X0474706Y0131800D02*
X0474706Y0133000D01*
X0473506Y0134200D01*
X0472906Y0134200D01*
X0471706Y0135400D01*
X0470506Y0140200D02*
X0477106Y0133600D01*
X0477106Y0131800D01*
X0477504Y0131519D01*
X0479506Y0131200D02*
X0480063Y0131519D01*
X0479506Y0131200D02*
X0479506Y0127600D01*
X0491506Y0119200D02*
X0491506Y0053200D01*
X0477106Y0038800D01*
X0467506Y0038800D01*
X0482506Y0050200D02*
X0482506Y0070600D01*
X0480106Y0073000D01*
X0480106Y0091000D01*
X0480063Y0091519D01*
X0477504Y0091519D02*
X0477106Y0091000D01*
X0477106Y0076600D01*
X0477706Y0073000D02*
X0477706Y0069400D01*
X0477504Y0068881D01*
X0477706Y0068800D01*
X0479506Y0068800D01*
X0480063Y0068881D01*
X0472906Y0069400D02*
X0472385Y0068881D01*
X0472906Y0069400D02*
X0472906Y0086800D01*
X0473506Y0087400D01*
X0472306Y0089800D02*
X0469906Y0087400D01*
X0472306Y0089800D02*
X0472306Y0091000D01*
X0472385Y0091519D01*
X0469906Y0091600D02*
X0469826Y0091519D01*
X0469906Y0091600D02*
X0469906Y0093400D01*
X0472306Y0095800D01*
X0475306Y0093400D02*
X0476506Y0094600D01*
X0481306Y0094600D01*
X0485506Y0090400D01*
X0485506Y0052600D01*
X0454306Y0079000D02*
X0451906Y0076600D01*
X0404506Y0076600D01*
X0399706Y0081400D01*
X0399706Y0082600D01*
X0418783Y0081687D02*
X0418906Y0082000D01*
X0418906Y0084400D01*
X0424306Y0089800D01*
X0424846Y0090200D01*
X0424306Y0090400D01*
X0348706Y0166000D01*
X0317506Y0166000D01*
X0317206Y0166598D01*
X0316906Y0164200D02*
X0317206Y0164039D01*
X0316906Y0164200D02*
X0314506Y0164200D01*
X0313306Y0165400D01*
X0313306Y0170200D01*
X0299506Y0177400D02*
X0288706Y0188200D01*
X0105706Y0188200D01*
X0100906Y0183400D01*
X0100906Y0176800D01*
X0072706Y0148600D01*
X0072706Y0146800D01*
X0062506Y0144400D02*
X0062425Y0144157D01*
X0062506Y0143800D01*
X0062506Y0142000D01*
X0062425Y0141598D01*
X0061906Y0141400D01*
X0060706Y0141400D01*
X0059506Y0140200D01*
X0059506Y0135400D01*
X0052306Y0128200D01*
X0052306Y0125200D01*
X0061906Y0115600D01*
X0061906Y0114400D01*
X0062425Y0114157D01*
X0062506Y0113800D01*
X0062506Y0112000D01*
X0062425Y0111598D01*
X0062425Y0106480D02*
X0062506Y0106000D01*
X0069106Y0106000D01*
X0069106Y0101800D01*
X0066706Y0099400D01*
X0063706Y0098800D02*
X0069106Y0093400D01*
X0069106Y0068800D01*
X0062506Y0068800D01*
X0062425Y0068802D01*
X0062425Y0066243D02*
X0061906Y0065800D01*
X0061306Y0065200D01*
X0053506Y0073000D01*
X0053506Y0079000D01*
X0061906Y0087400D01*
X0061906Y0095800D01*
X0062425Y0096243D01*
X0062506Y0098800D02*
X0062425Y0098802D01*
X0062506Y0098800D02*
X0063706Y0098800D01*
X0062425Y0101361D02*
X0061906Y0101200D01*
X0056506Y0101200D01*
X0043906Y0088600D01*
X0033706Y0088600D01*
X0030706Y0085600D01*
X0021106Y0085600D01*
X0021106Y0085200D01*
X0029506Y0088000D02*
X0029506Y0089800D01*
X0038506Y0098800D01*
X0039706Y0098800D01*
X0039787Y0098802D01*
X0040306Y0101200D02*
X0039787Y0101361D01*
X0040306Y0101200D02*
X0041506Y0101200D01*
X0045706Y0097000D01*
X0045706Y0094000D01*
X0042706Y0091000D01*
X0038506Y0091000D01*
X0041506Y0086200D02*
X0034906Y0086200D01*
X0039787Y0084157D02*
X0040306Y0083800D01*
X0041506Y0083800D01*
X0051106Y0074200D01*
X0051106Y0052600D01*
X0052306Y0051400D01*
X0052306Y0032800D01*
X0055906Y0029200D01*
X0058306Y0029200D01*
X0056506Y0026800D02*
X0051106Y0032200D01*
X0051106Y0050800D01*
X0049306Y0052600D01*
X0033706Y0052600D01*
X0021106Y0065200D01*
X0016906Y0070000D02*
X0013906Y0073000D01*
X0013906Y0086800D01*
X0030706Y0103600D01*
X0039706Y0103600D01*
X0039787Y0103920D01*
X0040306Y0104200D01*
X0046306Y0104200D01*
X0051106Y0109000D01*
X0051106Y0128800D01*
X0054106Y0131800D01*
X0054106Y0139600D01*
X0076906Y0162400D01*
X0076906Y0179800D01*
X0077366Y0180200D01*
X0084846Y0180200D02*
X0085306Y0180400D01*
X0094306Y0180400D01*
X0094306Y0187000D01*
X0094306Y0180400D02*
X0097306Y0180400D01*
X0097366Y0180200D01*
X0104846Y0180200D02*
X0105106Y0180400D01*
X0115906Y0180400D01*
X0116106Y0180200D01*
X0106306Y0195400D02*
X0378106Y0195400D01*
X0384706Y0188800D01*
X0387706Y0191200D02*
X0381106Y0197800D01*
X0105106Y0197800D01*
X0102706Y0195400D01*
X0085306Y0199000D02*
X0382906Y0199000D01*
X0387106Y0194800D01*
X0391306Y0194800D01*
X0388306Y0197200D02*
X0385306Y0200200D01*
X0079306Y0200200D01*
X0035506Y0156400D01*
X0035506Y0126400D01*
X0045106Y0116800D01*
X0045106Y0114400D01*
X0046906Y0112000D02*
X0040306Y0112000D01*
X0039787Y0111598D01*
X0039706Y0109600D02*
X0039787Y0109039D01*
X0039706Y0109600D02*
X0037306Y0109600D01*
X0035506Y0111400D01*
X0034306Y0113800D02*
X0012706Y0092200D01*
X0012706Y0042400D01*
X0042106Y0013000D01*
X0043306Y0013000D01*
X0045706Y0021400D02*
X0040306Y0021400D01*
X0039787Y0021243D01*
X0039787Y0023802D02*
X0039706Y0024400D01*
X0037906Y0024400D01*
X0036706Y0023200D01*
X0037906Y0024400D02*
X0030706Y0031600D01*
X0030706Y0032800D01*
X0036706Y0032800D02*
X0037906Y0031600D01*
X0039706Y0031600D01*
X0039787Y0031480D01*
X0039706Y0029200D02*
X0039787Y0028920D01*
X0039706Y0029200D02*
X0037906Y0029200D01*
X0013906Y0053200D01*
X0013906Y0067000D01*
X0016906Y0070000D01*
X0018106Y0071200D01*
X0031306Y0071200D01*
X0034306Y0074200D01*
X0039706Y0074200D01*
X0039787Y0073920D01*
X0039706Y0071800D02*
X0035506Y0071800D01*
X0039706Y0071800D02*
X0039787Y0071361D01*
X0039787Y0068802D02*
X0039706Y0068800D01*
X0038506Y0068800D01*
X0034906Y0065200D01*
X0034906Y0055000D01*
X0038506Y0055000D02*
X0038506Y0064600D01*
X0039706Y0065800D01*
X0039787Y0066243D01*
X0042106Y0064600D02*
X0042706Y0065200D01*
X0042706Y0074800D01*
X0041506Y0076000D01*
X0040306Y0076000D01*
X0039787Y0076480D01*
X0039787Y0079039D02*
X0039706Y0079600D01*
X0027106Y0079600D01*
X0039787Y0081598D02*
X0040306Y0081400D01*
X0041506Y0081400D01*
X0045706Y0077200D01*
X0045706Y0055000D01*
X0042106Y0055000D02*
X0042106Y0064600D01*
X0053506Y0069400D02*
X0053506Y0033400D01*
X0055306Y0031600D01*
X0061906Y0031600D01*
X0062425Y0031480D01*
X0062506Y0029200D02*
X0062425Y0028920D01*
X0062506Y0029200D02*
X0064306Y0029200D01*
X0075706Y0040600D01*
X0075706Y0065200D01*
X0074559Y0066347D01*
X0074434Y0066347D01*
X0074381Y0066400D01*
X0066706Y0066400D01*
X0069106Y0068800D02*
X0076906Y0068800D01*
X0077366Y0070200D01*
X0076906Y0070000D01*
X0076906Y0068800D01*
X0076906Y0037000D01*
X0064306Y0024400D01*
X0062506Y0024400D01*
X0062425Y0023802D01*
X0061906Y0021400D02*
X0060706Y0021400D01*
X0057706Y0024400D01*
X0056506Y0026800D02*
X0061906Y0026800D01*
X0062425Y0026361D01*
X0061906Y0021400D02*
X0062425Y0021243D01*
X0049906Y0025600D02*
X0045706Y0021400D01*
X0044506Y0023800D02*
X0048706Y0028000D01*
X0048706Y0032200D01*
X0046906Y0034000D01*
X0040306Y0034000D01*
X0039787Y0034039D01*
X0039787Y0036598D02*
X0040306Y0037000D01*
X0041506Y0037000D01*
X0047506Y0043000D01*
X0047506Y0049000D01*
X0048706Y0051400D02*
X0049906Y0050200D01*
X0049906Y0025600D01*
X0046306Y0031000D02*
X0042106Y0026800D01*
X0040306Y0026800D01*
X0039787Y0026361D01*
X0036706Y0032800D02*
X0036706Y0043600D01*
X0042106Y0049000D01*
X0039706Y0051400D02*
X0038506Y0050200D01*
X0039706Y0051400D02*
X0048706Y0051400D01*
X0055906Y0059800D02*
X0061306Y0065200D01*
X0062425Y0071361D02*
X0061906Y0071800D01*
X0057706Y0071800D01*
X0055906Y0073600D01*
X0055906Y0077800D01*
X0058306Y0074800D02*
X0059506Y0074800D01*
X0060706Y0076000D01*
X0061906Y0076000D01*
X0062425Y0076480D01*
X0062425Y0073920D02*
X0062506Y0073600D01*
X0064306Y0073600D01*
X0066706Y0071200D01*
X0084846Y0070200D02*
X0085306Y0070000D01*
X0085306Y0055600D01*
X0122506Y0018400D01*
X0231706Y0018400D01*
X0235906Y0022600D01*
X0237106Y0025000D02*
X0196306Y0025000D01*
X0198706Y0034600D02*
X0184906Y0020800D01*
X0162106Y0020800D01*
X0160906Y0022000D01*
X0160906Y0028600D01*
X0158506Y0031000D01*
X0158506Y0038200D01*
X0159706Y0039400D01*
X0159706Y0041800D01*
X0155506Y0046000D01*
X0152506Y0046000D01*
X0152206Y0046480D01*
X0152206Y0043920D02*
X0149506Y0043600D01*
X0148306Y0044800D01*
X0148306Y0054400D01*
X0130306Y0054400D01*
X0130006Y0054157D01*
X0130306Y0054400D02*
X0130306Y0056200D01*
X0130006Y0056716D01*
X0130006Y0051598D02*
X0129706Y0051400D01*
X0121306Y0051400D01*
X0121106Y0051460D01*
X0120706Y0051400D01*
X0118306Y0049000D01*
X0111106Y0049000D01*
X0111106Y0048940D01*
X0111106Y0041460D02*
X0111106Y0041200D01*
X0118906Y0041200D01*
X0120706Y0039400D01*
X0121106Y0038940D01*
X0121306Y0038800D01*
X0129706Y0038800D01*
X0130006Y0038802D01*
X0130306Y0041200D02*
X0130006Y0041361D01*
X0130306Y0041800D01*
X0130306Y0043600D01*
X0130006Y0043920D01*
X0130306Y0041200D02*
X0148306Y0041200D01*
X0148306Y0042400D01*
X0149506Y0043600D01*
X0151906Y0043600D01*
X0152206Y0043920D01*
X0152206Y0041361D02*
X0152506Y0041200D01*
X0156706Y0041200D01*
X0157306Y0040600D01*
X0152506Y0038800D02*
X0152206Y0038802D01*
X0152506Y0038800D02*
X0152506Y0036400D01*
X0152206Y0036243D01*
X0151906Y0035800D01*
X0148906Y0035800D01*
X0148306Y0035200D01*
X0148306Y0041200D01*
X0145906Y0036400D02*
X0130306Y0036400D01*
X0130006Y0036243D01*
X0130306Y0034000D02*
X0130006Y0033684D01*
X0130306Y0034000D02*
X0147106Y0034000D01*
X0148306Y0035200D01*
X0152206Y0033684D02*
X0152506Y0033400D01*
X0152506Y0031600D01*
X0121306Y0031600D01*
X0121106Y0031460D01*
X0127906Y0014800D02*
X0174106Y0014800D01*
X0175306Y0013600D01*
X0164846Y0025200D02*
X0164506Y0025600D01*
X0164506Y0033400D01*
X0157306Y0025600D02*
X0152506Y0030400D01*
X0152506Y0031600D01*
X0157306Y0025600D02*
X0157366Y0025200D01*
X0177706Y0047200D02*
X0211306Y0047200D01*
X0217306Y0053200D01*
X0228106Y0042400D01*
X0228706Y0035200D02*
X0239506Y0024400D01*
X0259906Y0024400D01*
X0235906Y0036400D02*
X0234106Y0036400D01*
X0228706Y0035200D02*
X0206506Y0035200D01*
X0217306Y0053200D02*
X0226306Y0062200D01*
X0264106Y0074200D02*
X0271306Y0074200D01*
X0271106Y0085200D02*
X0271106Y0090200D01*
X0281506Y0105400D02*
X0277306Y0109600D01*
X0281506Y0105400D02*
X0282106Y0105400D01*
X0174846Y0060200D02*
X0174706Y0059800D01*
X0174706Y0058600D01*
X0170506Y0054400D01*
X0167366Y0060200D02*
X0166906Y0060400D01*
X0164506Y0062800D01*
X0163906Y0061600D02*
X0156106Y0069400D01*
X0156106Y0091460D01*
X0171706Y0112000D02*
X0080506Y0112000D01*
X0077506Y0109000D01*
X0073906Y0106000D02*
X0120706Y0059200D01*
X0121106Y0058940D01*
X0120106Y0062800D02*
X0132706Y0062800D01*
X0138706Y0056800D01*
X0145906Y0052000D02*
X0143506Y0049600D01*
X0130306Y0049600D01*
X0130006Y0049039D01*
X0120106Y0062800D02*
X0059506Y0123400D01*
X0059506Y0127600D01*
X0060706Y0128800D01*
X0061906Y0128800D01*
X0062425Y0128802D01*
X0062506Y0131200D02*
X0062425Y0131361D01*
X0061906Y0131200D01*
X0060706Y0131200D01*
X0055906Y0126400D01*
X0054706Y0126400D01*
X0048706Y0126400D02*
X0040306Y0126400D01*
X0039787Y0126243D01*
X0039787Y0128802D02*
X0039706Y0129400D01*
X0037906Y0129400D01*
X0036706Y0130600D01*
X0036706Y0154000D01*
X0079306Y0196600D01*
X0085306Y0199000D02*
X0040306Y0154000D01*
X0040306Y0144400D01*
X0039787Y0144157D01*
X0040306Y0136600D02*
X0039787Y0136480D01*
X0040306Y0136600D02*
X0051106Y0136600D01*
X0051706Y0137200D01*
X0049906Y0133600D02*
X0051106Y0132400D01*
X0049906Y0133600D02*
X0040306Y0133600D01*
X0039787Y0133920D01*
X0039787Y0131361D02*
X0040306Y0131200D01*
X0046306Y0131200D01*
X0062506Y0131200D02*
X0064306Y0131200D01*
X0067906Y0127600D01*
X0104506Y0127600D01*
X0113506Y0136600D01*
X0112306Y0137200D02*
X0105106Y0130000D01*
X0081706Y0130000D01*
X0076106Y0130200D02*
X0062425Y0133920D01*
X0062506Y0144400D02*
X0086506Y0144400D01*
X0112306Y0149800D02*
X0112306Y0137200D01*
X0112306Y0149800D02*
X0112366Y0150200D01*
X0129106Y0155800D02*
X0129619Y0155318D01*
X0149506Y0133600D02*
X0164506Y0133600D01*
X0145906Y0131200D02*
X0135706Y0131200D01*
X0135106Y0130600D01*
X0134846Y0130200D01*
X0073906Y0106000D02*
X0069106Y0106000D01*
X0066706Y0103000D02*
X0066106Y0103600D01*
X0062506Y0103600D01*
X0062425Y0103920D01*
X0048706Y0110200D02*
X0047506Y0110200D01*
X0043906Y0106600D01*
X0040306Y0106600D01*
X0039787Y0106480D01*
X0046906Y0112000D02*
X0048706Y0113800D01*
X0039787Y0114157D02*
X0039706Y0113800D01*
X0034306Y0113800D01*
X0041506Y0086200D02*
X0046306Y0081400D01*
X0052306Y0081400D01*
X0062425Y0084157D02*
X0062506Y0084400D01*
X0066706Y0084400D01*
X0055906Y0059800D02*
X0055906Y0034600D01*
X0062425Y0036598D02*
X0062506Y0037000D01*
X0062506Y0038800D01*
X0062425Y0039157D01*
X0062506Y0039400D01*
X0062506Y0041200D01*
X0063706Y0042400D01*
X0059506Y0041800D02*
X0068506Y0050800D01*
X0040306Y0042400D02*
X0040306Y0039400D01*
X0039787Y0039157D01*
X0292906Y0193000D02*
X0306106Y0179800D01*
X0292906Y0193000D02*
X0082906Y0193000D01*
X0402706Y0052000D02*
X0405106Y0052000D01*
X0406906Y0050200D01*
X0407366Y0050200D01*
X0411106Y0054400D02*
X0413506Y0056800D01*
X0413506Y0058600D01*
X0413665Y0058713D01*
X0432706Y0080200D02*
X0432706Y0086800D01*
X0447106Y0101200D01*
X0459106Y0106600D02*
X0459106Y0117400D01*
X0459106Y0106600D02*
X0459706Y0106000D01*
X0468706Y0097600D02*
X0467506Y0096400D01*
X0467506Y0091600D01*
X0467267Y0091519D01*
X0466906Y0091000D01*
X0466906Y0089800D01*
X0465106Y0088000D01*
X0465106Y0086800D01*
X0474944Y0091519D02*
X0475306Y0091600D01*
X0475306Y0093400D01*
X0458506Y0135400D02*
X0457306Y0136600D01*
X0469306Y0140200D02*
X0470506Y0140200D01*
X0476106Y0145020D02*
X0480626Y0140500D01*
X0480717Y0140500D01*
D21*
X0480717Y0140500D03*
X0476106Y0145020D03*
X0469306Y0140200D03*
X0462706Y0142600D03*
X0459106Y0142600D03*
X0455506Y0142600D03*
X0451906Y0142600D03*
X0447106Y0142600D03*
X0447106Y0136600D03*
X0457306Y0136600D03*
X0471706Y0135400D03*
X0479506Y0127600D03*
X0472306Y0123400D03*
X0471106Y0118000D03*
X0470506Y0113200D03*
X0462706Y0117400D03*
X0459106Y0117400D03*
X0459106Y0122200D03*
X0449506Y0127000D03*
X0424306Y0133600D03*
X0423106Y0143800D03*
X0426706Y0143800D03*
X0417106Y0147400D03*
X0450706Y0168400D03*
X0469906Y0166000D03*
X0473506Y0180400D03*
X0456106Y0190000D03*
X0391306Y0194800D03*
X0388306Y0197200D03*
X0387706Y0191200D03*
X0384706Y0188800D03*
X0325906Y0163600D03*
X0322306Y0163600D03*
X0322306Y0153400D03*
X0317506Y0145600D03*
X0304906Y0142000D03*
X0289906Y0142269D03*
X0308506Y0155800D03*
X0301306Y0156400D03*
X0289906Y0166000D03*
X0281106Y0165989D03*
X0270106Y0166000D03*
X0268306Y0171400D03*
X0264706Y0171400D03*
X0257506Y0169600D03*
X0264106Y0160000D03*
X0268906Y0152200D03*
X0262906Y0146200D03*
X0257506Y0152200D03*
X0245506Y0146200D03*
X0240706Y0151000D03*
X0235906Y0153400D03*
X0244306Y0159400D03*
X0224506Y0159400D03*
X0222706Y0165400D03*
X0203506Y0161200D03*
X0190906Y0158800D03*
X0186106Y0157600D03*
X0180106Y0158800D03*
X0184306Y0165400D03*
X0169906Y0160000D03*
X0169306Y0169000D03*
X0156706Y0156400D03*
X0137506Y0154000D03*
X0133906Y0150400D03*
X0124306Y0154600D03*
X0096106Y0145200D03*
X0091106Y0140200D03*
X0072706Y0146800D03*
X0066285Y0140200D03*
X0070306Y0137200D03*
X0076106Y0130200D03*
X0081706Y0130000D03*
X0063706Y0122800D03*
X0054706Y0126400D03*
X0048706Y0126400D03*
X0046306Y0131200D03*
X0051106Y0132400D03*
X0051706Y0137200D03*
X0048706Y0113800D03*
X0045106Y0114400D03*
X0048706Y0110200D03*
X0043906Y0106600D03*
X0035506Y0111400D03*
X0045706Y0094000D03*
X0038506Y0091000D03*
X0034906Y0086200D03*
X0029506Y0088000D03*
X0027106Y0079600D03*
X0035506Y0071800D03*
X0053506Y0069400D03*
X0058306Y0074800D03*
X0055906Y0077800D03*
X0052306Y0081400D03*
X0066706Y0084400D03*
X0066706Y0071200D03*
X0066706Y0066400D03*
X0045706Y0055000D03*
X0042106Y0055000D03*
X0038506Y0055000D03*
X0034906Y0055000D03*
X0038506Y0050200D03*
X0042106Y0049000D03*
X0047506Y0049000D03*
X0040306Y0042400D03*
X0030706Y0032800D03*
X0046306Y0031000D03*
X0055906Y0034600D03*
X0058306Y0029200D03*
X0057706Y0024400D03*
X0056506Y0017200D03*
X0051106Y0017200D03*
X0043306Y0013000D03*
X0044506Y0023800D03*
X0059506Y0041800D03*
X0063706Y0042400D03*
X0068506Y0050800D03*
X0091906Y0045400D03*
X0093706Y0050800D03*
X0138706Y0056800D03*
X0145906Y0052000D03*
X0157306Y0040600D03*
X0145906Y0036400D03*
X0177706Y0047200D03*
X0201706Y0037600D03*
X0198706Y0034600D03*
X0206506Y0035200D03*
X0196306Y0025000D03*
X0176506Y0016000D03*
X0127906Y0014800D03*
X0159706Y0062200D03*
X0164506Y0067000D03*
X0170506Y0069400D03*
X0184306Y0074800D03*
X0178306Y0080800D03*
X0186706Y0085600D03*
X0181306Y0091000D03*
X0175906Y0094000D03*
X0175306Y0098800D03*
X0158506Y0103600D03*
X0171706Y0112000D03*
X0197506Y0096400D03*
X0205106Y0098200D03*
X0212306Y0096400D03*
X0209906Y0093400D03*
X0217906Y0104200D03*
X0229906Y0112000D03*
X0229906Y0116800D03*
X0237106Y0119200D03*
X0239506Y0122800D03*
X0248506Y0112000D03*
X0243706Y0107200D03*
X0252106Y0103600D03*
X0239995Y0102068D03*
X0246106Y0090400D03*
X0262306Y0091000D03*
X0271106Y0085200D03*
X0311106Y0095200D03*
X0319906Y0100000D03*
X0324706Y0100000D03*
X0330106Y0097600D03*
X0341506Y0101800D03*
X0346906Y0100000D03*
X0336106Y0090400D03*
X0313306Y0105400D03*
X0311506Y0110800D03*
X0304906Y0113800D03*
X0304906Y0117400D03*
X0304906Y0121000D03*
X0298306Y0120400D03*
X0289906Y0125200D03*
X0259906Y0121180D03*
X0259906Y0139638D03*
X0299506Y0177400D03*
X0306106Y0179800D03*
X0217306Y0179800D03*
X0213706Y0176200D03*
X0181906Y0151000D03*
X0176506Y0145600D03*
X0167506Y0140200D03*
X0157306Y0130000D03*
X0150706Y0136000D03*
X0145906Y0131200D03*
X0113506Y0109600D03*
X0077506Y0109000D03*
X0066706Y0103000D03*
X0066706Y0099400D03*
X0217306Y0072400D03*
X0252106Y0052600D03*
X0248506Y0049000D03*
X0255106Y0046600D03*
X0256906Y0043000D03*
X0246106Y0043000D03*
X0234706Y0045400D03*
X0234706Y0049000D03*
X0228106Y0042400D03*
X0234106Y0036400D03*
X0244306Y0030400D03*
X0241306Y0028000D03*
X0235906Y0022600D03*
X0253906Y0020800D03*
X0274306Y0047800D03*
X0274306Y0053800D03*
X0367306Y0102400D03*
X0363106Y0113800D03*
X0353506Y0115600D03*
X0397306Y0095800D03*
X0399706Y0082600D03*
X0406106Y0066400D03*
X0411106Y0062800D03*
X0415306Y0066400D03*
X0400306Y0056800D03*
X0402706Y0052000D03*
X0401106Y0045200D03*
X0391106Y0066400D03*
X0432706Y0080200D03*
X0454306Y0079000D03*
X0454306Y0085600D03*
X0461506Y0085600D03*
X0465106Y0086800D03*
X0469906Y0087400D03*
X0473506Y0087400D03*
X0472306Y0095800D03*
X0468706Y0097600D03*
X0462106Y0099400D03*
X0466906Y0104200D03*
X0474706Y0102400D03*
X0456706Y0108400D03*
X0451906Y0106000D03*
X0447106Y0101200D03*
X0480106Y0115000D03*
X0486706Y0114400D03*
X0486706Y0118000D03*
X0491506Y0119200D03*
X0477106Y0076600D03*
X0477706Y0073000D03*
X0465106Y0060400D03*
X0451306Y0061600D03*
X0482506Y0050200D03*
X0485506Y0052600D03*
X0467506Y0038800D03*
X0445906Y0017800D03*
X0146106Y0180200D03*
X0106306Y0195400D03*
X0102706Y0195400D03*
X0094306Y0187000D03*
X0082906Y0193000D03*
X0079306Y0196600D03*
M02*
